<svg width="50" height="50" viewBox="0 0 50 50" fill="none" xmlns="http://www.w3.org/2000/svg">
<g clip-path="url(#clip0_865_5158)">
<path d="M27.1148 7.20462C28.4562 8.10862 29.5299 9.19912 30.0464 10.7486C30.1758 12.3989 29.9541 13.7559 29.1558 15.2017C28.4811 15.8435 27.9044 16.2727 27.0777 16.6861C26.9386 17.4538 26.9386 17.4538 26.8921 18.3374C26.8699 18.6378 26.8477 18.9383 26.8249 19.2478C26.8103 19.4801 26.7958 19.7124 26.7808 19.9517C27.0729 19.947 27.365 19.9424 27.666 19.9376C28.7498 19.9214 29.8336 19.9112 30.9175 19.9028C31.3866 19.8983 31.8557 19.8922 32.3248 19.8845C32.9991 19.8737 33.6732 19.8687 34.3476 19.8647C34.6622 19.8578 34.6622 19.8578 34.9831 19.8508C36.4389 19.8503 36.4389 19.8503 37.1438 20.3653C37.8309 21.3753 37.8059 22.0883 37.813 23.3058C37.8152 23.5934 37.8152 23.5934 37.8175 23.8867C37.8218 24.5221 37.8238 25.1575 37.8255 25.7929C37.8272 26.2345 37.8289 26.676 37.8306 27.1176C37.8337 28.0442 37.8354 28.9709 37.8365 29.8975C37.8381 31.0835 37.8452 32.2694 37.8537 33.4553C37.8592 34.3678 37.8608 35.2804 37.8612 36.1929C37.8621 36.63 37.8645 37.0671 37.8684 37.5042C37.8735 38.1168 37.8729 38.7291 37.871 39.3417C37.8726 39.8641 37.8726 39.8641 37.8743 40.3971C37.7433 41.5134 37.3781 42.3075 36.5777 43.1079C35.8599 43.1409 35.1505 43.1547 34.4324 43.1558C34.0957 43.158 34.0957 43.158 33.7522 43.1602C33.0063 43.1646 32.2604 43.1666 31.5145 43.1682C30.9979 43.17 30.4813 43.1717 29.9647 43.1734C28.8801 43.1765 27.7954 43.1782 26.7108 43.1793C25.3194 43.1809 23.9281 43.188 22.5368 43.1965C21.4692 43.202 20.4016 43.2035 19.3339 43.204C18.8209 43.2049 18.3079 43.2073 17.7949 43.2112C17.0777 43.2162 16.3607 43.2157 15.6435 43.2138C15.4306 43.2165 15.2178 43.2192 14.9984 43.2221C14.1471 43.2149 13.5652 43.2087 12.8558 42.7117C12.1529 41.6425 12.1948 40.6598 12.1908 39.4185C12.1898 39.2263 12.1888 39.0341 12.1878 38.836C12.1849 38.2008 12.1844 37.5656 12.184 36.9304C12.1831 36.4886 12.1821 36.0467 12.181 35.6049C12.1793 34.6788 12.1787 33.7527 12.1789 32.8265C12.1789 31.6402 12.1749 30.454 12.1698 29.2677C12.1665 28.3552 12.1659 27.4427 12.166 26.5301C12.1657 26.0928 12.1644 25.6554 12.1621 25.2181C12.1591 24.6062 12.16 23.9945 12.1618 23.3826C12.1614 23.0346 12.1609 22.6866 12.1605 22.328C12.232 21.4595 12.3456 20.9664 12.8277 20.2486C13.7219 19.8015 14.6424 19.9156 15.6225 19.9227C15.9474 19.9233 15.9474 19.9233 16.2789 19.924C16.9716 19.9256 17.6643 19.9294 18.357 19.9331C18.8262 19.9346 19.2955 19.936 19.7648 19.9372C20.916 19.9405 22.0671 19.9456 23.2183 19.9517C23.1914 19.4218 23.1586 18.8923 23.1232 18.3629C23.1055 18.068 23.0879 17.7731 23.0697 17.4693C22.9895 16.5894 22.9895 16.5894 22.0679 15.981C21.7617 15.8218 21.4556 15.6626 21.1402 15.4986C20.0231 13.9578 19.8224 12.6372 19.9527 10.7486C20.5125 9.1348 21.5463 8.14554 22.9214 7.18607C24.3863 6.69777 25.6717 6.71398 27.1148 7.20462ZM19.8784 27.2622C19.2123 28.1662 19.1951 28.6485 19.3589 29.7486C19.6558 30.3423 19.6558 30.3423 20.2495 30.6392C21.3339 30.8007 21.8359 30.7691 22.7544 30.1568C23.3016 29.4658 23.3016 29.4658 23.2183 28.5425C22.8811 27.5519 22.656 27.254 21.7339 26.7798C20.5695 26.6639 20.5695 26.6639 19.8784 27.2622ZM27.4302 27.4107C26.6853 28.211 26.6853 28.211 26.7808 29.2105C27.0145 30.1316 27.0145 30.1316 27.9683 30.6392C28.8946 30.7357 29.4964 30.791 30.3062 30.3052C30.8048 29.4741 30.776 28.9179 30.6402 27.9673C30.1575 27.2371 30.1575 27.2371 29.4527 26.7798C28.2487 26.6605 28.2487 26.6605 27.4302 27.4107ZM19.3589 33.9048C19.2352 34.7954 19.2352 34.7954 19.3589 35.6861C20.4682 36.4256 21.0587 36.3564 22.3833 36.3587C22.5908 36.3592 22.7983 36.3598 23.0121 36.3604C23.4503 36.3608 23.8885 36.3597 24.3266 36.3572C24.9971 36.354 25.6673 36.3572 26.3378 36.361C26.7638 36.3606 27.1898 36.3598 27.6157 36.3587C28.1972 36.3577 28.1972 36.3577 28.7905 36.3566C29.7939 36.3545 29.7939 36.3545 30.6402 35.6861C30.7639 34.7954 30.7639 34.7954 30.6402 33.9048C29.9014 33.166 29.4639 33.238 28.4554 33.2286C28.2396 33.2298 28.0237 33.231 27.8013 33.2322C27.5795 33.2316 27.3577 33.2311 27.1292 33.2305C26.66 33.2301 26.1909 33.2312 25.7217 33.2337C25.0024 33.2368 24.2832 33.2337 23.5639 33.2299C23.1085 33.2303 22.6531 33.231 22.1978 33.2322C21.9819 33.231 21.7661 33.2298 21.5437 33.2286C20.3164 33.202 20.3164 33.202 19.3589 33.9048Z" fill="white"/>
<path d="M40.7344 26.4844C43.1094 26.4844 43.1094 26.4844 43.6957 26.8126C44.1418 27.6371 44.1155 28.3148 44.1183 29.249C44.1194 29.6172 44.1206 29.9853 44.1218 30.3646C44.1183 30.7496 44.1149 31.1346 44.1113 31.5312C44.1148 31.9162 44.1182 32.3012 44.1218 32.6979C44.1206 33.066 44.1195 33.4342 44.1183 33.8135C44.1173 34.1514 44.1163 34.4893 44.1152 34.8375C44 35.6875 44 35.6875 43.6957 36.2499C43.1094 36.5781 43.1094 36.5781 40.7344 36.5781C40.7344 33.2472 40.7344 29.9163 40.7344 26.4844Z" fill="white"/>
<path d="M9.26532 26.4844C9.26532 29.8153 9.26532 33.1462 9.26532 36.5781C6.89032 36.5781 6.89032 36.5781 6.30396 36.2499C5.85792 35.4254 5.88419 34.7477 5.88141 33.8135C5.88026 33.4453 5.87911 33.0772 5.87793 32.6979C5.88137 32.3129 5.88482 31.9279 5.88837 31.5312C5.88492 31.1463 5.88148 30.7613 5.87793 30.3646C5.87908 29.9965 5.88023 29.6283 5.88141 29.249C5.88241 28.9111 5.88342 28.5732 5.88445 28.225C5.99969 27.375 5.99969 27.375 6.30396 26.8126C6.89032 26.4844 6.89032 26.4844 9.26532 26.4844Z" fill="white"/>
</g>
<defs>
<clipPath id="clip0_865_5158">
<rect width="38" height="38" fill="white" transform="translate(6 6)"/>
</clipPath>
</defs>
</svg>
