<svg width="50" height="50" viewBox="0 0 50 50" fill="none" xmlns="http://www.w3.org/2000/svg">
<g clip-path="url(#clip0_865_5157)">
<path d="M31.193 15.0731C34.2324 17.1271 35.8036 19.7373 36.5312 23.315C36.9603 26.874 35.9051 30.0775 33.7188 32.8775C31.6929 35.1274 28.8267 36.3101 25.8438 36.5338C22.5706 36.5657 19.6858 35.8621 17.1448 33.7355C14.6626 31.2768 13.5308 28.4436 13.3809 24.9849C13.4296 21.7199 14.6403 18.9518 16.8438 16.565C20.8349 12.9013 26.5258 12.4527 31.193 15.0731ZM16.8438 21.065C16.8156 21.6445 16.807 22.225 16.8064 22.8053C16.806 23.1584 16.8057 23.5115 16.8053 23.8753C16.8059 24.0601 16.8065 24.2449 16.8071 24.4353C16.8086 25.0002 16.8071 25.5649 16.8053 26.1297C16.8057 26.4828 16.806 26.836 16.8064 27.1998C16.8067 27.5264 16.807 27.8531 16.8074 28.1896C16.7584 28.9177 16.7584 28.9177 17.125 29.2213C17.693 29.2416 18.2617 29.2448 18.8301 29.2388C19.1408 29.2363 19.4515 29.2338 19.7716 29.2312C20.012 29.2279 20.2523 29.2246 20.5 29.2213C20.6075 28.7555 20.7008 28.2862 20.7812 27.815C20.4482 27.4168 20.4482 27.4168 19.498 27.5162C19.0195 27.5249 19.0195 27.5249 18.5312 27.5338C18.5312 26.9769 18.5312 26.42 18.5312 25.8463C18.9953 25.8463 19.4594 25.8463 19.9375 25.8463C20.045 25.3805 20.1383 24.9112 20.2188 24.44C19.9188 24.0754 19.9188 24.0754 19.2168 24.1412C18.9906 24.147 18.7643 24.1528 18.5312 24.1588C18.5312 23.6019 18.5312 23.045 18.5312 22.4713C19.1809 22.4713 19.8306 22.4713 20.5 22.4713C20.6075 22.0055 20.7008 21.5362 20.7812 21.065C20.477 20.6979 20.477 20.6979 19.7441 20.7464C19.4367 20.7471 19.1293 20.7479 18.8125 20.7486C18.5051 20.7479 18.1976 20.7472 17.8809 20.7464C17.148 20.6979 17.148 20.6979 16.8438 21.065ZM22.4688 21.065C22.4441 21.6479 22.4387 22.2317 22.4413 22.8151C22.4422 23.1695 22.4431 23.5239 22.444 23.8891C22.4464 24.2661 22.4488 24.6431 22.4512 25.0201C22.4526 25.3982 22.4539 25.7763 22.455 26.1544C22.4583 27.083 22.463 28.0115 22.4688 28.94C22.9345 29.0475 23.4038 29.1408 23.875 29.2213C24.2396 28.9213 24.2396 28.9213 24.1738 28.2193C24.168 27.9931 24.1622 27.7669 24.1562 27.5338C24.2821 27.6588 24.4079 27.7839 24.5375 27.9128C25.0497 28.3923 25.5422 28.8299 26.125 29.2213C26.9292 29.2355 26.9292 29.2355 27.5312 28.94C27.382 27.8654 27.1102 27.2352 26.4062 26.4088C26.5919 26.2231 26.7775 26.0375 26.9688 25.8463C27.5596 24.96 27.7124 24.3803 27.662 23.315C27.427 22.3038 26.8599 21.7824 26.125 21.065C25.4215 20.7133 24.923 20.7464 24.1387 20.7486C23.886 20.7479 23.6333 20.7472 23.3729 20.7464C22.7574 20.7142 22.7574 20.7142 22.4688 21.065ZM29.2188 21.065C29.1941 21.6479 29.1887 22.2317 29.1913 22.8151C29.1922 23.1695 29.1931 23.5239 29.194 23.8891C29.1964 24.2661 29.1988 24.6431 29.2012 25.0201C29.2026 25.3982 29.2039 25.7763 29.205 26.1544C29.2083 27.083 29.213 28.0115 29.2188 28.94C29.6845 29.0475 30.1538 29.1408 30.625 29.2213C31.0232 28.8882 31.0232 28.8882 30.9238 27.9381C30.918 27.619 30.9122 27.3 30.9062 26.9713C31.2021 26.9597 31.4979 26.9481 31.8027 26.9361C32.899 26.6845 33.3711 26.4265 34.0319 25.5112C34.4873 24.5823 34.5353 23.751 34.2812 22.7525C33.7834 21.9051 33.2056 21.2303 32.3125 20.7838C31.8385 20.757 31.3634 20.7472 30.8887 20.7486C30.636 20.7479 30.3833 20.7472 30.1229 20.7464C29.5074 20.7142 29.5074 20.7142 29.2188 21.065Z" fill="white"/>
<path d="M36.8124 31.1875C38.5462 31.2959 39.6211 31.8824 41.0312 32.875C40.6441 35.8229 37.9063 38.1579 35.6874 39.9062C34.0985 41.0533 34.0985 41.0533 33.1507 40.9983C32.3561 40.6441 32.1808 40.1863 31.8027 39.4141C31.679 39.1719 31.5554 38.9297 31.428 38.6802C31.1446 37.8052 31.1458 37.39 31.4687 36.5312C31.9806 36.0424 31.9806 36.0424 32.6288 35.5996C34.3271 34.3611 35.5682 32.8675 36.8124 31.1875Z" fill="white"/>
<path d="M32.875 8.96875C35.8229 9.35579 38.1579 12.0936 39.9062 14.3125C41.0533 15.9014 41.0533 15.9014 40.9983 16.8492C40.6441 17.6438 40.1863 17.8192 39.4141 18.1973C39.1719 18.3209 38.9297 18.4445 38.6802 18.5719C37.8052 18.8554 37.39 18.8542 36.5312 18.5312C36.0424 18.0193 36.0424 18.0193 35.5996 17.3711C34.3611 15.6728 32.8675 14.4317 31.1875 13.1875C31.2959 11.4537 31.8824 10.3789 32.875 8.96875Z" fill="white"/>
<path d="M16.8492 9.00236C17.6438 9.35655 17.8192 9.81437 18.1973 10.5866C18.3209 10.8288 18.4445 11.071 18.5719 11.3205C18.8554 12.1954 18.8542 12.6107 18.5312 13.4694C18.0193 13.9583 18.0193 13.9583 17.3711 14.401C15.6728 15.6396 14.4317 17.1331 13.1875 18.8132C11.4537 18.7048 10.3789 18.1182 8.96875 17.1257C9.35579 14.1778 12.0936 11.8427 14.3125 10.0944C15.9014 8.94736 15.9014 8.94736 16.8492 9.00236Z" fill="white"/>
<path d="M13.4684 31.4667C13.9573 31.9787 13.9573 31.9787 14.4001 32.6269C15.6386 34.3252 17.1321 35.5663 18.8122 36.8105C18.7038 38.5443 18.1172 39.6191 17.1247 41.0292C14.1768 40.6422 11.8417 37.9043 10.0934 35.6855C8.94638 34.0966 8.94638 34.0966 9.00138 33.1487C9.35558 32.3542 9.8134 32.1788 10.5856 31.8007C10.8278 31.6771 11.07 31.5535 11.3195 31.4261C12.1944 31.1426 12.6097 31.1438 13.4684 31.4667Z" fill="white"/>
<path d="M42.1563 19.3779C42.9946 21.2429 43.1294 22.8129 43.1056 24.8447C43.1088 25.1218 43.1121 25.399 43.1154 25.6846C43.1083 27.4807 42.8405 28.9658 42.1563 30.6279C40.5784 30.7857 39.5416 30.289 38.2188 29.5029C37.4797 28.7637 37.8605 26.7013 37.8546 25.6419C37.8497 25.0423 37.8374 24.4432 37.825 23.8438C37.8221 23.4633 37.8197 23.0828 37.8178 22.7023C37.8137 22.3551 37.8096 22.0078 37.8054 21.65C37.9376 20.7841 37.9376 20.7841 38.4658 20.2632C39.7515 19.5677 40.6794 19.3092 42.1563 19.3779Z" fill="white"/>
<path d="M24.3609 37.8507C24.9604 37.8458 25.5595 37.8335 26.159 37.8211C26.5395 37.8182 26.9199 37.8158 27.3004 37.8139C27.6477 37.8098 27.995 37.8057 28.3528 37.8015C29.2187 37.9337 29.2187 37.9337 29.7395 38.4619C30.4351 39.7476 30.6936 40.6755 30.6249 42.1524C28.7227 42.9256 27.0432 43.127 24.9999 43.1016C24.6062 43.1065 24.6062 43.1065 24.2045 43.1115C22.4499 43.1042 21.0001 42.813 19.3749 42.1524C19.2171 40.5745 19.7138 39.5377 20.4999 38.2149C21.2391 37.4758 23.3015 37.8566 24.3609 37.8507Z" fill="white"/>
<path d="M7.84387 19.373C9.42176 19.2152 10.4586 19.7119 11.7814 20.498C12.5205 21.2371 12.1397 23.2995 12.1456 24.359C12.1505 24.9585 12.1628 25.5576 12.1752 26.157C12.1781 26.5375 12.1805 26.918 12.1824 27.2985C12.1865 27.6458 12.1906 27.993 12.1948 28.3508C12.0626 29.2167 12.0626 29.2167 11.5344 29.7376C10.2487 30.4332 9.32085 30.6917 7.84387 30.623C7.07067 28.7208 6.86925 27.0412 6.89465 24.998C6.89139 24.7355 6.88813 24.473 6.88477 24.2025C6.89212 22.4479 7.18327 20.9981 7.84387 19.373Z" fill="white"/>
<path d="M25 6.8927C25.2624 6.88944 25.5249 6.88617 25.7954 6.88281C27.55 6.89016 28.9998 7.18131 30.625 7.84192C30.7827 9.41981 30.286 10.4567 29.5 11.7794C28.7608 12.5186 26.6984 12.1377 25.6389 12.1437C25.0394 12.1485 24.4403 12.1609 23.8409 12.1733C23.4604 12.1761 23.0799 12.1785 22.6994 12.1804C22.3521 12.1845 22.0049 12.1886 21.6471 12.1928C20.7812 12.0607 20.7812 12.0607 20.2603 11.5324C19.5647 10.2468 19.3063 9.3189 19.375 7.84192C21.2771 7.06871 22.9567 6.8673 25 6.8927Z" fill="white"/>
<path d="M30.9062 22.4688C31.6023 22.608 31.6023 22.608 32.3125 22.75C32.5059 23.541 32.5059 23.541 32.5938 24.4375C32.2422 24.9648 32.2422 24.9648 31.75 25.2812C31.4716 25.2812 31.1931 25.2812 30.9062 25.2812C30.9062 24.3531 30.9062 23.425 30.9062 22.4688Z" fill="white"/>
<path d="M24.1562 22.4688C24.8523 22.608 24.8523 22.608 25.5625 22.75C25.7559 23.541 25.7559 23.541 25.8438 24.4375C25.4922 24.9648 25.4922 24.9648 25 25.2812C24.7216 25.2812 24.4431 25.2812 24.1562 25.2812C24.1562 24.3531 24.1562 23.425 24.1562 22.4688Z" fill="white"/>
</g>
<defs>
<clipPath id="clip0_865_5157">
<rect width="36" height="36" fill="white" transform="translate(7 7)"/>
</clipPath>
</defs>
</svg>
