<svg width="50" height="50" viewBox="0 0 50 50" fill="none" xmlns="http://www.w3.org/2000/svg">
<g clip-path="url(#clip0_865_5159)">
<path d="M9.99985 18.6719C19.8999 18.6719 29.7999 18.6719 39.9999 18.6719C40.024 21.9348 40.0482 25.1978 40.0731 28.5596C40.0838 29.589 40.0944 30.6184 40.1054 31.6789C40.1107 32.9382 40.1107 32.9382 40.1117 33.5282C40.1135 33.9393 40.1176 34.3504 40.1236 34.7614C40.1322 35.385 40.1333 36.0083 40.1329 36.6319C40.1371 36.8144 40.1413 36.9968 40.1457 37.1847C40.1366 38.1324 40.0413 38.5428 39.4349 39.2877C38.6429 39.9114 38.2825 40.0294 37.2964 40.0329C37.0726 40.0343 36.8489 40.0356 36.6183 40.037C36.372 40.0372 36.1257 40.0375 35.8719 40.0378C35.6131 40.0389 35.3543 40.0401 35.0877 40.0413C34.2284 40.0447 33.3692 40.0463 32.5099 40.0476C31.9144 40.049 31.3188 40.0503 30.7232 40.0517C29.633 40.0538 28.5428 40.0553 27.4526 40.056C25.8484 40.057 24.2443 40.0612 22.6401 40.0679C21.2505 40.0736 19.861 40.0754 18.4714 40.0758C17.8803 40.0765 17.2893 40.0784 16.6983 40.0815C15.8717 40.0855 15.0453 40.0851 14.2188 40.0835C13.9739 40.0857 13.729 40.0879 13.4767 40.0901C11.3443 40.0778 11.3443 40.0778 10.4686 39.2969C9.82046 38.4596 9.93721 37.4576 9.94664 36.4457C9.94658 36.2504 9.94653 36.0552 9.94647 35.854C9.94682 35.223 9.95038 34.5921 9.95408 33.9612C9.95477 33.5712 9.95524 33.1812 9.95551 32.7913C9.95796 31.3465 9.96451 29.9018 9.97056 28.457C9.98022 25.2279 9.98989 21.9988 9.99985 18.6719ZM27.1092 21.7188C25.9278 24.2027 24.8061 26.7091 23.7298 29.2404C23.5588 29.6409 23.3865 30.0408 23.213 30.4402C22.9584 31.0261 22.708 31.6135 22.4583 32.2015C22.3803 32.3793 22.3022 32.557 22.2217 32.7401C21.8269 33.6841 21.5966 34.2991 21.953 35.3125C22.5212 35.2829 22.5212 35.2829 23.1249 35.0781C23.4917 34.5903 23.4917 34.5903 23.7349 33.9513C23.8388 33.7111 23.9427 33.4709 24.0498 33.2235C24.1573 32.9618 24.2647 32.7001 24.3755 32.4304C24.4888 32.163 24.6022 31.8956 24.7189 31.6201C25.0191 30.9083 25.3149 30.1949 25.6092 29.4807C25.7905 29.0438 25.9747 28.6083 26.1602 28.1732C26.5161 27.3379 26.8675 26.5008 27.2173 25.6628C27.3827 25.2731 27.3827 25.2731 27.5516 24.8756C27.651 24.6324 27.7505 24.3892 27.853 24.1387C27.9416 23.9255 28.0302 23.7123 28.1214 23.4927C28.3025 22.8101 28.2374 22.3916 28.0467 21.7188C27.7374 21.7188 27.428 21.7188 27.1092 21.7188ZM17.7782 25.5127C17.6366 25.6258 17.4951 25.739 17.3492 25.8556C16.4525 26.5747 15.5685 27.3088 14.6874 28.0469C14.8035 29.0193 15.0208 29.4239 15.775 30.0427C16.0356 30.2575 16.0356 30.2575 16.3014 30.4767C16.4842 30.6223 16.667 30.7679 16.8553 30.918C17.0345 31.0672 17.2136 31.2165 17.3982 31.3702C18.2989 32.1014 18.9059 32.5703 20.078 32.7344C20.2327 32.425 20.3874 32.1156 20.5467 31.7969C20.1809 31.4644 19.8146 31.1325 19.4481 30.8008C19.2442 30.6159 19.0402 30.431 18.8301 30.2405C17.8254 29.205 17.8254 29.205 16.5624 28.75C16.5624 28.5953 16.5624 28.4406 16.5624 28.2812C16.7536 28.197 16.7536 28.197 16.9487 28.111C17.6379 27.7377 18.2097 27.2808 18.8182 26.7871C19.0436 26.6064 19.269 26.4258 19.5012 26.2396C20.0246 25.7528 20.2918 25.4225 20.5467 24.7656C20.392 24.6109 20.2374 24.4563 20.078 24.2969C19.0633 24.2969 18.5313 24.8984 17.7782 25.5127ZM29.9217 24.2969C29.767 24.6063 29.6124 24.9156 29.453 25.2344C29.8188 25.5668 30.1851 25.8988 30.5516 26.2305C30.8575 26.5078 30.8575 26.5078 31.1696 26.7908C32.1743 27.8263 32.1743 27.8263 33.4374 28.2812C33.4374 28.4359 33.4374 28.5906 33.4374 28.75C33.2461 28.8343 33.2461 28.8343 33.051 28.9203C32.3618 29.2935 31.79 29.7504 31.1815 30.2441C30.9561 30.4248 30.7307 30.6055 30.4985 30.7916C29.9751 31.2785 29.7079 31.6087 29.453 32.2656C29.6077 32.4203 29.7624 32.575 29.9217 32.7344C31.0897 32.7118 31.791 31.9957 32.617 31.2549C32.8782 31.0262 33.1394 30.7976 33.4007 30.5692C33.5249 30.4596 33.6491 30.35 33.777 30.2372C34.2765 29.8039 34.7924 29.3927 35.3124 28.9844C35.1962 28.0119 34.9789 27.6073 34.2247 26.9885C34.051 26.8453 33.8773 26.7021 33.6983 26.5546C33.5155 26.4089 33.3327 26.2633 33.1444 26.1133C32.9652 25.964 32.7861 25.8148 32.6015 25.661C31.7008 24.9299 31.0938 24.461 29.9217 24.2969Z" fill="white"/>
<path d="M14.2078 9.90543C14.4667 9.9042 14.7255 9.90297 14.9923 9.9017C15.8478 9.8986 16.7031 9.90065 17.5586 9.90303C18.1532 9.90255 18.7477 9.90187 19.3423 9.90099C20.5882 9.89995 21.8342 9.90139 23.0801 9.90474C24.5192 9.90857 25.9582 9.90733 27.3973 9.90346C28.7835 9.89988 30.1696 9.90026 31.5558 9.90232C32.1449 9.90279 32.734 9.90221 33.3231 9.90058C34.1462 9.89879 34.9691 9.90151 35.7922 9.90543C36.036 9.90401 36.2798 9.90258 36.531 9.90112C38.6213 9.91956 38.6213 9.91956 39.5312 10.6995C40.7477 12.5243 40 15.069 40 17.262C30.1 17.262 20.2 17.262 10 17.262C10 11.637 10 11.637 10.4688 10.6995C11.5515 9.73654 12.8403 9.89745 14.2078 9.90543ZM13.9844 13.7464C13.907 14.1331 13.8297 14.5198 13.75 14.9183C14.3301 15.0343 14.3301 15.0343 14.9219 15.1527C14.9992 14.7659 15.0766 14.3792 15.1562 13.9808C14.7695 13.9034 14.3828 13.8261 13.9844 13.7464ZM17.5 13.7464C17.4227 14.1331 17.3453 14.5198 17.2656 14.9183C17.8457 15.0343 17.8457 15.0343 18.4375 15.1527C18.5148 14.7659 18.5922 14.3792 18.6719 13.9808C18.2852 13.9034 17.8984 13.8261 17.5 13.7464ZM21.0156 13.7464C20.9383 14.1331 20.8609 14.5198 20.7812 14.9183C21.3613 15.0343 21.3613 15.0343 21.9531 15.1527C22.0305 14.7659 22.1078 14.3792 22.1875 13.9808C21.8008 13.9034 21.4141 13.8261 21.0156 13.7464ZM29.9219 13.7464C29.7672 14.0558 29.6125 14.3652 29.4531 14.6839C29.8843 15.2156 29.8843 15.2156 30.5345 15.2059C30.7873 15.2034 31.0402 15.201 31.3007 15.1984C31.5741 15.1969 31.8475 15.1954 32.1292 15.1939C32.4159 15.1899 32.7026 15.186 32.998 15.182C33.4308 15.1788 33.4308 15.1788 33.8724 15.1755C34.5868 15.17 35.3012 15.1623 36.0156 15.1527C36.1052 14.7645 36.183 14.3735 36.25 13.9808C36.0017 13.6798 36.0017 13.6798 35.4296 13.7198C35.0485 13.7216 35.0485 13.7216 34.6597 13.7235C34.3856 13.7243 34.1114 13.725 33.8289 13.7258C33.3959 13.7288 33.3959 13.7288 32.9541 13.7318C32.6645 13.7328 32.3749 13.7339 32.0766 13.735C31.3583 13.7377 30.6401 13.7416 29.9219 13.7464Z" fill="white"/>
</g>
<defs>
<clipPath id="clip0_865_5159">
<rect width="30" height="30" fill="white" transform="translate(10 10)"/>
</clipPath>
</defs>
</svg>
