<svg width="50" height="50" viewBox="0 0 50 50" fill="none" xmlns="http://www.w3.org/2000/svg">
<g clip-path="url(#clip0_865_5156)">
<path d="M20.8598 31.69C20.9007 31.8425 20.9416 31.995 20.9837 32.1522C21.5048 33.9172 22.1287 34.8415 23.7602 35.7827C25.2744 36.237 26.6015 36.0974 28.0302 35.4121C29.3393 34.5829 29.8108 33.1407 30.1411 31.69C33.0876 31.5387 35.6031 32.0165 37.8754 34.0103C39.6433 36.0252 40.2858 38.3228 40.2733 40.9632C40.1958 41.4868 40.1958 41.4868 39.6801 42.0025C39.1752 42.0674 39.1752 42.0674 38.545 42.0679C38.3064 42.0694 38.0678 42.0708 37.822 42.0723C37.5595 42.0713 37.2969 42.0703 37.0265 42.0692C36.7506 42.0701 36.4748 42.071 36.1906 42.0719C35.2751 42.0742 34.3597 42.0727 33.4443 42.0709C32.8104 42.0713 32.1766 42.0718 31.5427 42.0724C30.2129 42.0732 28.883 42.0721 27.5531 42.0697C25.8451 42.0667 24.1372 42.0684 22.4292 42.0715C21.1199 42.0734 19.8106 42.0728 18.5013 42.0715C17.8714 42.0711 17.2415 42.0715 16.6116 42.0727C15.7325 42.074 14.8535 42.0721 13.9744 42.0692C13.5806 42.0707 13.5806 42.0707 13.1789 42.0723C12.9403 42.0709 12.7017 42.0694 12.4559 42.0679C12.2479 42.0677 12.04 42.0676 11.8257 42.0674C11.3208 42.0025 11.3208 42.0025 10.8051 41.4868C10.4339 38.98 11.209 36.5647 12.6642 34.536C14.8161 32.0833 17.7406 31.5299 20.8598 31.69Z" fill="white"/>
<path d="M28.3361 17.25C29.5406 17.4345 30.4667 18.0141 31.4067 18.7636C32.5614 20.4924 32.1994 22.9871 31.9455 24.9844C31.8179 25.3672 31.8179 25.3672 31.6877 25.7578C32.4926 25.6599 33.249 25.5329 34.008 25.2422C34.5615 24.481 34.5615 24.481 34.7815 23.6953C34.4411 23.6953 34.1008 23.6953 33.7502 23.6953C33.7502 22.3341 33.7502 20.9728 33.7502 19.5703C35.8127 19.5703 35.8127 19.5703 36.4492 19.9439C37.0312 20.9135 36.9945 21.7629 36.9729 22.8735C36.9789 23.1759 36.9789 23.1759 36.985 23.4843C36.9751 24.9599 36.7058 25.8606 35.8127 27.0469C34.6573 27.8488 33.6012 27.9105 32.2356 27.917C30.743 27.962 29.6551 28.1283 28.46 29.0691C27.198 30.0547 25.1904 29.7625 23.6955 29.625C21.7809 29.0794 20.537 27.9973 19.5705 26.2734C19.1546 25.3666 18.9923 24.6702 19.0045 23.6742C19.0062 23.4341 19.0079 23.1939 19.0096 22.9465C19.0139 22.6991 19.0182 22.4517 19.0227 22.1968C19.025 21.9444 19.0273 21.692 19.0297 21.4319C19.0358 20.8113 19.0442 20.1908 19.0549 19.5703C19.4891 19.5514 19.4891 19.5514 19.9321 19.532C24.4702 19.4186 24.4702 19.4186 28.3361 17.25ZM25.5002 26.0156C25.2645 26.5073 25.2645 26.5073 25.2424 27.0469C26.0166 27.8211 26.88 27.6776 27.9172 27.6914C28.1153 27.702 28.3133 27.7127 28.5174 27.7236C29.099 27.7317 29.5797 27.7178 30.1408 27.5625C30.8835 26.7722 30.8835 26.7722 31.1721 25.7578C30.3718 25.7503 29.5715 25.7457 28.7712 25.7417C28.4305 25.7385 28.4305 25.7385 28.0829 25.7352C27.8644 25.7343 27.6458 25.7335 27.4207 25.7326C27.119 25.7306 27.119 25.7306 26.8111 25.7285C26.2231 25.7368 26.2231 25.7368 25.5002 26.0156Z" fill="white"/>
<path d="M29.5801 9.68749C31.7798 11.0223 32.963 12.6901 33.831 15.0875C34.0174 16.0022 34.0463 16.8313 34.0083 17.7623C32.7662 17.9772 32.2096 17.9273 31.12 17.2456C30.3408 16.6723 29.5926 16.0641 28.852 15.4419C28.6636 15.5556 28.4752 15.6693 28.281 15.7864C27.653 16.1616 27.0231 16.5313 26.3867 16.8921C26.1949 17.0018 26.0032 17.1115 25.8056 17.2245C24.7124 17.7682 23.7462 17.793 22.5316 17.7874C22.048 17.7862 22.048 17.7862 21.5547 17.7849C21.0512 17.7817 21.0512 17.7817 20.5376 17.7784C20.0281 17.7766 20.0281 17.7766 19.5083 17.7748C18.6698 17.7718 17.8312 17.7676 16.9926 17.7623C16.9416 15.308 17.4584 13.4847 19.0481 11.5858C21.7693 8.84361 26.0405 7.98609 29.5801 9.68749Z" fill="white"/>
<path d="M22.4066 30.9141C22.6512 30.9566 22.8958 30.9991 23.1478 31.043C24.9748 31.3019 26.7809 31.2294 28.5941 30.9141C28.4992 32.7802 28.4992 32.7802 27.7078 33.7339C26.7794 34.4812 26.2151 34.6135 25.0109 34.5959C24.1137 34.4759 23.5902 34.0806 22.9222 33.4922C22.4281 32.6164 22.3496 31.9104 22.4066 30.9141Z" fill="white"/>
<path d="M17.2502 19.5703C17.2502 20.9316 17.2502 22.2928 17.2502 23.6953C15.9611 23.4375 15.9611 23.4375 15.4939 23.1636C14.9963 22.3517 15.0212 21.5111 15.1877 20.6016C15.8612 19.6394 16.0468 19.5703 17.2502 19.5703Z" fill="white"/>
</g>
<defs>
<clipPath id="clip0_865_5156">
<rect width="33" height="33" fill="white" transform="translate(9 9)"/>
</clipPath>
</defs>
</svg>
