<svg width="50" height="50" viewBox="0 0 50 50" fill="none" xmlns="http://www.w3.org/2000/svg">
<path d="M17.2032 22.8871C18.2084 23.6912 18.4214 24.4549 18.6029 25.6864C18.6887 27.0926 18.4951 27.9154 17.7702 29.1236C16.9267 30.0634 16.4996 30.2389 15.2366 30.3993C14.0353 30.3357 13.3016 29.91 12.3841 29.1236C11.5502 27.8116 11.6699 26.3724 11.8171 24.8714C12.1892 24.021 12.1892 24.021 12.6676 23.454C12.802 23.2903 12.9365 23.1266 13.0751 22.9579C14.323 21.9595 15.8183 22.383 17.2032 22.8871Z" fill="white"/>
<path d="M38.1835 18.9183C38.8213 18.9106 39.4592 18.9051 40.097 18.9006C40.4522 18.8973 40.8074 18.894 41.1733 18.8906C42.1522 18.9183 42.1522 18.9183 43.2862 19.2018C43.2862 20.8857 43.2862 22.5695 43.2862 24.3044C42.5378 24.3044 41.7894 24.3044 41.0183 24.3044C40.878 24.0238 40.878 24.0238 40.7348 23.7375C39.2381 25.2342 37.7413 26.731 36.1992 28.2731C35.5443 27.7118 34.8895 27.1506 34.2148 26.5723C33.1259 27.029 33.1259 27.029 32.6557 27.6176C32.2305 27.9897 32.2305 27.9897 31.6635 27.9542C31.0105 27.6685 30.6577 27.4407 30.2461 26.8557C30.33 25.6647 31.0873 25.0318 31.8938 24.2158C32.1412 23.9597 32.3886 23.7035 32.6435 23.4396C33.3644 22.887 33.3644 22.887 33.9834 22.9092C34.6705 23.2579 35.119 23.7362 35.6322 24.3044C36.5437 23.9052 37.1408 23.4247 37.8292 22.7098C38.0901 22.4413 38.0901 22.4413 38.3563 22.1672C38.4864 22.0306 38.6164 21.8939 38.7505 21.7531C38.5634 21.6596 38.3763 21.566 38.1835 21.4696C38.1835 20.6277 38.1835 19.7858 38.1835 18.9183Z" fill="white"/>
<path d="M26.2773 26.2969C27.1193 26.2969 27.9612 26.2969 28.8287 26.2969C28.8287 30.2259 28.8287 34.1549 28.8287 38.203C29.3899 38.203 29.9512 38.203 30.5295 38.203C30.5295 36.7998 30.5295 35.3966 30.5295 33.9508C31.2779 33.9508 32.0263 33.9508 32.7974 33.9508C32.7974 35.354 32.7974 36.7573 32.7974 38.203C33.4522 38.203 34.107 38.203 34.7817 38.203C34.7817 35.8643 34.7817 33.5256 34.7817 31.116C35.5301 31.116 36.2785 31.116 37.0496 31.116C37.0496 33.4547 37.0496 35.7934 37.0496 38.203C37.7044 38.203 38.3592 38.203 39.0339 38.203C39.0339 34.9288 39.0339 31.6546 39.0339 28.2812C39.7823 28.2812 40.5307 28.2812 41.3018 28.2812C41.3018 31.5554 41.3018 34.8296 41.3018 38.203C41.9566 38.203 42.6114 38.203 43.2861 38.203C43.2861 39.0449 43.2861 39.8869 43.2861 40.7543C37.6732 40.7543 32.0603 40.7543 26.2773 40.7543C26.2773 35.9834 26.2773 31.2124 26.2773 26.2969Z" fill="white"/>
<path d="M9.99647 32.2172C10.2504 32.2181 10.5044 32.219 10.7661 32.22C11.1646 32.2235 11.1646 32.2235 11.5711 32.2272C11.839 32.2285 12.1068 32.2297 12.3828 32.231C13.0454 32.2344 13.7079 32.2395 14.3705 32.2449C14.3705 33.7417 14.3705 35.2384 14.3705 36.7806C14.9318 36.7806 15.493 36.7806 16.0713 36.7806C16.0713 35.2838 16.0713 33.787 16.0713 32.2449C16.9871 32.2066 17.9013 32.1785 18.8176 32.1563C19.0761 32.1444 19.3346 32.1326 19.601 32.1203C21.5353 32.0851 21.5353 32.0851 22.6146 32.9237C24.5281 35.523 23.4418 35.6894 23.4418 40.7493C18.016 40.7493 12.5902 40.7493 7 40.7493C7 33.9458 7 33.9458 8.13392 32.5284C8.81444 32.1881 9.23768 32.2124 9.99647 32.2172Z" fill="white"/>
<path d="M20.3242 9C25.0952 9 29.8661 9 34.7817 9C34.7817 12.7419 34.7817 16.4839 34.7817 20.3392C33.4369 20.3275 32.0922 20.3158 30.7067 20.3037C26.7283 20.3515 24.1339 21.1638 20.8912 23.4575C20.7041 23.4575 20.517 23.4575 20.3242 23.4575C20.3242 18.6865 20.3242 13.9155 20.3242 9ZM24.5764 13.8192C24.5764 14.3804 24.5764 14.9417 24.5764 15.52C26.4474 15.52 28.3183 15.52 30.246 15.52C30.246 14.9587 30.246 14.3974 30.246 13.8192C28.375 13.8192 26.5041 13.8192 24.5764 13.8192Z" fill="white"/>
</svg>
