<svg width="50" height="50" viewBox="0 0 50 50" fill="none" xmlns="http://www.w3.org/2000/svg">
<g clip-path="url(#clip0_865_5155)">
<path d="M22.8249 17.865C24.5137 19.2753 25.6876 21.237 26.0622 23.4099C26.284 26.2448 25.9341 28.6177 24.1198 30.8629C23.4962 31.5804 22.8639 32.2893 22.2148 32.9838C21.7069 33.5904 21.7069 33.5904 21.281 34.8317C20.1414 34.8317 19.0019 34.8317 17.8278 34.8317C17.7775 33.7189 17.7407 32.6083 17.7116 31.4948C17.696 31.181 17.6805 30.8672 17.6644 30.5439C17.6191 28.2337 17.6191 28.2337 18.2412 27.3149C18.7492 26.8215 18.7492 26.8215 19.2602 26.4236C19.7637 26.0669 19.7637 26.0669 19.9362 25.2859C19.9417 25.1051 19.9472 24.9243 19.9528 24.738C18.9601 24.8231 18.6585 24.969 17.944 25.7009C17.2966 26.3317 17.2966 26.3317 16.7653 26.365C16.0139 25.9422 15.4875 25.368 14.9059 24.738C14.5115 24.8695 14.5115 24.8695 14.1091 25.0036C14.2692 25.9598 14.3555 26.0511 15.182 26.6991C16.0532 27.5265 16.092 28.2043 16.1241 29.3844C16.1135 30.0382 16.0946 30.692 16.0681 31.3454C16.0609 31.6803 16.0537 32.0152 16.0463 32.3602C16.0275 33.1845 16.0014 34.0079 15.9684 34.8317C15.4567 34.8654 14.9443 34.8895 14.4318 34.9096C14.0039 34.9312 14.0039 34.9312 13.5674 34.9533C12.7809 34.8317 12.7809 34.8317 12.2434 34.2505C11.9839 33.7917 11.7412 33.323 11.513 32.8479C11.1043 32.0043 10.535 31.4886 9.85907 30.8474C7.87909 28.4439 7.72577 25.8889 7.9997 22.8786C8.42938 20.6783 9.79504 19.0225 11.4528 17.5661C15.0634 15.2305 19.3211 15.3865 22.8249 17.865Z" fill="white"/>
<path d="M31.6406 26.0625C33.3061 26.0625 34.9716 26.0625 36.6875 26.0625C37.0381 26.7638 37.3887 27.465 37.75 28.1875C38.0787 28.1163 38.4074 28.0451 38.7461 27.9717C39.3354 27.9001 39.3354 27.9001 39.875 27.9219C40.4727 28.4531 40.4727 28.4531 40.9375 29.25C41.0361 29.3976 41.1347 29.5452 41.2363 29.6972C41.8957 30.7252 42.1932 31.4884 42 32.7031C41.7344 32.9688 41.4687 33.2344 41.2031 33.5C41.2681 34.3877 41.3639 34.7233 42 35.3594C42.2983 36.851 41.5695 37.8166 40.8068 39.0325C40.4062 39.6094 40.4062 39.6094 39.875 40.1406C39.1502 40.1319 38.4681 39.9908 37.75 39.875C37.3994 40.5763 37.0487 41.2775 36.6875 42C35.022 42 33.3566 42 31.6406 42C31.3777 41.3864 31.1147 40.7728 30.8437 40.1406C30.6835 40.156 30.5233 40.1714 30.3582 40.1873C28.6212 40.2854 28.6212 40.2854 27.8555 39.626C27.7021 39.3575 27.5487 39.0891 27.3906 38.8125C27.2698 38.6201 27.1489 38.4276 27.0244 38.2294C26.0406 36.605 26.0406 36.605 26.132 35.8408C26.3281 35.3594 26.3281 35.3594 26.7598 34.9775C27.2028 34.5713 27.2028 34.5713 27.0918 33.8984C26.9132 33.2215 26.9132 33.2215 26.4277 32.8359C26.3072 32.7045 26.1867 32.573 26.0625 32.4375C26.1703 31.3763 26.5522 30.6304 27.1084 29.7314C27.2478 29.5031 27.3871 29.2747 27.5307 29.0394C27.9219 28.4531 27.9219 28.4531 28.4531 27.9219C29.028 27.87 29.028 27.87 29.6816 27.8887C30.0073 27.8959 30.0073 27.8959 30.3395 27.9032C30.5891 27.9124 30.5891 27.9124 30.8437 27.9219C31.1067 27.3083 31.3697 26.6947 31.6406 26.0625ZM31.9062 32.1719C31.2524 33.1526 31.1926 33.9552 31.375 35.0938C31.9245 35.9966 32.4675 36.6581 33.5 36.9531C34.6862 36.9316 35.2097 36.8144 36.123 36.04C36.7307 35.3073 36.9299 35.0329 37.0361 34.0977C36.9305 32.9992 36.5969 32.4805 35.8906 31.6406C34.2934 30.7621 33.3024 31.1096 31.9062 32.1719Z" fill="white"/>
<path d="M20.3529 7.9498C20.6012 7.94554 20.8496 7.94127 21.1055 7.93687C22.2459 7.92504 23.3862 7.91415 24.5266 7.90804C25.1269 7.90365 25.7271 7.89642 26.3274 7.88625C27.1943 7.87165 28.0609 7.86588 28.928 7.862C29.1942 7.85598 29.4605 7.84995 29.7348 7.84375C31.4759 7.84895 32.7097 8.14944 34.0309 9.32916C35.1563 10.7894 35.3859 12.1859 35.443 13.9817C35.4542 14.3139 35.4653 14.646 35.4768 14.9882C35.4872 15.334 35.4976 15.6799 35.5084 16.0362C35.5199 16.3861 35.5313 16.7361 35.5432 17.0966C35.5713 17.9606 35.5984 18.8245 35.6246 19.6885C35.8876 19.4256 35.8876 19.4256 36.1559 19.1573C36.8531 19.1241 36.8531 19.1241 37.484 19.1573C37.747 19.8147 37.747 19.8147 38.0152 20.4854C37.5639 21.0095 37.1101 21.531 36.6518 22.0491C36.2552 22.498 35.8642 22.9518 35.4752 23.4073C34.8277 23.9385 34.8277 23.9385 34.0786 24.0485C32.9686 23.904 32.5961 23.5056 31.8229 22.71C31.5938 22.482 31.3647 22.2539 31.1287 22.019C30.5184 21.203 30.3419 20.7017 30.3121 19.6885C30.8434 19.1573 30.8434 19.1573 31.5074 19.0909C32.1715 19.1573 32.1715 19.1573 32.7027 19.6885C32.7259 18.4767 32.7401 17.2648 32.7525 16.0528C32.7592 15.7092 32.7659 15.3656 32.7728 15.0116C32.7766 14.5146 32.7766 14.5146 32.7806 14.0077C32.7868 13.5507 32.7868 13.5507 32.7932 13.0845C32.6911 12.1441 32.4867 11.6647 31.9059 10.9229C31.1724 10.4797 30.6209 10.3244 29.7685 10.3187C29.5601 10.3162 29.3518 10.3136 29.1371 10.311C28.9143 10.3113 28.6916 10.3115 28.4621 10.3118C28.1153 10.3101 28.1153 10.3101 27.7615 10.3083C27.2733 10.3068 26.785 10.3067 26.2967 10.3078C25.551 10.3086 24.8057 10.3024 24.0601 10.2957C23.585 10.2951 23.11 10.2949 22.6349 10.2952C22.4127 10.2927 22.1905 10.2903 21.9615 10.2878C20.7164 10.2976 19.9062 10.3883 18.8902 11.1885C18.2011 12.1188 18.2054 13.2561 18.0934 14.376C17.3921 14.376 16.6909 14.376 15.9684 14.376C15.8031 11.5382 15.8031 11.5382 16.4 10.2754C17.5708 9.0122 18.5662 7.97768 20.3529 7.9498Z" fill="white"/>
<path d="M12.7817 36.6875C15.499 36.6875 18.2164 36.6875 21.0161 36.6875C21.0161 40.1406 21.0161 40.1406 20.2192 41.4688C19.2608 42.2129 18.0775 42.0976 16.9155 42.0996C16.716 42.1061 16.5166 42.1126 16.3111 42.1193C15.3003 42.1247 14.7568 42.0681 13.8681 41.5455C12.4646 40.0083 12.7817 38.8231 12.7817 36.6875Z" fill="white"/>
</g>
<defs>
<clipPath id="clip0_865_5155">
<rect width="34" height="34" fill="white" transform="translate(8 8)"/>
</clipPath>
</defs>
</svg>
