<svg width="71" height="71" viewBox="0 0 71 71" fill="none" xmlns="http://www.w3.org/2000/svg">
<g clip-path="url(#clip0_1071_2970)">
<path d="M7.94275 7.31686C8.04035 7.31637 8.13794 7.31589 8.23849 7.31538C8.56465 7.3141 8.89079 7.31477 9.21695 7.31545C9.45351 7.31493 9.69007 7.31429 9.92662 7.31355C10.5761 7.31185 11.2255 7.31189 11.8749 7.31221C12.5756 7.31227 13.2762 7.31074 13.9769 7.30942C15.3494 7.30712 16.7219 7.30636 18.0944 7.3062C19.2101 7.30607 20.3258 7.3055 21.4415 7.30462C24.605 7.30218 27.7684 7.3009 30.9319 7.30111C31.1024 7.30112 31.273 7.30113 31.4487 7.30114C31.7048 7.30116 31.7048 7.30116 31.9661 7.30118C34.7332 7.30129 37.5003 7.29863 40.2674 7.29472C43.1089 7.29074 45.9504 7.28882 48.7919 7.28906C50.387 7.28916 51.9822 7.28839 53.5774 7.28541C54.9356 7.28288 56.2937 7.28228 57.6519 7.28416C58.3447 7.28507 59.0375 7.28509 59.7302 7.28268C60.3649 7.2805 60.9996 7.2809 61.6343 7.28331C61.8634 7.28374 62.0925 7.28324 62.3216 7.28169C64.281 7.26933 65.7834 7.59598 67.2619 8.96459C68.4529 10.192 68.8147 11.6824 68.803 13.3509C68.8007 13.4793 68.7984 13.6078 68.796 13.7401C68.7947 13.8734 68.7935 14.0066 68.7922 14.1439C68.7889 14.4687 68.7844 14.7934 68.7786 15.1182C68.6758 15.1176 68.573 15.1171 68.4671 15.1166C65.9599 15.1043 63.4528 15.0952 60.9456 15.0894C59.7331 15.0866 58.5206 15.0827 57.3081 15.0763C56.2507 15.0708 55.1934 15.0672 54.136 15.066C53.5766 15.0653 53.0173 15.0636 52.458 15.0595C51.9303 15.0557 51.4027 15.0546 50.875 15.0554C50.6825 15.0553 50.49 15.0542 50.2975 15.052C48.2805 15.0307 46.8497 15.4788 45.3832 16.8684C44.3167 17.9971 43.9365 19.3919 43.9344 20.9061C43.9334 21.0663 43.9334 21.0663 43.9324 21.2297C43.9302 21.5881 43.9291 21.9465 43.9279 22.3049C43.9265 22.566 43.9251 22.8271 43.9237 23.0882C43.9199 23.7875 43.917 24.4868 43.9142 25.186C43.9115 25.8422 43.908 26.4983 43.9047 27.1545C43.8952 29.0735 43.8868 30.9925 43.8784 32.9115C43.8583 37.1988 43.8383 41.4861 43.8177 45.9033C30.1807 45.9033 16.5437 45.9033 2.49347 45.9033C2.48203 40.3061 2.47059 34.7089 2.45881 28.942C2.45376 27.1749 2.44871 25.4079 2.4435 23.5873C2.441 21.4288 2.441 21.4288 2.44053 20.4181C2.44002 19.7126 2.43798 19.0071 2.43491 18.3015C2.431 17.4009 2.42997 16.5003 2.43075 15.5997C2.43059 15.2696 2.42949 14.9395 2.42735 14.6094C2.42458 14.1624 2.42526 13.7155 2.42677 13.2685C2.42516 13.1403 2.42354 13.012 2.42188 12.8799C2.4359 11.3312 3.04359 9.89848 4.11041 8.77392C5.19239 7.78806 6.48069 7.31851 7.94275 7.31686Z" fill="white"/>
<path d="M49.4643 17.0352C49.6286 17.034 49.7929 17.0328 49.9621 17.0316C50.2328 17.0307 50.2328 17.0307 50.5089 17.0298C50.7007 17.0287 50.8925 17.0276 51.0844 17.0264C51.7147 17.0227 52.3451 17.0206 52.9755 17.0186C53.1928 17.0179 53.4101 17.0172 53.6274 17.0164C54.5318 17.0134 55.4363 17.0108 56.3407 17.0092C57.635 17.007 58.9292 17.0024 60.2234 16.9945C61.1344 16.9891 62.0453 16.9864 62.9563 16.9857C63.4998 16.9852 64.0433 16.9835 64.5868 16.979C65.0989 16.9748 65.6109 16.974 66.1231 16.9756C66.3987 16.9756 66.6743 16.9723 66.9499 16.9688C68.1415 16.977 69.1189 17.1653 70.0188 17.9934C70.9787 19.0096 71.0633 20.0245 71.0569 21.3676C71.0578 21.5362 71.0586 21.7048 71.0595 21.8785C71.0614 22.3448 71.0615 22.811 71.0607 23.2773C71.0603 23.7809 71.0624 24.2845 71.064 24.788C71.067 25.774 71.0676 26.7599 71.0673 27.7458C71.0672 28.5474 71.0677 29.349 71.0687 30.1506C71.069 30.3817 71.0693 30.6128 71.0696 30.8438C71.0697 30.9588 71.0699 31.0739 71.07 31.1924C71.0727 33.3668 71.0725 35.5413 71.0716 37.7157C71.0708 39.7037 71.0737 41.6916 71.0783 43.6795C71.083 45.722 71.0851 47.7645 71.0844 49.807C71.0841 50.9532 71.0848 52.0993 71.0883 53.2455C71.0912 54.2214 71.0917 55.1973 71.0891 56.1731C71.0878 56.6707 71.0876 57.1682 71.0905 57.6658C71.0936 58.2061 71.0913 58.7462 71.0884 59.2865C71.0902 59.4426 71.0919 59.5987 71.0937 59.7595C71.0811 60.8821 70.8366 61.817 70.0695 62.6677C68.9911 63.7033 67.7451 63.7113 66.3278 63.7063C66.137 63.7071 65.9463 63.7081 65.7555 63.7092C65.24 63.7117 64.7246 63.7116 64.2092 63.7108C63.7777 63.7103 63.3463 63.7112 62.9149 63.712C61.8965 63.714 60.8782 63.7137 59.8599 63.7122C58.8117 63.7106 57.7636 63.7125 56.7155 63.7162C55.8132 63.7193 54.911 63.7202 54.0087 63.7194C53.4709 63.7189 52.9331 63.7193 52.3952 63.7217C51.8893 63.7238 51.3834 63.7233 50.8774 63.7207C50.6049 63.7199 50.3324 63.7219 50.0599 63.7239C48.8702 63.7141 47.9795 63.5468 47.0467 62.7836C46.3896 61.9805 45.8864 61.2501 45.8836 60.1885C45.8829 60.0456 45.8822 59.9026 45.8815 59.7553C45.8814 59.5978 45.8814 59.4402 45.8813 59.2779C45.8807 59.1109 45.8801 58.9439 45.8795 58.7718C45.8779 58.3074 45.877 57.8431 45.8764 57.3787C45.8756 56.8781 45.874 56.3776 45.8725 55.877C45.8691 54.6677 45.867 53.4583 45.8652 52.2489C45.8647 51.9073 45.8642 51.5657 45.8636 51.224C45.8601 49.1024 45.8571 46.9807 45.8553 44.859C45.8549 44.3675 45.8545 43.876 45.8541 43.3845C45.854 43.2624 45.8539 43.1402 45.8538 43.0144C45.852 41.0363 45.8474 39.0582 45.8416 37.08C45.8358 35.0489 45.8325 33.0177 45.8318 30.9865C45.8313 29.8462 45.8297 28.7059 45.8251 27.5656C45.8212 26.5943 45.8197 25.623 45.8212 24.6516C45.822 24.1563 45.8216 23.661 45.8181 23.1657C45.8144 22.6279 45.8161 22.0901 45.8183 21.5523C45.8164 21.3969 45.8145 21.2415 45.8125 21.0814C45.8247 19.8691 46.1516 18.9812 46.9254 18.0446C47.7118 17.4079 48.4407 17.0407 49.4643 17.0352ZM53.1136 19.83C52.7908 20.3141 52.7665 20.5084 52.8362 21.078C53.1466 21.5022 53.3137 21.6206 53.8382 21.7032C54.0151 21.7036 54.1921 21.704 54.3744 21.7045C54.5212 21.706 54.5212 21.706 54.6711 21.7074C54.9941 21.7099 55.317 21.7083 55.64 21.7064C55.8649 21.7068 56.0897 21.7073 56.3145 21.708C56.7855 21.7088 57.2564 21.7076 57.7273 21.705C58.3308 21.7019 58.9341 21.7037 59.5375 21.707C60.0017 21.709 60.4659 21.7084 60.9301 21.707C61.1526 21.7066 61.3751 21.707 61.5975 21.7083C61.9086 21.7097 62.2195 21.7076 62.5305 21.7045C62.7075 21.7041 62.8844 21.7036 63.0667 21.7032C63.5225 21.6671 63.5225 21.6671 63.849 21.3818C64.1662 20.9431 64.1358 20.6347 64.0687 20.1073C63.8147 19.7446 63.6652 19.6955 63.2366 19.5527C62.9363 19.5388 62.6355 19.5335 62.3348 19.5325C62.1984 19.5318 62.1984 19.5318 62.0593 19.5311C61.7587 19.5298 61.4582 19.5295 61.1576 19.5294C60.9485 19.5289 60.7393 19.5284 60.5302 19.528C60.0916 19.5271 59.6531 19.5269 59.2145 19.527C58.6533 19.527 58.092 19.5251 57.5308 19.5227C57.0987 19.5211 56.6666 19.5209 56.2345 19.5209C56.0276 19.5208 55.8208 19.5202 55.6139 19.5191C55.3241 19.5177 55.0344 19.5181 54.7447 19.519C54.4976 19.5187 54.4976 19.5187 54.2455 19.5184C53.8032 19.5529 53.5041 19.6221 53.1136 19.83ZM56.5804 59.7675C56.2593 60.1581 56.2593 60.1581 56.329 60.5995C56.4476 61.0375 56.5045 61.1647 56.8577 61.4316C57.3821 61.5203 57.9127 61.4958 58.4438 61.4922C58.5894 61.495 58.735 61.4978 58.885 61.5006C59.0252 61.5005 59.1655 61.5004 59.3099 61.5004C59.438 61.5006 59.5661 61.5009 59.698 61.5011C60.153 61.4105 60.3181 61.237 60.6019 60.8769C60.6943 60.4609 60.6943 60.4609 60.6019 60.0448C60.2923 59.6499 60.1096 59.511 59.6312 59.3515C59.2422 59.3309 58.8589 59.3194 58.4698 59.3168C58.365 59.314 58.2603 59.3111 58.1524 59.3081C57.5128 59.3037 57.0986 59.3521 56.5804 59.7675Z" fill="white"/>
<path d="M0.43565 47.9616C0.568291 47.9617 0.700933 47.9617 0.837594 47.9618C1.06625 47.9614 1.06625 47.9614 1.29952 47.9609C1.46908 47.9613 1.63864 47.9617 1.81334 47.9622C1.99183 47.962 2.17033 47.9619 2.35423 47.9618C2.85196 47.9615 3.34968 47.962 3.84741 47.9627C4.38329 47.9633 4.91917 47.9631 5.45505 47.963C6.38425 47.963 7.31346 47.9634 8.24266 47.9642C9.58615 47.9653 10.9296 47.9657 12.2731 47.9658C14.4526 47.9661 16.6321 47.9671 18.8116 47.9684C20.9293 47.9696 23.0471 47.9706 25.1648 47.9712C25.2952 47.9713 25.4257 47.9713 25.5601 47.9713C26.2144 47.9715 26.8688 47.9717 27.5231 47.9719C32.9554 47.9733 38.3877 47.9758 43.82 47.9788C43.82 49.3975 43.82 50.8161 43.82 52.2777C38.7228 52.2902 33.6257 52.3001 28.5285 52.306C27.9264 52.3067 27.3242 52.3074 26.7221 52.3081C26.6023 52.3083 26.4824 52.3084 26.3589 52.3086C24.4194 52.311 22.4799 52.3154 20.5405 52.3205C18.5496 52.3257 16.5587 52.3287 14.5678 52.3299C13.3398 52.3306 12.1119 52.333 10.8839 52.3375C10.0413 52.3405 9.19861 52.3413 8.35593 52.3406C7.87014 52.3403 7.38439 52.3408 6.89861 52.3438C6.3708 52.3466 5.8431 52.3459 5.31528 52.3444C5.16325 52.346 5.01122 52.3476 4.85458 52.3493C3.37636 52.3379 2.05499 51.9263 0.97037 50.8909C0.212796 50.0174 -0.0579536 49.2699 -0.000333075 48.1175C0.138339 47.9788 0.138339 47.9788 0.43565 47.9616Z" fill="white"/>
</g>
<defs>
<clipPath id="clip0_1071_2970">
<rect width="71" height="71" fill="white"/>
</clipPath>
</defs>
</svg>
