<svg width="76" height="77" viewBox="0 0 76 77" fill="none" xmlns="http://www.w3.org/2000/svg">
<path d="M37.9443 7.62298C38.0612 7.62325 38.1781 7.62353 38.2985 7.62381C40.1576 7.63113 41.9667 7.71891 43.7891 8.12115C43.9064 8.14696 44.0237 8.17277 44.1446 8.19936C47.9115 9.06055 51.5051 10.6182 54.625 12.9336C54.7539 13.0292 54.7539 13.0292 54.8855 13.1267C56.8953 14.6349 58.7467 16.3291 60.2656 18.3477C60.3856 18.4987 60.5056 18.6498 60.6292 18.8053C64.125 23.2289 64.125 23.2289 64.125 24.9649C64.2934 24.9525 64.4618 24.9401 64.6353 24.9273C67.4132 24.9406 69.9253 26.2455 71.893 28.1589C73.5986 29.9575 74.8157 32.3829 74.8388 34.9076C74.8407 35.09 74.8426 35.2723 74.8446 35.4602C74.8462 35.7547 74.8462 35.7547 74.8479 36.055C74.8485 36.1561 74.8491 36.2571 74.8497 36.3612C74.8528 36.8972 74.8549 37.4331 74.8563 37.9691C74.858 38.5163 74.863 39.0635 74.869 39.6106C74.8729 40.0367 74.8741 40.4628 74.8746 40.8889C74.8757 41.1866 74.8796 41.4844 74.8836 41.7821C74.8764 44.893 73.6854 47.3949 71.6025 49.6384C69.6436 51.5691 67.0005 52.6478 64.2626 52.6354C62.6341 52.5844 62.6341 52.5844 61.8984 52.336C61.8476 52.4916 61.8476 52.4916 61.7958 52.6503C61.5575 53.1872 61.23 53.6192 60.8687 54.0749C60.7965 54.1667 60.7244 54.2585 60.6501 54.3532C59.9189 55.2738 59.1403 56.1429 58.3359 56.9981C58.2282 57.1152 58.1205 57.2323 58.0095 57.3529C54.5606 60.9957 49.7089 63.6546 44.8602 64.6868C43.5028 64.9266 43.5028 64.9266 42.3749 65.6456C42.1577 66.0626 42.1577 66.0626 42.0142 66.5009C41.5466 67.7783 40.2967 68.4651 39.1429 69.0153C37.8096 69.5626 35.9611 69.5598 34.5952 69.1045C32.8907 68.3459 31.6665 67.1636 30.8936 65.4482C30.356 63.905 30.3456 62.0349 30.9858 60.5252C31.8536 58.805 32.9642 57.6991 34.75 56.9846C36.4797 56.4336 38.1616 56.6613 39.7998 57.4023C40.9332 58.0224 41.905 58.9675 42.4531 60.1563C42.4531 60.2556 42.4531 60.3548 42.4531 60.4571C47.2205 59.1474 51.1548 57.2897 54.7734 53.8399C54.8683 53.7534 54.9633 53.667 55.061 53.5779C56.809 51.9176 58.1498 49.8269 59.2266 47.6739C59.2744 47.5789 59.3221 47.4839 59.3714 47.3861C62.2172 41.6594 62.6361 34.9788 60.6738 28.8939C60.2097 27.5197 59.6215 26.2351 58.9297 24.9649C58.8442 24.8046 58.7586 24.6443 58.6705 24.4791C57.7269 22.7724 56.5444 21.2683 55.2188 19.8516C55.0862 19.7076 54.9536 19.5635 54.8169 19.4151C51.0371 15.3901 45.4383 12.7499 39.9559 12.4516C39.3469 12.4369 38.739 12.4322 38.1299 12.4355C37.9685 12.436 37.9685 12.436 37.8038 12.4365C34.9917 12.45 32.4967 12.9195 29.8359 13.836C29.6868 13.8868 29.6868 13.8868 29.5346 13.9387C26.5092 14.9949 23.8303 16.8837 21.5234 19.0997C21.3813 19.234 21.2391 19.3684 21.0926 19.5068C17.8285 22.6533 15.7004 26.8598 14.6953 31.2813C14.6718 31.3847 14.6483 31.4881 14.6241 31.5946C13.3944 37.2245 14.3822 43.0919 16.9977 48.1713C17.3771 48.9352 17.5043 49.5735 17.2738 50.425C16.9098 51.1733 16.5053 51.5652 15.7344 51.8848C15.64 51.9261 15.5457 51.9674 15.4485 52.01C12.7949 53.0378 9.91843 52.7202 7.3378 51.6692C5.99693 51.0474 5.02759 50.2402 4.00781 49.1778C3.90544 49.0719 3.80307 48.9661 3.6976 48.857C2.15009 47.1622 1.17817 44.8565 1.16358 42.5365C1.16216 42.3527 1.16073 42.1689 1.15926 41.9795C1.15863 41.7818 1.158 41.5841 1.15735 41.3804C1.15693 41.2788 1.15651 41.1772 1.15608 41.0725C1.15386 40.5342 1.15248 39.9958 1.15184 39.4574C1.15103 38.9061 1.14747 38.3549 1.14324 37.8036C1.14044 37.3756 1.1397 36.9476 1.13947 36.5196C1.13881 36.2191 1.13606 35.9186 1.13324 35.6181C1.13722 33.9476 1.41392 32.4477 2.18018 30.9617C2.23196 30.8597 2.28374 30.7578 2.33709 30.6527C3.66261 28.1202 5.81928 26.2882 8.5166 25.4349C9.42629 25.1534 10.3072 24.9408 11.2627 24.9555C11.3708 24.9572 11.479 24.9588 11.5904 24.9605C11.6843 24.962 11.7782 24.9634 11.875 24.9649C11.8986 24.883 11.9223 24.8011 11.9466 24.7167C12.2195 23.8262 12.5866 23.0503 13.0532 22.2485C13.1246 22.125 13.196 22.0016 13.2695 21.8744C14.0044 20.629 14.8364 19.4765 15.7344 18.3477C15.8065 18.2565 15.8786 18.1652 15.9529 18.0712C20.6409 12.19 27.6211 8.51274 35.0183 7.69784C35.9911 7.61036 36.9686 7.61821 37.9443 7.62298Z" fill="#147DC0"/>
<path d="M42.4531 18.0468C42.5489 18.071 42.6447 18.0952 42.7433 18.1201C47.5109 19.3685 51.5849 22.494 54.144 26.7489C56.6094 31.0497 57.5 36.2423 56.3054 41.1117C54.8963 46.2938 51.7656 50.5887 47.1361 53.2724C45.8796 53.9718 44.5706 54.4881 43.1953 54.8925C43.0335 54.9402 43.0335 54.9402 42.8684 54.989C41.2055 55.4543 39.5582 55.549 37.8423 55.5504C37.6481 55.5507 37.454 55.551 37.254 55.5512C36.2672 55.5396 35.3366 55.4781 34.3729 55.2571C33.4494 55.1023 32.8554 55.174 32.0469 55.6562C31.7932 55.8053 31.7932 55.8053 31.5344 55.9575C31.3547 56.0661 31.1752 56.1748 30.9956 56.2836C30.8103 56.3935 30.625 56.5031 30.4395 56.6126C29.5869 57.1176 28.7404 57.6329 27.8952 58.1505C27.761 58.2327 27.6269 58.3148 27.4886 58.3995C27.2421 58.5512 26.9962 58.7039 26.7511 58.858C25.675 59.5263 24.8572 59.8349 23.6016 59.5546C22.9945 59.3085 22.6745 58.9524 22.3719 58.361C21.9899 57.2459 22.3505 56.0288 22.6605 54.9406C22.7004 54.794 22.7403 54.6473 22.7814 54.4962C22.9076 54.0325 23.0363 53.5695 23.1655 53.1066C23.2951 52.6404 23.4241 52.1741 23.5513 51.7073C23.6302 51.418 23.7104 51.1291 23.7921 50.8406C23.8278 50.71 23.8635 50.5794 23.9002 50.4449C23.9322 50.3305 23.9642 50.2161 23.9971 50.0983C24.0534 49.7376 24.0199 49.5197 23.8984 49.1776C23.7094 48.9292 23.5099 48.6888 23.3047 48.4539C20.5713 45.135 19.2299 40.8778 19.2505 36.5824C19.2513 36.3981 19.2522 36.2137 19.253 36.0238C19.2718 34.5998 19.3766 33.2586 19.7422 31.8827C19.7701 31.7764 19.798 31.67 19.8268 31.5605C20.533 28.9762 21.7503 26.5686 23.4531 24.5136C23.5597 24.3846 23.6663 24.2557 23.7761 24.1229C26.5375 20.9077 30.0458 18.8277 34.1406 17.8964C34.3685 17.8411 34.3685 17.8411 34.601 17.7848C37.1269 17.2812 39.9605 17.4154 42.4531 18.0468ZM28.7412 35.2759C28.4168 35.9711 28.3833 36.5406 28.5 37.2968C28.8239 38.0351 29.2604 38.3863 29.9722 38.7061C30.4739 38.8596 30.8229 38.7996 31.3203 38.6503C31.9601 38.3012 32.3886 37.9899 32.6563 37.2968C32.7364 36.6136 32.7352 36.0092 32.4985 35.3605C32.0364 34.8469 31.5477 34.5055 30.8715 34.3865C29.9514 34.3472 29.3593 34.6002 28.7412 35.2759ZM36.0796 35.3605C35.7733 36.2001 35.7862 36.9875 36.1445 37.8043C36.6124 38.302 37.0523 38.6015 37.7031 38.8007C38.5128 38.8007 39.01 38.565 39.6328 38.0487C40.1353 37.4718 40.1548 36.9006 40.1297 36.1594C40.0517 35.6051 39.8572 35.2981 39.4844 34.8905C38.2784 34.0574 37.0341 34.2999 36.0796 35.3605ZM43.5015 35.3605C43.1952 36.2001 43.2081 36.9875 43.5664 37.8043C44.0342 38.302 44.4741 38.6015 45.125 38.8007C45.9346 38.8007 46.4319 38.565 47.0547 38.0487C47.5621 37.4661 47.5685 36.8955 47.5412 36.1489C47.4848 35.6614 47.3826 35.4053 47.0547 35.0409C46.4136 34.5697 45.921 34.3357 45.1233 34.3812C44.4513 34.5136 43.9635 34.8471 43.5015 35.3605Z" fill="#147DC0"/>
</svg>
