<svg width="140" height="140" viewBox="0 0 140 140" fill="none" xmlns="http://www.w3.org/2000/svg">
<g clip-path="url(#clip0_1056_3111)">
<path d="M61.25 0C67.025 0 72.8 0 78.75 0C80.3906 6.5625 80.3906 6.5625 80.3906 8.20313C80.7008 8.25388 81.011 8.30464 81.3306 8.35693C82.7086 8.659 83.9786 9.17023 85.2783 9.70703C85.4833 9.79147 85.6882 9.87591 85.8994 9.96291C86.7749 10.3312 87.5248 10.6806 88.3203 11.2109C89.2233 11.112 89.8734 10.6965 90.6285 10.2123C90.8557 10.0676 91.0829 9.92287 91.3169 9.77379C91.5518 9.62205 91.7868 9.47031 92.0288 9.31397C92.2648 9.16328 92.5008 9.0126 92.7439 8.85735C93.6441 8.2817 94.5406 7.70209 95.4297 7.10938C96.4772 7.1787 96.986 7.74573 97.7018 8.46809C97.9317 8.69799 98.1615 8.9279 98.3983 9.16477C98.6439 9.41456 98.8895 9.66436 99.1425 9.92172C99.3958 10.1762 99.6492 10.4308 99.9102 10.693C100.583 11.3686 101.253 12.0467 101.922 12.7253C102.606 13.4178 103.293 14.1079 103.979 14.7982C105.324 16.1523 106.667 17.5089 108.008 18.8672C107.879 19.2575 107.75 19.6477 107.621 20.0378C107.55 20.2551 107.478 20.4724 107.404 20.6962C107.122 21.5206 106.794 22.3208 106.453 23.1226C106.333 23.4049 106.214 23.6872 106.091 23.9781C106.001 24.1864 105.912 24.3948 105.82 24.6094C106.016 24.6164 106.212 24.6235 106.413 24.6307C109.94 24.8315 112.821 25.7821 115.664 27.8906C115.878 28.0475 116.091 28.2043 116.311 28.3659C119.307 30.786 121.32 34.5038 121.953 38.2813C121.988 38.9811 122.011 39.6736 122.018 40.3737C122.02 40.5751 122.023 40.7765 122.025 40.984C122.029 41.4103 122.032 41.8367 122.034 42.263C122.037 42.6917 122.043 43.1204 122.051 43.549C122.15 48.7837 120.945 52.6642 117.319 56.5663C117.041 56.8545 117.041 56.8545 116.758 57.1484C116.609 57.3095 116.461 57.4706 116.308 57.6366C115.938 57.9688 115.938 57.9688 115.391 57.9688C115.481 58.3297 115.571 58.6906 115.664 59.0625C117.153 59.4478 118.641 59.8322 120.13 60.2157C120.636 60.3462 121.142 60.477 121.648 60.608C122.377 60.7967 123.106 60.9844 123.835 61.172C124.06 61.2304 124.285 61.2888 124.516 61.349C125.119 61.5036 125.723 61.6513 126.328 61.7969C126.766 61.9071 126.766 61.9071 127.212 62.0196C128.188 62.085 128.614 61.8281 129.442 61.3194C129.721 61.1582 130.001 60.9969 130.289 60.8308C130.862 60.49 131.432 60.1441 131.998 59.7926C134.971 58.1028 136.069 58.5156 140 58.5156C140 69.5242 140 80.5328 140 91.875C137.015 93.4462 134.05 95.0061 131.015 96.4698C130.492 96.7235 129.969 96.9775 129.446 97.2315C129.082 97.4084 128.717 97.5852 128.353 97.762C126.011 98.898 123.675 100.047 121.34 101.195C119.075 102.309 116.808 103.418 114.535 104.515C112.714 105.393 110.898 106.28 109.087 107.178C108.132 107.651 107.176 108.119 106.214 108.576C105.313 109.005 104.418 109.445 103.526 109.895C103.045 110.134 102.558 110.361 102.07 110.587C100.404 111.442 100.404 111.442 99.4417 112.99C99.2113 113.938 99.2113 113.938 99.0972 114.864C98.8609 116.54 97.7416 117.559 96.4861 118.583C95.3148 119.416 94.1595 119.899 92.6953 119.766C92.6728 120.087 92.6502 120.409 92.627 120.74C92.3837 122.652 91.4091 123.988 89.9609 125.234C88.6289 126.204 87.4949 126.487 85.8594 126.602C85.8481 126.957 85.8368 127.312 85.8252 127.678C85.6209 129.456 84.7824 130.787 83.4465 131.962C82.0799 132.908 80.6516 133.214 79.0234 133.438C79.0122 133.793 79.0009 134.148 78.9893 134.514C78.8085 136.087 78.1628 137.193 77.1094 138.359C74.8319 140.164 72.5184 140.193 69.7266 140C68.2998 139.637 67.4824 138.852 66.4624 137.83C65.9391 137.316 65.9391 137.316 65.3516 136.992C64.6796 137.063 64.1861 137.284 63.5699 137.558C61.8561 138.2 59.9269 138.036 58.2593 137.334C56.3319 136.33 55.2564 135.173 54.4141 133.164C54.245 132.417 54.1825 131.745 54.1406 130.977C53.7853 130.965 53.43 130.954 53.064 130.942C51.2975 130.742 49.9864 129.879 48.7798 128.596C47.7346 127.238 47.3047 125.861 47.3047 124.141C46.9494 124.129 46.5941 124.118 46.228 124.106C44.4518 123.902 43.1075 123.066 41.9438 121.718C41.0645 120.429 40.7061 119.109 40.4688 117.578C39.9358 117.494 39.9358 117.494 39.3921 117.407C37.4592 116.969 35.8684 116.001 34.7437 114.348C34.3927 113.778 34.1897 113.326 34.1354 112.656C34.0187 111.545 33.8573 110.94 33.0003 110.185C32.169 109.642 31.3247 109.152 30.4541 108.674C30.1566 108.503 29.8591 108.331 29.5526 108.155C28.8201 107.734 28.0842 107.321 27.3438 106.914C27.1633 107.455 26.9828 107.997 26.7969 108.555C23.1232 108.777 20.202 108.226 16.748 107.009C16.2784 106.85 15.8086 106.691 15.3385 106.533C14.1174 106.12 12.8994 105.699 11.682 105.275C10.4353 104.843 9.18554 104.42 7.9361 103.997C6.11874 103.378 4.30244 102.758 2.48871 102.129C2.29897 102.063 2.10924 101.998 1.91375 101.931C0.611594 101.478 0.611594 101.478 0 101.172C0 85.6516 0 70.1313 0 54.1406C7.19516 54.1406 10.3677 54.8123 15.6084 58.819C17.1527 59.9496 18.1523 60.5738 20.119 60.2737C21.5579 59.9718 22.9516 59.5556 24.3359 59.0625C24.4606 58.0015 24.4606 58.0015 23.9247 57.5298C23.6461 57.3156 23.6461 57.3156 23.3618 57.0972C20.5025 54.7228 18.7088 51.5011 18.0469 47.8516C17.9151 46.4032 17.9172 44.9506 17.9249 43.4974C17.9272 42.8301 17.9193 42.1635 17.9107 41.4963C17.8905 37.0161 19.0131 32.871 22.1356 29.5067C25.6747 26.204 29.4004 24.8266 34.1797 24.6094C34.1106 24.4577 34.0414 24.3061 33.9702 24.1498C33.6596 23.4618 33.3556 22.7711 33.0518 22.0801C32.9428 21.8415 32.8339 21.6028 32.7217 21.357C32.6213 21.1261 32.5208 20.8952 32.4173 20.6574C32.3228 20.4454 32.2283 20.2335 32.1309 20.0151C31.9487 19.2258 32.1264 19.0081 32.5391 18.3203C32.8822 17.9225 33.2407 17.5377 33.6086 17.1627C33.8286 16.9374 34.0486 16.7122 34.2752 16.4801C34.5134 16.2397 34.7515 15.9992 34.9968 15.7515C35.2416 15.5036 35.4864 15.2556 35.7387 15.0002C36.2567 14.477 36.7754 13.9545 37.295 13.433C37.9608 12.7642 38.6214 12.0904 39.2809 11.4154C39.9114 10.7722 40.5478 10.1348 41.1833 9.49661C41.4198 9.25341 41.6562 9.0102 41.8998 8.75963C42.1224 8.53868 42.345 8.31774 42.5743 8.09011C42.7688 7.89364 42.9633 7.69717 43.1637 7.49474C43.75 7.10938 43.75 7.10938 44.4755 7.16826C45.0956 7.37559 45.5536 7.59981 46.0902 7.96921C46.2635 8.08676 46.4367 8.20431 46.6152 8.32543C46.792 8.44862 46.9688 8.57181 47.1509 8.69873C47.3266 8.81875 47.5023 8.93877 47.6833 9.06242C47.8569 9.18103 48.0305 9.29964 48.2094 9.42185C48.3799 9.53803 48.5505 9.65422 48.7262 9.77392C49.1864 10.0947 49.6352 10.4317 50.0829 10.7698C50.8108 11.2722 50.8108 11.2722 51.5504 11.1906C52.3201 10.9025 53.0234 10.5576 53.7476 10.1685C57.574 8.20313 57.574 8.20313 59.6094 8.20313C59.6601 7.67811 59.6601 7.67811 59.7119 7.14249C59.8669 5.74947 60.1333 4.39386 60.4297 3.0249C60.5027 2.67674 60.5027 2.67674 60.5771 2.32155C60.9398 0.620461 60.9398 0.620461 61.25 0ZM65.0781 4.64844C64.7397 6.17114 64.7397 6.17114 64.3945 7.72461C64.2875 8.20217 64.2875 8.20217 64.1782 8.68939C64.1227 8.94202 64.0672 9.19466 64.01 9.45496C63.9527 9.71271 63.8955 9.97046 63.8364 10.236C63.6788 10.9982 63.6788 10.9982 63.7109 12.0313C63.4427 12.0912 63.1745 12.1511 62.8981 12.2128C59.0219 13.11 55.5852 14.429 52.233 16.5857C51.4062 16.9531 51.4062 16.9531 50.7504 16.7509C50.057 16.415 49.4179 16.05 48.7691 15.6351C48.5391 15.4888 48.3091 15.3425 48.0721 15.1918C47.7176 14.9639 47.7176 14.9639 47.356 14.7314C47.1143 14.5774 46.8727 14.4234 46.6238 14.2647C46.0298 13.8858 45.4365 13.5059 44.8438 13.125C43.2045 14.4818 41.709 15.9544 40.2124 17.4658C39.9732 17.7062 39.7341 17.9466 39.4877 18.1943C38.9026 18.7825 38.3182 19.3714 37.7344 19.9609C37.9321 20.5579 38.1306 21.1545 38.3304 21.7507C38.5185 22.3137 38.7036 22.8777 38.8879 23.4419C39.5295 25.1728 40 26.3325 41.6821 27.207C41.9401 27.3205 42.1982 27.434 42.464 27.551C43.5304 28.041 44.2638 28.7347 45.1172 29.5313C45.2663 29.3261 45.4154 29.121 45.569 28.9096C50.572 22.1192 57.1408 17.4194 65.625 16.1328C73.5717 15.1363 81.5443 17.0518 87.9434 21.9403C90.588 24.0011 92.9336 26.3225 94.6094 29.2578C95.4872 28.8493 96.2485 28.35 97.0361 27.7881C97.7715 27.2648 98.4722 26.7782 99.2685 26.3504C100.4 25.4455 100.781 24.4299 101.309 23.1055C101.461 22.7549 101.461 22.7549 101.616 22.3973C102.175 21.2197 102.175 21.2197 102.104 19.9783C101.581 19.2121 100.95 18.5781 100.29 17.9315C100.081 17.7245 100.081 17.7245 99.8689 17.5132C99.4273 17.0746 98.9837 16.6379 98.54 16.2012C98.2394 15.9033 97.9389 15.6053 97.6385 15.3072C96.9037 14.5783 96.1672 13.8512 95.4297 13.125C93.6806 13.952 92.16 14.9275 90.612 16.0826C90.0945 16.4468 90.0945 16.4468 89.1406 16.9531C88.4431 16.8217 88.4431 16.8217 87.7734 16.4063C87.4999 16.2529 87.2264 16.0996 86.9446 15.9416C86.6316 15.7622 86.3186 15.5828 85.9961 15.398C83.0608 13.7756 79.6279 12.4644 76.2891 12.0313C76.2388 11.5031 76.2388 11.5031 76.1876 10.9642C76.0363 9.60279 75.762 8.28832 75.4517 6.95557C75.2768 6.19421 75.102 5.43286 74.9219 4.64844C71.6734 4.64844 68.425 4.64844 65.0781 4.64844ZM53.6632 26.7659C53.0469 27.3438 53.0469 27.3438 52.3825 27.8383C51.4741 28.6127 50.8215 29.4907 50.1245 30.4541C49.9918 30.631 49.8591 30.808 49.7224 30.9903C48.9795 32.0068 48.3684 32.9215 48.125 34.1797C48.2803 34.952 48.2803 34.952 48.6206 35.6836C49.5587 37.9119 49.5596 40.0963 49.5729 42.48C49.576 42.8671 49.5816 43.2541 49.5897 43.6411C49.6986 48.8386 48.2641 52.9387 44.6707 56.7896C44.0234 57.4219 44.0234 57.4219 43.3932 57.8662C43.2403 57.9903 43.0873 58.1144 42.9297 58.2422C42.9297 58.5129 42.9297 58.7836 42.9297 59.0625C44.3603 59.4647 45.7921 59.8621 47.2251 60.2555C47.7557 60.403 48.2845 60.5572 48.8129 60.7127C49.0822 60.7885 49.3515 60.8643 49.6289 60.9424C49.8573 61.0094 50.0857 61.0763 50.321 61.1453C52.6957 61.4515 55.04 60.736 57.3193 60.1392C57.62 60.0622 57.9207 59.9851 58.2304 59.9058C58.964 59.7176 59.697 59.5276 60.4297 59.3359C60.6123 58.6814 60.6123 58.6814 60.7031 57.9688C60.198 57.356 60.198 57.356 59.4727 56.8237C56.6254 54.4066 54.9259 51.3001 54.4141 47.5781C54.3829 46.8597 54.3629 46.1486 54.3585 45.4302C54.357 45.2272 54.3554 45.0242 54.3538 44.8151C54.3512 44.387 54.3494 43.9588 54.3484 43.5307C54.3457 42.885 54.3372 42.2396 54.3286 41.594C54.2958 36.9579 55.3993 33.0318 58.694 29.5996C61.7824 26.6397 65.3954 24.962 69.7244 24.8561C73.4482 24.9492 76.5606 25.9624 79.5703 28.1641C79.7501 28.2934 79.9298 28.4228 80.1151 28.5561C83.1566 30.942 84.9346 34.8251 85.5859 38.5547C85.6831 39.865 85.7045 41.1639 85.6929 42.4772C85.6885 43.0658 85.6929 43.6538 85.6981 44.2424C85.706 49.2623 84.283 53.1527 80.7976 56.7661C80.1172 57.4219 80.1172 57.4219 79.2969 57.9688C79.3871 58.4199 79.4773 58.8711 79.5703 59.3359C80.6091 59.6196 81.6493 59.8968 82.6912 60.1687C83.2166 60.3072 83.7406 60.4504 84.2647 60.5936C87.6393 61.4682 90.0538 61.0201 93.3789 60.1563C93.675 60.0815 93.9711 60.0068 94.2761 59.9298C95.7087 59.5953 95.7087 59.5953 97.0703 59.0625C96.9344 57.9372 96.3899 57.551 95.5322 56.8579C92.5775 54.283 90.7133 50.4497 90.4327 46.5284C90.4191 44.4598 90.4191 44.4598 90.4215 43.6213C90.4224 43.0033 90.4159 42.3856 90.409 41.7676C90.3975 39.1481 90.5833 36.7087 91.6464 34.2698C91.9591 33.6212 91.9591 33.6212 91.5962 32.9471C91.0605 32.165 90.5227 31.3887 89.9609 30.625C89.7724 30.3684 89.5838 30.1118 89.3895 29.8474C85.3359 24.6283 79.2541 21.3579 72.7344 20.5078C65.7684 19.8936 58.783 21.8886 53.6632 26.7659ZM25.0377 33.6211C22.8942 36.4167 22.5967 39.7582 22.5928 43.1519C22.5861 43.4523 22.5794 43.7528 22.5725 44.0624C22.5614 47.2054 23.3799 50.0709 25.4297 52.5C26.3957 53.4728 27.3511 54.4339 28.6005 55.0212C29.2578 55.5078 29.2578 55.5078 29.4381 56.2787C29.4424 56.5837 29.4467 56.8887 29.4511 57.2029C29.4591 57.5334 29.467 57.8638 29.4752 58.2043C29.4768 58.5495 29.4783 58.8948 29.48 59.2505C29.4869 59.5989 29.4937 59.9473 29.5008 60.3063C29.5169 61.1678 29.5268 62.029 29.5312 62.8906C29.3274 62.9265 29.1236 62.9624 28.9135 62.9994C28.6447 63.0474 28.3759 63.0954 28.0989 63.1448C27.833 63.192 27.5672 63.2392 27.2932 63.2878C26.3758 63.4662 25.5012 63.7069 24.6094 63.9844C25.41 64.6083 26.2334 65.1358 27.1109 65.6453C27.5209 65.884 27.5209 65.884 27.9392 66.1274C28.372 66.3778 28.372 66.3778 28.8135 66.6333C29.1069 66.8038 29.4004 66.9742 29.7027 67.1499C31.8276 68.383 33.9577 69.6066 36.0938 70.8203C36.0938 72.3543 36.0938 73.8883 36.0938 75.4688C37.8037 75.2704 37.8037 75.2704 39.4519 74.9294C39.6422 74.8809 39.8326 74.8324 40.0287 74.7825C40.3142 74.7077 40.3142 74.7077 40.6055 74.6314C40.8043 74.5804 41.0031 74.5295 41.2079 74.477C41.691 74.3531 42.1737 74.2275 42.6562 74.1016C42.6862 73.834 42.7162 73.5665 42.747 73.2909C43.1349 70.0047 43.8591 67.6026 45.6641 64.8047C43.2568 63.9131 40.7877 63.4291 38.2812 62.8906C38.2812 60.3641 38.2812 57.8375 38.2812 55.2344C38.958 54.9637 38.958 54.9637 39.6484 54.6875C42.388 53.0491 44.041 50.6423 44.8438 47.5781C45.7036 42.7832 45.237 38.0778 42.6562 33.9063C40.8228 31.5465 38.2654 29.922 35.2734 29.5313C31.249 29.1633 27.8075 30.7098 25.0377 33.6211ZM60.92 34.0259C58.2734 37.8083 58.4085 42.8276 58.9055 47.2459C59.5774 50.3746 61.4566 52.7939 63.9844 54.6875C64.2184 54.7972 64.4525 54.907 64.6937 55.02C65.3516 55.5078 65.3516 55.5078 65.5319 56.2787C65.5362 56.5837 65.5405 56.8887 65.5449 57.2029C65.5568 57.6986 65.5568 57.6986 65.5689 58.2043C65.5705 58.5495 65.5721 58.8948 65.5737 59.2505C65.5806 59.5989 65.5875 59.9473 65.5946 60.3063C65.6107 61.1678 65.6206 62.029 65.625 62.8906C65.4703 62.9148 65.3157 62.9391 65.1563 62.964C62.725 63.374 60.3427 63.9666 57.9543 64.5719C57.473 64.6932 56.9912 64.8127 56.5091 64.9305C55.803 65.1031 55.0983 65.2807 54.3938 65.4594C54.075 65.536 54.075 65.536 53.7497 65.6141C51.5065 66.1966 49.728 67.2423 48.3984 69.1797C47.7451 70.4943 47.5383 71.5313 47.5781 73.0078C47.9176 72.9486 47.9176 72.9486 48.2639 72.8882C55.2972 71.7945 61.3794 72.9879 68.0721 75.1259C68.3951 75.2288 68.7181 75.3317 69.0508 75.4376C69.6621 75.6338 70.2726 75.8327 70.8819 76.035C72.4342 76.5379 73.9517 76.9241 75.5606 77.2002C78.8575 77.7672 82.045 78.7973 85.2504 79.7373C86.0831 79.9807 86.9165 80.2215 87.7499 80.4622C88.1293 80.575 88.1293 80.575 88.5164 80.69C89.7525 81.0465 90.8473 81.3359 92.1484 81.2109C92.6849 80.6745 92.4796 79.6466 92.487 78.9134C92.4903 78.6051 92.4903 78.6051 92.4937 78.2906C92.4975 77.8531 92.5004 77.4157 92.5026 76.9782C92.5072 76.3173 92.5192 75.6569 92.5314 74.9961C92.5571 72.4787 92.5581 70.1308 90.8792 68.0861C88.3966 65.6619 84.5333 65.1749 81.278 64.3742C80.521 64.1879 79.7647 63.9987 79.0085 63.8092C78.5264 63.6894 78.0444 63.5698 77.5623 63.4503C77.2239 63.3658 77.2239 63.3658 76.8787 63.2795C76.0258 63.0707 75.2566 62.8906 74.375 62.8906C74.3413 61.6996 74.3384 60.5103 74.3408 59.3189C74.331 58.9828 74.3211 58.6467 74.3109 58.3004C74.3375 55.8376 74.3375 55.8376 75.2412 54.8792C75.9697 54.3778 75.9697 54.3778 76.6937 53.9803C78.7855 52.807 80.1669 50.388 80.8195 48.1352C81.2096 46.5588 81.3069 45.0452 81.2964 43.4253C81.2948 43.1746 81.2933 42.9239 81.2917 42.6655C81.221 38.6744 80.3551 35.5629 77.5879 32.5903C75.1745 30.2907 72.2953 29.3853 69.0002 29.4458C65.7499 29.7496 62.9924 31.577 60.92 34.0259ZM97.6855 33.291C94.6342 37.022 94.5156 41.6229 94.9349 46.2371C95.3371 49.4648 96.7729 51.9999 99.2963 54.0392C100.401 54.9198 100.401 54.9198 101.719 55.2344C101.719 57.7609 101.719 60.2875 101.719 62.8906C100.957 63.0542 100.196 63.2177 99.4116 63.3862C97.6784 63.765 96.0024 64.1875 94.3359 64.8047C94.5337 65.1267 94.5337 65.1267 94.7354 65.4552C96.7059 68.7326 97.0741 71.5849 97.2241 75.332C97.2418 75.7476 97.2418 75.7476 97.2599 76.1716C97.2887 76.8487 97.3166 77.5259 97.3438 78.2031C98.5583 77.7477 99.6946 77.1742 100.846 76.5817C101.052 76.4761 101.259 76.3704 101.471 76.2616C102.141 75.9183 102.81 75.574 103.479 75.2295C103.822 75.0533 103.822 75.0533 104.171 74.8736C107.055 73.3911 109.925 71.8891 112.763 70.3208C115.526 68.7954 118.329 67.3479 121.133 65.8984C121.133 65.718 121.133 65.5375 121.133 65.3516C119.746 64.9999 118.359 64.6494 116.972 64.3001C116.5 64.1811 116.028 64.0618 115.557 63.9421C114.879 63.7701 114.201 63.5994 113.522 63.429C113.311 63.3751 113.1 63.3213 112.883 63.2658C112.057 63.0594 111.323 62.8906 110.469 62.8906C110.435 61.6996 110.432 60.5103 110.435 59.3189C110.42 58.8147 110.42 58.8147 110.405 58.3004C110.431 55.8384 110.431 55.8384 111.33 54.8828C112.055 54.3842 112.055 54.3842 112.774 53.9903C115.253 52.5908 116.406 49.9697 117.18 47.3472C117.989 43.5199 117.643 38.5432 115.681 35.1367C115.407 34.723 115.129 34.3122 114.844 33.9063C114.686 33.6637 114.528 33.4212 114.365 33.1714C112.072 30.8141 109.336 29.5223 106.06 29.4458C102.773 29.4792 99.921 30.9014 97.6855 33.291ZM4.64844 58.7891C4.64844 71.6024 4.64844 84.4156 4.64844 97.6172C9.34278 99.6646 9.34278 99.6646 14.2188 100.625C15.7073 94.7636 17.1936 88.9017 18.6777 83.0392C19.0077 81.7354 19.3382 80.4318 19.6689 79.1283C20.034 77.6893 20.3978 76.25 20.7604 74.8104C20.8877 74.3057 21.0155 73.8012 21.1437 73.2967C21.3182 72.61 21.4911 71.923 21.6635 71.2358C21.7388 70.942 21.7388 70.942 21.8155 70.6422C22.0379 69.7489 22.1484 69.0155 22.1484 68.0859C21.9674 67.9817 21.7864 67.8775 21.6 67.7702C18.213 65.8197 14.8278 63.8661 11.4502 61.8994C11.1835 61.7445 10.9169 61.5895 10.6422 61.4299C10.3893 61.2824 10.1364 61.1349 9.87579 60.983C9.63673 60.844 9.39766 60.705 9.15134 60.5619C8.35297 60.082 7.58369 59.5647 6.82325 59.0269C6.13671 58.6779 6.13671 58.6779 4.64844 58.7891ZM132.869 64.9457C132.674 65.046 132.479 65.1462 132.278 65.2495C131.638 65.5786 131 65.9093 130.361 66.2402C129.918 66.4688 129.476 66.6974 129.033 66.926C126.518 68.2261 124.022 69.5527 121.545 70.9242C118.992 72.3297 116.394 73.6463 113.799 74.9729C111.168 76.3188 108.555 77.6881 105.971 79.1215C103.076 80.7156 100.126 82.2047 97.183 83.7055C96.9787 83.8099 96.7744 83.9143 96.5639 84.0218C96.1759 84.22 95.7876 84.4177 95.3991 84.6149C94.5379 85.0179 94.5379 85.0179 93.7891 85.5859C89.7239 86.06 86.0852 84.8656 82.2363 83.689C81.3263 83.4175 80.4157 83.1478 79.5051 82.8782C78.9432 82.7111 78.3817 82.5426 77.8207 82.3725C77.5675 82.2958 77.3144 82.2192 77.0536 82.1403C76.8326 82.0729 76.6116 82.0055 76.384 81.936C75.2369 81.6175 74.147 81.4371 72.9565 81.416C72.7214 81.409 72.4863 81.4019 72.2441 81.3947C69.8279 81.6419 67.6792 82.6973 65.5331 83.7723C65.2483 83.9135 64.9634 84.0548 64.6699 84.2003C64.0724 84.4975 63.4754 84.7959 62.879 85.0953C61.9666 85.5523 61.0514 86.0035 60.136 86.4543C59.5537 86.7449 58.9715 87.0357 58.3896 87.327C58.1167 87.4609 57.8438 87.5948 57.5627 87.7328C55.7233 88.6648 55.7233 88.6648 54.4141 90.2344C54.1216 91.3092 54.2073 92.2826 54.7067 93.2796C55.2796 94.0538 55.2796 94.0538 56.0547 94.6094C57.7366 94.7443 58.6251 94.5417 60.0943 93.6406C60.2607 93.5407 60.4272 93.4407 60.5986 93.3378C61.1262 93.0198 61.6496 92.6956 62.1729 92.3706C62.8632 91.9491 63.5551 91.5301 64.2471 91.1113C64.4132 91.0103 64.5792 90.9093 64.7503 90.8052C68.1151 88.7717 70.9203 87.8142 74.8535 88.44C77.2537 89.2184 79.1268 91.2912 80.9375 92.9688C81.11 93.1277 81.2825 93.2866 81.4602 93.4503C82.2849 94.2108 83.1063 94.9747 83.925 95.7416C84.7311 96.4949 85.5559 97.2234 86.3913 97.944C87.1361 98.5982 87.8646 99.2699 88.5938 99.9414C89.6621 100.925 90.7409 101.894 91.8387 102.845C92.7401 103.64 93.6222 104.457 94.5036 105.275C94.9009 105.642 95.302 106.005 95.7031 106.367C95.8377 106.504 95.9722 106.641 96.1109 106.782C96.5622 107.238 96.5622 107.238 97.3438 107.734C98.4843 107.452 99.5023 106.963 100.55 106.438C101.008 106.21 101.008 106.21 101.476 105.977C101.811 105.809 102.145 105.641 102.48 105.473C102.835 105.296 103.19 105.118 103.546 104.941C104.508 104.46 105.469 103.979 106.43 103.497C107.436 102.993 108.443 102.49 109.449 101.986C111.138 101.142 112.826 100.297 114.514 99.4508C116.468 98.4719 118.422 97.4942 120.376 96.5171C122.256 95.5774 124.135 94.6371 126.014 93.6964C126.814 93.2958 127.615 92.8953 128.415 92.495C129.356 92.0245 130.296 91.5533 131.237 91.0818C131.583 90.9084 131.929 90.7352 132.275 90.5623C132.745 90.327 133.216 90.091 133.686 89.855C134.082 89.6568 134.082 89.6568 134.485 89.4546C135.056 89.1895 135.056 89.1895 135.352 88.8672C135.378 88.0933 135.386 87.326 135.383 86.552C135.383 86.1879 135.383 86.1879 135.383 85.8164C135.383 85.0101 135.38 84.2037 135.378 83.3974C135.378 82.8399 135.377 82.2824 135.377 81.7249C135.376 80.2545 135.373 78.7841 135.37 77.3137C135.368 75.8145 135.366 74.3153 135.365 72.8161C135.362 69.8722 135.357 66.9283 135.352 63.9844C134.433 63.9844 133.67 64.53 132.869 64.9457ZM26.5234 70.8203C25.4771 74.5138 24.5075 78.2238 23.568 81.9458C23.4602 82.3724 23.4602 82.3724 23.3503 82.8077C22.9725 84.3045 22.5956 85.8015 22.2193 87.2987C21.9084 88.5349 21.5956 89.7707 21.2812 91.0061C20.8992 92.5074 20.5202 94.0095 20.1436 95.5122C20 96.0829 19.8553 96.6533 19.7095 97.2234C19.5075 98.0144 19.3094 98.8063 19.1124 99.5986C19.0512 99.8343 18.99 100.07 18.927 100.313C18.7913 100.867 18.689 101.43 18.5938 101.992C19.2726 102.671 19.8564 102.832 20.7642 103.137C21.0542 103.237 21.3443 103.337 21.6432 103.439C22.4349 103.71 22.4349 103.71 23.2422 103.359C23.4954 102.867 23.4954 102.867 23.6541 102.246C23.7246 102.006 23.7952 101.766 23.8679 101.519C23.9421 101.253 24.0162 100.988 24.0927 100.714C24.1732 100.437 24.2538 100.159 24.3368 99.8724C24.6034 98.9493 24.865 98.0248 25.1263 97.1002C25.3095 96.4601 25.4929 95.8201 25.6765 95.1801C26.0612 93.8364 26.4434 92.4921 26.8238 91.1472C27.312 89.4225 27.8059 87.6995 28.3016 85.9769C28.6815 84.6545 29.0585 83.3314 29.4345 82.0079C29.6155 81.3723 29.7973 80.7369 29.9801 80.1018C30.2352 79.2136 30.4863 78.3245 30.7364 77.4349C30.851 77.0402 30.851 77.0402 30.9679 76.6375C31.0353 76.3945 31.1028 76.1514 31.1723 75.901C31.2618 75.5858 31.2618 75.5858 31.3531 75.2643C31.4631 74.5299 31.376 73.9925 31.1719 73.2813C30.7509 72.8765 30.7509 72.8765 30.1978 72.6094C29.9048 72.4495 29.9048 72.4495 29.606 72.2863C29.4009 72.1804 29.1957 72.0745 28.9844 71.9653C28.7792 71.8541 28.5741 71.7429 28.3627 71.6283C27.4875 71.0701 27.4875 71.0701 26.5234 70.8203ZM42.8986 78.7208C42.2188 78.8668 41.5381 79.0091 40.8567 79.1478C39.8635 79.3501 38.8732 79.563 37.8828 79.7786C37.5778 79.8388 37.2728 79.899 36.9585 79.961C36.5364 80.0566 36.5364 80.0566 36.1057 80.1542C35.7348 80.2328 35.7348 80.2328 35.3563 80.313C34.1873 80.9647 33.9861 82.3286 33.6 83.535C33.5047 83.8707 33.4093 84.2065 33.3111 84.5525C33.2576 84.7394 33.2042 84.9264 33.1491 85.1191C32.9748 85.7297 32.8023 86.3409 32.6299 86.9521C32.5085 87.3785 32.3871 87.8049 32.2655 88.2313C31.9475 89.348 31.631 90.4652 31.3148 91.5824C30.9913 92.7247 30.6663 93.8665 30.3414 95.0083C29.7054 97.2447 29.0709 99.4816 28.4375 101.719C29.671 102.714 30.9377 103.567 32.2827 104.402C32.5021 104.543 32.7215 104.683 32.9476 104.829C33.16 104.96 33.3724 105.092 33.5912 105.228C33.7829 105.348 33.9747 105.468 34.1723 105.593C34.8513 105.872 35.1465 105.815 35.8203 105.547C36.2978 105.109 36.2978 105.109 36.7261 104.556C38.585 102.35 40.844 99.7473 43.9145 99.4661C46.2558 99.4086 47.9054 99.7469 49.7144 101.274C51.0218 102.843 51.6164 104.1 51.9531 106.094C52.3142 106.193 52.3142 106.193 52.6826 106.295C53.0002 106.386 53.3178 106.478 53.645 106.572C53.9591 106.661 54.2731 106.75 54.5967 106.841C56.3304 107.5 57.1127 108.501 57.9495 110.087C58.3672 111.022 58.5886 111.927 58.7891 112.93C59.1444 112.986 59.4997 113.042 59.8657 113.101C61.5988 113.496 63.0705 114.26 64.1499 115.705C64.7277 116.698 65.0617 117.478 65.249 118.621C65.5298 119.53 65.5298 119.53 66.2584 119.805C66.7903 119.987 67.3249 120.161 67.8616 120.327C69.3804 120.837 70.3606 121.638 71.2646 122.944C72.7774 125.087 75.4956 127.497 77.9297 128.516C79.0543 128.684 79.5622 128.716 80.4932 128.054C80.9974 127.337 81.1895 126.933 81.2109 126.055C80.6781 125.004 80.0415 124.298 79.1602 123.525C78.9166 123.312 78.673 123.098 78.4221 122.878C77.4421 122.044 76.4487 121.229 75.4485 120.419C74.568 119.7 73.702 118.965 72.8369 118.228C71.4652 117.06 70.0694 115.931 68.6328 114.844C69.2233 113.761 69.9381 112.892 70.7637 111.987C71.1497 111.58 71.1497 111.58 71.0938 111.016C72.6095 112.115 74.047 113.29 75.4711 114.504C76.4187 115.312 77.3737 116.109 78.3398 116.895C79.6477 117.958 80.9352 119.044 82.2155 120.141C83.5673 121.293 84.3175 121.813 86.088 121.764C86.73 121.712 86.73 121.712 87.3804 121.252C87.9299 120.321 87.9229 119.737 87.7734 118.672C87.0734 117.67 86.2843 116.932 85.3296 116.177C85.0649 115.965 84.8002 115.752 84.5274 115.534C84.3879 115.422 84.2484 115.31 84.1046 115.195C83.3576 114.589 82.6268 113.964 81.8945 113.34C80.53 112.18 79.1517 111.039 77.7631 109.908C76.9933 109.28 76.23 108.646 75.4688 108.008C75.9659 106.888 76.7059 106.112 77.5302 105.22C77.987 104.762 77.987 104.762 77.9297 104.18C79.4508 105.378 80.9492 106.6 82.4243 107.854C84.0095 109.201 85.6081 110.529 87.2266 111.836C87.3851 111.966 87.5437 112.096 87.7071 112.23C88.2171 112.648 88.7299 113.063 89.2432 113.477C89.4026 113.608 89.5621 113.74 89.7264 113.876C90.6051 114.578 91.2841 115.046 92.4219 115.117C93.3398 114.855 94.0777 114.561 94.6094 113.75C94.7882 112.565 94.7321 112.02 94.0625 111.016C93.327 110.235 92.5185 109.537 91.703 108.842C90.9254 108.169 90.1695 107.475 89.4141 106.777C88.5117 105.946 87.6068 105.12 86.6797 104.316C85.6048 103.385 84.56 102.421 83.5138 101.458C82.5872 100.606 81.6478 99.7725 80.6961 98.9491C80.1008 98.423 79.5177 97.8848 78.9355 97.3442C75.6623 93.9737 75.6623 93.9737 71.3885 92.7327C70.2304 92.9223 69.2868 93.4088 68.291 94.0112C68.1081 94.1175 67.9252 94.2238 67.7367 94.3333C66.6379 94.9758 65.5524 95.64 64.4661 96.3034C64.1033 96.524 64.1033 96.524 63.7331 96.749C63.2607 97.0372 62.7898 97.3276 62.3205 97.6207C60.1705 98.939 58.1975 99.6341 55.6488 99.1211C53.6128 98.5782 52.1049 97.7983 50.9106 96.0278C49.783 94.047 49.4046 91.826 49.912 89.5892C50.7074 86.9985 52.1402 85.4843 54.4617 84.1506C55.0844 83.8277 55.712 83.5187 56.3441 83.2147C56.6845 83.0472 56.6845 83.0472 57.0317 82.8763C57.7475 82.5241 58.4646 82.1749 59.1821 81.8262C59.9063 81.4734 60.6302 81.1199 61.3531 80.7644C61.8008 80.5443 62.2494 80.3257 62.6987 80.1089C63.8019 79.6383 63.8019 79.6383 64.5312 78.75C56.778 76.3798 50.7468 77.0182 42.8986 78.7208ZM41.1694 106.521C40.9468 106.74 40.7243 106.958 40.4949 107.184C39.1705 108.488 39.1705 108.488 38.5323 110.18C38.5548 111.021 38.6044 111.438 39.1016 112.109C40.1524 112.81 40.5874 112.84 41.8359 112.656C42.6661 112.121 43.3294 111.441 44.0234 110.742C44.2635 110.512 44.5035 110.282 44.7508 110.045C46.2759 108.659 46.2759 108.659 47.3047 106.914C47.2652 105.967 47.1258 105.417 46.604 104.624C45.8495 104.121 45.2807 103.999 44.3758 104.019C43.011 104.37 42.1114 105.531 41.1694 106.521ZM48.5736 112.692C48.2631 113.003 47.9541 113.316 47.6465 113.63C47.4889 113.788 47.3314 113.946 47.169 114.108C45.8398 115.402 45.8398 115.402 45.271 117.134C45.3146 118.151 45.3146 118.151 45.9546 118.928C46.7234 119.535 46.7234 119.535 47.6294 119.731C49.2959 119.349 50.2384 118.233 51.4062 117.031C51.6414 116.792 51.8765 116.553 52.1187 116.307C53.5799 114.848 53.5799 114.848 54.1406 112.93C53.7894 111.935 53.5722 111.428 52.6367 110.913C50.8394 110.464 49.7993 111.51 48.5736 112.692ZM55.5078 119.492C55.2424 119.752 54.9764 120.012 54.7099 120.271C52.9245 121.839 52.9245 121.839 52.1411 123.97C52.1442 124.955 52.1442 124.955 52.6709 125.61C53.4863 126.168 53.9696 126.328 54.9609 126.328C56.3812 125.522 57.4634 124.447 58.6011 123.286C58.774 123.113 58.9469 122.94 59.125 122.762C60.3645 121.566 60.3645 121.566 60.7886 119.937C60.7831 118.955 60.7831 118.955 60.2759 118.296C58.1251 116.862 57.0581 117.904 55.5078 119.492ZM61.5234 126.875C61.3116 127.067 61.0998 127.26 60.8815 127.458C59.702 128.55 58.9432 129.342 58.7891 130.977C59.1321 131.864 59.5156 132.265 60.2417 132.874C60.9663 133.229 60.9663 133.229 61.7456 133.062C63.959 131.933 66.1664 129.754 67.5391 127.695C67.6937 126.502 67.6739 125.973 66.9751 124.978C66.2063 124.371 66.2063 124.371 65.3003 124.175C63.6388 124.556 62.7026 125.694 61.5234 126.875ZM71.6406 129.883C71.512 130.051 71.3833 130.219 71.2508 130.392C70.9954 130.724 70.9954 130.724 70.7349 131.062C70.5667 131.281 70.3986 131.5 70.2254 131.725C69.8088 132.242 69.3863 132.708 68.9062 133.164C69.3193 134.321 70.0337 134.781 71.0938 135.352C72.1575 135.479 72.9443 135.436 73.8281 134.805C74.3356 134.128 74.376 133.759 74.3579 132.908C73.9164 131.465 72.8112 130.749 71.6406 129.883Z" fill="#147DC0"/>
</g>
<defs>
<clipPath id="clip0_1056_3111">
<rect width="140" height="140" fill="white"/>
</clipPath>
</defs>
</svg>
