<svg width="140" height="139" viewBox="0 0 140 139" fill="none" xmlns="http://www.w3.org/2000/svg">
<g clip-path="url(#clip0_1056_3057)">
<path d="M0 2.42025e-05C7.76016 2.42025e-05 15.5203 2.42025e-05 23.5156 2.42025e-05C23.5156 1.43346 23.5156 2.8669 23.5156 4.34377C27.2304 4.45784 29.8105 3.20082 33.0526 1.47907C35.5716 0.319084 37.6706 -0.159902 40.4535 -0.14049C40.7941 -0.142393 41.1346 -0.144296 41.4855 -0.146257C42.4111 -0.150191 43.3364 -0.149306 44.2619 -0.145845C45.2373 -0.14307 46.2126 -0.145653 47.188 -0.14735C48.8263 -0.14932 50.4646 -0.14674 52.1029 -0.141551C53.9866 -0.135653 55.87 -0.137549 57.7537 -0.143534C59.3805 -0.148493 61.0073 -0.149142 62.6341 -0.146315C63.6014 -0.144638 64.5687 -0.144353 65.5361 -0.147984C70.3113 -0.163472 74.6326 -0.149652 78.9209 2.1719C79.181 2.29841 79.181 2.29841 79.4464 2.42748C82.2605 3.9121 84.4517 6.29348 86.2876 8.82666C89.6282 13.397 93.4293 17.9459 99.2933 18.9131C101.831 19.2646 104.382 19.3446 106.942 19.3624C107.268 19.365 107.268 19.365 107.601 19.3678C111.354 19.3866 115.092 19.1921 118.843 19.0379C129.316 18.7523 129.316 18.7523 140 18.461C140 38.4395 140 58.418 140 79.002C107.606 79.002 75.2117 79.002 41.8359 79.002C41.8359 69.2367 41.8359 59.4714 41.8359 49.4102C40.3922 49.231 38.9484 49.0518 37.4609 48.8672C34.2715 48.1321 31.1 46.9631 28.4439 45.0113C27.4459 44.4224 26.5936 44.3442 25.4639 44.3199C24.8209 44.2975 24.178 44.2751 23.5156 44.252C23.5156 46.4917 23.5156 48.7315 23.5156 51.0391C15.7555 51.0391 7.99531 51.0391 0 51.0391C0 34.1962 0 17.3533 0 2.42025e-05ZM4.92188 4.88674C4.92188 18.5044 4.92188 32.1221 4.92188 46.1524C9.43359 46.1524 13.9453 46.1524 18.5938 46.1524C18.5938 32.5347 18.5938 18.9171 18.5938 4.88674C14.082 4.88674 9.57031 4.88674 4.92188 4.88674ZM32.0601 7.53227C29.2479 9.09111 26.8785 9.03409 23.5156 9.23049C23.5156 19.175 23.5156 29.1194 23.5156 39.3653C25.4105 39.4549 27.3055 39.5444 29.2578 39.6367C30.6759 40.4215 31.8136 41.1359 33.0859 42.0801C35.8637 43.6165 38.6979 44.1773 41.8359 44.5235C41.8359 40.8503 41.8359 37.1771 41.8359 33.3926C40.4824 32.6759 39.1289 31.9592 37.7344 31.2207C37.193 30.7728 36.6516 30.3248 36.0938 29.8633C36.4602 28.5698 37.2518 27.7718 38.1552 26.8144C38.6127 26.3681 38.6127 26.3681 38.5547 25.791C38.7369 25.9321 38.9191 26.0731 39.1069 26.2184C42.6244 28.8609 45.6407 29.8963 50.0391 29.5918C52.4115 29.1285 54.1543 28.0347 56.0547 26.6055C56.6005 26.2419 57.1473 25.8798 57.6953 25.5196C57.9552 25.7821 57.9552 25.7821 58.2204 26.05C59.858 27.7032 61.499 29.3531 63.1437 30.9993C63.989 31.8457 64.833 32.6933 65.6741 33.5438C66.4867 34.3653 67.3025 35.1835 68.1208 35.9994C68.4316 36.3104 68.7412 36.6227 69.0495 36.9362C71.4203 39.4825 71.4203 39.4825 74.6591 40.4716C76.0094 40.3831 76.9179 39.9613 77.9297 39.0938C78.8952 37.8325 79.2559 36.7934 79.1496 35.1989C78.6691 32.4549 75.6588 30.2198 73.7534 28.3521C73.4 28.0028 73.0467 27.6532 72.6937 27.3035C71.7704 26.3899 70.8446 25.4787 69.9184 24.5681C68.971 23.6359 68.026 22.7014 67.0808 21.767C65.2307 19.9388 63.3779 18.1131 61.5234 16.2891C61.7801 15.9887 62.0373 15.6886 62.2946 15.3887C62.4378 15.2216 62.5809 15.0545 62.7284 14.8823C63.3012 14.2333 63.9077 13.6321 64.5312 13.0313C65.4781 13.4185 65.8928 13.8562 66.4708 14.6855C67.994 16.65 69.5349 18.4249 72.1228 18.8059C74.5759 19.0482 77.0476 18.9232 79.5042 18.7965C80.5928 18.7458 81.682 18.7241 82.7715 18.6996C84.8961 18.6477 87.0179 18.5647 89.1406 18.461C87.5032 16.5312 85.7508 14.7347 83.9649 12.9408C83.5894 12.5621 83.2157 12.1818 82.8437 11.7997C78.9598 7.8122 74.9573 4.83915 69.1165 4.71846C68.8221 4.71767 68.5277 4.71688 68.2244 4.71607C67.9033 4.71112 67.5821 4.70616 67.2513 4.70105C66.2 4.68671 65.1489 4.68052 64.0976 4.67571C63.731 4.67308 63.3643 4.67032 62.9977 4.66743C61.0757 4.65256 59.1537 4.64411 57.2316 4.64078C55.4587 4.6375 53.6864 4.61893 51.9137 4.59334C50.3769 4.57195 48.8403 4.56251 47.3034 4.5616C46.3919 4.56083 45.4815 4.55409 44.57 4.53781C39.7406 4.45803 36.2702 5.14154 32.0601 7.53227ZM75.7422 23.3477C76.2836 23.9748 76.825 24.6019 77.3828 25.2481C77.5682 25.4825 77.7535 25.7169 77.9445 25.9584C79.0681 27.2625 79.8895 27.8446 81.6345 27.9853C82.3355 27.9923 83.0368 27.9859 83.7376 27.9688C84.1259 27.9681 84.5142 27.9685 84.9025 27.9699C85.95 27.9706 86.9969 27.9563 88.0442 27.9392C89.1412 27.9238 90.2382 27.9225 91.3352 27.9196C93.4096 27.912 95.4837 27.892 97.5579 27.8674C99.9206 27.84 102.283 27.8266 104.646 27.8144C109.504 27.7889 114.361 27.746 119.219 27.6914C119.213 27.9847 119.206 28.278 119.2 28.5802C119.195 28.9715 119.19 29.3628 119.186 29.7541C119.181 29.9466 119.177 30.1391 119.172 30.3375C119.15 32.8432 120.01 34.7871 121.714 36.6334C124.412 39.0935 127.145 39.3653 130.703 39.3653C130.703 45.547 130.703 51.7287 130.703 58.0977C129.35 58.0977 127.996 58.0977 126.602 58.0977C123.952 58.671 121.906 60.2 120.372 62.4213C118.977 64.7795 119.219 66.5918 119.219 69.5C100.63 69.5 82.0422 69.5 62.8906 69.5C62.8906 68.3354 62.8906 67.1707 62.8906 65.9707C62.4934 64.2553 62.0627 63.0321 60.9766 61.627C60.8299 61.403 60.6833 61.179 60.5322 60.9483C59.1354 59.4884 57.4084 58.7267 55.5078 58.0977C54.0641 58.0977 52.6203 58.0977 51.1328 58.0977C51.1328 51.916 51.1328 45.7343 51.1328 39.3653C52.0352 39.3653 52.9375 39.3653 53.8672 39.3653C56.8431 39.061 58.8355 37.8487 60.9766 35.836C60.4366 35.1953 59.8912 34.563 59.3359 33.9356C59.0948 33.6589 59.0948 33.6589 58.8489 33.3767C57.9742 32.3587 57.9742 32.3587 56.7554 31.9843C56.1937 32.2427 55.6434 32.5254 55.0977 32.8157C52.4858 34.1536 49.6473 34.2579 46.7578 34.4785C46.7578 47.5587 46.7578 60.6388 46.7578 74.1153C75.9035 74.1153 105.049 74.1153 135.078 74.1153C135.078 57.362 135.078 40.6087 135.078 23.3477C115.497 23.3477 95.9164 23.3477 75.7422 23.3477ZM83.6719 32.5781C83.6719 34.3699 83.6719 36.1617 83.6719 38.0078C83.5816 38.5454 83.4914 39.0829 83.3984 39.6367C83.6265 39.5059 83.8545 39.375 84.0895 39.2401C87.5907 37.289 90.8029 36.5292 94.7974 37.6176C97.8793 38.6671 100.127 40.5672 101.65 43.4036C103.195 46.6729 103.205 50.0873 101.992 53.4824C100.607 56.4433 98.4994 58.5406 95.4297 59.7266C92.5625 60.6948 89.0352 60.7412 86.2386 59.5251C83.0222 57.8422 81.1306 55.7965 79.8438 52.3965C79.495 51.2016 79.52 50.052 79.519 48.8163C79.5157 48.5957 79.5123 48.375 79.5089 48.1477C79.5052 46.6019 79.7181 45.2022 80.1172 43.709C79.3407 43.96 78.5757 44.2097 77.825 44.5298C75.3614 45.4425 72.6471 45.1289 70.2734 44.0993C68.1632 42.9669 66.4648 41.0569 64.8047 39.3653C63.8916 39.7671 63.2311 40.2937 62.4805 40.9433C60.5459 42.5089 58.3976 43.2051 56.0547 43.9805C56.0547 47.1161 56.0547 50.2518 56.0547 53.4824C57.2277 53.8408 58.4008 54.1992 59.6094 54.5684C63.6726 56.7689 65.8058 59.4196 67.2656 63.7989C67.3559 64.0676 67.4461 64.3364 67.5391 64.6133C83.0594 64.6133 98.5797 64.6133 114.57 64.6133C114.931 63.4486 115.292 62.284 115.664 61.084C117.515 57.7032 119.959 55.4331 123.594 54.0254C124.316 53.8462 125.037 53.6671 125.781 53.4824C125.781 50.3468 125.781 47.2112 125.781 43.9805C124.022 43.3086 124.022 43.3086 122.227 42.6231C117.763 40.3017 116.023 37.1483 114.297 32.5781C104.191 32.5781 94.0844 32.5781 83.6719 32.5781ZM85.5859 44.252C84.2578 46.1247 83.849 47.9622 84.2188 50.2246C84.9648 52.5414 86.3064 53.8713 88.3716 55.0774C90.3469 55.6561 92.2422 55.6904 94.1479 54.8568C95.8967 53.8699 96.9908 52.4506 97.7368 50.6149C98.1351 48.1984 97.8611 46.2664 96.3942 44.2382C95.0936 42.8125 93.4824 42.0252 91.5738 41.7153C89.2463 41.6048 87.0886 42.501 85.5859 44.252Z" fill="#147DC0"/>
<path d="M116.484 92.5762C124.245 92.5762 132.005 92.5762 140 92.5762C140 107.896 140 123.216 140 139C132.24 139 124.48 139 116.484 139C116.394 138.015 116.304 137.029 116.211 136.014C115.897 136.135 115.897 136.135 115.576 136.259C114.626 136.624 113.675 136.989 112.725 137.354C112.395 137.481 112.065 137.609 111.725 137.74C111.408 137.861 111.091 137.983 110.764 138.108C110.472 138.22 110.179 138.333 109.878 138.448C108.693 138.876 107.72 139.035 106.454 139.04C106.137 139.042 105.82 139.044 105.493 139.046C105.146 139.047 104.8 139.047 104.442 139.048C104.073 139.05 103.703 139.052 103.333 139.053C102.12 139.059 100.906 139.062 99.6927 139.065C99.2739 139.066 98.8551 139.067 98.4364 139.068C96.4679 139.073 94.4994 139.077 92.5309 139.079C90.264 139.082 87.9971 139.089 85.7302 139.1C83.9748 139.108 82.2194 139.112 80.464 139.113C79.4172 139.114 78.3704 139.116 77.3236 139.123C76.3372 139.129 75.3509 139.131 74.3644 139.128C73.8343 139.128 73.3043 139.133 72.7742 139.138C70.071 139.122 67.819 138.517 65.5108 137.099C65.1305 136.868 65.1305 136.868 64.7425 136.633C64.4755 136.468 64.2084 136.303 63.9332 136.132C63.3303 135.766 62.7271 135.4 62.1238 135.035C61.9663 134.939 61.8087 134.843 61.6464 134.744C59.9052 133.685 58.147 132.654 56.389 131.623C53.2835 129.801 50.1913 127.958 47.1112 126.093C44.5437 124.54 41.9626 123.01 39.3751 121.489C36.2117 119.63 33.0603 117.753 29.9221 115.852C28.439 114.954 26.953 114.063 25.4543 113.19C22.5083 111.469 20.3488 109.816 19.4142 106.422C19.1099 103.261 19.2816 100.429 21.3432 97.8447C23.0704 96.0171 24.9385 94.854 27.4913 94.6834C27.8637 94.6751 28.2361 94.6684 28.6085 94.6632C28.7893 94.6553 28.9702 94.6475 29.1565 94.6393C31.865 94.6058 34.2439 96.1005 36.5724 97.3271C36.8451 97.4696 37.1178 97.6121 37.3988 97.7589C39.7324 98.9822 42.0494 100.235 44.3632 101.495C48.6069 103.803 52.8754 106.068 57.1486 108.322C57.2198 108.079 57.291 107.835 57.3643 107.584C58.2006 105.334 59.984 104.054 62.094 103.049C64.4282 102.064 66.9451 101.516 69.3913 100.878C69.9967 100.717 70.602 100.556 71.2073 100.396C72.4712 100.06 73.7357 99.7273 75.0008 99.3963C76.6131 98.9743 78.224 98.5472 79.8345 98.1184C81.083 97.7864 82.3321 97.4567 83.5814 97.1276C84.1752 96.971 84.7688 96.8139 85.3623 96.6561C89.3167 95.6072 93.1483 94.6544 97.2702 94.6759C97.5004 94.6754 97.7306 94.6749 97.9678 94.6744C98.4472 94.674 98.9267 94.675 99.4061 94.6773C100.131 94.6802 100.856 94.6773 101.582 94.6738C107.631 94.6682 107.631 94.6682 110.093 95.9697C110.494 96.1808 110.494 96.1808 110.903 96.396C112.78 97.4494 114.633 98.5377 116.484 99.6348C116.484 97.3054 116.484 94.9761 116.484 92.5762ZM121.406 97.4629C121.406 109.558 121.406 121.652 121.406 134.113C125.918 134.113 130.43 134.113 135.078 134.113C135.078 122.019 135.078 109.924 135.078 97.4629C130.567 97.4629 126.055 97.4629 121.406 97.4629ZM24.6095 102.078C24.2832 102.726 24.2718 103.171 24.2506 103.894C24.2404 104.119 24.2302 104.344 24.2196 104.576C24.4395 106.011 25.1129 106.985 26.2286 107.87C26.6866 108.145 26.6866 108.145 27.1537 108.424C27.3213 108.526 27.4889 108.628 27.6615 108.733C28.191 109.053 28.7241 109.367 29.2579 109.68C29.5943 109.881 29.9305 110.082 30.2665 110.283C31.1242 110.795 31.9854 111.301 32.848 111.804C33.8053 112.363 34.7611 112.925 35.7168 113.487C35.9102 113.6 36.1037 113.714 36.3029 113.831C38.1737 114.932 40.0312 116.054 41.8873 117.179C44.616 118.833 47.3641 120.45 50.1257 122.048C52.7752 123.583 55.4033 125.149 58.0217 126.735C60.8665 128.457 63.7285 130.149 66.6027 131.823C67.5462 132.378 68.4818 132.946 69.4168 133.514C70.3837 134.057 71.1558 134.151 72.2464 134.166C72.542 134.171 72.8377 134.175 73.1423 134.18C73.467 134.184 73.7916 134.188 74.1261 134.191C74.4682 134.196 74.8103 134.201 75.1628 134.206C78.3424 134.248 81.5222 134.272 84.702 134.29C87.0437 134.304 89.3848 134.327 91.7262 134.363C93.3811 134.388 95.0358 134.401 96.6909 134.405C97.674 134.408 98.6564 134.416 99.6392 134.437C105.129 134.55 109.4 133.677 114.372 131.458C115.07 131.148 115.773 130.861 116.484 130.584C116.567 127.365 116.63 124.147 116.669 120.927C116.687 119.432 116.712 117.937 116.753 116.442C116.791 114.999 116.813 113.556 116.822 112.112C116.828 111.562 116.841 111.012 116.86 110.463C117.078 107.681 117.078 107.681 116.142 105.171C115.187 104.344 114.1 103.905 112.93 103.436C112.438 103.143 111.951 102.843 111.473 102.53C111.024 102.255 110.576 101.98 110.127 101.705C109.903 101.564 109.679 101.423 109.448 101.277C106.639 99.5699 104.025 99.547 100.804 99.564C100.152 99.5669 99.4999 99.564 98.8478 99.5605C98.422 99.5609 97.9961 99.5616 97.5703 99.5627C97.3811 99.5616 97.1918 99.5605 96.9968 99.5593C93.0573 99.595 89.3026 100.728 85.5294 101.737C84.9451 101.892 84.3608 102.046 83.7764 102.201C82.5578 102.525 81.3396 102.849 80.1216 103.175C78.5647 103.591 77.0067 104.003 75.4484 104.414C74.2439 104.733 73.0399 105.053 71.8361 105.374C71.2619 105.527 70.6875 105.679 70.1129 105.831C69.3096 106.043 68.5072 106.258 67.7049 106.474C67.4704 106.535 67.2358 106.596 66.9941 106.659C64.9552 107.214 62.9588 107.816 61.797 109.68C61.193 110.965 61.1174 112.124 61.5236 113.48C62.0534 114.537 62.6722 115.228 63.6427 115.907C66.1109 116.708 68.4926 115.892 70.9059 115.245C71.3059 115.14 71.7061 115.036 72.1062 114.931C73.3007 114.619 74.4939 114.302 75.6871 113.984C76.6629 113.725 77.639 113.467 78.6153 113.21C78.7955 113.162 78.9757 113.115 79.1614 113.066C79.5332 112.968 79.9051 112.87 80.277 112.772C84.5088 111.655 88.7391 110.533 92.9689 109.408C93.0545 109.872 93.1399 110.336 93.2252 110.8C93.2728 111.058 93.3204 111.316 93.3694 111.582C93.5158 112.395 93.6541 113.209 93.7892 114.023C90.6043 114.869 87.4192 115.714 84.234 116.558C82.755 116.95 81.2761 117.342 79.7972 117.735C78.3701 118.114 76.9429 118.492 75.5156 118.87C74.971 119.015 74.4264 119.159 73.8819 119.304C73.1194 119.506 72.3568 119.708 71.5941 119.91C71.3689 119.97 71.1437 120.03 70.9117 120.092C67.9513 120.874 64.3372 121.604 61.5097 120.064C61.3338 119.952 61.1579 119.84 60.9767 119.725C60.7867 119.613 60.5967 119.501 60.401 119.385C58.6884 118.262 57.4307 116.591 56.9639 114.589C56.4978 113.512 55.8603 113.19 54.8457 112.698C54.6686 112.607 54.4916 112.515 54.3091 112.421C53.7313 112.125 53.15 111.836 52.5685 111.546C52.166 111.341 51.7638 111.135 51.3619 110.929C50.5607 110.517 49.7585 110.108 48.9553 109.701C47.5364 108.979 46.1374 108.222 44.7413 107.457C44.2683 107.199 43.7951 106.942 43.3218 106.685C43.0842 106.556 42.8466 106.427 42.6018 106.294C40.8335 105.336 39.0606 104.387 37.2844 103.444C35.9609 102.741 34.6416 102.035 33.3392 101.294C30.7858 99.7879 30.7858 99.7879 27.894 99.4821C26.3823 99.9017 25.4948 100.841 24.6095 102.078Z" fill="#147DC0"/>
</g>
<defs>
<clipPath id="clip0_1056_3057">
<rect width="140" height="139" fill="white"/>
</clipPath>
</defs>
</svg>
