<svg width="140" height="140" viewBox="0 0 140 140" fill="none" xmlns="http://www.w3.org/2000/svg">
<path d="M104.539 2.39259C104.923 2.38413 104.923 2.38413 105.316 2.3755C106.773 2.36728 107.878 2.40005 109.102 3.28126C110.105 4.48323 110.475 5.66847 110.811 7.16065C110.858 7.35504 110.905 7.54944 110.954 7.74972C111.145 8.55679 111.289 9.28511 111.289 10.1172C111.572 10.187 111.572 10.187 111.861 10.2582C112.118 10.3245 112.374 10.3907 112.639 10.459C112.917 10.5295 113.194 10.6 113.48 10.6726C114.26 10.9255 114.781 11.2434 115.459 11.6895C116.048 12.0212 116.048 12.0212 116.758 12.0313C117.87 11.5142 118.832 10.8991 119.835 10.2005C120.882 9.50199 121.805 9.2308 123.047 9.02345C124.514 9.44626 125.313 10.0988 126.328 11.2109C126.631 11.5017 126.631 11.5017 126.94 11.7984C127.161 12.0106 127.382 12.2228 127.61 12.4414C127.82 12.6416 128.029 12.8418 128.245 13.0481C129.086 14.012 129.347 14.6544 129.31 15.9395C129.007 17.1817 128.485 18.1361 127.832 19.2261C127.607 19.6124 127.382 19.9987 127.157 20.385C127.057 20.5532 126.957 20.7215 126.854 20.8948C126.667 21.2152 126.494 21.5433 126.328 21.875C126.584 22.5398 126.584 22.5398 126.961 23.2764C127.58 24.5305 127.931 25.713 128.242 27.0703C128.579 27.1398 128.915 27.2092 129.261 27.2807C129.708 27.3757 130.154 27.4708 130.601 27.5659C130.822 27.6112 131.043 27.6565 131.27 27.7032C132.775 28.0274 134.229 28.3493 135.3 29.5313C136.09 30.862 135.959 32.2194 135.967 33.7183C135.975 34.1029 135.975 34.1029 135.984 34.4953C135.992 35.9526 135.959 37.0576 135.078 38.2813C133.876 39.285 132.691 39.6547 131.199 39.9902C131.004 40.0375 130.81 40.0847 130.61 40.1334C129.803 40.3247 129.074 40.4688 128.242 40.4688C128.196 40.6573 128.149 40.8459 128.101 41.0402C128.035 41.2972 127.969 41.5541 127.9 41.8189C127.795 42.235 127.795 42.235 127.687 42.6595C127.434 43.4394 127.116 43.9606 126.67 44.6387C126.338 45.2288 126.338 45.2288 126.328 45.9375C126.851 47.0503 127.485 48.035 128.162 49.0575C128.881 50.1486 129.402 51.1634 129.336 52.5C128.832 54.7458 126.631 56.6861 124.784 57.8961C123.777 58.4378 123.025 58.6553 121.893 58.3543C120.836 57.9646 119.961 57.5871 119.094 56.8547C118.3 56.1952 117.755 55.7977 116.758 55.5078C115.2 55.7745 113.762 56.5036 112.364 57.2158C111.836 57.4219 111.836 57.4219 110.742 57.4219C110.742 58.5047 110.742 59.5875 110.742 60.7031C111.004 60.7013 111.266 60.6995 111.535 60.6976C114.009 60.6809 116.483 60.6687 118.957 60.6606C120.229 60.6564 121.501 60.6506 122.772 60.6413C124.001 60.6323 125.23 60.6274 126.458 60.6253C126.926 60.6238 127.393 60.6209 127.86 60.6164C133.746 60.5626 133.746 60.5626 136.052 62.7251C137.681 64.5442 137.58 66.8151 137.576 69.1089C137.576 69.3756 137.577 69.6423 137.578 69.9172C137.579 70.8101 137.579 71.703 137.579 72.5959C137.58 73.2365 137.581 73.877 137.582 74.5176C137.584 76.257 137.585 77.9965 137.585 79.736C137.585 81.0051 137.586 82.2742 137.587 83.5433C137.589 86.9566 137.59 90.3699 137.59 93.7831C137.59 94.0737 137.59 94.0737 137.59 94.3701C137.59 94.5641 137.59 94.758 137.59 94.9578C137.59 98.101 137.592 101.244 137.596 104.387C137.6 107.617 137.602 110.846 137.602 114.076C137.602 115.888 137.602 117.701 137.605 119.513C137.608 121.217 137.608 122.922 137.606 124.626C137.606 125.251 137.606 125.876 137.608 126.502C137.61 127.356 137.609 128.21 137.607 129.064C137.608 129.311 137.61 129.557 137.611 129.812C137.599 132.008 137.313 133.857 135.898 135.625C134.274 137.214 132.713 137.606 130.477 137.61C130.298 137.611 130.119 137.612 129.935 137.613C129.339 137.616 128.743 137.615 128.147 137.614C127.714 137.615 127.282 137.617 126.849 137.618C125.662 137.622 124.475 137.623 123.288 137.623C122.007 137.623 120.726 137.627 119.445 137.63C116.646 137.636 113.847 137.638 111.047 137.64C109.3 137.64 107.553 137.642 105.805 137.644C100.968 137.65 96.1308 137.654 91.2935 137.655C90.8294 137.655 90.8294 137.655 90.3559 137.655C89.7286 137.655 89.1013 137.655 88.4741 137.655C88.007 137.655 88.007 137.655 87.5305 137.655C87.2187 137.655 86.907 137.656 86.5858 137.656C81.5289 137.657 76.4721 137.664 71.4152 137.674C66.2244 137.685 61.0337 137.69 55.8429 137.69C52.928 137.69 50.0131 137.692 47.0982 137.7C44.6175 137.707 42.1368 137.709 39.6561 137.705C38.3899 137.703 37.1239 137.703 35.8577 137.709C34.6993 137.715 33.5411 137.714 32.3827 137.709C31.963 137.708 31.5433 137.709 31.1236 137.713C30.5541 137.718 29.9852 137.714 29.4157 137.709C29.0991 137.709 28.7825 137.709 28.4563 137.709C27.3596 137.487 26.9482 137.026 26.25 136.172C26.0818 135.554 26.0818 135.554 26.0877 134.929C26.0884 134.697 26.0891 134.466 26.0898 134.228C26.0976 133.99 26.1053 133.751 26.1133 133.506C26.1123 133.155 26.1123 133.155 26.1112 132.797C26.1395 130.93 26.4307 129.176 27.5019 127.612C27.7282 127.399 27.7282 127.399 27.959 127.183C28.1071 127.037 28.2551 126.891 28.4076 126.74C29.8783 125.689 31.1486 125.405 32.9396 125.428C33.1251 125.429 33.3105 125.43 33.5016 125.431C34.0866 125.436 34.6714 125.446 35.2564 125.457C35.656 125.461 36.0557 125.464 36.4554 125.468C37.4288 125.476 38.4016 125.492 39.375 125.508C39.375 123.703 39.375 121.898 39.375 120.039C38.9723 120.041 38.5695 120.044 38.1545 120.046C34.3565 120.069 30.5586 120.085 26.7607 120.096C24.8082 120.101 22.8557 120.109 20.9032 120.122C19.2008 120.133 17.4984 120.14 15.7959 120.142C14.895 120.143 13.9942 120.147 13.0934 120.155C12.0859 120.163 11.0787 120.164 10.0713 120.163C9.7749 120.167 9.4785 120.171 9.17312 120.175C7.14159 120.164 5.64184 119.858 4.09519 118.437C3.91226 118.181 3.91226 118.181 3.72563 117.92C3.53635 117.668 3.53635 117.668 3.34324 117.412C2.38386 115.542 2.38201 113.606 2.3897 111.554C2.38865 111.256 2.3876 110.958 2.38653 110.651C2.38371 109.655 2.38479 108.659 2.38588 107.663C2.38469 106.948 2.38327 106.233 2.38165 105.518C2.37817 103.779 2.37767 102.04 2.37831 100.3C2.3788 98.8863 2.37831 97.4722 2.37715 96.058C2.3769 95.7557 2.3769 95.7557 2.37666 95.4473C2.37632 95.0378 2.37599 94.6283 2.37566 94.2189C2.37269 90.3817 2.37328 86.5446 2.37494 82.7075C2.37636 79.2005 2.37328 75.6935 2.36809 72.1865C2.36278 68.5818 2.36052 64.9771 2.36155 61.3723C2.36207 59.35 2.3614 57.3278 2.35753 55.3055C2.35392 53.4036 2.35462 51.5018 2.35819 49.5999C2.35884 48.9026 2.35809 48.2053 2.35584 47.508C2.35297 46.5547 2.35519 45.6016 2.35866 44.6483C2.35664 44.3737 2.35462 44.099 2.35254 43.8161C2.36831 41.7479 2.67099 39.8308 3.75981 38.042C5.0234 36.8486 6.48105 36.0592 8.24379 36.0601C8.47592 36.0596 8.70805 36.059 8.94723 36.0585C9.32985 36.0597 9.32985 36.0597 9.72021 36.0609C10.1266 36.0605 10.1266 36.0605 10.5412 36.0602C11.4531 36.0597 12.365 36.0612 13.2769 36.0627C13.929 36.0628 14.581 36.0628 15.2331 36.0626C16.8225 36.0625 18.412 36.0637 20.0015 36.0654C21.8507 36.0674 23.7 36.0678 25.5492 36.0681C28.8471 36.0687 32.1451 36.0705 35.443 36.0731C38.6469 36.0756 41.8508 36.0776 45.0547 36.0787C45.2521 36.0788 45.4496 36.0789 45.653 36.079C46.6435 36.0793 47.6339 36.0797 48.6244 36.08C56.8434 36.0828 65.0623 36.0877 73.2813 36.0938C73.2718 35.7378 73.2623 35.3818 73.2525 35.015C73.2448 34.5429 73.2373 34.0708 73.23 33.5986C73.2197 33.2476 73.2197 33.2476 73.2092 32.8894C73.1928 31.4671 73.2966 30.4844 74.1016 29.2578C75.3036 28.2541 76.4888 27.8844 77.981 27.5488C78.1754 27.5016 78.3698 27.4544 78.5701 27.4057C79.3771 27.2144 80.1055 27.0703 80.9375 27.0703C80.9841 26.8817 81.0306 26.6932 81.0785 26.4989C81.1448 26.2419 81.2111 25.985 81.2793 25.7202C81.3428 25.4696 81.4062 25.219 81.4716 24.9608C81.7579 24.0625 81.7579 24.0625 82.0769 23.4933C82.7547 22.3061 82.7547 22.3061 82.6881 20.9956C82.3529 20.3704 81.9822 19.8033 81.5699 19.2261C79.8348 16.6591 79.8348 16.6591 79.8438 15.3125C80.3421 13.6421 81.269 12.6096 82.4927 11.3989C82.7336 11.1449 82.7336 11.1449 82.9793 10.8857C84.1496 9.71286 85.0263 9.23516 86.6797 9.02345C87.3858 9.14201 87.3858 9.14201 87.9957 9.41651C88.3436 9.5672 88.3436 9.5672 88.6985 9.72093C89.4141 10.1172 89.4141 10.1172 90.1127 10.6758C90.8878 11.2888 91.481 11.718 92.4219 12.0313C93.5838 11.7746 94.542 11.3756 95.5985 10.8435C96.397 10.4526 97.0185 10.2366 97.8907 10.1172C97.9652 9.71114 97.9652 9.71114 98.0413 9.29688C98.9665 4.37882 98.9665 4.37882 100.215 3.16163C101.613 2.28769 102.942 2.40126 104.539 2.39259ZM102.539 6.01563C102.495 6.2087 102.452 6.40177 102.407 6.60069C102.201 7.47993 101.977 8.35375 101.753 9.22852C101.65 9.68428 101.65 9.68428 101.546 10.1492C100.964 12.3436 100.964 12.3436 100.005 13.0069C99.3058 13.2863 98.6206 13.4891 97.8907 13.6719C97.3146 13.9037 96.7391 14.137 96.1646 14.3726C95.9006 14.4801 95.6366 14.5876 95.3646 14.6983C94.5977 15.0171 94.5977 15.0171 93.9312 15.508C92.9905 15.9878 92.6077 15.9018 91.6016 15.5859C90.5786 15.0387 89.6135 14.4004 88.6456 13.7621C87.5047 12.9997 87.5047 12.9997 86.1916 12.9851C85.5849 13.3992 85.0505 13.8062 84.5264 14.3213C84.3579 14.4813 84.1894 14.6413 84.0159 14.8062C83.6088 15.2824 83.6088 15.2824 83.7475 15.8207C83.9607 16.4515 84.2355 16.9624 84.5798 17.5321C84.7654 17.8488 84.7654 17.8488 84.9547 18.1719C85.2157 18.612 85.4792 19.0506 85.7451 19.4878C86.6786 21.0952 86.6786 21.0952 86.684 22.189C86.3547 23.1135 85.9473 23.9493 85.4834 24.8145C84.7639 26.1831 84.2141 27.5046 83.8642 29.0143C83.6719 29.5313 83.6719 29.5313 82.8516 30.0781C82.4138 30.2084 81.9706 30.3209 81.525 30.421C81.1422 30.509 81.1422 30.509 80.7517 30.5988C80.4859 30.6582 80.2202 30.7176 79.9463 30.7788C79.4185 30.8979 78.8908 31.0179 78.3634 31.1388C78.1295 31.1911 77.8956 31.2435 77.6546 31.2975C77.1138 31.3956 77.1138 31.3956 76.836 31.7188C76.8087 32.4055 76.798 33.0829 76.8018 33.7695C76.8007 33.9616 76.7997 34.1537 76.7986 34.3517C76.7146 35.302 76.7146 35.302 77.1094 36.0938C77.5375 36.1193 77.9667 36.1259 78.3955 36.1248C78.8061 36.1248 78.8061 36.1248 79.2249 36.1247C79.5225 36.1233 79.8202 36.1219 80.1268 36.1205C80.4299 36.1201 80.733 36.1197 81.0453 36.1193C82.0177 36.1178 82.9901 36.1143 83.9625 36.1108C84.6199 36.1095 85.2773 36.1082 85.9347 36.1071C87.5503 36.1041 89.1658 36.0995 90.7813 36.0938C90.7777 35.798 90.7742 35.5022 90.7705 35.1974C90.7676 34.803 90.7648 34.4086 90.7621 34.0141C90.7595 33.8199 90.7569 33.6257 90.7543 33.4256C90.7353 29.7628 92.0957 26.4321 94.5998 23.7463C97.7138 20.9253 101.448 19.8306 105.569 19.9033C108.928 20.0841 112.171 21.3901 114.57 23.7891C117.45 27.1682 118.659 30.8702 118.446 35.2717C118.132 38.8827 116.342 41.8053 113.855 44.3375C112.899 45.0805 111.801 45.6229 110.742 46.2109C110.742 48.7375 110.742 51.2641 110.742 53.8672C112.661 53.2915 113.934 52.8677 115.575 51.9232C116.416 51.6013 116.725 51.6541 117.578 51.9531C118.596 52.5059 119.569 53.131 120.545 53.7529C120.745 53.8759 120.945 53.9989 121.151 54.1257C121.331 54.2399 121.512 54.3542 121.697 54.4719C122.363 54.7429 122.659 54.6713 123.32 54.4141C123.933 53.9514 123.933 53.9514 124.5 53.3716C124.696 53.1837 124.892 52.9958 125.095 52.8023C125.574 52.2735 125.574 52.2735 125.437 51.7141C125.219 51.0882 124.943 50.574 124.6 50.007C124.476 49.7959 124.353 49.5848 124.225 49.3672C123.964 48.9271 123.701 48.4884 123.435 48.0513C122.501 46.4439 122.501 46.4439 122.496 45.35C122.825 44.4255 123.232 43.5898 123.696 42.7246C124.312 41.5656 124.795 40.4745 125.081 39.187C125.368 38.1616 125.404 38.0688 126.379 37.4951C126.815 37.3805 127.255 37.2807 127.695 37.1875C128.065 37.0962 128.433 37.0035 128.802 36.9098C129.401 36.7574 130 36.6071 130.601 36.4645C131.551 36.3031 131.551 36.3031 132.344 35.8203C132.364 35.1284 132.369 34.4441 132.361 33.7525C132.359 33.4609 132.359 33.4609 132.357 33.1634C132.354 32.6818 132.349 32.2003 132.344 31.7188C132.151 31.6751 131.958 31.6314 131.759 31.5864C130.88 31.3804 130.006 31.1568 129.131 30.9326C128.675 30.8301 128.675 30.8301 128.21 30.7254C126.016 30.1438 126.016 30.1438 125.353 29.1847C125.073 28.4855 124.87 27.8002 124.688 27.0703C124.456 26.4943 124.222 25.9188 123.987 25.3442C123.879 25.0802 123.772 24.8162 123.661 24.5442C123.342 23.7774 123.342 23.7774 122.851 23.1108C122.372 22.1702 122.458 21.7873 122.773 20.7813C123.321 19.7583 123.959 18.7932 124.597 17.8252C125.36 16.6843 125.36 16.6843 125.374 15.3713C124.96 14.7646 124.553 14.2301 124.038 13.7061C123.878 13.5376 123.718 13.3691 123.553 13.1955C123.077 12.7885 123.077 12.7885 122.539 12.9271C121.908 13.1403 121.397 13.4151 120.827 13.7595C120.616 13.8832 120.405 14.0069 120.188 14.1344C119.747 14.3953 119.309 14.6588 118.872 14.9248C117.26 15.8608 117.26 15.8608 116.151 15.854C115.338 15.5674 114.61 15.2291 113.853 14.8169C112.684 14.1995 111.59 13.7773 110.315 13.4326C108.903 12.9737 108.903 12.9737 108.281 11.9629C108.178 11.5327 108.09 11.0989 108.008 10.6641C107.87 10.0953 107.725 9.52836 107.58 8.96123C107.478 8.56088 107.38 8.15979 107.285 7.758C107.123 6.80807 107.123 6.80807 106.641 6.01563C105.949 5.99564 105.264 5.99035 104.573 5.99854C104.378 5.99978 104.184 6.00101 103.984 6.00228C103.502 6.00551 103.021 6.01042 102.539 6.01563ZM95.8506 27.5755C94.4607 29.5193 94.015 31.4704 94.0284 33.8208C94.0273 34.0092 94.0263 34.1976 94.0252 34.3917C93.945 35.321 93.945 35.321 94.336 36.0938C94.7021 36.1214 95.0696 36.1309 95.4367 36.1325C95.6705 36.1345 95.9043 36.1364 96.1452 36.1384C96.5276 36.1401 96.5276 36.1401 96.9176 36.1418C97.4551 36.1482 97.9925 36.1548 98.5299 36.1616C99.379 36.1712 100.228 36.1792 101.077 36.1829C101.895 36.1871 102.713 36.1981 103.531 36.2102C103.782 36.2097 104.033 36.2091 104.292 36.2086C106.097 36.2425 107.614 36.5908 108.972 37.8469C110.129 39.1557 110.505 40.4119 110.742 42.1094C112.592 41.2918 113.691 39.6687 114.553 37.8882C115.549 35.2716 115.558 32.3125 114.587 29.6851C113.142 26.7258 110.817 24.6977 107.784 23.4793C103.109 22.2044 98.874 23.9792 95.8506 27.5755ZM6.48531 40.4938C5.86773 41.5396 5.86692 42.4434 5.88414 43.6231C5.8832 43.857 5.88226 44.091 5.8813 44.3321C5.87949 45.1182 5.88553 45.9042 5.8915 46.6903C5.89183 47.2627 5.89169 47.835 5.8911 48.4074C5.89085 49.9409 5.89719 51.4744 5.90489 53.0079C5.91112 54.4466 5.91141 55.8853 5.91219 57.324C5.91793 61.5322 5.9332 65.7405 5.94731 69.9487C5.96986 79.35 5.99242 88.7513 6.01567 98.4375C24.8747 98.4375 43.7336 98.4375 63.1641 98.4375C63.1999 87.6721 63.1999 87.6721 63.2209 76.9066C63.2321 74.8187 63.2321 74.8187 63.2391 73.8396C63.2426 73.1596 63.2435 72.4795 63.2423 71.7994C63.241 70.7659 63.2482 69.7327 63.2572 68.6992C63.2549 68.3991 63.2525 68.0989 63.2501 67.7897C63.2796 65.8007 63.6822 64.2796 64.8047 62.6172C66.9606 60.7426 69.4582 60.8938 72.1661 60.8894C72.5516 60.8868 72.9371 60.8841 73.3227 60.8811C74.3649 60.8736 75.407 60.8695 76.4492 60.8659C77.54 60.8616 78.6308 60.8543 79.7216 60.8473C81.7852 60.8345 83.8488 60.8245 85.9124 60.8154C88.2626 60.8049 90.6128 60.7914 92.963 60.7777C97.7956 60.7494 102.628 60.725 107.461 60.7031C107.48 58.2715 107.495 55.8399 107.503 53.4082C107.508 52.279 107.514 51.1498 107.523 50.0206C107.532 48.9303 107.537 47.84 107.539 46.7496C107.54 46.3342 107.543 45.9189 107.548 45.5035C107.554 44.9203 107.554 44.3374 107.554 43.7541C107.556 43.4226 107.558 43.0911 107.56 42.7495C107.445 41.6876 107.253 41.0734 106.641 40.1953C104.893 39.0405 102.878 39.2612 100.852 39.2727C100.454 39.2719 100.056 39.2708 99.6585 39.2694C98.5681 39.2665 97.4777 39.2687 96.3872 39.2718C95.2103 39.2742 94.0335 39.2719 92.8566 39.2702C90.5521 39.2676 88.2477 39.2694 85.9433 39.2727C83.2603 39.2764 80.5773 39.276 77.8943 39.2754C73.1078 39.2745 68.3213 39.2777 63.5349 39.2831C58.8889 39.2883 54.243 39.2902 49.597 39.2887C44.5386 39.287 39.4802 39.2871 34.4218 39.2902C33.8826 39.2905 33.3435 39.2909 32.8043 39.2912C32.539 39.2913 32.2737 39.2915 32.0004 39.2917C30.1295 39.2927 28.2586 39.2926 26.3878 39.2921C24.1087 39.2915 21.8296 39.293 19.5506 39.2969C18.3875 39.2989 17.2243 39.3 16.0612 39.2988C14.997 39.2977 13.9328 39.2991 12.8685 39.3025C12.4831 39.3033 12.0976 39.3032 11.7121 39.3021C11.189 39.3007 10.6658 39.303 10.1427 39.3054C9.85183 39.3057 9.561 39.3059 9.26136 39.3061C8.09307 39.4087 7.34901 39.7023 6.48531 40.4938ZM66.7188 65.625C65.9669 68.6327 66.4454 71.8216 66.4454 74.9219C88.7333 74.9219 111.021 74.9219 133.984 74.9219C134.735 67.1567 134.735 67.1567 133.164 64.8047C132.419 64.3045 131.833 64.1892 130.945 64.1867C130.611 64.1838 130.611 64.1838 130.269 64.1809C129.904 64.1818 129.904 64.1818 129.531 64.1829C129.271 64.1814 129.011 64.18 128.743 64.1785C127.87 64.1744 126.997 64.1742 126.124 64.174C125.499 64.172 124.873 64.1697 124.248 64.1671C122.548 64.1611 120.848 64.1587 119.148 64.1573C118.087 64.1564 117.025 64.1546 115.964 64.1527C113.024 64.1474 110.085 64.1429 107.145 64.1421C106.957 64.142 106.769 64.142 106.575 64.1419C106.194 64.1418 105.812 64.1417 105.431 64.1416C105.242 64.1416 105.053 64.1415 104.858 64.1415C104.573 64.1414 104.573 64.1414 104.284 64.1413C101.212 64.1403 98.1414 64.133 95.0704 64.1227C91.9168 64.1123 88.7632 64.1071 85.6096 64.1069C83.8392 64.1067 82.0689 64.1043 80.2985 64.0966C78.6336 64.0894 76.9688 64.0888 75.3039 64.0932C74.6926 64.0937 74.0813 64.0918 73.4699 64.0875C72.6358 64.0819 71.8022 64.0848 70.9681 64.0897C70.6045 64.0843 70.6045 64.0843 70.2336 64.0788C68.5983 64.1011 67.8306 64.4026 66.7188 65.625ZM66.4454 78.2031C66.4341 86.9728 66.4228 95.7424 66.4112 104.778C66.4062 107.549 66.4012 110.32 66.3961 113.176C66.3943 115.655 66.3943 115.655 66.3932 118.134C66.3927 119.241 66.3906 120.347 66.3876 121.453C66.3839 122.863 66.3827 124.274 66.3835 125.684C66.3834 126.202 66.3823 126.72 66.3802 127.238C66.3774 127.937 66.3781 128.636 66.3796 129.335C66.378 129.538 66.3764 129.742 66.3748 129.951C66.3834 131.45 66.5429 132.387 67.5485 133.514C68.6916 134.177 69.6437 134.137 70.9437 134.125C71.336 134.128 71.336 134.128 71.7361 134.131C72.613 134.136 73.4896 134.133 74.3665 134.13C74.9949 134.132 75.6232 134.135 76.2516 134.137C77.9589 134.144 79.6661 134.143 81.3733 134.14C82.7977 134.139 84.222 134.141 85.6464 134.143C89.1979 134.148 92.7494 134.146 96.301 134.141C99.3855 134.137 102.47 134.141 105.554 134.149C108.722 134.157 111.889 134.16 115.057 134.157C116.835 134.156 118.613 134.157 120.391 134.162C122.063 134.167 123.735 134.166 125.406 134.159C126.02 134.158 126.634 134.159 127.248 134.162C128.086 134.166 128.922 134.162 129.759 134.156C130.004 134.159 130.248 134.163 130.499 134.166C131.714 134.148 132.191 134.106 133.172 133.324C134.045 132.179 134.023 131.357 134.017 129.96C134.018 129.74 134.018 129.52 134.018 129.293C134.018 128.55 134.017 127.807 134.015 127.063C134.015 126.524 134.015 125.985 134.016 125.445C134.016 123.997 134.014 122.548 134.012 121.099C134.011 119.742 134.01 118.384 134.01 117.026C134.009 113.052 134.005 109.077 134.002 105.103C133.996 96.2257 133.99 87.3489 133.984 78.2031C111.697 78.2031 89.4086 78.2031 66.4454 78.2031ZM6.01567 101.719C4.61526 113.519 4.61526 113.519 7.38285 116.484C8.39665 116.822 9.33276 116.795 10.3883 116.791C10.726 116.791 10.726 116.791 11.0706 116.791C11.8276 116.792 12.5845 116.79 13.3415 116.789C13.8831 116.789 14.4247 116.789 14.9663 116.789C16.4391 116.789 17.9118 116.787 19.3846 116.786C20.9228 116.784 22.461 116.784 23.9992 116.783C26.9131 116.782 29.827 116.78 32.7409 116.778C36.0578 116.774 39.3747 116.773 42.6916 116.772C49.5158 116.769 56.34 116.764 63.1641 116.758C63.1641 111.795 63.1641 106.832 63.1641 101.719C44.3051 101.719 25.4461 101.719 6.01567 101.719ZM42.9297 120.039C42.9297 121.844 42.9297 123.648 42.9297 125.508C49.6071 125.508 56.2844 125.508 63.1641 125.508C63.1641 123.703 63.1641 121.898 63.1641 120.039C56.4868 120.039 49.8094 120.039 42.9297 120.039ZM30.0782 130.156C29.5061 131.3 29.8047 132.705 29.8047 133.984C40.9938 133.984 52.1829 133.984 63.711 133.984C63.5756 133.443 63.5756 133.443 63.4375 132.891C63.3771 132.231 63.3266 131.57 63.2837 130.908C63.2608 130.563 63.2379 130.217 63.2143 129.861C63.1977 129.598 63.1812 129.334 63.1641 129.063C59.0521 129.037 54.9402 129.018 50.8281 129.006C48.9188 129 47.0095 128.993 45.1002 128.98C43.2581 128.968 41.4161 128.962 39.574 128.959C38.8707 128.957 38.1674 128.953 37.4641 128.947C36.4801 128.939 35.4963 128.938 34.5122 128.938C34.0747 128.932 34.0747 128.932 33.6284 128.926C32.1093 128.935 31.149 128.95 30.0782 130.156Z" fill="#147DC0"/>
<path d="M74.945 83.2614C75.2819 83.2591 75.2819 83.2591 75.6256 83.2568C76.3793 83.253 77.1327 83.2571 77.8864 83.2612C78.4262 83.2602 78.9661 83.2587 79.506 83.2567C80.9731 83.2529 82.4402 83.256 83.9074 83.2605C85.4414 83.2643 86.9755 83.2625 88.5095 83.2615C91.0859 83.2608 93.6622 83.2645 96.2386 83.2708C99.2189 83.2781 102.199 83.2786 105.18 83.2754C108.044 83.2724 110.909 83.2741 113.774 83.278C114.994 83.2796 116.214 83.2795 117.434 83.2782C118.871 83.2769 120.307 83.2797 121.744 83.2856C122.271 83.2871 122.799 83.2873 123.327 83.2859C124.046 83.2843 124.765 83.2877 125.485 83.2924C125.799 83.2899 125.799 83.2899 126.121 83.2874C126.977 83.2977 127.605 83.3517 128.372 83.7484C129.1 84.5691 128.938 85.6157 128.926 86.6583C128.928 87.0325 128.928 87.0325 128.931 87.4143C128.934 88.2405 128.93 89.0664 128.925 89.8925C128.925 90.4657 128.925 91.0388 128.926 91.6119C128.926 92.8137 128.923 94.0154 128.917 95.2171C128.909 96.7592 128.91 98.3011 128.913 99.8432C128.915 101.027 128.913 102.21 128.909 103.394C128.908 103.963 128.908 104.531 128.909 105.1C128.91 105.894 128.905 106.688 128.899 107.482C128.901 107.836 128.901 107.836 128.903 108.198C128.884 109.762 128.884 109.762 128.51 110.392C127.654 110.946 126.755 110.855 125.768 110.846C125.541 110.848 125.315 110.849 125.081 110.85C124.318 110.853 123.556 110.851 122.793 110.848C122.247 110.849 121.702 110.851 121.156 110.853C119.672 110.856 118.188 110.855 116.704 110.852C115.153 110.85 113.602 110.852 112.051 110.853C109.446 110.855 106.841 110.853 104.236 110.849C101.222 110.845 98.2077 110.846 95.1933 110.851C92.6083 110.854 90.0232 110.855 87.4381 110.853C85.8929 110.851 84.3476 110.851 82.8023 110.854C81.3498 110.856 79.8973 110.855 78.4448 110.85C77.9107 110.849 77.3766 110.849 76.8426 110.851C76.1154 110.853 75.3884 110.85 74.6613 110.846C74.3417 110.849 74.3417 110.849 74.0157 110.852C72.6062 110.836 72.6062 110.836 71.9198 110.392C71.4026 109.522 71.5249 108.496 71.5301 107.512C71.5282 107.265 71.5263 107.019 71.5244 106.765C71.5194 105.949 71.5204 105.133 71.522 104.317C71.5208 103.751 71.5193 103.185 71.5177 102.618C71.5152 101.431 71.5159 100.243 71.5186 99.0553C71.5217 97.5322 71.5162 96.0094 71.5082 94.4863C71.5032 93.3165 71.5033 92.1467 71.5048 90.9769C71.5049 90.4153 71.5032 89.8538 71.4998 89.2922C71.4958 88.5072 71.4987 87.7226 71.5034 86.9377C71.5007 86.7051 71.4981 86.4725 71.4954 86.2329C71.4981 86.0186 71.5007 85.8043 71.5035 85.5836C71.5036 85.3981 71.5036 85.2127 71.5037 85.0216C71.96 83.2564 73.3876 83.2419 74.945 83.2614ZM82.0312 86.9531C82.567 87.4889 82.8935 87.6754 83.5738 87.9705C83.8816 88.1051 83.8816 88.1051 84.1956 88.2425C84.4189 88.3386 84.6423 88.4348 84.8724 88.5339C85.1044 88.6351 85.3365 88.7364 85.5756 88.8407C86.3304 89.1697 87.086 89.497 87.8417 89.8242C88.8674 90.2696 89.8928 90.7158 90.9179 91.1625C91.1688 91.2718 91.4198 91.381 91.6783 91.4936C93.0682 92.1006 94.4498 92.7206 95.8227 93.365C96.0993 93.4947 96.3759 93.6244 96.6609 93.7581C97.1468 93.9881 97.6313 94.2211 98.1141 94.4577C98.3237 94.5567 98.5333 94.6558 98.7493 94.7578C98.9228 94.8425 99.0963 94.9271 99.2751 95.0144C100.731 95.4043 102.242 94.4562 103.546 93.8755C103.777 93.7739 104.008 93.6723 104.246 93.5676C104.994 93.2383 105.74 92.9071 106.487 92.5756C106.997 92.3504 107.507 92.1253 108.017 91.9002C111.488 90.3663 114.952 88.816 118.398 87.2265C118.398 87.1363 118.398 87.0461 118.398 86.9531C106.397 86.9531 94.396 86.9531 82.0312 86.9531ZM75.1952 88.0468C75.1952 94.0925 75.1952 100.138 75.1952 106.367C79.6594 104.46 79.6594 104.46 84.1033 102.508C84.3625 102.393 84.6216 102.277 84.8886 102.159C85.6909 101.802 86.4929 101.444 87.2949 101.086C87.8406 100.843 88.3865 100.6 88.9323 100.357C89.9297 99.9134 90.9271 99.4691 91.9243 99.0246C93.1835 98.4634 94.4432 97.9033 95.7031 97.3437C95.1315 96.7193 94.6235 96.3507 93.8525 96.0054C93.6463 95.912 93.44 95.8185 93.2275 95.7222C93.0039 95.6232 92.7803 95.5242 92.55 95.4222C92.1989 95.264 92.1989 95.264 91.8408 95.1027C91.0782 94.7598 90.3145 94.4196 89.5507 94.0796C89.0281 93.8455 88.5056 93.6113 87.9832 93.3769C86.942 92.9103 85.9004 92.4448 84.8584 91.9802C83.7614 91.4908 82.6659 90.9985 81.5716 90.5034C80.7284 90.122 79.8844 89.7425 79.0405 89.3628C78.7401 89.2265 78.4398 89.0903 78.1304 88.95C77.8587 88.8285 77.5869 88.7071 77.3069 88.582C77.075 88.4776 76.8431 88.3732 76.6042 88.2656C75.9921 87.9992 75.9921 87.9992 75.1952 88.0468ZM123.142 88.7059C122.924 88.8041 122.707 88.9024 122.483 89.0036C122.011 89.2166 121.54 89.4299 121.069 89.6433C119.826 90.2058 118.583 90.7666 117.34 91.327C117.087 91.4411 116.834 91.5552 116.573 91.6727C114.042 92.8121 111.505 93.9355 108.965 95.0537C108.762 95.1431 108.559 95.2324 108.35 95.3245C107.233 95.8159 106.117 96.3066 105 96.7968C105 96.9773 105 97.1578 105 97.3437C110.508 99.848 116.017 102.352 121.56 104.778C121.748 104.86 121.936 104.943 122.129 105.027C122.651 105.256 123.174 105.485 123.697 105.712C124.135 105.903 124.135 105.903 124.582 106.098C125.159 106.385 125.159 106.385 125.508 106.367C125.508 100.231 125.508 94.0953 125.508 87.7734C124.748 87.7734 123.84 88.3887 123.142 88.7059ZM97.9183 99.9456C97.6956 100.046 97.4729 100.147 97.2435 100.25C96.7633 100.467 96.2832 100.684 95.8032 100.901C94.5548 101.466 93.3056 102.029 92.0565 102.592C91.8078 102.705 91.559 102.817 91.3027 102.933C88.1271 104.364 84.9433 105.778 81.7577 107.187C81.7577 107.278 81.7577 107.368 81.7577 107.461C94.0296 107.461 106.301 107.461 118.945 107.461C118.149 106.665 117.153 106.33 116.133 105.89C115.903 105.789 115.673 105.689 115.436 105.585C114.687 105.258 113.936 104.932 113.186 104.607C112.674 104.384 112.162 104.161 111.651 103.937C110.634 103.494 109.618 103.051 108.601 102.609C107.377 102.075 106.154 101.538 104.933 100.998C104.615 100.857 104.296 100.716 103.969 100.571C103.392 100.316 102.815 100.06 102.238 99.8042C101.987 99.6937 101.737 99.5831 101.479 99.4693C101.159 99.3272 101.159 99.3272 100.832 99.1823C99.797 98.7559 98.8729 99.5127 97.9183 99.9456Z" fill="#147DC0"/>
<path d="M40.4686 48.9453C41.0155 49.3896 41.0155 49.3896 41.289 50.039C41.1689 51.2265 40.8452 52.1715 40.3362 53.2455C40.195 53.5461 40.0539 53.8467 39.9085 54.1565C39.755 54.4783 39.6014 54.8002 39.4433 55.1318C39.2821 55.4735 39.1211 55.8154 38.9604 56.1573C38.6267 56.8667 38.2921 57.5757 37.9568 58.2843C37.1957 59.8953 36.4491 61.513 35.7006 63.1298C35.4066 63.7629 35.1125 64.396 34.8183 65.0289C34.3495 66.0377 33.8808 67.0465 33.4129 68.0557C32.4452 70.1425 31.4715 72.2264 30.4916 74.3075C30.1256 75.0932 29.7696 75.8824 29.4179 76.6746C29.2337 77.0759 29.0492 77.4772 28.8646 77.8784C28.6452 78.3717 28.6452 78.3717 28.4214 78.8749C27.8905 79.5703 27.8905 79.5703 26.9153 79.848C25.9765 79.8437 25.9765 79.8437 25.2929 79.2797C24.7757 78.267 24.886 77.93 25.1561 76.8359C25.4447 76.0957 25.7861 75.3856 26.1345 74.6719C26.2337 74.4644 26.3329 74.257 26.4351 74.0433C26.6481 73.5984 26.862 73.1539 27.0768 72.7098C27.4164 72.0074 27.7536 71.3039 28.0901 70.6C28.4309 69.8869 28.7719 69.1738 29.1137 68.4611C30.0583 66.4908 30.9878 64.5141 31.9066 62.5317C32.0443 62.2354 32.182 61.9391 32.3239 61.6339C33.1387 59.8746 33.9399 58.1096 34.7339 56.3409C34.9222 55.9226 35.1105 55.5044 35.2988 55.0862C35.663 54.2771 36.0247 53.467 36.3849 52.6561C36.5505 52.2875 36.7161 51.9189 36.8819 51.5504C37.0268 51.2254 37.1717 50.9004 37.321 50.5655C38.1224 49.0142 38.69 48.7229 40.4686 48.9453Z" fill="#147DC0"/>
<path d="M43.9403 55.3726C45.3711 55.4133 46.0445 56.1304 46.9961 57.1249C47.1623 57.291 47.3285 57.457 47.4997 57.6281C47.8486 57.9791 48.1948 58.3327 48.5384 58.6888C49.064 59.2323 49.5984 59.7656 50.1348 60.2983C50.4734 60.6413 50.8115 60.9849 51.149 61.329C51.3082 61.488 51.4673 61.647 51.6314 61.8109C52.5317 62.754 53.0681 63.4343 53.047 64.8047C52.7607 65.3335 52.7607 65.3335 52.295 65.8055C52.1174 65.9906 51.9397 66.1757 51.7567 66.3664C51.5509 66.5729 51.345 66.7794 51.1329 66.9922C50.9045 67.2343 50.6761 67.4764 50.4408 67.7258C49.8082 68.395 49.1692 69.0559 48.5235 69.7123C48.2562 69.9856 47.9906 70.2606 47.7267 70.5372C47.3394 70.9429 46.9469 71.3429 46.5529 71.7421C46.323 71.9788 46.0932 72.2154 45.8564 72.4593C44.956 73.1275 44.3133 73.2313 43.2032 73.2812C42.6735 73.0078 42.6735 73.0078 42.3829 72.4609C42.2528 71.2983 42.2431 70.7417 42.9351 69.7774C43.1872 69.5354 43.4392 69.2934 43.6988 69.044C43.8324 68.9132 43.9659 68.7824 44.1035 68.6476C44.5283 68.2335 44.9592 67.8265 45.3907 67.4194C45.681 67.1388 45.9708 66.8577 46.2602 66.5762C46.9681 65.8893 47.6817 65.2087 48.3986 64.5312C47.2073 63.1029 45.9492 61.7826 44.6217 60.481C44.2547 60.1209 43.8883 59.7603 43.5226 59.399C43.3627 59.2422 43.2027 59.0854 43.0379 58.9238C42.4125 58.2546 42.3823 57.9577 42.3317 57.0117C42.4037 55.6678 42.6165 55.5497 43.9403 55.3726Z" fill="#147DC0"/>
<path d="M23.2422 55.5078C23.7891 56.0547 23.7891 56.0547 23.9429 56.9092C23.7185 58.4552 22.963 59.0782 21.875 60.1562C21.528 60.5064 21.1813 60.8568 20.8347 61.2073C19.8199 62.2299 18.7985 63.2456 17.7734 64.2578C18.6468 65.3157 19.5332 66.3068 20.5313 67.2485C20.7234 67.4311 20.9155 67.6137 21.1134 67.8018C21.5106 68.1767 21.9109 68.5484 22.314 68.9169C23.7547 70.3015 23.7547 70.3015 23.9375 71.6064C23.7891 72.4609 23.7891 72.4609 23.4985 73.0078C22.6165 73.4631 22.0007 73.2423 21.0547 73.0078C20.3545 72.5325 19.7884 71.9526 19.2026 71.3447C19.036 71.1778 18.8694 71.0108 18.6978 70.8388C18.348 70.4865 18.0001 70.1323 17.6542 69.7761C17.1243 69.2312 16.5881 68.6932 16.0506 68.1559C15.7109 67.8122 15.3716 67.4681 15.0327 67.1236C14.8726 66.9626 14.7125 66.8016 14.5476 66.6358C13.8045 65.8662 13.29 65.3234 13.125 64.2578C13.4484 62.9332 14.3341 62.0874 15.2634 61.1421C15.4213 60.9802 15.5792 60.8182 15.7419 60.6514C16.0759 60.3109 16.411 59.9715 16.7472 59.6332C17.2587 59.1158 17.7616 58.5909 18.2648 58.0654C18.5911 57.7347 18.9179 57.4044 19.2453 57.0747C19.3938 56.9175 19.5423 56.7603 19.6953 56.5984C20.8616 55.4518 21.6161 55.2961 23.2422 55.5078Z" fill="#147DC0"/>
<path d="M107.933 116.378C108.148 116.377 108.363 116.375 108.584 116.374C109.295 116.37 110.006 116.373 110.716 116.375C111.21 116.375 111.703 116.374 112.197 116.373C113.231 116.372 114.265 116.374 115.3 116.377C116.627 116.382 117.954 116.379 119.28 116.374C120.299 116.371 121.318 116.372 122.337 116.375C122.827 116.375 123.316 116.374 123.805 116.373C124.489 116.37 125.172 116.374 125.855 116.378C126.058 116.377 126.261 116.375 126.47 116.373C127.266 116.383 127.832 116.394 128.506 116.84C128.981 117.619 128.869 118.335 128.789 119.219C128.105 119.902 127.693 119.833 126.76 119.843C126.554 119.842 126.347 119.841 126.135 119.841C125.917 119.842 125.7 119.843 125.476 119.845C124.755 119.849 124.034 119.848 123.313 119.848C122.813 119.849 122.313 119.85 121.813 119.851C120.764 119.853 119.715 119.853 118.666 119.852C117.321 119.85 115.975 119.855 114.63 119.861C113.597 119.865 112.564 119.866 111.531 119.865C111.035 119.865 110.539 119.866 110.043 119.869C109.349 119.872 108.656 119.871 107.963 119.867C107.757 119.869 107.551 119.872 107.339 119.874C105.959 119.86 105.959 119.86 105.283 119.4C104.837 118.683 104.897 118.127 105 117.305C105.688 116.204 106.766 116.369 107.933 116.378Z" fill="#147DC0"/>
<path d="M74.5741 116.378C74.7889 116.377 75.0038 116.375 75.2251 116.374C75.9358 116.37 76.6464 116.373 77.3571 116.375C77.8505 116.375 78.344 116.374 78.8374 116.373C79.8718 116.372 80.9061 116.374 81.9405 116.377C83.2674 116.382 84.5941 116.379 85.921 116.374C86.94 116.371 87.959 116.372 88.978 116.375C89.4673 116.375 89.9565 116.374 90.4458 116.373C91.1293 116.37 91.8126 116.374 92.496 116.378C92.6989 116.377 92.9018 116.375 93.1108 116.373C93.9064 116.383 94.4724 116.394 95.1462 116.84C95.6215 117.619 95.5099 118.335 95.4296 119.219C94.7459 119.902 94.334 119.833 93.4009 119.843C93.1945 119.842 92.9881 119.841 92.7754 119.841C92.5579 119.842 92.3405 119.843 92.1164 119.845C91.3954 119.849 90.6744 119.848 89.9534 119.848C89.4534 119.849 88.9535 119.85 88.4535 119.851C87.4046 119.853 86.3558 119.853 85.3069 119.852C83.9613 119.85 82.6158 119.855 81.2702 119.861C80.2374 119.865 79.2046 119.866 78.1718 119.865C77.6756 119.865 77.1795 119.866 76.6833 119.869C75.99 119.872 75.2969 119.871 74.6036 119.867C74.3977 119.869 74.1918 119.872 73.9798 119.874C72.5994 119.86 72.5994 119.86 71.9232 119.4C71.4774 118.683 71.5377 118.127 71.6405 117.305C72.329 116.204 73.407 116.369 74.5741 116.378Z" fill="#147DC0"/>
<path d="M108.624 125.399C108.992 125.398 108.992 125.398 109.368 125.396C109.885 125.396 110.403 125.397 110.921 125.401C111.715 125.405 112.508 125.401 113.301 125.396C113.804 125.396 114.307 125.397 114.811 125.399C115.048 125.397 115.286 125.396 115.531 125.394C115.862 125.398 115.862 125.398 116.2 125.402C116.394 125.402 116.588 125.403 116.788 125.404C117.469 125.541 117.71 125.778 118.125 126.328C118.262 127.285 118.262 127.285 118.125 128.242C116.967 129.229 115.834 129.179 114.39 129.162C114.051 129.162 114.051 129.162 113.705 129.162C113.228 129.162 112.752 129.159 112.275 129.154C111.547 129.148 110.819 129.149 110.09 129.151C109.626 129.149 109.163 129.147 108.699 129.145C108.482 129.145 108.264 129.145 108.04 129.145C106.11 129.121 106.11 129.121 105.274 128.516C104.887 127.742 104.913 127.183 105 126.328C105.969 125.207 107.258 125.389 108.624 125.399Z" fill="#147DC0"/>
<path d="M75.2647 125.372C75.5101 125.372 75.7554 125.371 76.0082 125.371C76.526 125.371 77.0439 125.375 77.5617 125.38C78.3551 125.388 79.148 125.386 79.9415 125.382C80.4447 125.384 80.948 125.386 81.4513 125.389C81.6888 125.389 81.9264 125.388 82.1711 125.387C82.5024 125.392 82.5024 125.392 82.8404 125.397C83.0345 125.399 83.2285 125.4 83.4284 125.402C84.1087 125.541 84.3505 125.778 84.7656 126.328C84.9023 127.285 84.9023 127.285 84.7656 128.242C83.6077 129.229 82.4742 129.179 81.0304 129.162C80.6913 129.162 80.6913 129.162 80.3453 129.162C79.8688 129.162 79.3924 129.159 78.916 129.154C78.1875 129.148 77.4593 129.149 76.7307 129.151C76.267 129.149 75.8032 129.147 75.3395 129.145C75.1222 129.145 74.9048 129.145 74.6809 129.146C72.6895 129.12 72.6895 129.12 71.9141 128.516C71.6406 127.593 71.6406 127.593 71.6406 126.602C72.5515 125.195 73.7459 125.353 75.2647 125.372Z" fill="#147DC0"/>
<path d="M57.9687 107.188C58.6927 107.646 58.7767 107.967 59.0283 108.794C59.0694 109.821 58.8666 110.213 58.2422 111.016C57.2502 111.677 56.8736 111.617 55.7471 111.434C55.2344 111.289 55.2344 111.289 54.6875 110.845C54.3013 109.928 54.2909 109.266 54.414 108.281C55.5169 106.884 56.2603 106.828 57.9687 107.188Z" fill="#147DC0"/>
<path d="M90.5077 67.5391C91.328 68.0859 91.328 68.0859 91.5844 69.1284C91.6591 70.0029 91.6078 70.261 91.1913 71.0767C90.2967 71.8147 89.7493 71.9343 88.5937 71.9141C87.8075 71.5039 87.8075 71.5039 87.2265 70.8203C86.936 69.8804 86.936 69.8804 86.953 68.9063C87.9934 67.2561 88.6457 67.1797 90.5077 67.5391Z" fill="#147DC0"/>
<path d="M82.8515 67.5391C83.6398 68.0121 83.6778 68.3811 83.9281 69.2823C83.9452 70.2735 83.9452 70.2735 83.5351 71.0596C82.6429 71.818 82.1035 71.9346 80.9374 71.9141C80.1513 71.504 80.1513 71.504 79.5702 70.8204C79.3159 69.871 79.2031 69.2215 79.4848 68.274C80.4329 67.0549 81.425 67.2019 82.8515 67.5391Z" fill="#147DC0"/>
<path d="M75.1952 67.5391C75.9835 68.0121 76.0216 68.3811 76.2719 69.2823C76.289 70.2735 76.289 70.2735 75.8788 71.0596C74.9866 71.818 74.4472 71.9346 73.2812 71.9141C72.495 71.504 72.495 71.504 71.914 70.8204C71.6597 69.871 71.5468 69.2215 71.8285 68.274C72.7767 67.0549 73.7687 67.2019 75.1952 67.5391Z" fill="#147DC0"/>
</svg>
