<svg width="139" height="139" viewBox="0 0 139 139" fill="none" xmlns="http://www.w3.org/2000/svg">
<g clip-path="url(#clip0_1056_3100)">
<path d="M105.625 5.62383C111.491 10.1878 115.436 16.3399 116.391 23.7836C117.002 31.1657 115.173 38.2302 110.359 43.9636C109.235 45.2657 108.032 46.432 106.693 47.5098C107.918 47.9302 109.144 48.3341 110.391 48.6838C113.552 49.5724 116.505 50.6821 119.453 52.1251C119.654 52.2228 119.855 52.3205 120.061 52.4212C127.545 56.1101 134.033 62.0214 136.828 70.043C137.919 73.5914 138.072 76.97 138.049 80.6627C138.049 81.2264 138.049 81.79 138.05 82.3536C138.05 83.524 138.047 84.6944 138.041 85.8648C138.033 87.3659 138.034 88.8669 138.037 90.368C138.039 91.5269 138.037 92.6858 138.034 93.8447C138.033 94.3987 138.032 94.9527 138.033 95.5066C138.034 96.2765 138.03 97.0461 138.024 97.816C138.026 98.1586 138.026 98.1586 138.028 98.5082C138.008 100.055 138.008 100.055 137.559 100.644C136.794 101.224 135.91 101.098 134.989 101.085C134.667 101.085 134.667 101.085 134.338 101.085C133.629 101.085 132.919 101.078 132.21 101.072C131.718 101.07 131.226 101.069 130.734 101.068C129.439 101.065 128.145 101.057 126.85 101.048C125.529 101.04 124.208 101.036 122.887 101.032C120.294 101.023 117.702 101.009 115.109 100.992C115.095 101.327 115.081 101.662 115.066 102.008C115.044 102.452 115.023 102.896 115.001 103.34C114.992 103.56 114.983 103.781 114.973 104.008C114.832 106.812 113.944 108.854 111.852 110.766C111.48 111.051 111.105 111.334 110.729 111.614C110.533 111.76 110.336 111.906 110.134 112.057C109.984 112.169 109.834 112.28 109.68 112.395C109.745 112.628 109.81 112.862 109.877 113.103C110.492 115.311 111.104 117.52 111.712 119.73C112.024 120.866 112.338 122.001 112.655 123.136C112.961 124.232 113.263 125.328 113.563 126.426C113.678 126.844 113.794 127.261 113.911 127.678C114.076 128.264 114.236 128.851 114.395 129.438C114.534 129.938 114.534 129.938 114.675 130.449C114.854 131.491 114.802 132.27 114.567 133.299C114.024 133.842 114.024 133.842 113.209 133.956C111.792 133.914 110.635 133.204 109.408 132.552C109.174 132.432 108.939 132.312 108.698 132.188C107.656 131.649 106.632 131.095 105.625 130.495C104.832 129.976 104.832 129.976 103.979 130.041C103.616 130.455 103.616 130.455 103.313 131.015C103.129 131.325 103.129 131.325 102.941 131.641C102.813 131.864 102.685 132.086 102.553 132.315C102.287 132.764 102.021 133.212 101.754 133.661C101.624 133.878 101.495 134.096 101.361 134.321C99.7314 137.003 99.7314 137.003 98.8204 137.914C97.0955 138.042 97.0955 138.042 96.4802 137.594C96.0025 136.964 95.8466 136.405 95.6436 135.641C95.563 135.343 95.4824 135.045 95.3994 134.738C95.3154 134.416 95.2314 134.095 95.1448 133.763C95.0562 133.434 94.9676 133.104 94.8763 132.765C94.6415 131.889 94.409 131.014 94.1777 130.138C93.8507 128.901 93.52 127.665 93.1889 126.43C93.0128 125.771 92.8378 125.113 92.6641 124.454C92.5852 124.158 92.5063 123.862 92.425 123.557C92.3558 123.294 92.2865 123.032 92.2151 122.762C92.0878 122.18 92.0878 122.18 91.7618 121.897C91.3041 121.877 90.8456 121.874 90.3874 121.88C90.0132 121.883 90.0132 121.883 89.6313 121.887C89.4385 121.89 89.2457 121.893 89.047 121.897C88.447 123.629 87.9329 125.373 87.4594 127.144C87.3161 127.674 87.1728 128.204 87.0294 128.735C86.807 129.561 86.5849 130.387 86.3628 131.213C86.1465 132.018 85.9292 132.822 85.7118 133.626C85.6459 133.872 85.58 134.119 85.5121 134.373C84.8685 136.751 84.8685 136.751 84.4318 137.643C83.5824 138.067 82.9234 138.011 81.9884 137.914C80.8871 136.764 80.0969 135.324 79.2566 133.978C79.1129 133.749 78.9693 133.521 78.8213 133.285C78.1467 132.21 77.4769 131.133 76.8302 130.041C75.7209 130.205 74.9011 130.571 73.9223 131.111C73.4824 131.349 73.4824 131.349 73.0337 131.591C72.4212 131.926 71.8096 132.262 71.199 132.601C70.9051 132.759 70.6111 132.917 70.3082 133.079C69.9096 133.299 69.9096 133.299 69.5029 133.522C68.5386 133.899 67.8125 133.927 66.7853 133.842C66.2423 133.435 66.2423 133.435 65.9708 132.756C66.0974 130.576 66.7656 128.49 67.3378 126.393C67.4471 125.988 67.5563 125.584 67.6653 125.179C67.951 124.12 68.2384 123.061 68.5262 122.003C68.8203 120.92 69.1127 119.837 69.4052 118.754C69.9782 116.634 70.553 114.514 71.129 112.395C70.9631 112.268 70.7971 112.141 70.6262 112.011C70.4075 111.842 70.1888 111.674 69.9636 111.501C69.7472 111.335 69.5309 111.169 69.308 110.998C67.4785 109.517 66.164 107.693 65.9087 105.296C65.8657 104.644 65.8335 103.992 65.8064 103.339C65.7901 103 65.7901 103 65.7735 102.654C65.7471 102.1 65.723 101.546 65.6993 100.992C65.4257 100.994 65.152 100.996 64.87 100.998C62.2933 101.014 59.7167 101.026 57.14 101.034C55.8153 101.039 54.4905 101.044 53.1658 101.054C51.8878 101.063 50.6099 101.067 49.3319 101.07C48.8438 101.071 48.3558 101.074 47.8677 101.078C47.1852 101.084 46.5028 101.085 45.8202 101.085C45.5162 101.089 45.5162 101.089 45.206 101.094C43.8316 101.085 43.8316 101.085 43.2502 100.644C42.626 99.8257 42.7797 98.8052 42.785 97.816C42.7831 97.5744 42.7812 97.3327 42.7793 97.0838C42.7743 96.2819 42.7754 95.4801 42.7769 94.6781C42.7757 94.1182 42.7743 93.5583 42.7726 92.9983C42.7702 91.8211 42.7709 90.644 42.7736 89.4668C42.7766 87.9702 42.7712 86.4737 42.7633 84.9771C42.7582 83.8181 42.7584 82.6591 42.7599 81.5C42.7599 80.9492 42.7583 80.3983 42.7549 79.8475C42.7111 71.5637 45.3112 65.0709 51.1071 59.031C53.8444 56.3787 56.895 54.4059 60.2696 52.668C60.4559 52.5721 60.6422 52.4762 60.8341 52.3773C64.9899 50.2683 69.3343 48.912 73.8439 47.7813C73.8439 47.6021 73.8439 47.423 73.8439 47.2384C73.4394 46.8508 73.4394 46.8508 72.9106 46.4409C68.0956 42.3222 64.9953 35.9678 64.3769 29.6788C63.9281 21.5998 66.3202 14.8108 71.6115 8.6706C80.3048 -0.511482 95.4299 -1.56502 105.625 5.62383ZM74.9298 10.588C74.7576 10.7346 74.5854 10.8812 74.408 11.0323C72.7888 12.5067 71.6938 14.4212 70.5861 16.2891C70.4478 16.5222 70.3096 16.7553 70.1672 16.9954C67.4968 21.9089 67.29 27.8014 68.6857 33.1212C70.4637 38.9243 74.2938 43.8615 79.5928 46.8651C85.4588 49.721 91.7019 50.3315 97.9434 48.2554C103.709 46.1741 108.202 41.9996 110.868 36.5147C113.387 30.6771 113.695 24.4621 111.394 18.5289C109.029 12.804 104.415 8.47389 98.8204 5.97273C90.567 2.62968 81.4541 4.74764 74.9298 10.588ZM52.3648 63.0141C47.6895 67.9987 46.2839 73.8072 46.3444 80.4157C46.3459 80.9097 46.3471 81.4038 46.3479 81.8979C46.351 83.1864 46.359 84.4748 46.368 85.7633C46.3779 87.3156 46.3816 88.8679 46.3863 90.4203C46.3942 92.7679 46.4098 95.1153 46.4239 97.463C52.1577 97.463 57.8914 97.463 63.7989 97.463C63.7989 96.0295 63.7989 94.5961 63.7989 93.1192C64.0832 91.9523 64.3731 91.0963 64.9602 90.0693C65.9535 88.3072 66.0859 86.8826 66.1649 84.8718C66.353 82.4826 67.4344 80.572 69.2286 79.002C69.9131 78.5593 70.612 78.1581 71.322 77.7581C72.3931 77.0946 73.0137 76.1905 73.6859 75.1461C75.0489 73.0298 76.5531 71.5989 79.0021 70.8575C79.8258 70.7455 80.6412 70.6872 81.4709 70.638C83.3034 70.5173 84.6782 70.082 86.2982 69.2116C88.4951 68.0713 90.5654 67.8971 92.9718 68.4481C94.0428 68.8166 94.9826 69.3877 95.9603 69.9529C97.1069 70.5553 98.1259 70.6114 99.3973 70.5351C101.921 70.6572 104.086 71.4524 105.9 73.2234C106.612 74.0702 107.137 74.9833 107.675 75.9468C108.331 77.0159 109.239 77.6323 110.278 78.301C112.503 79.7343 113.901 81.2803 114.567 83.8887C114.608 84.5384 114.636 85.1892 114.651 85.84C114.741 88.2175 115.652 89.9569 116.738 92.0333C117.311 93.7524 117.01 95.6508 117.01 97.463C122.744 97.463 128.477 97.463 134.385 97.463C134.417 93.6123 134.417 93.6123 134.438 89.7617C134.444 88.1878 134.452 86.614 134.467 85.0402C134.479 83.7692 134.485 82.4984 134.488 81.2274C134.49 80.746 134.494 80.2646 134.5 79.7833C134.546 75.8813 134.186 72.125 132.298 68.6177C132.205 68.4397 132.112 68.2617 132.017 68.0784C127.695 60.037 119.388 55.1902 110.887 52.5925C108.959 52.0239 107.02 51.508 105.065 51.0391C104.778 50.9688 104.491 50.8984 104.196 50.826C101.814 50.2884 100.043 50.9751 97.7737 51.7847C95.3994 52.5523 93.0071 52.7739 90.5232 52.7698C90.2413 52.7694 89.9593 52.769 89.6688 52.7685C86.3163 52.716 83.1099 52.1002 80.0466 50.6955C72.3471 47.6352 57.3479 58.0494 52.3648 63.0141ZM86.3491 72.9276C84.9772 73.6358 83.786 73.7846 82.2599 73.8438C80.0533 73.9515 78.8031 74.2477 77.2374 75.9309C76.6992 76.6057 76.2516 77.3199 75.7952 78.0518C74.7714 79.6177 73.4319 80.4747 71.8756 81.4624C70.7788 82.2351 69.992 83.182 69.5001 84.4317C69.4532 85.115 69.4271 85.7843 69.4153 86.4678C69.3219 88.8923 68.5769 90.7923 67.3791 92.8986C66.8372 94.1822 66.7495 95.2936 67.2425 96.5963C67.635 97.503 68.0683 98.3858 68.5149 99.2668C69.3292 100.944 69.3002 102.471 69.3707 104.324C69.5681 105.868 70.11 106.917 71.2987 107.915C71.5858 108.158 71.5858 108.158 71.8788 108.406C72.4632 108.848 73.0564 109.197 73.6912 109.561C75.0445 110.417 75.6741 111.58 76.4723 112.923C77.488 114.586 78.5124 115.308 80.3595 115.924C80.8338 115.934 81.3081 115.943 81.7825 115.948C83.6519 115.981 85.0634 116.232 86.7054 117.146C88.4136 118.089 89.8469 118.68 91.8011 118.235C92.7303 117.917 93.561 117.467 94.4088 116.976C95.7524 116.201 96.7651 116.172 98.3114 116.128C100.165 116.015 101.732 115.828 103.164 114.566C103.797 113.749 104.337 112.875 104.878 111.995C105.802 110.517 106.766 109.669 108.322 108.865C109.839 107.95 110.739 107.044 111.309 105.336C111.344 104.703 111.371 104.069 111.394 103.436C111.516 101.095 112.151 99.1973 113.277 97.1575C113.88 95.9538 114.047 94.9875 113.752 93.6622C113.336 92.5751 112.82 91.538 112.294 90.5009C111.617 89.107 111.556 88.0867 111.512 86.5357C111.407 84.4065 110.883 83.1395 109.34 81.6829C108.907 81.3875 108.47 81.0978 108.022 80.8239C106.159 79.6565 105.136 78.3522 103.979 76.5078C102.89 74.9768 101.751 74.1936 99.9064 73.8438C99.3712 73.8438 98.8359 73.8442 98.3008 73.8544C96.5592 73.8218 95.1614 73.2666 93.6283 72.4694C90.7841 71.0024 89.0536 71.4693 86.3491 72.9276ZM73.8439 115.924C73.3722 117.653 72.9036 119.383 72.4371 121.114C72.2779 121.703 72.118 122.292 71.9575 122.88C71.7272 123.725 71.4995 124.57 71.2722 125.415C71.1995 125.68 71.1269 125.944 71.052 126.217C70.9868 126.461 70.9215 126.706 70.8543 126.958C70.7958 127.173 70.7373 127.389 70.6771 127.612C70.5289 128.16 70.5289 128.16 70.8575 128.684C71.0203 128.592 71.183 128.5 71.3507 128.405C72.0941 127.989 72.8416 127.581 73.5894 127.174C73.9733 126.956 73.9733 126.956 74.3651 126.735C75.4585 126.145 76.3384 125.725 77.5789 125.571C78.9887 126.208 79.5442 127.381 80.3086 128.684C80.6148 129.188 80.9219 129.691 81.2302 130.194C81.3631 130.418 81.496 130.642 81.6329 130.874C81.9506 131.435 81.9506 131.435 82.5314 131.67C83.5169 127.907 84.5023 124.144 85.5177 120.268C84.01 119.514 83.5172 119.363 81.9375 119.334C78.9464 119.176 77.0087 118.481 74.8694 116.361C74.4282 115.863 74.4282 115.863 73.8439 115.924ZM105.353 116.942C103.1 118.966 100.832 119.299 97.8649 119.352C96.7599 119.415 96.7599 119.415 95.2911 120.268C96.2766 124.03 97.2621 127.793 98.2775 131.67C99.4614 130.517 99.4614 130.517 100.295 129.239C100.404 129.049 100.514 128.859 100.626 128.662C100.849 128.267 101.068 127.87 101.284 127.47C101.845 126.509 102.154 126.051 103.201 125.609C104.749 125.739 105.882 126.418 107.219 127.174C107.483 127.317 107.746 127.461 108.017 127.609C108.665 127.963 109.309 128.321 109.951 128.684C110.307 127.972 110.16 127.718 109.955 126.958C109.889 126.713 109.824 126.468 109.757 126.217C109.684 125.952 109.612 125.688 109.537 125.415C109.464 125.145 109.391 124.874 109.316 124.596C109.083 123.73 108.847 122.864 108.611 121.998C108.452 121.412 108.294 120.826 108.136 120.24C107.748 118.801 107.357 117.362 106.965 115.924C106.156 115.924 105.919 116.381 105.353 116.942Z" fill="#147DC0"/>
<path d="M30.9927 88.3321C32.2922 89.4854 32.9276 90.8605 33.1211 92.5761C33.0801 94.6158 32.568 96.529 32.0182 98.4809C31.3161 100.783 31.3161 100.783 31.2207 103.164C31.7611 103.704 32.8391 103.479 33.5803 103.483C34.0149 103.49 34.4495 103.496 34.8841 103.503C35.5698 103.512 36.2553 103.52 36.941 103.524C37.6025 103.528 38.2637 103.539 38.9251 103.551C39.1268 103.551 39.3285 103.55 39.5364 103.55C41.2737 103.59 42.7381 104.111 43.9964 105.338C44.9755 106.841 45.4683 108.139 45.3379 109.951C45.0688 111.177 44.6769 112.164 43.9804 113.209C44.154 113.467 44.3276 113.724 44.5064 113.989C45.2831 115.362 45.581 116.887 45.1799 118.433C44.977 118.963 44.7554 119.479 44.5234 119.996C44.2603 120.698 44.2603 120.698 44.2519 121.353C44.3751 121.549 44.4983 121.745 44.6252 121.947C45.3733 123.242 45.5023 124.656 45.1905 126.116C44.8797 127.083 44.5471 127.834 43.9804 128.684C44.1036 128.824 44.2268 128.964 44.3537 129.108C45.3171 130.553 45.4674 132.005 45.2467 133.689C44.8363 135.273 43.9807 136.411 42.6959 137.397C41.1469 138.253 39.3859 138.061 37.6665 138.046C37.2739 138.047 36.8814 138.048 36.4888 138.049C35.427 138.052 34.3654 138.048 33.3036 138.042C32.1919 138.037 31.0802 138.038 29.9685 138.038C28.1033 138.038 26.2381 138.033 24.3729 138.026C22.215 138.017 20.0571 138.014 17.8991 138.015C15.8229 138.015 13.7467 138.012 11.6705 138.008C10.7867 138.006 9.90287 138.005 9.01904 138.005C7.97995 138.004 6.9409 138.001 5.90182 137.995C5.51986 137.994 5.1379 137.993 4.75594 137.993C4.23611 137.994 3.71628 137.99 3.19646 137.987C2.90513 137.986 2.6138 137.985 2.31364 137.984C1.62888 137.914 1.62888 137.914 1.08591 137.371C1.01758 136.789 1.01758 136.789 1.01696 136.052C1.01543 135.773 1.0139 135.495 1.01232 135.208C1.01342 134.901 1.01452 134.594 1.01566 134.278C1.0147 133.955 1.01375 133.633 1.01277 133.301C1.01079 132.416 1.01126 131.531 1.01298 130.646C1.01435 129.721 1.01308 128.796 1.01223 127.87C1.01124 126.317 1.01254 124.763 1.01513 123.209C1.01808 121.411 1.01712 119.613 1.01413 117.816C1.01167 116.274 1.01132 114.732 1.01274 113.19C1.01359 112.268 1.0137 111.346 1.01191 110.425C1.01054 109.398 1.01262 108.371 1.01566 107.343C1.01456 107.037 1.01346 106.73 1.01232 106.413C1.01386 106.135 1.01539 105.856 1.01696 105.569C1.01717 105.326 1.01738 105.083 1.01759 104.833C1.08591 104.25 1.08591 104.25 1.62888 103.707C2.21068 103.641 2.21068 103.641 2.93997 103.642C3.21275 103.641 3.48553 103.64 3.76658 103.639C4.21027 103.641 4.21027 103.641 4.66293 103.642C5.28597 103.638 5.909 103.634 6.53204 103.629C7.51689 103.625 8.50162 103.622 9.48648 103.624C10.4352 103.625 11.3837 103.617 12.3324 103.608C12.6265 103.611 12.9207 103.614 13.2237 103.617C14.4675 103.601 15.2395 103.587 16.3004 102.905C16.9975 101.821 17.3069 100.78 17.6199 99.5372C17.6865 99.2918 17.753 99.0464 17.8215 98.7936C18.0334 98.0118 18.2394 97.2286 18.4439 96.4448C18.7127 95.4154 18.9875 94.3878 19.2658 93.3609C19.3244 93.1284 19.383 92.8958 19.4434 92.6562C20.0324 90.4862 20.9674 88.6027 22.9404 87.4179C25.6002 86.0302 28.6503 86.5784 30.9927 88.3321ZM24.1621 90.9472C23.273 92.2633 22.8243 93.7933 22.4239 95.3143C22.31 95.7279 22.196 96.1415 22.0819 96.5551C21.9084 97.1951 21.7359 97.8354 21.564 98.4759C19.9942 104.293 19.9942 104.293 18.3591 106.015C16.9127 106.841 15.4906 107.001 13.8457 107.236C13.8457 116.285 13.8457 125.333 13.8457 134.656C20.1786 134.681 20.1786 134.681 26.6394 134.707C27.971 134.715 29.3027 134.722 30.6747 134.73C31.8714 134.732 31.8714 134.732 33.0681 134.734C33.5999 134.735 34.1317 134.738 34.6635 134.742C35.4705 134.748 36.2773 134.749 37.0842 134.749C37.32 134.752 37.5558 134.755 37.7987 134.758C39.153 134.751 40.0988 134.608 41.2656 133.842C41.7655 133.111 41.7655 133.111 41.8086 132.213C41.399 131.161 41.399 131.161 40.7226 130.312C39.9466 130.06 39.2081 130.083 38.398 130.109C36.2546 130.134 36.2546 130.134 35.5538 129.691C35.1024 128.887 35.3577 128.185 35.5644 127.326C36.5652 126.826 37.8983 127.011 39.0131 127.033C40.1875 127.019 40.1875 127.019 41.117 126.376C41.6558 125.491 41.8326 125.01 41.6389 123.983C41.3039 123.237 41.3039 123.237 40.7226 122.711C40.0549 122.648 39.4063 122.609 38.7374 122.592C37.3598 122.55 36.3883 122.511 35.2929 121.625C35.1742 120.794 35.1742 120.794 35.2929 119.996C36.0249 119.264 36.5763 119.411 37.5677 119.402C38.0174 119.402 38.4671 119.408 38.9166 119.419C40.1428 119.421 40.1428 119.421 41.1255 118.775C41.6575 117.9 41.8337 117.412 41.6389 116.399C41.2698 115.622 41.2698 115.622 40.7226 114.838C39.9448 114.755 39.2109 114.711 38.432 114.702C36.2569 114.677 36.2569 114.677 35.6301 114.214C35.2929 113.752 35.2929 113.752 35.3438 112.768C35.453 112.314 35.453 112.314 35.5644 111.852C36.5652 111.351 37.8983 111.536 39.0131 111.559C40.1874 111.544 40.1874 111.544 41.1164 110.901C41.6504 110.023 41.8292 109.53 41.6559 108.509C41.3034 107.712 41.3034 107.712 40.4511 107.236C39.7679 107.181 39.1123 107.155 38.4288 107.153C38.0207 107.146 37.6126 107.139 37.2045 107.132C36.5641 107.124 35.9238 107.118 35.2835 107.112C34.6633 107.106 34.0434 107.096 33.4233 107.085C33.2352 107.085 33.047 107.085 32.8532 107.085C31.1963 107.052 29.6712 106.707 28.404 105.573C26.9975 103.085 27.6234 101.025 28.3367 98.442C28.4204 98.1421 28.4204 98.1421 28.5058 97.8361C28.6732 97.2338 28.8387 96.6314 28.9983 96.0269C29.097 95.6531 29.2001 95.2804 29.3082 94.9092C29.6517 93.6095 29.5484 92.7318 29.0488 91.4902C27.4841 90.1689 25.9271 89.6449 24.1621 90.9472ZM4.61521 107.236C4.61521 116.285 4.61521 125.333 4.61521 134.656C6.4966 134.656 8.37798 134.656 10.3164 134.656C10.3164 125.608 10.3164 116.559 10.3164 107.236C8.43499 107.236 6.55361 107.236 4.61521 107.236Z" fill="#147DC0"/>
<path d="M16.5606 44.2519C17.4428 44.9042 17.7191 45.7902 18.1078 46.7897C18.173 46.956 18.2381 47.1222 18.3052 47.2936C18.4419 47.6439 18.5776 47.9946 18.7124 48.3457C18.9191 48.8841 19.1291 49.421 19.3396 49.9579C20.3614 52.585 20.3614 52.585 20.3614 53.2109C20.6538 53.2062 20.6538 53.2062 20.9521 53.2014C22.8372 53.1849 24.7214 53.2136 26.6055 53.2788C26.9364 53.2845 26.9364 53.2845 27.2739 53.2904C28.3485 53.3351 28.9355 53.4134 29.8729 53.984C30.4063 54.5683 30.4063 54.5683 30.5251 55.4337C30.1679 57.0105 28.6135 57.955 27.42 58.9121C27.1739 59.1133 26.9279 59.3145 26.6744 59.5219C25.6709 60.3346 24.6551 61.1274 23.6192 61.8984C23.8108 63.9765 24.3774 65.8898 24.9777 67.8827C25.6881 70.3539 25.6881 70.3539 25.2481 71.6719C24.6542 72.2148 24.6542 72.2148 23.8907 72.4863C22.7347 72.1872 21.8197 71.719 20.8248 71.0684C20.5643 70.8999 20.3037 70.7314 20.0353 70.5578C19.7677 70.3823 19.5002 70.2068 19.2245 70.026C18.6895 69.677 18.154 69.3288 17.6179 68.9814C17.2645 68.7499 17.2645 68.7499 16.904 68.5137C16.2802 68.1065 16.2802 68.1065 15.4746 67.8711C14.8276 68.1766 14.8276 68.1766 14.1459 68.6473C13.8864 68.816 13.6269 68.9847 13.3595 69.1585C13.0888 69.3384 12.8181 69.5183 12.5392 69.7036C8.97032 72.0471 8.97032 72.0471 7.87309 72.4863C6.97379 72.2997 6.97379 72.2997 6.24418 71.9433C5.32394 70.1029 6.3927 67.7128 6.90592 65.8858C6.99429 65.5623 7.08265 65.2388 7.17369 64.9054C7.82686 62.5338 7.82686 62.5338 8.14457 61.8984C7.98742 61.8263 7.83026 61.7541 7.66834 61.6798C7.03694 61.3439 6.53919 60.9671 5.99072 60.5092C5.79212 60.3443 5.59352 60.1795 5.3889 60.0097C5.184 59.8379 4.97909 59.666 4.76798 59.489C4.36117 59.1503 3.9543 58.8116 3.54736 58.473C3.35688 58.3128 3.16639 58.1526 2.97013 57.9875C2.5347 57.6297 2.08261 57.2923 1.62682 56.9608C1.08598 56.4687 1.08598 56.4687 0.934326 55.9067C1.02565 54.3572 1.02565 54.3572 1.62894 53.7539C2.72659 53.4011 3.86203 53.3877 5.00553 53.3297C5.22106 53.3182 5.43659 53.3066 5.65866 53.2948C7.4842 53.2035 9.30306 53.1819 11.1309 53.2109C11.1635 52.9757 11.1961 52.7404 11.2297 52.498C11.5188 50.9646 12.1461 49.5642 12.7259 48.1206C12.908 47.6529 12.908 47.6529 13.0939 47.1757C13.2125 46.8786 13.3311 46.5815 13.4534 46.2753C13.5611 46.0042 13.6688 45.7331 13.7799 45.4537C14.4247 44.1944 15.2504 44.1155 16.5606 44.2519ZM15.4746 51.039C15.4228 51.1842 15.3709 51.3294 15.3174 51.479C15.0797 52.137 14.8361 52.7927 14.5923 53.4485C14.5108 53.677 14.4292 53.9055 14.3452 54.141C14.2219 54.4691 14.2219 54.4691 14.096 54.8038C14.0221 55.0056 13.9482 55.2075 13.872 55.4155C13.4931 56.0649 13.191 56.2179 12.4883 56.4687C11.9165 56.5553 11.9165 56.5553 11.3133 56.5811C10.9878 56.5969 10.9878 56.5969 10.6558 56.613C10.3198 56.6256 10.3198 56.6256 9.97709 56.6384C9.74891 56.6489 9.52074 56.6594 9.28565 56.6702C8.7244 56.6957 8.16301 56.7183 7.6016 56.7402C8.52786 57.986 9.56558 58.7885 10.8202 59.6831C11.5775 60.4459 11.6485 60.8274 11.6739 61.8984C11.551 62.7167 11.3573 63.5079 11.1479 64.3078C11.0683 64.627 11.0683 64.627 10.9872 64.9526C10.8569 65.4737 10.7228 65.9938 10.5879 66.5137C12.2816 65.5982 12.2816 65.5982 13.8797 64.5284C14.8824 63.9399 15.4061 63.9523 16.5606 64.0703C17.2904 64.4006 17.9263 64.8314 18.5798 65.292C18.7525 65.4085 18.9252 65.525 19.1031 65.6451C19.5252 65.9307 19.9437 66.2217 20.3614 66.5137C20.6833 65.5479 20.5494 65.2726 20.2426 64.3248C19.8094 62.848 19.7288 61.5275 19.8184 59.998C19.9682 59.9308 20.118 59.8636 20.2723 59.7944C21.0269 59.3893 21.6595 58.9021 22.3296 58.3691C22.6929 58.0836 22.6929 58.0836 23.0635 57.7922C23.2469 57.6242 23.4302 57.4563 23.6192 57.2832C23.6192 57.104 23.6192 56.9248 23.6192 56.7402C23.1089 56.7155 23.1089 56.7155 22.5884 56.6904C22.1402 56.6674 21.6919 56.6445 21.2437 56.6214C21.0197 56.6108 20.7957 56.6001 20.565 56.5891C20.348 56.5777 20.131 56.5663 19.9075 56.5546C19.7084 56.5447 19.5094 56.5347 19.3043 56.5245C18.7214 56.4676 18.2019 56.3848 17.6465 56.1972C17.4005 55.6628 17.4005 55.6628 17.2393 54.9756C16.877 53.5864 16.3619 52.3332 15.7461 51.039C15.6565 51.039 15.567 51.039 15.4746 51.039Z" fill="#147DC0"/>
<path d="M49.1217 2.51127C51.481 3.85946 52.432 8.35289 53.2109 10.8594C53.2109 11.0386 53.2109 11.2178 53.2109 11.4024C53.4863 11.4146 53.7616 11.4268 54.0453 11.4393C55.0671 11.4855 56.0885 11.5368 57.1099 11.5896C57.5519 11.6118 57.9941 11.6326 58.4363 11.6519C59.072 11.68 59.7073 11.713 60.3427 11.747C60.5404 11.7547 60.7381 11.7624 60.9418 11.7703C62.3134 11.8505 62.3134 11.8505 62.965 12.3332C63.3312 12.8704 63.4888 13.1908 63.5273 13.8457C62.081 16.6212 58.9018 18.4786 56.4688 20.3614C56.5551 20.6774 56.5551 20.6774 56.6432 20.9998C56.9046 21.9627 57.1618 22.9266 57.4189 23.8907C57.5096 24.2221 57.6002 24.5535 57.6936 24.8949C58.8045 29.0893 58.8045 29.0893 58.0637 30.4063C57.294 30.8168 56.7957 30.7685 55.9258 30.6778C55.1702 30.3314 54.4947 29.8836 53.8048 29.4222C53.6134 29.299 53.4221 29.1759 53.2249 29.0491C52.0065 28.2613 50.8109 27.4433 49.653 26.5684C48.9256 26.2369 48.5458 26.3899 47.7812 26.6055C47.0608 27.0082 47.0608 27.0082 46.34 27.5228C45.9351 27.7971 45.9351 27.7971 45.5219 28.0769C44.9583 28.4646 44.3955 28.8534 43.8336 29.2435C43.5632 29.426 43.2929 29.6085 43.0144 29.7965C42.6477 30.0498 42.6477 30.0498 42.2737 30.3083C41.4061 30.7435 40.8672 30.7882 39.9082 30.6778C39.0938 30.1348 39.0938 30.1348 38.8822 29.3899C38.8171 28.429 38.9475 27.771 39.221 26.8505C39.3088 26.5434 39.3967 26.2363 39.4872 25.9199C39.5813 25.603 39.6755 25.2861 39.7725 24.9596C39.9591 24.3295 40.143 23.6985 40.3239 23.0667C40.4481 22.6493 40.4481 22.6493 40.5747 22.2235C40.7332 21.3918 40.7147 20.8909 40.4512 20.0899C39.9236 19.5576 39.4229 19.1083 38.8392 18.6476C38.6815 18.5177 38.5237 18.3878 38.3612 18.2539C37.6191 17.646 36.8664 17.0627 36.0936 16.4938C34.2884 15.1536 34.2884 15.1536 33.8337 13.9136C33.9355 13.0313 33.9355 13.0313 34.3595 12.4472C35.2248 11.7912 35.9801 11.7562 37.0279 11.7205C37.2192 11.71 37.4105 11.6995 37.6076 11.6887C38.216 11.6563 38.8244 11.6311 39.4331 11.606C39.8467 11.5853 40.2603 11.5641 40.6739 11.5424C41.6854 11.4903 42.697 11.4447 43.709 11.4024C44.3943 9.93594 45.0604 8.46922 45.6359 6.95577C45.7246 6.72287 45.8133 6.48997 45.9047 6.25001C46.0844 5.77363 46.2618 5.29637 46.4371 4.81836C46.5254 4.58861 46.6138 4.35886 46.7049 4.12215C46.7815 3.91653 46.8582 3.7109 46.9372 3.49905C47.4792 2.57615 48.09 2.42346 49.1217 2.51127ZM48.5957 9.50199C48.5072 9.71827 48.4186 9.93455 48.3274 10.1574C46.6936 14.1189 46.6936 14.1189 46.1523 14.6602C45.7295 14.7217 45.3043 14.7673 44.8787 14.8055C44.6224 14.8291 44.366 14.8527 44.1019 14.8771C43.8322 14.9007 43.5626 14.9243 43.2848 14.9486C43.0141 14.9733 42.7434 14.998 42.4645 15.0234C41.7935 15.0844 41.1224 15.1443 40.4512 15.2032C41.3286 16.1185 42.2158 16.8673 43.2509 17.5956C44.4922 18.5857 44.4922 18.5857 44.744 19.7675C44.5876 20.944 44.2324 22.1008 43.8871 23.2342C43.6734 23.9083 43.6734 23.9083 43.709 24.7051C45.0578 24.2255 46.1064 23.4625 47.2616 22.6319C48.309 22.1419 48.8442 22.2331 49.9531 22.5332C50.8514 23.0349 50.8514 23.0349 51.7008 23.6361C52.1286 23.9348 52.1286 23.9348 52.5651 24.2396C52.7782 24.3932 52.9914 24.5468 53.2109 24.7051C53.3901 24.6155 53.5693 24.5259 53.7539 24.4336C53.6724 24.1586 53.5908 23.8835 53.5068 23.6001C53.4024 23.2332 53.2981 22.8663 53.194 22.4993C53.1399 22.3187 53.0858 22.1381 53.0301 21.9521C52.7031 20.7816 52.556 19.8958 52.9395 18.7325C53.5217 18.0771 53.5217 18.0771 54.246 17.4768C55.1213 16.7398 55.9276 16.0158 56.7402 15.2032C53.7838 14.9344 53.7838 14.9344 50.7676 14.6602C50.4988 13.8539 50.23 13.0476 49.9531 12.2168C49.7606 11.7114 49.5638 11.2074 49.3593 10.7067C49.2658 10.4768 49.1724 10.2469 49.0761 10.01C49.0072 9.84234 48.9382 9.67471 48.8672 9.50199C48.7776 9.50199 48.688 9.50199 48.5957 9.50199Z" fill="#147DC0"/>
<path d="M17.1035 2.98643C17.554 3.70372 17.554 3.70372 17.8968 4.60473C18.0238 4.9288 18.1508 5.25286 18.2817 5.58674C18.4095 5.93027 18.5371 6.27387 18.6645 6.61753C18.7958 6.95923 18.9277 7.30071 19.0601 7.64196C19.303 8.26983 19.5432 8.89874 19.7799 9.52897C19.8822 9.78885 19.9845 10.0487 20.0898 10.3165C20.1533 10.5267 20.2168 10.7369 20.2822 10.9535C20.6273 11.4976 20.6273 11.4976 21.4747 11.5583C22.006 11.5736 22.006 11.5736 22.548 11.5891C22.8323 11.601 22.8323 11.601 23.1222 11.6132C23.729 11.6384 24.3356 11.657 24.9426 11.6739C25.7398 11.6963 26.5362 11.7255 27.333 11.7588C27.8652 11.774 27.8652 11.774 28.4082 11.7895C29.4513 11.9678 29.7966 12.1776 30.4062 13.0314C30.4487 14.269 30.284 14.7697 29.4412 15.6847C29.1448 15.9252 28.8441 16.1605 28.5398 16.391C28.3829 16.5164 28.2261 16.6418 28.0645 16.771C27.7409 17.0293 27.4157 17.2856 27.0889 17.5399C26.3451 18.1217 25.6199 18.7251 24.8917 19.3264C24.4678 19.6717 24.0437 20.0169 23.6191 20.3614C23.837 21.8085 24.1203 23.2265 24.5099 24.6373C24.6035 24.9768 24.6035 24.9768 24.699 25.3231C24.8258 25.7761 24.9554 26.2283 25.0881 26.6796C25.4328 27.9122 25.6586 28.8761 25.248 30.1349C24.2707 30.7864 23.9592 30.8333 22.8047 30.6778C21.9967 30.2803 21.2701 29.7818 20.531 29.2695C20.1387 29.0053 19.7464 28.7412 19.3539 28.4773C18.7661 28.0814 18.1795 27.6846 17.5974 27.2804C17.4085 27.154 17.2197 27.0275 17.025 26.8972C16.8572 26.7823 16.6893 26.6674 16.5164 26.549C15.859 26.2657 15.5934 26.3484 14.9316 26.6056C14.5278 26.8281 14.1326 27.0666 13.745 27.3161C13.5219 27.4585 13.2988 27.601 13.0689 27.7477C12.7227 27.9719 12.7227 27.9719 12.3695 28.2005C11.5044 28.7553 10.639 29.3094 9.77344 29.8634C9.51342 30.03 9.2534 30.1965 8.9855 30.3682C8.20634 30.7918 7.65906 30.7916 6.78711 30.6778C6.27808 30.3894 6.27808 30.3894 5.97266 29.8634C5.90361 28.5344 6.05681 27.3993 6.38837 26.1146C6.47411 25.7777 6.55985 25.4409 6.64819 25.0938C6.73882 24.7472 6.82946 24.4006 6.92285 24.0434C7.01461 23.6859 7.10617 23.3284 7.19752 22.9708C7.42067 22.1004 7.64591 21.2307 7.87305 20.3614C5.92416 18.7646 5.92416 18.7646 3.97046 17.1736C3.73529 16.9825 3.50011 16.7915 3.25781 16.5946C3.01704 16.3993 2.77627 16.204 2.5282 16.0028C1.10117 14.8024 1.10117 14.8024 0.984131 13.7101C1.08594 12.7599 1.08594 12.7599 1.36836 12.3056C2.18427 11.7532 3.04354 11.7842 3.99909 11.7471C4.20282 11.7362 4.40655 11.7253 4.61645 11.7141C5.26635 11.6801 5.91636 11.6515 6.56653 11.623C7.00753 11.6009 7.44852 11.5785 7.88948 11.5557C8.96978 11.5006 10.0502 11.4503 11.1309 11.4024C11.1774 11.2393 11.224 11.0762 11.272 10.9082C11.7731 9.1918 12.3481 7.51972 12.9973 5.85398C13.0859 5.61409 13.1744 5.37419 13.2656 5.12702C13.6618 4.11356 13.9609 3.4037 14.7641 2.6545C15.7411 2.3643 16.1888 2.55587 17.1035 2.98643ZM15.4746 9.50206C15.1567 10.2595 14.8402 11.0174 14.5244 11.7757C14.4338 11.9913 14.3431 12.2069 14.2497 12.429C14.164 12.6355 14.0783 12.8419 13.9899 13.0547C13.9103 13.2452 13.8307 13.4357 13.7487 13.632C13.5436 14.1165 13.5436 14.1165 13.5742 14.6603C11.6032 14.8394 9.63226 15.0186 7.60156 15.2032C8.66565 16.2673 9.72373 17.2065 10.8891 18.1461C11.5602 18.9129 11.6386 19.3445 11.6738 20.3614C11.5529 21.136 11.3586 21.8806 11.1478 22.6351C11.0948 22.8349 11.0418 23.0348 10.9872 23.2406C10.857 23.7296 10.7228 24.2175 10.5879 24.7052C11.9367 24.2255 12.9853 23.4626 14.1405 22.6319C15.1874 22.1422 15.7239 22.2327 16.832 22.5333C17.7112 23.0349 17.7112 23.0349 18.5458 23.6362C19.5022 24.42 19.5022 24.42 20.6328 24.7052C20.5483 24.2753 20.4634 23.8454 20.3783 23.4156C20.331 23.1763 20.2838 22.9369 20.2351 22.6903C20.1075 22.0194 20.1075 22.0194 19.9361 21.494C19.7473 20.5484 19.6149 19.6781 19.8184 18.7325C20.2988 18.0692 20.8924 17.6197 21.5491 17.1376C21.8736 16.8838 22.1981 16.63 22.5226 16.3761C22.7949 16.1682 23.0671 15.9604 23.3477 15.7462C23.5268 15.567 23.706 15.3878 23.8906 15.2032C23.7222 15.1939 23.5537 15.1845 23.3802 15.1749C22.6165 15.1288 21.8539 15.0728 21.0909 15.0166C20.8258 15.0021 20.5608 14.9875 20.2876 14.9726C18.3364 14.8184 18.3364 14.8184 17.6444 14.0738C17.511 13.6922 17.511 13.6922 17.375 13.3028C17.2571 13.0075 17.1391 12.7121 17.0176 12.4078C16.7911 11.7801 16.5649 11.1523 16.3389 10.5244C16.0995 9.7414 16.0995 9.7414 15.4746 9.50206Z" fill="#147DC0"/>
<path d="M101.192 83.0382C104.059 85.7371 106.068 89.5645 106.232 93.5402C106.292 98.3692 105.168 102.766 101.709 106.336C98.206 109.409 94.2451 110.889 89.5687 110.84C85.2411 110.538 81.4528 108.792 78.4591 105.607C75.1908 101.646 74.2472 97.3228 74.6583 92.3047C75.3861 87.9292 77.7672 84.3469 81.3309 81.7497C87.7336 77.7329 95.337 78.3094 101.192 83.0382ZM82.8028 85.2461C82.5845 85.3917 82.3661 85.5373 82.1411 85.6873C79.9345 87.7325 78.3178 90.7189 78.1325 93.7491C78.0826 97.7966 79.0948 100.934 81.8908 103.94C84.4824 106.292 87.7136 107.438 91.1902 107.33C94.8057 106.93 97.9333 105.249 100.254 102.457C102.497 99.3327 103.097 95.8258 102.495 92.0576C101.551 88.534 99.2092 85.7181 96.1056 83.8887C91.5875 81.6665 86.8028 82.3371 82.8028 85.2461Z" fill="#147DC0"/>
<path d="M97.1914 89.3183C97.7344 89.8612 97.7344 89.8612 97.8871 90.7096C97.6649 92.2404 96.9095 92.8666 95.834 93.9335C95.5351 94.2387 95.2364 94.5441 94.9379 94.8498C93.4337 96.3803 91.9241 97.8947 90.2771 99.2731C89.8113 99.6615 89.8113 99.6615 89.2845 100.296C88.7754 100.721 88.7754 100.721 87.9949 100.924C86.8826 100.657 86.6098 100.244 85.9853 99.3144C85.831 99.0617 85.6766 98.8091 85.5176 98.5487C85.4154 98.3828 85.3131 98.2168 85.2078 98.0458C84.8638 97.4816 84.5277 96.9134 84.1941 96.3429C84.084 96.1582 83.9738 95.9734 83.8603 95.783C83.2349 94.6791 82.8891 93.8795 83.0743 92.5761C83.6172 91.7616 83.6172 91.7616 84.6183 91.5411C85.4743 91.566 85.7246 91.6943 86.3257 92.3216C86.817 93.024 87.2614 93.734 87.6895 94.4765C87.9605 94.9292 88.2319 95.3818 88.5039 95.8339C88.6985 95.6379 88.893 95.442 89.0934 95.2401C89.8142 94.5144 90.5359 93.7896 91.2579 93.065C91.5704 92.7511 91.8828 92.4369 92.1948 92.1225C92.643 91.6711 93.092 91.2205 93.5412 90.7701C93.7508 90.5584 93.7508 90.5584 93.9646 90.3424C95.1405 89.1664 95.5456 88.9411 97.1914 89.3183Z" fill="#147DC0"/>
</g>
<defs>
<clipPath id="clip0_1056_3100">
<rect width="139" height="139" fill="white"/>
</clipPath>
</defs>
</svg>
