<svg width="77" height="77" viewBox="0 0 77 77" fill="none" xmlns="http://www.w3.org/2000/svg">
<g clip-path="url(#clip0_1056_3009)">
<path d="M45.1172 0.60153C45.2552 0.635359 45.3931 0.669189 45.5353 0.704043C50.537 1.96796 55.0617 4.41121 58.8027 7.97067C58.8828 8.04664 58.9629 8.12261 59.0454 8.20088C64.1881 13.1129 67.759 20.1415 67.995 27.331C68.0097 28.0085 68.0136 28.686 68.0142 29.3637C68.0143 29.4844 68.0144 29.6051 68.0145 29.7294C68.0119 31.6318 67.9305 33.4764 67.5254 35.3418C67.5004 35.4582 67.4754 35.5747 67.4496 35.6947C66.5913 39.5426 65.0493 43.2814 62.7129 46.4707C62.5991 46.6271 62.4853 46.7836 62.368 46.9448C61.5198 48.0886 60.5889 49.1424 59.6049 50.1707C59.4338 50.3499 59.2649 50.5311 59.0965 50.7127C58.1895 51.6643 57.1432 52.4493 56.0957 53.2382C55.9703 53.3329 55.8448 53.4275 55.7156 53.5249C52.0041 56.215 47.8036 57.846 43.3125 58.6523C43.1326 58.6864 42.9527 58.7206 42.7673 58.7557C35.2503 59.9426 27.389 57.8758 21.2389 53.4869C18.7427 51.6641 16.5723 49.5591 14.7383 47.0722C14.5618 46.8329 14.5618 46.8329 14.3817 46.5888C11.6053 42.696 9.88287 38.2597 9.17383 33.5371C9.15832 33.438 9.14281 33.3389 9.12683 33.2368C8.71165 30.1533 8.81051 26.6448 9.47461 23.6113C9.50449 23.4737 9.53436 23.3362 9.56515 23.1945C11.2573 15.6655 15.7499 8.93559 22.2484 4.71847C22.5153 4.55038 22.7833 4.3843 23.0522 4.2195C23.2962 4.06937 23.5378 3.91554 23.7793 3.7615C26.43 2.14452 29.468 1.13109 32.4844 0.45114C32.5961 0.424605 32.7077 0.39807 32.8228 0.370731C36.6628 -0.505266 41.3154 -0.335194 45.1172 0.60153ZM38.3496 6.31637C38.2983 6.41154 38.2469 6.5067 38.194 6.60475C36.4683 9.80126 36.4683 9.80126 35.6426 11.2793C35.1465 12.1674 34.6574 13.0591 34.1739 13.9542C34.0069 14.2626 33.8391 14.5706 33.6705 14.8782C33.2651 15.6193 32.8739 16.3617 32.512 17.1251C32.4437 17.2633 32.3755 17.4014 32.3052 17.5438C32.1784 17.8012 32.0568 18.0614 31.9419 18.3243C31.6805 18.8431 31.4717 19.1806 30.9113 19.3848C30.688 19.4299 30.688 19.4299 30.4602 19.4758C30.2849 19.5121 30.1096 19.5483 29.9291 19.5856C29.7281 19.6243 29.5272 19.6628 29.3262 19.7011C29.1031 19.7449 28.8801 19.7888 28.6571 19.8326C27.8851 19.9829 27.112 20.1273 26.3389 20.2716C26.0551 20.3248 25.7713 20.3781 25.4875 20.4315C24.7471 20.5705 24.0066 20.7091 23.2661 20.8476C22.5079 20.9894 21.7497 21.1318 20.9915 21.2741C19.5088 21.5523 18.0259 21.83 16.543 22.1074C16.4936 22.5676 16.4936 22.5676 16.802 22.8564C16.9762 23.0207 16.9762 23.0207 17.1539 23.1883C17.5973 23.6165 18.0232 24.0444 18.4228 24.5136C18.8059 24.9605 19.207 25.3786 19.626 25.792C20.0419 26.2023 20.44 26.6169 20.8197 27.0609C21.2286 27.538 21.6604 27.9822 22.1074 28.4238C22.6467 28.9565 23.1525 29.5029 23.6448 30.0787C23.9471 30.4182 24.2653 30.7364 24.5889 31.0556C25.3255 31.7835 26.0435 32.5232 26.6191 33.3867C26.594 33.8413 26.55 34.2739 26.4876 34.7237C26.4701 34.8604 26.4525 34.9972 26.4344 35.138C26.3758 35.5912 26.3148 36.0439 26.2537 36.4967C26.2127 36.8112 26.1718 37.1257 26.1311 37.4402C26.0233 38.2694 25.9135 39.0983 25.8032 39.9271C25.6272 41.2527 25.4543 42.5786 25.2813 43.9046C25.2205 44.368 25.159 44.8312 25.0973 45.2944C25.0598 45.5788 25.0224 45.8631 24.9849 46.1475C24.9675 46.2763 24.9502 46.405 24.9323 46.5377C24.8559 47.1213 24.7928 47.6852 24.8145 48.2754C25.4658 48.0722 26.0646 47.8213 26.6767 47.5205C26.7674 47.4761 26.8582 47.4318 26.9517 47.3862C27.1467 47.2909 27.3416 47.1954 27.5364 47.0996C28.0595 46.8428 28.5835 46.5879 29.1076 46.3332C29.2144 46.2813 29.3212 46.2294 29.4312 46.1759C30.6325 45.5935 31.8435 45.0324 33.0573 44.4763C33.9312 44.0746 34.7977 43.663 35.6567 43.2302C35.8282 43.1447 35.9997 43.0591 36.1764 42.971C36.5015 42.808 36.8254 42.6427 37.1479 42.4746C37.2928 42.4024 37.4377 42.3301 37.5871 42.2556C37.7131 42.1909 37.8391 42.1261 37.9689 42.0594C38.7224 41.8606 39.4114 42.3204 40.0803 42.648C40.2388 42.7252 40.3974 42.8023 40.5607 42.8818C40.7306 42.965 40.9004 43.0482 41.0754 43.1339C41.4426 43.3125 41.81 43.4906 42.1775 43.6685C42.2716 43.714 42.3657 43.7596 42.4626 43.8065C43.4362 44.2767 44.4172 44.7304 45.3992 45.183C46.5201 45.6995 47.6374 46.2219 48.7477 46.7609C48.8486 46.8098 48.9495 46.8588 49.0534 46.9092C49.5434 47.1472 50.0328 47.3861 50.5218 47.6262C50.6959 47.7111 50.87 47.796 51.0494 47.8835C51.2037 47.9593 51.3581 48.035 51.5171 48.1131C51.8636 48.2956 51.8636 48.2956 52.1855 48.2754C52.0992 46.7455 51.8952 45.2426 51.6761 43.7272C51.551 42.8535 51.4329 41.9788 51.3134 41.1042C51.2084 40.3389 51.101 39.574 50.9886 38.8097C50.8793 38.0652 50.7764 37.32 50.678 36.5739C50.6396 36.2912 50.5987 36.0088 50.5554 35.7268C50.2197 33.5276 50.2197 33.5276 50.6167 32.8099C50.922 32.503 51.2269 32.2756 51.584 32.0332C51.7619 31.8408 51.9351 31.6439 52.1009 31.441C52.4873 30.9913 52.8914 30.5697 53.3135 30.1533C53.7294 29.743 54.1275 29.3284 54.5072 28.8844C55.0346 28.2688 55.608 27.7061 56.1844 27.1367C56.5873 26.7286 56.9599 26.3021 57.3323 25.8666C57.6346 25.5271 57.9528 25.2088 58.2764 24.8896C59.1143 24.0617 59.8822 23.186 60.6074 22.2578C59.8111 22.0161 59.0183 21.8436 58.1998 21.6953C58.0684 21.6711 57.937 21.6468 57.8015 21.6218C57.5179 21.5695 57.2342 21.5174 56.9505 21.4655C56.5017 21.3833 56.053 21.3002 55.6043 21.2168C54.3293 20.9799 53.0542 20.7437 51.7786 20.5102C50.997 20.367 50.2157 20.2222 49.4347 20.0762C49.1371 20.0209 48.8395 19.9663 48.5417 19.9123C48.1263 19.837 47.7114 19.7595 47.2965 19.6815C47.1116 19.6488 47.1116 19.6488 46.9229 19.6154C46.3236 19.5003 45.9652 19.4147 45.5684 18.9492C45.4041 18.6726 45.2489 18.3905 45.0996 18.1056C44.9641 17.8494 44.9641 17.8494 44.8259 17.588C44.7784 17.4973 44.7309 17.4067 44.682 17.3133C44.4308 16.834 44.1769 16.3562 43.9229 15.8785C43.8715 15.7818 43.8201 15.6852 43.7672 15.5856C43.2896 14.6896 42.7918 13.8057 42.288 12.9242C41.627 11.7663 40.9913 10.5989 40.3765 9.4159C39.8293 8.36598 39.2475 7.33872 38.6504 6.31637C38.5511 6.31637 38.4519 6.31637 38.3496 6.31637Z" fill="#147DC0"/>
<path d="M38.3496 15.3398C38.9661 15.5453 39.0163 15.8154 39.313 16.3861C39.3614 16.478 39.4098 16.5699 39.4596 16.6646C39.6173 16.9649 39.773 17.2662 39.9287 17.5675C40.0904 17.8767 40.2525 18.1856 40.4147 18.4945C40.5232 18.7011 40.6315 18.9078 40.7396 19.1146C41.2735 20.134 41.83 21.1403 42.3952 22.1426C42.8613 22.978 42.8613 22.978 42.8613 23.3105C42.9708 23.3242 43.0802 23.3378 43.193 23.3519C45.0201 23.5954 46.8238 23.9556 48.6326 24.3069C48.9635 24.3708 49.2944 24.4346 49.6254 24.4984C50.4287 24.6534 51.232 24.8089 52.0352 24.9648C51.8262 25.3998 51.629 25.7068 51.2814 26.0434C51.1928 26.1303 51.1041 26.2172 51.0128 26.3068C50.919 26.3975 50.8252 26.4881 50.7286 26.5815C50.0653 27.2328 49.4233 27.886 48.8223 28.596C48.4223 29.0495 47.9861 29.4662 47.5557 29.8907C47.1452 30.3071 46.7617 30.7423 46.382 31.1867C46.2186 31.3754 46.0457 31.5559 45.8691 31.7324C45.7967 33.595 46.2452 35.5755 46.4801 37.4191C46.5229 37.7579 46.5657 38.0968 46.6085 38.4357C46.7124 39.2593 46.8169 40.0828 46.9219 40.9062C46.3014 40.8118 45.8098 40.6054 45.2482 40.3282C45.1605 40.2853 45.0729 40.2423 44.9825 40.1981C44.7951 40.1063 44.6079 40.0142 44.4208 39.9217C43.9313 39.6802 43.4399 39.4426 42.9489 39.2044C42.7534 39.1094 42.5578 39.0144 42.3624 38.9194C42.2688 38.8739 42.1753 38.8285 42.0789 38.7817C41.8283 38.6599 41.5777 38.538 41.3271 38.4161C40.9186 38.2187 40.5087 38.025 40.0979 37.8326C39.9803 37.7751 39.8627 37.7175 39.7416 37.6582C39.6316 37.6074 39.5216 37.5566 39.4082 37.5042C39.3155 37.4602 39.2227 37.4161 39.1272 37.3706C38.1913 37.1591 37.3747 37.5793 36.5625 37.9895C36.4518 38.0439 36.3411 38.0983 36.2271 38.1543C35.8749 38.3277 35.5237 38.5031 35.1726 38.6786C34.7119 38.9068 34.2508 39.1343 33.7897 39.3618C33.6783 39.4169 33.5668 39.4719 33.452 39.5287C32.7594 39.8703 32.0654 40.2083 31.367 40.5379C31.2151 40.6097 31.0631 40.6815 30.9065 40.7555C30.5293 40.9062 30.5293 40.9062 30.0781 40.9062C30.0913 40.8024 30.1045 40.6986 30.1181 40.5916C30.2425 39.6114 30.3664 38.6312 30.4899 37.651C30.5534 37.1471 30.617 36.6432 30.6811 36.1393C30.7547 35.5596 30.8277 34.9799 30.9006 34.4001C30.9236 34.2198 30.9466 34.0394 30.9704 33.8536C30.9914 33.6851 31.0125 33.5165 31.0342 33.3428C31.0529 33.1949 31.0716 33.047 31.0909 32.8945C31.2012 32.1166 31.2012 32.1166 30.9047 31.4381C30.8025 31.346 30.7004 31.2539 30.5951 31.1591C30.1762 30.7666 29.7823 30.3749 29.4108 29.9371C29.0244 29.4874 28.6204 29.0658 28.1982 28.6494C27.6903 28.1484 27.2182 27.631 26.7554 27.0885C26.2813 26.561 25.7676 26.0734 25.2568 25.5817C24.9648 25.2656 24.9648 25.2656 24.9648 24.9648C26.0943 24.7487 27.2237 24.5329 28.3533 24.3178C28.8779 24.2178 29.4023 24.1178 29.9267 24.0173C30.5295 23.9019 31.1324 23.7871 31.7354 23.6724C31.9238 23.6362 32.1123 23.6001 32.3065 23.5628C32.5684 23.5131 32.5684 23.5131 32.8356 23.4624C32.9895 23.433 33.1435 23.4036 33.3021 23.3734C33.6875 23.3105 33.6875 23.3105 34.1387 23.3105C34.1703 23.1956 34.2019 23.0806 34.2344 22.9622C34.5211 22.1877 34.9161 21.4859 35.3136 20.7633C35.399 20.6068 35.4845 20.4502 35.5725 20.2889C36.4811 18.6296 37.4123 16.9831 38.3496 15.3398Z" fill="#147DC0"/>
<path d="M27.9727 61.6602C29.4615 62.0076 30.9504 62.355 32.4844 62.7129C38.1387 63.744 43.5063 63.0404 49.0273 61.6602C49.0273 66.7223 49.0273 71.7845 49.0273 77C48.1855 77 47.5645 76.9353 46.7809 76.6992C46.6706 76.6661 46.5602 76.633 46.4465 76.5989C43.3058 75.6075 40.9214 73.6133 38.6504 71.2852C38.0155 71.5282 37.6207 72.0059 37.1653 72.4883C35.2169 74.4831 32.8923 75.8946 30.2191 76.6992C30.1153 76.7305 30.0116 76.7618 29.9046 76.794C29.2115 76.9865 28.7213 77 27.9727 77C27.9727 71.9379 27.9727 66.8757 27.9727 61.6602Z" fill="#147DC0"/>
<path d="M17.8965 56.3965C19.0759 57.0704 19.0758 57.0704 19.4609 57.3382C19.5471 57.3972 19.6332 57.4563 19.722 57.5171C19.8559 57.6091 19.8559 57.6091 19.9926 57.703C21.1609 58.4954 22.3737 59.1764 23.6113 59.8555C23.6113 61.4932 23.6113 63.131 23.6113 64.8184C21.8899 65.7502 19.9091 66.7734 17.8965 66.7734C17.8965 63.349 17.8965 59.9246 17.8965 56.3965Z" fill="#147DC0"/>
<path d="M59.1035 56.3965C59.1035 59.8209 59.1035 63.2453 59.1035 66.7734C57.0446 66.4303 57.0446 66.4303 56.1615 66.1343C55.9876 66.0777 55.8137 66.0211 55.6345 65.9627C54.8569 65.6446 54.1263 65.2207 53.3887 64.8184C53.3887 63.1806 53.3887 61.5429 53.3887 59.8555C53.7981 59.6321 54.2075 59.4088 54.6294 59.1787C55.9892 58.4287 57.2693 57.6047 58.5302 56.6973C58.9531 56.3965 58.9531 56.3965 59.1035 56.3965Z" fill="#147DC0"/>
</g>
<defs>
<clipPath id="clip0_1056_3009">
<rect width="77" height="77" fill="white"/>
</clipPath>
</defs>
</svg>
