<svg width="140" height="140" viewBox="0 0 140 140" fill="none" xmlns="http://www.w3.org/2000/svg">
<path d="M22.3535 2.37537C22.7025 2.36743 23.0514 2.3595 23.411 2.35133C26.6009 2.32969 26.6009 2.32969 27.8906 3.55456C29.7806 5.64886 29.2578 6.5441 29.2578 9.84363C32.9574 9.84363 36.6571 9.84363 40.4688 9.84363C40.4688 8.49011 40.4688 7.1366 40.4688 5.74206C41.2868 4.10596 41.8423 3.27794 43.4766 2.46081C44.7224 2.37137 45.9706 2.37203 47.2193 2.35828C47.5659 2.34805 47.9126 2.33783 48.2697 2.3273C51.1443 2.30022 51.1443 2.30022 52.2832 3.04828C54.4178 5.22766 53.8672 6.55519 53.8672 9.84363C57.5668 9.84363 61.2664 9.84363 65.0781 9.84363C65.0781 8.76081 65.0781 7.678 65.0781 6.56238C65.5114 4.66083 65.9352 3.82626 67.5391 2.73425C68.7803 2.11364 70.4831 2.38556 71.8457 2.37537C72.1947 2.36743 72.5436 2.3595 72.9032 2.35133C76.0931 2.32969 76.0931 2.32969 77.3828 3.55456C79.2728 5.64886 78.75 6.5441 78.75 9.84363C82.4496 9.84363 86.1492 9.84363 89.961 9.84363C89.961 8.49011 89.961 7.1366 89.961 5.74206C90.779 4.10596 91.3345 3.27794 92.9688 2.46081C94.2204 2.37882 95.4745 2.38475 96.7285 2.37537C97.0775 2.36743 97.4264 2.3595 97.786 2.35133C100.344 2.33397 100.344 2.33397 101.621 2.91049C102.7 3.98779 103.408 4.81566 103.466 6.37225C103.459 6.78895 103.446 7.20559 103.428 7.62195C103.423 7.83625 103.418 8.05056 103.413 8.27136C103.4 8.7956 103.38 9.31966 103.359 9.84363C103.84 9.82459 103.84 9.82459 104.33 9.80517C108.337 9.69334 111.05 10.3413 114.049 13.1057C116.588 15.6924 117.205 18.6831 117.201 22.1767C117.197 22.6313 117.192 23.0859 117.186 23.5404C117.186 24.0285 117.186 24.5167 117.187 25.0048C117.187 26.3192 117.179 27.6335 117.17 28.948C117.161 30.3256 117.161 31.7032 117.159 33.0808C117.155 35.6848 117.143 38.2887 117.13 40.8926C117.114 43.8591 117.107 46.8256 117.1 49.7921C117.086 55.8901 117.062 61.9879 117.031 68.0858C117.283 68.1662 117.535 68.2466 117.794 68.3295C121.181 69.4993 124.012 71.9783 126.602 74.3749C126.829 74.5832 127.057 74.7915 127.292 75.0061C133.217 80.6718 137.446 89.2533 137.861 97.4821C138.012 106.614 138.012 106.614 136.719 111.015C136.663 111.211 136.607 111.406 136.55 111.607C134.821 117.488 131.599 122.441 127.422 126.875C127.258 127.056 127.094 127.238 126.925 127.425C122.851 131.764 117.01 134.952 111.289 136.445C111.104 136.498 110.919 136.55 110.729 136.604C101.272 139.228 90.9945 137.454 82.5418 132.703C73.7114 127.535 68.2005 119.103 65.4631 109.434C65.3241 108.679 65.3448 107.954 65.3516 107.187C65.0756 107.188 64.7996 107.189 64.5152 107.19C57.7916 107.215 51.068 107.233 44.3444 107.244C41.0929 107.25 37.8414 107.257 34.5899 107.27C31.755 107.281 28.9202 107.288 26.0853 107.29C24.585 107.292 23.0848 107.295 21.5845 107.303C20.1706 107.31 18.7567 107.313 17.3427 107.311C16.8256 107.311 16.3084 107.314 15.7913 107.318C11.5997 107.35 8.27982 106.925 5.16115 103.887C3.3067 101.93 2.15726 99.7882 2.15005 97.0607C2.14867 96.7815 2.14728 96.5023 2.14585 96.2146C2.14571 95.9083 2.14558 95.602 2.14544 95.2864C2.14364 94.7977 2.14364 94.7977 2.14181 94.2991C2.13878 93.3945 2.13699 92.4898 2.13574 91.5852C2.13411 90.6095 2.13094 89.6339 2.12801 88.6583C2.1213 86.3017 2.1173 83.9451 2.11377 81.5885C2.11275 80.9226 2.11167 80.2567 2.11056 79.5908C2.10365 75.4538 2.09763 71.3167 2.09422 67.1796C2.09342 66.2215 2.09261 65.2634 2.09179 64.3054C2.09159 64.0672 2.09138 63.8291 2.09117 63.5838C2.08771 59.7287 2.07863 55.8737 2.06723 52.0187C2.05562 48.0587 2.04919 44.0987 2.04776 40.1386C2.04683 37.9161 2.04363 35.6936 2.03461 33.4711C2.02693 31.5777 2.02395 29.6844 2.02701 27.791C2.02842 26.8259 2.02766 25.8609 2.02086 24.8957C2.01353 23.8467 2.01693 22.798 2.02127 21.749C2.01747 21.4475 2.01368 21.1461 2.00977 20.8356C2.04191 17.6673 3.1687 15.166 5.36196 12.9038C8.54009 9.99049 11.4513 9.71546 15.586 9.84363C15.5764 9.6124 15.5669 9.38118 15.5571 9.14294C15.4608 5.1074 15.4608 5.1074 16.8068 3.67526C18.5596 2.16243 20.1247 2.39205 22.3535 2.37537ZM20.2344 6.83581C20.2344 11.2573 20.2344 15.6788 20.2344 20.2343C21.6781 20.2343 23.1219 20.2343 24.6094 20.2343C24.6094 15.8128 24.6094 11.3913 24.6094 6.83581C23.1656 6.83581 21.7219 6.83581 20.2344 6.83581ZM45.1172 6.83581C45.1172 11.2573 45.1172 15.6788 45.1172 20.2343C46.4707 20.2343 47.8242 20.2343 49.2188 20.2343C49.2188 15.8128 49.2188 11.3913 49.2188 6.83581C47.8653 6.83581 46.5117 6.83581 45.1172 6.83581ZM70 6.83581C69.6678 7.10764 69.6678 7.10764 69.6937 7.64041C69.6943 7.87297 69.6949 8.10552 69.6955 8.34513C69.6956 8.60788 69.6956 8.87063 69.6956 9.14135C69.697 9.42703 69.6984 9.71271 69.6999 10.007C69.7003 10.298 69.7007 10.5889 69.7011 10.8887C69.7026 11.8221 69.706 12.7554 69.7095 13.6888C69.7109 14.3199 69.7121 14.951 69.7132 15.5821C69.7163 17.1328 69.721 18.6835 69.7266 20.2343C71.1703 20.2343 72.6141 20.2343 74.1016 20.2343C74.1016 15.8128 74.1016 11.3913 74.1016 6.83581C72.7481 6.83581 71.3946 6.83581 70 6.83581ZM94.6094 6.83581C94.6094 11.2573 94.6094 15.6788 94.6094 20.2343C95.9629 20.2343 97.3164 20.2343 98.711 20.2343C98.711 15.8128 98.711 11.3913 98.711 6.83581C97.3574 6.83581 96.0039 6.83581 94.6094 6.83581ZM8.06643 16.8163C5.45722 20.2266 6.56252 25.4565 6.56252 29.2577C41.4832 29.2577 76.4039 29.2577 112.383 29.2577C113.117 20.3718 113.117 20.3718 111.016 16.6796C109.172 15.0664 107.799 14.3963 105.325 14.4579C105.135 14.4604 104.946 14.4628 104.751 14.4654C104.287 14.4718 103.823 14.4816 103.359 14.4921C103.355 14.7086 103.351 14.925 103.347 15.1481C103.327 16.1315 103.3 17.1147 103.274 18.098C103.268 18.4387 103.262 18.7794 103.255 19.1304C103.246 19.459 103.236 19.7877 103.226 20.1264C103.219 20.4285 103.212 20.7307 103.204 21.0419C103.074 21.9604 102.771 22.4757 102.266 23.2421C102.266 23.4225 102.266 23.603 102.266 23.7889C102.051 23.8735 101.837 23.9581 101.616 24.0453C100.919 24.3163 100.919 24.3163 100.352 24.6093C99.191 24.6835 98.028 24.6726 96.8653 24.6776C96.5424 24.6833 96.2195 24.6889 95.8869 24.6947C92.8994 24.7082 92.8994 24.7082 91.6016 23.7889C90.4511 22.5452 90.2047 21.6302 90.1479 19.9662C90.1375 19.6795 90.127 19.3929 90.1163 19.0976C90.1045 18.7339 90.0927 18.3702 90.0806 17.9955C90.0411 16.8394 90.0016 15.6832 89.961 14.4921C86.2614 14.4921 82.5617 14.4921 78.75 14.4921C78.7036 16.6432 78.7036 16.6432 78.6686 18.7944C78.6111 20.6621 78.3829 21.9263 77.3828 23.5155C75.8528 24.9528 73.9547 24.6786 71.9824 24.6947C71.6631 24.7026 71.3438 24.7106 71.0147 24.7187C69.154 24.7324 67.9431 24.6588 66.4453 23.5155C65.0845 21.7917 65.2804 19.4948 65.1978 17.3973C65.1583 16.4386 65.1188 15.4799 65.0781 14.4921C61.3785 14.4921 57.6789 14.4921 53.8672 14.4921C53.8099 16.8601 53.8099 16.8601 53.7611 19.2283C53.7475 19.6728 53.7475 19.6728 53.7337 20.1264C53.7265 20.4285 53.7194 20.7307 53.712 21.0419C53.5816 21.9604 53.279 22.4757 52.7735 23.2421C52.7735 23.4225 52.7735 23.603 52.7735 23.7889C52.5592 23.8735 52.3448 23.9581 52.124 24.0453C51.4272 24.3163 51.4272 24.3163 50.8594 24.6093C49.6988 24.6835 48.5358 24.6726 47.3731 24.6776C47.0502 24.6833 46.7273 24.6889 46.3947 24.6947C43.4072 24.7082 43.4072 24.7082 42.1094 23.7889C40.9589 22.5452 40.7125 21.6302 40.6557 19.9662C40.6453 19.6795 40.6348 19.3929 40.6241 19.0976C40.6064 18.552 40.6064 18.552 40.5884 17.9955C40.5292 16.2613 40.5292 16.2613 40.4688 14.4921C36.7692 14.4921 33.0696 14.4921 29.2578 14.4921C29.2114 16.6432 29.2114 16.6432 29.1764 18.7944C29.1222 20.557 29.0292 22.1013 27.8906 23.5155C26.2405 24.9023 24.5051 24.774 22.4219 24.746C22.1075 24.7502 21.7931 24.7544 21.4691 24.7588C19.6363 24.7503 18.4295 24.6341 16.9531 23.5155C15.9961 22.2395 15.8311 21.0755 15.7729 19.5122C15.7614 19.2196 15.75 18.9271 15.7382 18.6257C15.7274 18.3218 15.7167 18.018 15.7056 17.705C15.6938 17.3969 15.682 17.0888 15.6698 16.7714C15.6408 16.0117 15.6129 15.2519 15.586 14.4921C12.5599 14.2958 10.1927 14.4804 8.06643 16.8163ZM6.56252 33.9061C6.55124 44.097 6.53996 54.2878 6.52834 64.7875C6.52336 68.0056 6.51838 71.2237 6.51325 74.5393C6.51142 77.4233 6.51142 77.4233 6.51032 80.3073C6.50981 81.5921 6.50776 82.877 6.50478 84.1618C6.50103 85.8012 6.49991 87.4407 6.50068 89.0801C6.50052 89.6814 6.49944 90.2828 6.49732 90.8841C6.4946 91.6974 6.49526 92.5107 6.49676 93.3241C6.49516 93.5583 6.49357 93.7926 6.49193 94.034C6.5049 96.6698 6.96572 98.8837 8.75002 100.898C10.3922 102.202 11.7907 102.58 13.8703 102.572C14.0877 102.572 14.305 102.572 14.5289 102.573C15.2594 102.573 15.99 102.571 16.7205 102.57C17.2432 102.57 17.766 102.57 18.2887 102.57C19.7101 102.57 21.1314 102.569 22.5527 102.567C24.0373 102.565 25.5218 102.565 27.0064 102.564C29.8186 102.564 32.6308 102.561 35.4431 102.559C38.6443 102.556 41.8455 102.554 45.0466 102.553C51.6327 102.55 58.2187 102.545 64.8047 102.539C64.8949 100.283 64.9852 98.0272 65.0781 95.703C64.4811 95.7008 63.884 95.6986 63.2689 95.6963C57.6518 95.6752 52.0347 95.6512 46.4176 95.6244C43.5296 95.6107 40.6415 95.598 37.7535 95.5876C35.2367 95.5786 32.7199 95.5678 30.2031 95.5546C28.8701 95.5477 27.5372 95.5417 26.2041 95.538C24.95 95.5345 23.6959 95.5285 22.4418 95.5205C21.981 95.518 21.5203 95.5165 21.0595 95.5159C20.4312 95.515 19.803 95.5108 19.1747 95.5057C18.8229 95.5042 18.471 95.5027 18.1085 95.5011C17.2795 95.4339 16.8125 95.3482 16.1328 94.8827C15.7193 94.0557 15.8199 93.2 15.821 92.2928C15.8202 92.0797 15.8194 91.8665 15.8185 91.6469C15.8161 90.9288 15.8157 90.2106 15.8153 89.4925C15.8141 88.9792 15.8127 88.4659 15.8112 87.9526C15.8076 86.5555 15.8059 85.1584 15.8047 83.7613C15.8039 82.8893 15.8027 82.0173 15.8015 81.1453C15.7978 78.4193 15.7951 75.6934 15.7941 72.9675C15.7928 69.8162 15.788 66.665 15.7801 63.5137C15.7742 61.0808 15.7715 58.6478 15.7711 56.2149C15.7708 54.7604 15.7692 53.3059 15.7643 51.8514C15.7598 50.4839 15.7592 49.1165 15.7616 47.749C15.7618 47.2463 15.7606 46.7435 15.7579 46.2407C15.7545 45.5561 15.756 44.8716 15.7589 44.1869C15.7567 43.9865 15.7545 43.786 15.7522 43.5795C15.7654 42.2419 15.7654 42.2419 16.1859 41.6484C16.856 41.1606 17.2937 41.1858 18.1193 41.1849C18.4195 41.1826 18.7197 41.1803 19.029 41.178C19.3601 41.1796 19.6912 41.1812 20.0324 41.1829C20.5585 41.1807 20.5585 41.1807 21.0952 41.1785C22.0707 41.1745 23.0462 41.1757 24.0217 41.1777C25.073 41.179 26.1242 41.1756 27.1755 41.1728C29.2357 41.1681 31.2959 41.1678 33.3561 41.1693C35.03 41.1704 36.7039 41.17 38.3778 41.1685C38.7347 41.1682 38.7347 41.1682 39.0988 41.1679C39.5822 41.1675 40.0655 41.1671 40.5488 41.1666C45.0844 41.1629 49.62 41.1644 54.1557 41.1675C58.3085 41.1702 62.4614 41.1667 66.6143 41.1601C70.8749 41.1535 75.1356 41.1508 79.3963 41.1527C81.7897 41.1536 84.1832 41.153 86.5766 41.1482C88.614 41.1442 90.6513 41.144 92.6886 41.1488C93.7287 41.1511 94.7688 41.1517 95.8089 41.1475C96.9348 41.1431 98.0605 41.147 99.1864 41.1519C99.5175 41.1493 99.8487 41.1466 100.19 41.1439C100.49 41.1466 100.79 41.1493 101.1 41.1521C101.36 41.1521 101.62 41.1521 101.888 41.1522C102.539 41.2889 102.539 41.2889 103.032 41.7836C103.519 42.6743 103.48 43.5503 103.478 44.54C103.48 44.7562 103.483 44.9724 103.486 45.1951C103.494 45.9083 103.497 46.6213 103.499 47.3345C103.504 47.8295 103.509 48.3245 103.514 48.8195C103.527 50.1213 103.535 51.4231 103.542 52.725C103.551 54.0538 103.563 55.3826 103.576 56.7115C103.599 59.318 103.618 61.9245 103.633 64.5311C103.82 64.5614 104.008 64.5917 104.201 64.6229C105.06 64.7622 105.919 64.903 106.777 65.0438C107.072 65.0914 107.367 65.139 107.67 65.188C107.959 65.2356 108.248 65.2832 108.546 65.3322C108.81 65.3752 109.073 65.4181 109.345 65.4624C110.366 65.6575 111.374 65.9195 112.383 66.1718C112.383 55.5241 112.383 44.8764 112.383 33.9061C77.4621 33.9061 42.5414 33.9061 6.56252 33.9061ZM20.2344 45.3905C20.2344 49.451 20.2344 53.5116 20.2344 57.6952C24.2047 57.6952 28.175 57.6952 32.2656 57.6952C32.2656 53.6346 32.2656 49.5741 32.2656 45.3905C28.2953 45.3905 24.325 45.3905 20.2344 45.3905ZM36.9141 45.3905C36.9141 49.451 36.9141 53.5116 36.9141 57.6952C40.8844 57.6952 44.8547 57.6952 48.9453 57.6952C48.9453 53.6346 48.9453 49.5741 48.9453 45.3905C44.975 45.3905 41.0047 45.3905 36.9141 45.3905ZM53.5938 45.3905C53.5938 49.451 53.5938 53.5116 53.5938 57.6952C57.5641 57.6952 61.5344 57.6952 65.625 57.6952C65.625 53.6346 65.625 49.5741 65.625 45.3905C61.6547 45.3905 57.6844 45.3905 53.5938 45.3905ZM70.2735 45.3905C70.2735 49.451 70.2735 53.5116 70.2735 57.6952C74.2438 57.6952 78.2141 57.6952 82.3047 57.6952C82.3047 53.6346 82.3047 49.5741 82.3047 45.3905C78.3344 45.3905 74.3641 45.3905 70.2735 45.3905ZM86.9531 45.3905C86.9531 49.451 86.9531 53.5116 86.9531 57.6952C90.9235 57.6952 94.8938 57.6952 98.9844 57.6952C98.9844 53.6346 98.9844 49.5741 98.9844 45.3905C95.0141 45.3905 91.0438 45.3905 86.9531 45.3905ZM20.2344 62.3436C20.2344 66.3139 20.2344 70.2842 20.2344 74.3749C24.2047 74.3749 28.175 74.3749 32.2656 74.3749C32.2656 70.4046 32.2656 66.4343 32.2656 62.3436C28.2953 62.3436 24.325 62.3436 20.2344 62.3436ZM36.9141 62.3436C36.9141 66.3139 36.9141 70.2842 36.9141 74.3749C40.8844 74.3749 44.8547 74.3749 48.9453 74.3749C48.9453 70.4046 48.9453 66.4343 48.9453 62.3436C44.975 62.3436 41.0047 62.3436 36.9141 62.3436ZM53.5938 62.3436C53.5938 66.3139 53.5938 70.2842 53.5938 74.3749C57.5641 74.3749 61.5344 74.3749 65.625 74.3749C65.625 70.4046 65.625 66.4343 65.625 62.3436C61.6547 62.3436 57.6844 62.3436 53.5938 62.3436ZM70.2735 62.3436C70.2735 66.3139 70.2735 70.2842 70.2735 74.3749C75.8297 74.9363 75.8297 74.9363 78.1348 73.1273C78.4727 72.7692 78.8103 72.4104 79.1347 72.0399C79.5703 71.6405 79.5703 71.6405 80.2613 71.2544C81.0644 70.8018 81.6753 70.4029 82.3047 69.7264C82.6406 68.4378 82.5649 67.2357 82.4756 65.9154C82.4192 64.7367 82.3628 63.558 82.3047 62.3436C78.3344 62.3436 74.3641 62.3436 70.2735 62.3436ZM86.9531 62.3436C86.9531 63.9678 86.9531 65.5921 86.9531 67.2655C87.3197 67.1527 87.6863 67.0399 88.064 66.9237C88.6048 66.7631 89.1461 66.6037 89.6875 66.4452C90.139 66.312 90.139 66.312 90.5997 66.176C93.3676 65.3955 96.1405 64.9352 98.9844 64.5311C98.9844 63.8093 98.9844 63.0874 98.9844 62.3436C95.0141 62.3436 91.0438 62.3436 86.9531 62.3436ZM79.2969 77.9296C79.0685 78.1562 78.8401 78.3828 78.6048 78.6164C74.5462 82.7071 71.876 87.4394 70.2735 92.9686C70.1413 93.4112 70.1413 93.4112 70.0064 93.8626C68.036 101.772 69.6344 110.506 73.7392 117.464C74.8027 119.184 75.974 120.734 77.3807 122.195C77.9297 122.773 77.9297 122.773 78.4595 123.456C79.4792 124.694 80.7699 125.621 82.0313 126.601C82.2459 126.769 82.4606 126.936 82.6818 127.109C89.5323 132.174 98.2085 133.888 106.547 132.719C112.436 131.785 117.718 129.068 122.227 125.234C122.528 124.992 122.528 124.992 122.836 124.745C128.51 120.026 132.404 112.296 133.164 105C133.417 98.9185 133.417 98.9185 132.344 92.9686C132.251 92.6384 132.158 92.3081 132.062 91.9678C130.041 85.367 126.126 79.6134 120.586 75.4686C120.437 75.3572 120.289 75.2458 120.135 75.131C107.9 66.1022 90.0993 67.1633 79.2969 77.9296ZM20.2344 79.0233C20.2344 82.9936 20.2344 86.9639 20.2344 91.0546C24.2047 91.0546 28.175 91.0546 32.2656 91.0546C32.2656 87.0842 32.2656 83.1139 32.2656 79.0233C28.2953 79.0233 24.325 79.0233 20.2344 79.0233ZM36.9141 79.0233C36.9141 82.9936 36.9141 86.9639 36.9141 91.0546C40.8844 91.0546 44.8547 91.0546 48.9453 91.0546C48.9453 87.0842 48.9453 83.1139 48.9453 79.0233C44.975 79.0233 41.0047 79.0233 36.9141 79.0233ZM53.5938 79.0233C53.5938 82.9936 53.5938 86.9639 53.5938 91.0546C57.5641 91.0546 61.5344 91.0546 65.625 91.0546C65.625 87.0842 65.625 83.1139 65.625 79.0233C61.6547 79.0233 57.6844 79.0233 53.5938 79.0233ZM70.2735 79.0233C70.2735 79.8354 70.2735 80.6475 70.2735 81.4842C70.9299 80.6965 71.4965 79.9628 71.9141 79.0233C71.3727 79.0233 70.8313 79.0233 70.2735 79.0233Z" fill="#147DC0"/>
<path d="M97.7112 76.4174C98.1417 76.4158 98.1417 76.4158 98.581 76.4142C99.184 76.4134 99.7869 76.4154 100.39 76.42C101.306 76.4259 102.222 76.4201 103.138 76.4131C103.728 76.4138 104.317 76.4152 104.906 76.4174C105.176 76.4151 105.447 76.4129 105.725 76.4106C107.726 76.4373 109.702 76.7624 111.266 78.1064C112.609 79.5212 113.255 81.1152 113.222 83.0589C113.22 83.2771 113.217 83.4954 113.214 83.7202C113.21 83.8848 113.207 84.0493 113.203 84.2189C113.549 84.2131 113.895 84.2074 114.252 84.2015C115.542 84.1816 116.832 84.1691 118.121 84.1588C118.679 84.1533 119.236 84.1458 119.793 84.1364C120.596 84.123 121.399 84.1169 122.202 84.1121C122.573 84.1036 122.573 84.1036 122.951 84.0949C124.587 84.0944 125.577 84.2828 126.875 85.3126C127.96 86.7573 128.13 88.2004 128.104 89.96C128.105 90.1878 128.105 90.4155 128.106 90.6502C128.105 91.1289 128.102 91.6075 128.096 92.0861C128.088 92.8123 128.091 93.5378 128.094 94.264C128.093 94.732 128.09 95.2 128.087 95.668C128.088 95.8817 128.089 96.0954 128.09 96.3156C128.059 98.1207 127.792 99.883 126.58 101.28C125.949 102.135 125.921 102.559 125.927 103.61C125.926 103.93 125.925 104.249 125.924 104.578C125.93 105.093 125.93 105.093 125.936 105.619C125.934 106.162 125.932 106.706 125.93 107.25C125.926 108.395 125.932 109.54 125.938 110.685C125.943 111.626 125.945 112.568 125.941 113.509C125.938 114.213 125.94 114.918 125.95 115.622C125.938 117.757 125.622 119.346 124.414 121.133C123.79 121.749 123.79 121.749 123.184 122.107C122.983 122.231 122.783 122.356 122.577 122.484C121.403 123.029 120.255 123.082 118.974 123.085C118.652 123.087 118.329 123.089 117.996 123.09C117.469 123.091 117.469 123.091 116.931 123.091C116.555 123.092 116.178 123.094 115.802 123.095C114.783 123.099 113.763 123.101 112.743 123.102C112.105 123.103 111.467 123.104 110.829 123.105C108.831 123.109 106.833 123.111 104.834 123.112C102.532 123.114 100.23 123.118 97.9274 123.126C96.1448 123.132 94.3623 123.135 92.5797 123.135C91.5164 123.136 90.4531 123.137 89.3898 123.142C88.3888 123.147 87.3879 123.147 86.3869 123.145C85.8476 123.144 85.3083 123.148 84.769 123.152C82.5493 123.142 80.708 122.935 78.8013 121.748C77.3199 120.224 76.8024 118.641 76.8015 116.55C76.7999 116.075 76.7999 116.075 76.7983 115.591C76.7981 115.249 76.7978 114.908 76.7975 114.557C76.7938 114.019 76.79 113.481 76.7858 112.943C76.7754 111.618 76.7669 110.294 76.7675 108.969C76.7676 108.226 76.7642 107.482 76.7568 106.739C76.7499 106.04 76.7481 105.34 76.7521 104.641C76.7279 102.923 76.6663 101.813 75.5292 100.493C74.4677 99.1751 74.5611 97.3288 74.5566 95.7214C74.5539 95.3782 74.5539 95.3782 74.5511 95.0281C74.5483 94.5466 74.547 94.0652 74.5471 93.5838C74.5459 92.8522 74.536 92.1211 74.5256 91.3897C74.524 90.9195 74.5229 90.4494 74.5224 89.9792C74.5185 89.7632 74.5145 89.5473 74.5105 89.3248C74.523 87.7904 74.8062 86.5558 75.7422 85.3126C77.2535 84.1132 78.5322 84.0691 80.4152 84.1121C80.8026 84.1144 80.8026 84.1144 81.1978 84.1167C82.017 84.1228 82.8358 84.1366 83.6548 84.1505C84.2125 84.156 84.7703 84.161 85.328 84.1655C86.6901 84.1775 88.0521 84.1963 89.4141 84.2189C89.4103 83.6986 89.4103 83.6986 89.4065 83.1679C89.3924 81.2286 89.9857 79.5081 91.3516 78.0979C93.1715 76.5626 95.4294 76.3987 97.7112 76.4174ZM94.4363 81.8017C93.9439 82.681 93.9439 82.681 94.0625 84.2189C98.8449 84.2189 103.627 84.2189 108.555 84.2189C108.419 83.0007 108.419 83.0007 108.281 81.7579C107.43 81.1902 107.225 81.1405 106.256 81.1273C106.013 81.1229 105.77 81.1185 105.52 81.114C105.128 81.1118 105.128 81.1118 104.728 81.1096C104.324 81.1059 104.324 81.1059 103.911 81.1021C103.342 81.0981 102.772 81.0957 102.202 81.0947C101.33 81.0914 100.458 81.078 99.5863 81.0642C99.0328 81.0616 98.4793 81.0596 97.9259 81.0583C97.5345 81.0503 97.5345 81.0503 97.1352 81.0421C95.6625 81.0442 95.6625 81.0442 94.4363 81.8017ZM79.2969 88.8673C79.278 90.0886 79.2617 91.3093 79.2518 92.5306C79.2477 92.9457 79.2421 93.3607 79.235 93.7758C79.225 94.3738 79.2204 94.9716 79.2168 95.5697C79.2125 95.9291 79.2082 96.2886 79.2038 96.6589C79.3221 97.8772 79.7045 98.5815 80.5722 99.4288C84.5394 102.211 90.2022 102.736 94.9224 102.909C95.4623 102.858 95.4623 102.858 95.8121 102.405C96.0134 102.076 96.213 101.746 96.4113 101.416C97.3681 100.133 98.869 99.6312 100.403 99.4C102.456 99.3104 104.164 99.6333 105.82 100.899C106.206 101.416 106.206 101.416 106.521 101.941C106.792 102.418 106.792 102.418 107.188 102.813C111.309 103.597 117.994 102.003 121.509 99.8048C122.381 99.193 122.848 98.5743 123.32 97.6173C123.433 96.6387 123.433 96.6387 123.4 95.5697C123.399 95.3774 123.398 95.1852 123.397 94.9871C123.392 94.3769 123.382 93.767 123.372 93.1569C123.367 92.7415 123.364 92.3262 123.36 91.9109C123.352 90.8962 123.336 89.882 123.32 88.8673C120.974 88.8673 118.628 88.8673 116.211 88.8673C116.164 90.5031 116.164 90.5031 116.129 92.1391C116.069 93.6288 115.83 94.5209 114.844 95.7032C113.564 96.828 112.368 96.8387 110.729 96.8411C110.505 96.8424 110.281 96.8438 110.05 96.8452C109.307 96.8492 108.565 96.851 107.823 96.8525C107.307 96.8541 106.791 96.8557 106.275 96.8573C105.193 96.8601 104.11 96.8617 103.028 96.8627C101.642 96.8642 100.257 96.8708 98.871 96.8785C97.8048 96.8836 96.7387 96.885 95.6725 96.8855C95.1617 96.8863 94.651 96.8885 94.1403 96.8921C93.4249 96.8968 92.7097 96.8962 91.9943 96.8945C91.6791 96.8982 91.6791 96.8982 91.3575 96.9021C90.0489 96.892 89.1571 96.6714 88.0469 95.9767C87.1085 94.9368 86.6579 94.2599 86.5932 92.8727C86.5775 92.5583 86.5775 92.5583 86.5616 92.2376C86.5498 91.9714 86.538 91.7051 86.5259 91.4308C86.4864 90.5848 86.4469 89.7389 86.4063 88.8673C84.0602 88.8673 81.7141 88.8673 79.2969 88.8673ZM91.0547 88.8673C91.0547 90.0404 91.0547 91.2134 91.0547 92.422C97.8223 92.422 104.59 92.422 111.563 92.422C111.563 91.2489 111.563 90.0759 111.563 88.8673C104.795 88.8673 98.0273 88.8673 91.0547 88.8673ZM99.6851 104.334C99.0927 105.258 99.1039 105.837 99.2578 106.914C99.6452 107.621 99.6452 107.621 100.352 108.008C101.429 108.162 102.008 108.173 102.932 107.581C103.525 106.657 103.513 106.078 103.359 105C102.972 104.294 102.972 104.294 102.266 103.906C101.188 103.752 100.609 103.741 99.6851 104.334ZM81.4844 105C81.4567 106.776 81.4375 108.553 81.4243 110.329C81.4188 110.933 81.4113 111.538 81.4019 112.142C81.3886 113.011 81.3824 113.878 81.3776 114.747C81.3719 115.018 81.3663 115.288 81.3605 115.568C81.3604 115.819 81.3603 116.071 81.3602 116.33C81.3578 116.552 81.3554 116.774 81.3529 117.002C81.4369 117.613 81.4369 117.613 81.9428 118.018C82.728 118.488 83.2122 118.502 84.1245 118.503C84.4396 118.505 84.7547 118.507 85.0794 118.51C85.5963 118.507 85.5963 118.507 86.1237 118.505C86.4912 118.506 86.8587 118.507 87.2261 118.509C88.2232 118.513 89.2203 118.511 90.2175 118.509C91.261 118.507 92.3046 118.509 93.3482 118.51C95.1007 118.511 96.8531 118.509 98.6056 118.505C100.632 118.501 102.658 118.502 104.684 118.507C106.423 118.511 108.163 118.511 109.902 118.509C110.941 118.508 111.98 118.508 113.019 118.51C113.996 118.513 114.973 118.511 115.949 118.506C116.479 118.505 117.008 118.507 117.538 118.51C118.011 118.506 118.011 118.506 118.493 118.503C118.767 118.502 119.04 118.502 119.322 118.502C120.154 118.382 120.531 118.155 121.133 117.578C121.29 116.991 121.29 116.991 121.257 116.33C121.257 116.079 121.257 115.827 121.257 115.568C121.251 115.297 121.245 115.026 121.24 114.747C121.237 114.33 121.237 114.33 121.235 113.904C121.229 113.015 121.215 112.127 121.201 111.238C121.196 110.636 121.191 110.033 121.186 109.431C121.174 107.954 121.156 106.477 121.133 105C120.643 105.14 120.643 105.14 120.144 105.284C116.988 106.165 113.996 106.675 110.717 106.875C108.845 107.029 108.845 107.029 107.434 108.148C107.025 108.908 106.699 109.673 106.367 110.469C104.924 111.949 103.378 112.434 101.36 112.52C99.5851 112.469 98.2066 112.122 96.7969 111.016C96.0162 110.104 95.3513 109.133 94.9658 107.99C94.6413 107.386 94.6413 107.386 93.8845 107.254C93.5812 107.221 93.278 107.188 92.9656 107.153C92.6301 107.113 92.2947 107.073 91.9492 107.031C91.4134 106.973 91.4134 106.973 90.8667 106.914C88.015 106.574 85.3184 106.133 82.5781 105.274C82.214 105.181 81.8495 105.089 81.4844 105Z" fill="#147DC0"/>
<path d="M41.0156 46.4843C41.6344 46.8916 42.1155 47.3365 42.6562 47.8514C43.2663 47.5682 43.7517 47.3031 44.2627 46.8602C45.0655 46.3408 45.5441 46.3499 46.4844 46.4843C47.2705 46.8944 47.2705 46.8944 47.8516 47.578C48.081 48.9774 47.9893 49.7023 47.168 50.8593C46.9424 51.13 46.7168 51.4007 46.4844 51.6796C46.71 51.9052 46.9355 52.1307 47.168 52.3632C47.7418 53.055 47.9718 53.5472 48.0225 54.4481C47.8516 55.5077 47.8516 55.5077 47.2705 56.1913C46.3321 56.6809 45.8867 56.793 44.8438 56.6014C44.225 56.1941 43.7439 55.7492 43.2031 55.2343C42.5942 55.517 42.1165 55.7747 41.6138 56.2255C40.7173 56.789 40.1378 56.7651 39.1016 56.6014C38.2812 55.9008 38.2812 55.9008 37.7344 54.9608C37.6906 53.7362 37.948 53.0329 38.7085 52.1068C38.9284 51.8756 39.1484 51.6444 39.375 51.4061C39.2534 51.2902 39.1318 51.1742 39.0065 51.0547C38.1527 50.1698 37.7474 49.7483 37.6831 48.4838C38.2679 46.8526 39.2888 46.1671 41.0156 46.4843Z" fill="#147DC0"/>
<path d="M24.3359 46.4844C24.9587 46.8873 25.4352 47.3359 25.9766 47.8515C26.5866 47.5683 27.0721 47.3032 27.583 46.8603C28.3928 46.3364 28.8572 46.3297 29.8047 46.4844C30.7802 47.1842 31.1229 47.5872 31.3428 48.7744C31.1193 50.0704 30.6309 50.6676 29.8047 51.6797C30.0303 51.9109 30.2559 52.1421 30.4883 52.3804C31.0689 53.0838 31.1767 53.348 31.3428 54.2944C31.1247 55.4936 30.7895 55.8951 29.8047 56.6015C29.0015 56.7724 29.0015 56.7724 28.1641 56.6015C27.546 56.1933 27.0641 55.7493 26.5234 55.2344C25.9145 55.5171 25.4368 55.7748 24.9341 56.2256C24.0575 56.7766 23.4353 56.7282 22.4219 56.6015C21.5562 56.032 21.3593 55.5979 21.0205 54.6191C21.0686 53.1771 21.7578 52.4524 22.6953 51.4062C22.5737 51.2903 22.4521 51.1743 22.3268 51.0548C21.0588 49.7406 21.0588 49.7406 21.0376 48.4668C21.3116 47.6286 21.4469 47.2629 22.1484 46.7578C22.9422 46.3609 23.4535 46.3825 24.3359 46.4844Z" fill="#147DC0"/>
</svg>
