<svg width="140" height="139" viewBox="0 0 140 139" fill="none" xmlns="http://www.w3.org/2000/svg">
<path d="M132.19 26.4698C133.783 27.4254 135.073 28.9103 135.625 30.6778C135.845 32.8051 135.932 34.9182 134.531 36.6504C133.369 37.8622 132.163 39.0341 130.407 39.1224C129.868 39.1271 129.328 39.1119 128.789 39.0938C128.764 39.2664 128.739 39.4389 128.713 39.6167C128.439 40.774 127.994 41.842 127.548 42.9436C127.448 43.1944 127.348 43.4452 127.244 43.7037C126.909 44.5412 126.571 45.3781 126.234 46.215C125.995 46.8101 125.756 47.4054 125.517 48.0006C125.007 49.2729 124.496 50.5448 123.984 51.8165C123.317 53.4733 122.651 55.1307 121.986 56.7882C119.438 63.1381 116.882 69.4845 114.289 75.8163C113.964 76.6101 113.64 77.404 113.315 78.198C113.107 78.7074 112.899 79.2167 112.691 79.7261C112.59 79.9718 112.49 80.2175 112.387 80.4707C111.797 81.913 111.204 83.3538 110.608 84.7937C110.243 85.6768 109.882 86.561 109.521 87.4456C109.355 87.8507 109.187 88.2554 109.019 88.6595C108.791 89.2053 108.567 89.7528 108.345 90.3009C108.157 90.7569 108.157 90.7569 107.965 91.2222C107.716 92.0987 107.721 92.5346 108.008 93.3907C108.362 93.9403 108.726 94.4839 109.101 95.0196C109.69 96.7736 109.734 99.1304 108.965 100.84C108.003 102.42 106.506 103.705 104.726 104.25C103.832 104.332 103.832 104.332 102.864 104.335C102.546 104.339 102.229 104.344 101.901 104.349C100.972 104.257 100.686 104.149 99.9126 103.739C99.1637 103.454 98.8407 103.391 98.0747 103.654C97.3461 104.068 96.6662 104.521 95.9808 105.002C95.7246 105.173 95.4684 105.343 95.2045 105.519C94.3857 106.068 93.5747 106.626 92.7636 107.185C92.2222 107.551 91.6803 107.915 91.1379 108.279C90.1018 108.976 89.0704 109.678 88.042 110.385C87.2316 110.94 86.4176 111.479 85.5778 111.989C85.2802 112.172 84.9825 112.354 84.6758 112.542C84.4293 112.686 84.1829 112.83 83.9289 112.978C83.1876 113.68 83.1885 114.25 83.1249 115.245C83.1281 115.548 83.1313 115.851 83.1345 116.164C83.1174 117.671 82.548 118.641 81.5206 119.716C79.6291 121.445 78.1498 121.756 75.5904 121.708C73.4255 121.518 72.2952 120.508 70.9153 118.91C70.537 118.353 70.4182 117.93 70.2733 117.281C68.2543 117.251 66.236 117.242 64.2168 117.248C63.5307 117.248 62.8446 117.242 62.1585 117.232C61.1691 117.218 60.1811 117.221 59.1917 117.228C58.7352 117.216 58.7352 117.216 58.2695 117.204C56.931 117.228 56.1028 117.291 55.0456 118.151C54.4237 118.832 53.8642 119.525 53.3202 120.268C52.9919 120.661 52.9919 120.661 52.6569 121.062C52.4867 121.276 52.3164 121.49 52.141 121.71C51.0772 123.017 49.9487 124.245 48.7927 125.47C47.9403 126.379 47.1308 127.307 46.3476 128.276C44.9307 130.027 43.4039 131.681 41.8358 133.299C41.6703 133.536 41.5048 133.773 41.3342 134.017C39.9399 135.047 38.4841 134.845 36.7922 134.827C36.4274 134.827 36.0626 134.828 35.6978 134.829C34.9333 134.83 34.1689 134.826 33.4044 134.818C32.4326 134.809 31.4613 134.811 30.4895 134.816C29.7354 134.819 28.9815 134.816 28.2274 134.812C27.6975 134.81 27.1677 134.812 26.6378 134.814C23.181 134.769 20.5403 133.85 18.0724 131.43C15.8381 129.033 14.9573 126.44 14.9877 123.195C15.0792 121.848 15.4218 120.573 15.7632 119.27C15.8409 118.963 15.9186 118.655 15.9987 118.339C16.2566 117.324 16.5192 116.31 16.7821 115.296C16.9186 114.764 17.0545 114.232 17.1905 113.701C17.6774 111.795 18.1694 109.891 18.6638 107.987C19.0453 106.518 19.4253 105.048 19.8046 103.579C20.4145 101.216 21.0281 98.8551 21.6435 96.4943C21.8063 95.869 21.9685 95.2435 22.1306 94.6181C22.3869 93.6299 22.6451 92.6423 22.9048 91.6551C23.0002 91.2914 23.095 90.9275 23.1891 90.5635C23.3185 90.0632 23.4505 89.5636 23.5826 89.064C23.6558 88.784 23.7291 88.504 23.8045 88.2154C24.2208 86.9282 24.5517 86.0082 25.703 85.2461C26.7265 85.1136 27.2126 85.171 28.1127 85.6873C28.87 86.5036 28.9148 86.8539 28.9843 87.961C28.8377 88.9007 28.5933 89.8096 28.3466 90.7278C28.2746 91.0062 28.2025 91.2847 28.1283 91.5715C27.8869 92.5011 27.6408 93.4294 27.3949 94.3578C27.2244 95.0122 27.0541 95.6666 26.8842 96.3211C25.9862 99.7703 25.0712 103.215 24.1557 106.66C23.7602 108.148 23.366 109.637 22.972 111.126C22.6425 112.369 22.3104 113.613 21.9764 114.855C21.7664 115.638 21.5584 116.422 21.3508 117.206C21.2541 117.569 21.1566 117.932 21.0581 118.295C19.8099 122.711 19.8099 122.711 20.7812 127.055C21.5961 128.424 22.8736 129.183 24.3359 129.77C26.6693 130.179 29.0364 130.173 31.3994 130.211C31.9532 130.222 32.5069 130.239 33.0604 130.261C36.2503 130.487 36.2503 130.487 39.166 129.474C39.7907 128.79 40.2704 128.12 40.7421 127.326C41.0704 126.933 41.0704 126.933 41.4054 126.532C41.5756 126.318 41.7459 126.104 41.9213 125.884C42.9852 124.577 44.1136 123.349 45.2696 122.124C46.3342 120.989 47.3208 119.806 48.2969 118.595C49.2003 117.521 50.1624 116.504 51.137 115.493C52.1581 114.474 52.1581 114.474 52.7733 113.209C52.5682 112.639 52.5682 112.639 52.1752 112.089C50.702 109.643 50.1704 107.129 50.7378 104.31C51.2178 102.419 51.7972 100.594 52.4743 98.7641C52.5743 98.4901 52.6744 98.2159 52.7775 97.9335C52.9873 97.36 53.1978 96.7867 53.409 96.2137C53.7311 95.34 54.0508 94.4654 54.3702 93.5906C54.5755 93.03 54.7809 92.4696 54.9865 91.9092C55.0814 91.6501 55.1762 91.391 55.274 91.1241C55.7703 89.7795 56.2918 88.4563 56.8749 87.1465C56.526 87.1512 56.526 87.1512 56.17 87.1561C53.923 87.1727 51.693 87.1126 49.4502 86.9716C47.1864 86.84 44.9228 86.8633 42.6562 86.875C42.0692 88.5435 41.4825 90.212 40.8959 91.8805C40.8047 92.1398 40.7136 92.3991 40.6197 92.6663C39.4506 95.9918 38.285 99.3186 37.1251 102.647C36.3548 104.858 35.5821 107.067 34.8078 109.277C34.2922 110.748 33.7778 112.219 33.2654 113.692C32.7353 115.215 32.202 116.736 31.6664 118.257C31.4635 118.835 31.2616 119.414 31.0609 119.993C30.7828 120.794 30.5009 121.594 30.218 122.394C30.1367 122.631 30.0554 122.868 29.9717 123.113C29.5493 124.293 29.2037 125.188 28.164 125.969C27.1813 126.28 26.7237 126.326 25.7714 125.918C25.1109 125.39 24.8353 125.148 24.6093 124.34C24.7467 122.657 25.2779 121.161 25.8419 119.576C25.9396 119.297 26.0373 119.018 26.138 118.731C26.4585 117.817 26.7814 116.905 27.1044 115.992C27.3288 115.354 27.5529 114.716 27.777 114.077C28.2328 112.78 28.6896 111.483 29.1473 110.186C29.7399 108.507 30.3299 106.827 30.9186 105.146C31.8297 102.547 32.7434 99.948 33.6589 97.35C33.827 96.8731 33.995 96.3963 34.163 95.9194C34.6698 94.4808 35.177 93.0423 35.6849 91.6041C35.8421 91.1588 35.9992 90.7135 36.1562 90.2681C36.3707 89.6598 36.5857 89.0516 36.8008 88.4435C36.8957 88.1738 36.8957 88.1738 36.9926 87.8986C37.2155 87.2698 37.4337 86.6575 37.7343 86.0606C37.4569 86.0322 37.1795 86.0039 36.8937 85.9747C33.8278 85.4446 31.1244 83.6054 29.2577 81.1739C26.2426 76.4827 26.6292 72.1168 27.5744 66.8785C27.6543 66.4232 27.734 65.9679 27.8135 65.5125C28.0215 64.3236 28.2326 63.1352 28.4446 61.9469C28.7846 60.038 29.1199 58.1283 29.455 56.2185C29.5722 55.5536 29.6907 54.889 29.8095 54.2244C29.8814 53.8178 29.9533 53.4113 30.0252 53.0047C30.0584 52.8208 30.0916 52.6369 30.1259 52.4474C30.2759 51.593 30.3515 50.8257 30.3515 49.9532C29.9582 50.0765 29.9582 50.0765 29.5569 50.2024C28.5859 50.5067 27.6146 50.8101 26.6431 51.1131C26.2224 51.2445 25.8017 51.3761 25.3811 51.5081C24.7773 51.6975 24.1732 51.8859 23.5689 52.0741C23.3804 52.1335 23.1918 52.1929 22.9975 52.2541C21.6638 52.668 21.6637 52.668 21.0546 52.668C20.9911 52.959 20.9276 53.2499 20.8622 53.5497C20.2244 56.4497 19.545 59.3369 18.8002 62.2117C18.6842 62.6633 18.5703 63.1155 18.4584 63.5681C17.1856 68.7119 17.1856 68.7119 14.9856 70.5425C14.8114 70.6408 14.6373 70.7392 14.4579 70.8405C14.1946 70.9954 14.1946 70.9954 13.926 71.1533C12.2426 71.9416 10.178 71.9432 8.42521 71.3665C6.62889 70.5918 5.35287 69.399 4.57252 67.6113C3.15318 63.6275 5.56175 58.1429 6.55914 54.2452C6.8197 53.2243 7.07641 52.2025 7.33306 51.1807C7.49998 50.5258 7.66714 49.8709 7.83454 49.2161C7.91006 48.9135 7.98557 48.6109 8.06337 48.2991C8.76749 45.578 9.579 43.3866 12.0312 41.8086C13.7031 40.9172 15.4531 40.1835 17.1923 39.4331C17.6861 39.2172 18.1797 39.001 18.6732 38.7845C19.8842 38.2547 21.0972 37.73 22.3109 37.2066C23.0828 36.8725 23.8527 36.5341 24.6223 36.1951C33.6556 32.2214 41.6873 32.7316 51.3257 33.5731C52.2179 33.6501 53.1104 33.7235 54.003 33.7968C54.8729 33.8686 55.7427 33.9422 56.6125 34.0163C57.0226 34.0511 57.4326 34.0855 57.8428 34.1195C63.0568 34.5547 65.6577 35.9116 69.5257 39.2932C70.8391 40.4397 72.1914 41.5354 73.5546 42.6231C73.7738 42.8355 73.9931 43.0479 74.219 43.2668C74.5669 43.4857 74.5669 43.4857 74.9218 43.709C76.044 43.4238 77.0137 42.9626 78.0236 42.4078C78.2949 42.2598 78.5662 42.1119 78.8457 41.9594C79.1299 41.8033 79.4141 41.6471 79.7069 41.4862C80.2982 41.1672 80.8896 40.8483 81.4811 40.5297C82.4198 40.0221 83.3541 39.5089 84.2817 38.9814C86.38 37.8373 88.1107 37.3087 90.5077 37.7364C92.5507 38.3536 93.8321 39.4347 94.8827 41.2657C95.6936 42.9125 95.7528 44.8824 95.1903 46.6201C93.8826 49.4518 91.5647 50.616 88.8671 52.0063C88.232 52.339 87.5972 52.6724 86.9627 53.0063C86.7224 53.1324 86.7224 53.1324 86.4773 53.2611C84.5744 54.2636 82.7065 55.3268 80.8418 56.3973C77.9913 58.0193 75.8341 59.0675 72.4608 58.6407C71.4431 58.3337 70.6218 57.8478 69.7265 57.2832C69.3753 57.0704 69.0239 56.858 68.6722 56.6459C67.7245 56.0698 66.7863 55.48 65.851 54.8842C65.4181 54.6105 64.9809 54.3438 64.5429 54.0785C64.3247 53.9434 64.1065 53.8083 63.8817 53.6691C63.6992 53.5582 63.5166 53.4472 63.3285 53.3329C62.7491 52.8124 62.5711 52.3171 62.3437 51.5821C62.3856 50.7289 62.5625 50.3048 63.0443 49.5968C63.9684 48.9617 64.819 48.9927 65.8983 49.1387C66.8235 49.5624 66.8235 49.5624 67.7291 50.1483C67.8921 50.2507 68.055 50.3532 68.2229 50.4587C68.7386 50.7834 69.2499 51.1141 69.7607 51.4463C70.2736 51.7781 70.7874 52.1082 71.3043 52.4339C71.772 52.7289 72.2362 53.0295 72.7002 53.3303C73.64 53.7963 74.1603 53.877 75.1952 53.7539C75.7632 53.5764 75.7632 53.5764 76.2708 53.2842C76.4677 53.1798 76.6645 53.0754 76.8674 52.9679C77.0769 52.8521 77.2865 52.7364 77.5024 52.6171C77.7249 52.4975 77.9475 52.3779 78.1769 52.2547C80.532 50.9815 82.8636 49.6648 85.1928 48.3455C86.2387 47.7561 87.2859 47.169 88.3373 46.5893C88.583 46.4534 88.8287 46.3176 89.0818 46.1776C89.6874 45.8809 89.6874 45.8809 90.2343 45.8809C90.539 44.4289 90.539 44.4289 90.2343 43.0303C89.5978 42.5564 89.1575 42.4924 88.3698 42.5116C87.0357 42.761 85.8791 43.5393 84.7143 44.2011C84.4274 44.3592 84.1405 44.5172 83.8449 44.6801C82.4338 45.4589 81.0323 46.2537 79.6322 47.0517C79.3876 47.1893 79.1431 47.3269 78.8911 47.4686C78.4325 47.7272 77.976 47.9893 77.5219 48.2557C76.2531 48.9714 75.3262 49.381 73.828 49.1387C73.1081 48.7092 73.1081 48.7092 72.4267 48.1037C72.1694 47.8808 71.9121 47.6578 71.6469 47.4281C71.5126 47.3086 71.3782 47.189 71.2397 47.0659C70.5199 46.4301 69.7799 45.8181 69.0429 45.2022C68.7427 44.9495 68.4426 44.6967 68.1425 44.4439C64.2632 40.8497 64.2632 40.8497 59.458 39.1849C59.1863 39.161 59.1863 39.161 58.909 39.1367C58.3073 39.0841 57.7054 39.0332 57.1035 38.9824C56.6796 38.9463 56.2558 38.9102 55.8319 38.874C54.9387 38.7982 54.0455 38.7233 53.1521 38.6488C52.2494 38.5735 51.3469 38.4963 50.4445 38.4174C40.2296 37.1414 40.2296 37.1414 30.3515 39.0938C30.1549 39.1749 29.9584 39.256 29.7559 39.3396C28.2308 39.9731 26.7269 40.649 25.2245 41.3335C24.7652 41.5408 24.3058 41.7478 23.8463 41.9546C22.9522 42.3572 22.0587 42.7611 21.1656 43.1658C20.1467 43.6265 19.1242 44.0787 18.0991 44.5256C17.8433 44.6375 17.5875 44.7494 17.3239 44.8647C16.8768 45.0598 16.4291 45.2538 15.9808 45.4464C14.6728 46.0085 14.6728 46.0085 13.6718 46.9668C13.427 47.6729 13.2221 48.356 13.0363 49.0772C12.9788 49.2914 12.9214 49.5057 12.8622 49.7264C12.6733 50.4347 12.4888 51.144 12.3046 51.8536C12.1742 52.3486 12.0436 52.8435 11.913 53.3385C11.5749 54.6264 11.244 55.916 10.9164 57.2065C10.781 57.7379 10.6444 58.269 10.5068 58.7999C10.3042 59.5811 10.1051 60.3632 9.90668 61.1455C9.81443 61.4977 9.81442 61.4977 9.7203 61.8569C9.36781 63.2668 9.19648 64.5167 9.29679 65.9707C9.70183 66.5778 9.70183 66.5778 10.3905 66.7852C11.2372 66.8299 11.2372 66.8299 12.0312 66.5137C12.6816 65.6083 13.0132 64.7508 13.283 63.678C13.3569 63.3889 13.4309 63.0999 13.507 62.8021C13.584 62.4927 13.6609 62.1833 13.7401 61.8645C13.8629 61.3842 13.8629 61.3842 13.9882 60.8941C14.2494 59.872 14.5078 58.8492 14.7655 57.8262C15.1048 56.4795 15.447 55.1335 15.7909 53.7879C15.8679 53.4785 15.9448 53.1691 16.024 52.8503C16.098 52.5613 16.1719 52.2722 16.2481 51.9745C16.3118 51.7211 16.3755 51.4678 16.4411 51.2068C16.8093 50.1097 17.1883 49.3613 18.1454 48.6776C18.8566 48.3294 19.5411 48.065 20.2972 47.8287C20.5756 47.741 20.854 47.6532 21.1408 47.5627C21.4387 47.4711 21.7367 47.3794 22.0437 47.285C22.3528 47.1891 22.6619 47.0932 22.9804 46.9944C23.6333 46.7926 24.2865 46.5919 24.94 46.3921C25.938 46.0858 26.934 45.7735 27.9301 45.4609C28.5655 45.2654 29.201 45.0703 29.8366 44.8756C30.2819 44.7348 30.2819 44.7348 30.7362 44.5911C32.2802 44.1262 33.4251 43.8297 34.9999 44.252C35.5126 44.5574 35.5126 44.5574 35.8202 45.0664C36.1583 46.6287 36.0128 47.895 35.7231 49.4366C35.6591 49.7965 35.6591 49.7965 35.5939 50.1637C35.5014 50.6823 35.4075 51.2006 35.3123 51.7186C35.1615 52.5401 35.0143 53.3621 34.8679 54.1844C34.6092 55.6344 34.3473 57.0838 34.0844 58.5331C33.664 60.8505 33.2463 63.1683 32.8326 65.4869C32.6878 66.294 32.5404 67.1006 32.3927 67.9072C32.3032 68.4059 32.2139 68.9047 32.1246 69.4034C32.0833 69.6252 32.0419 69.847 31.9993 70.0755C31.522 72.7797 31.4769 75.3469 32.9427 77.7686C34.3712 79.7211 35.9691 80.7569 38.2812 81.4454C38.8326 81.516 39.387 81.5658 39.9421 81.5981C40.2715 81.618 40.6008 81.638 40.9402 81.6586C41.2978 81.6778 41.6554 81.697 42.0238 81.7168C42.4027 81.7388 42.7815 81.7609 43.1604 81.783C47.0499 82.0061 50.9426 82.1769 54.835 82.342C55.0792 82.3526 55.3234 82.3633 55.5751 82.3742C56.0304 82.394 56.4857 82.4132 56.941 82.4316C60.9119 82.6063 60.9119 82.6063 61.9506 83.21C62.5469 84.2397 62.4889 85.1861 62.3437 86.3321C61.9703 87.6886 61.481 88.9977 60.9872 90.3142C60.8471 90.6962 60.7074 91.0784 60.5681 91.4607C60.2022 92.4615 59.8317 93.4605 59.4602 94.4593C59.0835 95.4742 58.711 96.4906 58.3382 97.5069C57.9186 98.6505 57.4987 99.7939 57.0754 100.936C57.011 101.11 56.9465 101.284 56.8801 101.464C56.7067 101.932 56.5329 102.4 56.3591 102.868C55.5404 105.124 55.0966 106.903 56.0631 109.169C56.923 110.828 58.1295 111.807 59.8827 112.395C61.2055 112.613 62.4983 112.713 63.838 112.752C64.1161 112.76 64.1161 112.76 64.3999 112.769C64.9848 112.787 65.5697 112.803 66.1547 112.819C66.5544 112.831 66.954 112.842 67.3537 112.854C68.3269 112.883 69.3001 112.911 70.2733 112.938C70.3552 112.68 70.4371 112.423 70.5215 112.157C71.0626 110.62 72.2136 109.735 73.5717 108.882C75.1032 108.328 76.8817 108.418 78.4765 108.594C78.8061 108.762 79.1342 108.933 79.4611 109.106C80.2103 109.39 80.5341 109.453 81.3002 109.19C82.0288 108.776 82.7086 108.323 83.3941 107.842C83.6503 107.671 83.9064 107.5 84.1704 107.324C84.9892 106.776 85.8001 106.218 86.6112 105.658C87.1526 105.293 87.6945 104.928 88.2369 104.564C89.273 103.868 90.3044 103.166 91.3328 102.459C92.1432 101.904 92.9572 101.365 93.797 100.854C94.0947 100.672 94.3923 100.49 94.699 100.302C94.9455 100.158 95.192 100.014 95.4459 99.8658C96.1872 99.1637 96.1864 98.5934 96.2499 97.5987C96.2467 97.2956 96.2436 96.9925 96.2403 96.6803C96.2574 95.1727 96.8269 94.2032 97.8542 93.1277C99.5739 91.5556 100.776 91.1411 103.086 91.2188C103.111 91.0462 103.136 90.8736 103.162 90.6958C103.436 89.5386 103.881 88.4705 104.326 87.369C104.427 87.1182 104.527 86.8673 104.631 86.6089C104.966 85.7714 105.304 84.9345 105.641 84.0976C105.88 83.5024 106.119 82.9072 106.357 82.312C106.868 81.0397 107.379 79.7678 107.891 78.4961C108.558 76.8393 109.224 75.1819 109.889 73.5244C112.436 67.1744 114.993 60.8281 117.586 54.4962C117.911 53.7025 118.235 52.9086 118.56 52.1146C118.768 51.6052 118.976 51.0958 119.184 50.5865C119.284 50.3408 119.385 50.095 119.488 49.8419C120.078 48.3996 120.671 46.9587 121.267 45.5189C121.631 44.6358 121.993 43.7515 122.354 42.867C122.52 42.4618 122.688 42.0572 122.856 41.6531C123.084 41.1072 123.307 40.5598 123.53 40.0117C123.718 39.5557 123.718 39.5557 123.91 39.0904C124.159 38.2139 124.154 37.778 123.867 36.9219C123.513 36.3723 123.149 35.8287 122.773 35.293C122.184 33.539 122.141 31.1822 122.91 29.4731C124.831 26.3167 128.706 24.937 132.19 26.4698ZM127.593 31.1189C127.015 31.957 126.981 32.3958 127.148 33.3926C127.559 34.0713 127.559 34.0713 128.242 34.4786C129.246 34.6447 129.688 34.6108 130.532 34.0374C131.11 33.1994 131.144 32.7605 130.976 31.7637C130.566 31.085 130.566 31.085 129.883 30.6778C128.879 30.5116 128.437 30.5455 127.593 31.1189ZM101.343 96.2752C100.765 97.1132 100.731 97.5521 100.898 98.5489C101.309 99.2276 101.309 99.2276 101.992 99.6348C102.996 99.8009 103.438 99.767 104.282 99.1936C104.86 98.3556 104.894 97.9168 104.726 96.92C104.316 96.2413 104.316 96.2413 103.633 95.834C102.629 95.6679 102.187 95.7018 101.343 96.2752ZM75.0927 113.65C74.5152 114.488 74.481 114.927 74.6484 115.924C75.0585 116.603 75.0585 116.603 75.7421 117.01C76.7461 117.176 77.1881 117.142 78.0321 116.569C78.6097 115.731 78.6438 115.292 78.4765 114.295C78.0663 113.616 78.0663 113.616 77.3827 113.209C76.3787 113.043 75.9368 113.077 75.0927 113.65Z" fill="#147DC0"/>
<path d="M59.837 43.6008C60.4298 43.709 60.4298 43.709 61.1476 44.218C62.2441 46.6923 60.6689 49.9504 59.9171 52.4028C59.7831 52.8467 59.6492 53.2907 59.5156 53.7347C59.1655 54.8962 58.8124 56.0568 58.4587 57.2173C58.0986 58.4 57.7411 59.5834 57.3835 60.7669C56.9818 62.0964 56.5799 63.4259 56.1756 64.7547C56.1144 64.9563 56.0531 65.1579 55.99 65.3657C55.876 65.7409 55.7617 66.1161 55.6472 66.4912C55.3989 67.309 55.1588 68.1256 54.9611 68.957C55.218 69.0007 55.475 69.0443 55.7398 69.0893C55.9113 69.1185 56.0828 69.1476 56.2596 69.1777C56.6484 69.2437 57.0372 69.3098 57.426 69.3758C58.5082 69.5596 59.5903 69.7442 60.6722 69.93C62.6035 70.2612 64.5342 70.5904 66.4711 70.8882C66.7513 70.9325 67.0315 70.9769 67.3202 71.0226C67.8225 71.1017 68.3255 71.1775 68.829 71.249C71.4703 71.6732 73.8173 72.7975 75.4689 74.9297C76.8617 76.9663 77.4028 79.261 77.0268 81.7134C76.7049 83.2884 76.1521 84.5981 75.3973 86.0139C75.2817 86.2362 75.1661 86.4586 75.047 86.6877C74.6719 87.4076 74.2929 88.1254 73.9137 88.8433C73.6522 89.3434 73.3909 89.8436 73.1299 90.344C72.6072 91.345 72.083 92.3452 71.5574 93.3448C70.9093 94.5777 70.2654 95.8128 69.6241 97.0493C68.8042 98.6302 67.9807 100.209 67.1548 101.787C66.7313 102.597 66.31 103.409 65.8889 104.22C65.6416 104.694 65.3942 105.168 65.1466 105.641C64.9847 105.955 64.9847 105.955 64.8196 106.275C64.3508 107.167 63.9313 107.931 63.1642 108.594C62.3254 108.778 61.5457 108.754 60.7032 108.594C60.0026 108.017 60.0026 108.017 59.6095 107.236C59.4997 105.981 59.7155 105.199 60.291 104.086C60.513 103.651 60.513 103.651 60.7396 103.207C60.8968 102.907 61.054 102.608 61.2159 102.299C61.4359 101.87 61.4359 101.87 61.6603 101.432C62.5795 99.6456 63.5226 97.8721 64.4651 96.098C65.8376 93.5147 67.187 90.9199 68.5281 88.3204C68.9131 87.5746 69.2991 86.8292 69.685 86.0839C69.9325 85.6046 70.18 85.1252 70.4274 84.6459C70.5987 84.3154 70.5987 84.3154 70.7734 83.9783C72.093 81.4881 72.093 81.4881 71.9142 78.7305C71.2173 77.3722 70.5701 76.8816 69.1798 76.2871C68.2876 76.0709 68.2876 76.0709 67.3335 75.9421C67.1568 75.915 66.98 75.8879 66.798 75.86C66.4172 75.802 66.0363 75.7452 65.6553 75.6894C65.0513 75.6007 64.448 75.5081 63.8447 75.4144C62.1306 75.1487 60.4156 74.8889 58.6998 74.6343C57.6475 74.4779 56.5963 74.3161 55.5454 74.151C55.1462 74.0893 54.7466 74.0298 54.3467 73.9725C53.787 73.8921 53.2288 73.8049 52.6704 73.7161C52.3529 73.6685 52.0355 73.6209 51.7084 73.5719C50.6216 73.2248 50.1588 72.8647 49.4923 71.9434C49.306 70.3672 49.6127 69.059 50.0774 67.558C50.1396 67.3484 50.2019 67.1388 50.266 66.9229C50.471 66.2356 50.6801 65.5496 50.8894 64.8636C51.0342 64.3815 51.1787 63.8994 51.3229 63.4172C51.7028 62.1501 52.0864 60.8842 52.4707 59.6184C52.7816 58.5921 53.0899 57.565 53.398 56.5378C53.7686 55.3027 54.1404 54.068 54.5124 52.8334C54.5822 52.6019 54.652 52.3704 54.7238 52.1318C55.1619 50.6799 55.6056 49.2298 56.0548 47.7812C56.1571 47.4484 56.2594 47.1155 56.3649 46.7725C56.4579 46.4804 56.5509 46.1884 56.6468 45.8875C56.7249 45.6402 56.803 45.3928 56.8834 45.138C57.5161 43.6716 58.3328 43.5375 59.837 43.6008Z" fill="#147DC0"/>
<path d="M129.062 56.3329C129.243 56.3301 129.423 56.3273 129.609 56.3245C130.471 56.5516 130.724 56.8261 131.25 57.5546C131.419 58.5554 131.397 59.551 131.389 60.5638C131.391 61.0296 131.391 61.0296 131.394 61.5049C131.398 62.3671 131.396 63.2291 131.393 64.0913C131.39 65.0211 131.394 65.9508 131.397 66.8806C131.402 68.7021 131.401 70.5234 131.398 72.3449C131.395 73.825 131.395 75.3051 131.396 76.7851C131.396 76.9957 131.397 77.2062 131.397 77.4231C131.397 77.8507 131.398 78.2783 131.398 78.7059C131.401 82.7174 131.397 86.7289 131.392 90.7404C131.387 94.1838 131.387 97.6272 131.393 101.071C131.398 105.068 131.401 109.065 131.397 113.062C131.397 113.488 131.397 113.914 131.396 114.34C131.396 114.549 131.396 114.759 131.396 114.975C131.395 116.454 131.396 117.932 131.399 119.411C131.402 121.212 131.401 123.014 131.395 124.815C131.393 125.735 131.391 126.654 131.395 127.574C131.398 128.57 131.394 129.565 131.389 130.561C131.391 130.853 131.394 131.145 131.396 131.446C131.375 133.397 131.375 133.397 130.729 134.292C130.112 134.684 129.789 134.803 129.062 134.792C128.882 134.795 128.702 134.798 128.516 134.8C127.654 134.573 127.401 134.299 126.875 133.57C126.705 132.569 126.728 131.574 126.736 130.561C126.734 130.251 126.733 129.94 126.731 129.62C126.727 128.758 126.729 127.896 126.732 127.034C126.734 126.104 126.731 125.174 126.728 124.244C126.723 122.423 126.724 120.601 126.727 118.78C126.729 117.3 126.73 115.82 126.729 114.34C126.728 114.129 126.728 113.919 126.728 113.702C126.728 113.274 126.727 112.847 126.727 112.419C126.724 108.407 126.727 104.396 126.733 100.384C126.738 96.941 126.737 93.4977 126.732 90.0543C126.726 86.0573 126.724 82.0603 126.728 78.0633C126.728 77.6373 126.728 77.2112 126.729 76.7851C126.729 76.5755 126.729 76.3659 126.729 76.1499C126.73 74.6712 126.728 73.1926 126.726 71.714C126.723 69.9125 126.724 68.1111 126.729 66.3096C126.732 65.3901 126.733 64.4707 126.73 63.5512C126.727 62.5553 126.731 61.5596 126.736 60.5638C126.734 60.2719 126.731 59.98 126.729 59.6793C126.75 57.7283 126.75 57.7283 127.396 56.8326C128.013 56.4407 128.336 56.3217 129.062 56.3329Z" fill="#147DC0"/>
<path d="M59.9682 6.32902C62.7679 8.42828 65.0889 11.1062 65.6249 14.6602C66.0157 19.3965 65.3016 22.9006 62.1642 26.596C59.9751 28.9386 57.1625 30.316 53.9611 30.4922C49.3983 30.644 46.1205 29.6489 42.7245 26.5207C39.9921 23.6542 39.2343 20.5193 39.2602 16.6881C39.3725 12.8541 40.971 9.84714 43.767 7.21983C48.3217 3.49998 55.0326 3.07679 59.9682 6.32902ZM45.664 11.9454C44.0352 14.3269 43.8022 16.4154 44.0234 19.2754C44.6205 21.7858 45.9809 23.4648 48.1591 24.8069C50.3084 26.0501 52.7866 26.1726 55.2054 25.6055C57.908 24.6121 59.444 22.9033 60.703 20.3614C61.4558 18.1689 61.224 15.4421 60.2437 13.3696C59.0072 11.281 57.3393 9.82775 55.0004 9.06507C51.3795 8.41024 48.1219 9.16874 45.664 11.9454Z" fill="#147DC0"/>
<path d="M115.938 91.0829C116.118 91.0801 116.299 91.0773 116.484 91.0745C117.289 91.2867 117.604 91.666 118.125 92.3046C118.263 93.0797 118.263 93.0797 118.264 93.9945C118.269 94.5152 118.269 94.5152 118.273 95.0464C118.271 95.4305 118.269 95.8146 118.267 96.1987C118.268 96.6037 118.27 97.0086 118.272 97.4136C118.277 98.513 118.276 99.6123 118.272 100.712C118.269 101.862 118.272 103.012 118.274 104.162C118.276 106.094 118.273 108.026 118.268 109.957C118.262 112.191 118.264 114.425 118.27 116.658C118.275 118.576 118.275 120.493 118.273 122.41C118.271 123.556 118.271 124.701 118.274 125.846C118.277 126.923 118.275 128 118.269 129.077C118.267 129.472 118.268 129.867 118.27 130.262C118.273 130.802 118.269 131.341 118.264 131.88C118.264 132.182 118.263 132.484 118.263 132.795C118.094 133.747 117.787 134.067 117.031 134.656C116.484 134.8 116.484 134.8 115.938 134.792C115.757 134.795 115.577 134.798 115.391 134.8C114.586 134.588 114.271 134.209 113.75 133.57C113.612 132.795 113.612 132.795 113.611 131.88C113.608 131.533 113.605 131.186 113.602 130.828C113.604 130.444 113.606 130.06 113.609 129.676C113.607 129.271 113.605 128.866 113.603 128.461C113.598 127.362 113.6 126.263 113.603 125.163C113.606 124.013 113.603 122.863 113.602 121.712C113.6 119.781 113.602 117.849 113.608 115.917C113.613 113.684 113.612 111.45 113.606 109.217C113.601 107.299 113.6 105.382 113.603 103.464C113.604 102.319 113.605 101.174 113.601 100.028C113.598 98.9517 113.6 97.8751 113.606 96.7983C113.608 96.403 113.607 96.0077 113.605 95.6124C113.602 95.0731 113.606 94.5338 113.611 93.9945C113.612 93.6926 113.612 93.3907 113.612 93.0797C113.841 91.7934 114.609 91.0623 115.938 91.0829Z" fill="#147DC0"/>
<path d="M102.813 108.458C102.993 108.455 103.173 108.452 103.359 108.449C104.188 108.668 104.479 109.002 105 109.68C105.108 110.48 105.15 111.179 105.142 111.979C105.143 112.21 105.145 112.442 105.147 112.68C105.152 113.445 105.149 114.209 105.145 114.974C105.146 115.505 105.147 116.037 105.148 116.568C105.15 117.682 105.148 118.795 105.143 119.909C105.136 121.337 105.14 122.765 105.147 124.192C105.15 125.29 105.149 126.387 105.146 127.485C105.146 128.011 105.147 128.538 105.149 129.064C105.152 129.8 105.148 130.535 105.142 131.271C105.144 131.489 105.146 131.707 105.148 131.931C105.133 132.909 105.085 133.46 104.479 134.248C103.859 134.69 103.567 134.804 102.813 134.792C102.632 134.795 102.452 134.798 102.266 134.8C101.437 134.582 101.146 134.247 100.625 133.57C100.517 132.77 100.475 132.071 100.484 131.271C100.482 131.04 100.48 130.808 100.478 130.57C100.473 129.805 100.476 129.041 100.48 128.276C100.479 127.745 100.478 127.213 100.477 126.682C100.475 125.568 100.477 124.455 100.482 123.341C100.489 121.913 100.485 120.485 100.479 119.057C100.475 117.96 100.476 116.863 100.479 115.765C100.479 115.239 100.479 114.712 100.476 114.186C100.473 113.45 100.477 112.715 100.484 111.979C100.481 111.761 100.479 111.543 100.477 111.319C100.492 110.341 100.54 109.79 101.147 109.002C101.767 108.56 102.058 108.446 102.813 108.458Z" fill="#147DC0"/>
<path d="M89.6876 117.145C89.8681 117.143 90.0486 117.14 90.2345 117.137C91.0327 117.347 91.3538 117.74 91.8751 118.367C92.014 119.068 92.014 119.068 92.0166 119.869C92.0201 120.17 92.0235 120.47 92.0271 120.78C92.0249 121.104 92.0227 121.427 92.0204 121.761C92.0214 122.094 92.0225 122.427 92.0236 122.771C92.0243 123.475 92.0223 124.18 92.0177 124.885C92.0119 125.965 92.0177 127.044 92.0247 128.124C92.0239 128.808 92.0225 129.492 92.0204 130.177C92.0226 130.5 92.0248 130.824 92.0271 131.157C92.0236 131.458 92.0202 131.759 92.0166 132.069C92.0153 132.465 92.0153 132.465 92.014 132.87C91.8363 133.766 91.4881 134.09 90.7814 134.656C90.2345 134.8 90.2345 134.8 89.6876 134.792C89.5071 134.795 89.3267 134.798 89.1407 134.8C88.3425 134.59 88.0214 134.198 87.5001 133.57C87.3612 132.87 87.3612 132.87 87.3586 132.069C87.3551 131.768 87.3517 131.467 87.3481 131.157C87.3504 130.834 87.3526 130.51 87.3549 130.177C87.3538 129.843 87.3528 129.51 87.3517 129.167C87.3509 128.462 87.353 127.757 87.3575 127.053C87.3634 125.973 87.3576 124.894 87.3506 123.814C87.3513 123.129 87.3527 122.445 87.3549 121.761C87.3526 121.437 87.3504 121.114 87.3481 120.78C87.3516 120.479 87.355 120.179 87.3586 119.869C87.3595 119.604 87.3603 119.34 87.3612 119.068C87.6078 117.824 88.4124 117.126 89.6876 117.145Z" fill="#147DC0"/>
<path d="M63.4376 121.489C63.6181 121.486 63.7986 121.484 63.9845 121.481C64.8195 121.701 65.1032 122.024 65.6251 122.711C65.7895 123.525 65.7784 124.327 65.7704 125.154C65.7714 125.391 65.7725 125.628 65.7736 125.872C65.7743 126.372 65.7723 126.873 65.7677 127.373C65.7619 128.138 65.7677 128.902 65.7747 129.668C65.7739 130.154 65.7725 130.64 65.7704 131.127C65.7726 131.355 65.7748 131.584 65.7771 131.819C65.7515 133.404 65.7515 133.404 65.1033 134.257C64.4841 134.689 64.1866 134.804 63.4376 134.792C63.1669 134.796 63.1669 134.796 62.8907 134.8C62.0557 134.58 61.7721 134.257 61.2501 133.57C61.0857 132.757 61.0968 131.955 61.1049 131.127C61.1038 130.89 61.1028 130.653 61.1017 130.409C61.1009 129.909 61.103 129.409 61.1075 128.908C61.1134 128.143 61.1076 127.379 61.1006 126.613C61.1013 126.127 61.1027 125.641 61.1049 125.154C61.1026 124.926 61.1004 124.697 61.0981 124.462C61.1237 122.877 61.1237 122.877 61.7719 122.024C62.3911 121.592 62.6887 121.478 63.4376 121.489Z" fill="#147DC0"/>
<path d="M76.5626 125.833C76.7431 125.83 76.9236 125.827 77.1095 125.824C77.9074 126.035 78.2287 126.428 78.7501 127.055C78.8916 127.759 78.8916 127.759 78.8954 128.548C78.8968 128.833 78.8982 129.119 78.8997 129.413C78.8954 129.71 78.8912 130.007 78.8868 130.312C78.8911 130.609 78.8953 130.906 78.8997 131.212C78.8982 131.497 78.8968 131.783 78.8954 132.077C78.8942 132.337 78.8929 132.598 78.8916 132.866C78.7112 133.764 78.3643 134.089 77.6564 134.656C77.1095 134.8 77.1095 134.8 76.5626 134.792C76.2919 134.796 76.2919 134.796 76.0157 134.8C75.2179 134.59 74.8965 134.197 74.3751 133.57C74.2336 132.866 74.2336 132.866 74.2299 132.077C74.2284 131.792 74.227 131.506 74.2256 131.212C74.2298 130.915 74.234 130.618 74.2384 130.312C74.2342 130.016 74.2299 129.719 74.2256 129.413C74.2277 128.985 74.2277 128.985 74.2299 128.548C74.2311 128.287 74.2323 128.027 74.2336 127.759C74.4836 126.515 75.2845 125.813 76.5626 125.833Z" fill="#147DC0"/>
<path d="M51.4063 130.312C52.0899 130.72 52.0899 130.72 52.5001 131.398C52.7164 132.49 52.67 133.289 52.0899 134.249C51.1231 134.825 50.3183 134.871 49.2188 134.656C48.5352 134.249 48.5352 134.249 48.1251 133.57C47.9088 132.479 47.9551 131.68 48.5352 130.72C49.5021 130.144 50.3068 130.098 51.4063 130.312Z" fill="#147DC0"/>
</svg>
