<svg width="148" height="148" viewBox="0 0 148 148" fill="none" xmlns="http://www.w3.org/2000/svg">
<path d="M84.6953 13.0078C86.5963 14.7052 87.7837 16.3619 87.9337 18.9257C87.9517 20.373 87.9649 21.7238 87.5859 23.125C87.7357 23.2077 87.8854 23.2904 88.0396 23.3756C90.9926 25.0171 93.7355 26.6427 96.2578 28.9063C96.4669 29.081 96.6759 29.2558 96.8913 29.4359C97.8912 30.2764 98.7046 31.0971 99.4917 32.1402C100.586 33.4447 101.817 33.6937 103.421 34.115C105.841 34.8523 108.077 36.6976 109.402 38.8462C111.12 42.1163 111.536 45.2691 110.458 48.8516C110.125 49.8586 109.765 50.8061 109.266 51.7422C109.493 51.9416 109.719 52.1409 109.953 52.3463C113.91 55.8651 116.752 59.7005 117.119 65.1858C117.183 66.8752 117.181 68.564 117.167 70.2544C117.161 71.1537 117.162 72.0528 117.163 72.9522C117.162 73.525 117.16 74.0979 117.157 74.6707C117.158 74.939 117.158 75.2073 117.158 75.4837C117.155 75.7319 117.153 75.9801 117.15 76.2359C117.148 76.4537 117.147 76.6715 117.146 76.896C117.07 77.4688 117.07 77.4688 116.492 78.336C115.423 78.6923 114.437 78.6631 113.324 78.6578C112.973 78.6579 112.973 78.6579 112.615 78.658C111.84 78.6578 111.066 78.6555 110.292 78.6533C109.755 78.6527 109.219 78.6523 108.682 78.652C107.269 78.6509 105.856 78.6481 104.444 78.6449C103.002 78.6419 101.56 78.6406 100.119 78.6391C97.2902 78.636 94.4615 78.6311 91.6328 78.625C91.6404 78.8451 91.6479 79.0652 91.6557 79.292C91.6858 80.2921 91.7046 81.2921 91.7231 82.2925C91.7413 82.812 91.7413 82.812 91.7598 83.3421C91.7645 83.6765 91.7692 84.0109 91.774 84.3555C91.7815 84.6628 91.7891 84.9701 91.7969 85.2867C91.5711 86.4618 91.1369 86.8754 90.1875 87.586C89.3114 87.7598 89.3114 87.7598 88.3252 87.75C87.7698 87.7499 87.7698 87.7499 87.2031 87.7497C86.8019 87.7423 86.4007 87.7348 85.9995 87.7271C85.5868 87.7244 85.1741 87.7223 84.7614 87.7209C83.6782 87.7154 82.5954 87.7012 81.5124 87.6852C80.406 87.6704 79.2995 87.6638 78.1931 87.6565C76.0244 87.6411 73.856 87.6156 71.6875 87.586C71.6875 86.3459 71.6875 85.1058 71.6875 83.8282C77.0294 83.8282 82.3712 83.8282 87.875 83.8282C87.8452 82.2244 87.8154 80.6206 87.7847 78.9683C87.7739 78.2194 87.7739 78.2194 87.7629 77.4554C87.6686 72.8061 86.7096 68.6695 83.25 65.3282C82.5854 64.7317 82.0128 64.3342 81.2266 63.8828C80.1928 63.9897 79.3665 64.3457 78.4263 64.7681C75.4006 65.8858 71.8085 65.7721 68.8725 64.4531C68.1416 64.1387 67.5706 63.9349 66.7734 63.8828C63.7747 65.4883 61.9752 68.4044 60.9131 71.5306C60.4802 73.0459 60.3581 74.4937 60.3226 76.0652C60.3136 76.399 60.3136 76.399 60.3044 76.7395C60.2856 77.4463 60.2685 78.1531 60.2515 78.8599C60.239 79.3407 60.2264 79.8216 60.2136 80.3024C60.1826 81.4776 60.1538 82.6529 60.125 83.8282C62.0328 83.8282 63.9406 83.8282 65.9062 83.8282C65.9062 84.9728 65.9062 86.1175 65.9062 87.2969C64.6871 87.3255 63.4682 87.3465 62.2489 87.3604C61.8341 87.3662 61.4195 87.3741 61.0048 87.3841C60.4085 87.3982 59.8125 87.4047 59.216 87.4098C58.8573 87.4159 58.4985 87.4219 58.1289 87.4282C57.2344 87.2969 57.2344 87.2969 56.7502 86.8204C56.262 85.954 56.2679 85.3749 56.2825 84.3837C56.2853 84.0483 56.2881 83.713 56.291 83.3675C56.2982 83.0187 56.3055 82.6699 56.313 82.3106C56.3169 81.9573 56.3208 81.6041 56.3248 81.2401C56.3351 80.3683 56.3493 79.4967 56.3672 78.625C55.9202 78.627 55.9202 78.627 55.4641 78.6289C52.6569 78.6406 49.8497 78.6493 47.0425 78.655C45.5993 78.658 44.156 78.6621 42.7128 78.6686C41.3202 78.6749 39.9277 78.6784 38.5351 78.6799C38.0036 78.6809 37.472 78.683 36.9405 78.6861C36.1965 78.6903 35.4526 78.6909 34.7087 78.6907C34.4885 78.6927 34.2683 78.6948 34.0414 78.697C32.9677 78.6928 32.1118 78.6837 31.2187 78.0469C30.8862 77.3818 30.888 76.9915 30.8785 76.2513C30.8748 75.9992 30.8711 75.747 30.8673 75.4872C30.8651 75.2129 30.863 74.9386 30.8608 74.6561C30.8585 74.372 30.8561 74.088 30.8537 73.7953C30.8497 73.191 30.8466 72.5867 30.8444 71.9823C30.8411 71.3709 30.8352 70.7596 30.8266 70.1483C30.7406 64.0471 31.3932 59.0624 35.75 54.4319C36.7043 53.4856 37.6969 52.596 38.7344 51.7422C38.6334 51.5086 38.5324 51.275 38.4284 51.0342C38.2311 50.5709 38.2311 50.5709 38.0298 50.0982C37.899 49.793 37.7682 49.4878 37.6335 49.1734C36.4149 45.9892 36.8529 42.6914 38.1562 39.6016C38.6433 38.7237 39.1998 38.0154 39.8906 37.2891C40.078 37.0901 40.2655 36.8911 40.4586 36.6861C42.2428 34.9503 44.3787 33.7386 46.8744 33.4116C47.8311 33.2142 48.0522 33.0105 48.6348 32.2486C51.9142 28.2491 55.738 25.5562 60.4141 23.4141C60.3679 23.1596 60.3217 22.9051 60.274 22.6429C59.8223 19.7235 60.0702 17.175 61.7329 14.688C62.9556 13.1558 64.8177 11.8951 66.7734 11.5625C69.0448 11.39 70.8614 11.4201 72.8968 12.4771C73.4405 12.774 73.4405 12.774 74.1807 12.7007C74.7456 12.4777 75.3042 12.239 75.8608 11.9961C78.8462 10.7391 82.0471 11.162 84.6953 13.0078ZM64.6235 16.9282C63.9893 17.9177 63.8265 18.7188 63.7925 19.8731C63.7817 20.1101 63.7709 20.347 63.7597 20.5912C64.1206 22.9354 65.9602 24.4322 67.5864 25.9976C69.061 27.4308 70.4999 28.8644 71.8334 30.4313C72.4267 31.1155 73.061 31.7448 73.7109 32.375C74.5443 32.001 75.103 31.6223 75.7129 30.9444C75.8697 30.7728 76.0264 30.6012 76.1879 30.4243C76.3542 30.2394 76.5205 30.0544 76.6919 29.8638C78.3493 28.0465 80.0575 26.2975 81.8372 24.5995C83.0388 23.4275 83.9528 22.3619 84.2425 20.6499C84.246 18.5029 83.6725 17.528 82.2021 15.9527C81.0447 15.0524 79.7691 14.9204 78.3359 15.0313C76.6058 15.5265 75.4754 16.6169 74.2891 17.9219C73.4445 17.5375 72.8193 17.1049 72.1392 16.4766C71.0214 15.5036 70.196 15.0915 68.7065 14.9229C67.0097 15.0954 65.7989 15.6926 64.6235 16.9282ZM55.9686 30.3155C54.0757 31.8475 54.0757 31.8475 52.3203 33.5313C52.3203 33.7221 52.3203 33.9128 52.3203 34.1094C52.6294 34.262 52.6294 34.262 52.9447 34.4177C56.2268 36.1095 58.2768 38.1742 59.4938 41.7379C60.3286 45.0772 59.7625 48.4476 58.1016 51.4532C58.1016 51.6439 58.1016 51.8347 58.1016 52.0313C58.5501 52.4303 58.5501 52.4303 59.1313 52.8262C60.2884 53.6636 61.3628 54.5597 62.4375 55.5C62.4625 55.2064 62.4874 54.9128 62.5132 54.6103C62.8682 50.9485 63.6311 47.6498 66.4844 45.0938C69.4282 42.751 72.9645 42.3946 76.6016 42.7813C79.2305 43.3453 81.7589 44.6683 83.3403 46.8824C85.077 49.7817 85.473 52.472 85.5625 55.7891C85.7693 55.5763 85.9761 55.3636 86.1892 55.1443C86.9437 54.4064 87.7146 53.7492 88.5435 53.0972C88.7987 52.8956 89.0539 52.694 89.3169 52.4863C89.5088 52.3362 89.7007 52.186 89.8984 52.0313C89.5908 51.0845 89.269 50.18 88.8686 49.2671C87.7743 46.6501 87.7976 43.5434 88.7332 40.8753C90.1518 37.5651 92.1618 35.6514 95.4911 34.2912C95.6487 34.2312 95.8064 34.1712 95.9688 34.1094C93.9347 31.5256 91.4875 29.6588 88.6519 28.0391C88.3616 27.8718 88.3616 27.8718 88.0654 27.7011C87.8785 27.598 87.6916 27.4949 87.499 27.3887C87.3345 27.2978 87.1701 27.2069 87.0007 27.1132C86.1904 26.7863 85.576 26.6141 84.6953 26.5938C83.9169 27.189 83.9169 27.189 83.2353 28.0707C82.9585 28.3942 82.6809 28.7169 82.4024 29.039C82.2582 29.2079 82.1139 29.3769 81.9653 29.551C81.2212 30.3975 80.4242 31.1887 79.6243 31.9821C79.4665 32.1395 79.3087 32.2969 79.1462 32.459C78.666 32.9376 78.1848 33.4151 77.7036 33.8926C77.3699 34.2249 77.0362 34.5572 76.7026 34.8896C75.8989 35.6903 75.0942 36.4899 74.2891 37.2891C73.1105 36.8208 72.3208 35.9775 71.447 35.0918C71.2064 34.851 71.2064 34.851 70.961 34.6054C70.6219 34.2654 70.2835 33.9247 69.9457 33.5834C69.4355 33.0679 68.923 32.5547 68.4101 32.0419C66.879 30.5052 65.366 28.983 64.0153 27.281C61.9911 25.369 57.6706 29.0206 55.9686 30.3155ZM43.0703 39.6016C41.5135 42.0003 41.0935 43.9659 41.3359 46.8282C42.0486 49.3611 43.4895 50.9679 45.7554 52.2503C47.5583 53.0764 49.0909 53.1068 50.9473 52.4287C53.2532 51.3642 54.438 49.9548 55.5 47.6953C56.1401 45.7751 56.0831 43.4883 55.2832 41.625C54.1596 39.498 52.7766 38.2929 50.5859 37.2891C47.7647 36.4593 45.0651 37.514 43.0703 39.6016ZM92.7891 41.0469C91.7242 42.6401 91.2693 44.3529 91.6328 46.25C92.4104 48.4898 93.6899 50.3632 95.7723 51.5446C98.0206 52.556 100.058 52.6875 102.382 51.8506C104.938 50.697 106.227 49.145 107.242 46.5391C107.836 44.6194 107.225 43.0825 106.375 41.336C105.248 39.5123 103.502 38.316 101.458 37.6888C97.8487 36.994 95.1676 38.3566 92.7891 41.0469ZM68.4107 48.7353C66.7535 50.9146 66.5123 53.1001 66.7734 55.7891C67.3772 57.9888 68.6391 59.7352 70.5854 60.938C72.2409 61.7822 73.8062 62.1274 75.6316 61.6663C78.2939 60.6884 79.7463 59.1906 80.9375 56.6563C81.5776 54.736 81.5206 52.4492 80.7207 50.586C79.5971 48.4589 78.2141 47.2538 76.0234 46.25C73.1928 45.4175 70.2888 46.4892 68.4107 48.7353ZM38.2398 57.1192C33.623 62.078 34.6875 68.3604 34.6875 74.8672C41.9372 74.8672 49.1869 74.8672 56.6562 74.8672C56.9424 73.341 57.2286 71.8147 57.5234 70.2422C58.3462 67.8224 59.4284 66.0197 61.0238 64.0545C61.6796 63.1792 61.6796 63.1792 61.8594 62.1485C60.7906 59.0584 58.6477 56.2509 55.7891 54.6328C54.7519 54.7443 53.8699 55.0904 52.9165 55.5C49.8086 56.7671 47.0855 56.483 43.9375 55.5C43.3534 55.2233 42.7722 54.9393 42.2031 54.6328C40.588 54.6328 39.3759 56.0557 38.2398 57.1192ZM89.4287 57.0537C87.9613 58.6757 86.6674 60.2034 86.2852 62.4014C86.4569 63.4747 86.9002 63.8674 87.6266 64.6405C88.3537 65.5708 88.8652 66.5691 89.3926 67.6226C89.4911 67.8157 89.5897 68.0089 89.6912 68.2079C90.7711 70.4089 91.069 72.3941 91.3437 74.8672C98.5934 74.8672 105.843 74.8672 113.312 74.8672C113.83 64.9358 113.83 64.9358 109.454 56.8313C108.56 56.0242 107.667 55.3013 106.664 54.6328C105.627 54.7418 104.744 55.0906 103.792 55.5C100.727 56.7494 97.9151 56.5399 94.8125 55.5C94.3307 55.211 93.849 54.9219 93.3672 54.6328C91.7677 54.6328 90.5714 56.0199 89.4287 57.0537ZM62.4375 55.5C62.7266 56.0782 62.7266 56.0782 62.7266 56.0782L62.4375 55.5Z" fill="#147DC0"/>
<path d="M20.5912 68.7054C22.1064 69.5132 23.1259 70.601 23.7016 72.1943C24.3568 74.3685 24.9345 76.5472 25.442 78.7604C25.5174 79.0853 25.5927 79.4102 25.6704 79.745C25.8274 80.4239 25.9838 81.103 26.1395 81.7823C26.3783 82.8223 26.6203 83.8616 26.8625 84.9008C27.0155 85.5639 27.1683 86.2271 27.3209 86.8903C27.4293 87.3546 27.4293 87.3546 27.5398 87.8283C27.6056 88.117 27.6713 88.4057 27.739 88.7032C27.7971 88.9557 27.8553 89.2081 27.9151 89.4683C28.0419 90.2041 28.0612 90.8876 28.0391 91.6328C28.3068 91.5864 28.3068 91.5864 28.5799 91.539C28.8247 91.5044 29.0695 91.4697 29.3218 91.434C29.5599 91.3971 29.798 91.3602 30.0433 91.3222C33.0427 91.3948 34.7332 93.1505 36.7493 95.1884C37.0516 95.4888 37.3541 95.789 37.6569 96.0889C38.2889 96.7171 38.9177 97.3484 39.5444 97.982C40.3391 98.785 41.142 99.5792 41.9476 100.371C42.5743 100.989 43.196 101.612 43.8165 102.237C44.1102 102.531 44.4054 102.824 44.7022 103.115C47.6358 106.002 49.1631 109.188 50.5859 113.023C50.833 112.884 50.833 112.884 51.085 112.741C51.78 112.428 52.2494 112.35 53.0068 112.337C53.2177 112.329 53.4286 112.32 53.6459 112.312C55.5053 112.667 56.8813 114.299 58.1738 115.589C58.3542 115.762 58.5345 115.935 58.7203 116.114C60.0909 117.476 60.6892 118.519 60.7212 120.503C60.559 121.488 60.225 122.013 59.5577 122.747C59.2831 123.049 59.2831 123.049 59.0029 123.358C57.8847 124.545 56.7465 125.711 55.5982 126.869C55.3357 127.134 55.0732 127.399 54.8028 127.672C54.2512 128.227 53.6989 128.783 53.1462 129.337C52.4404 130.046 51.7381 130.759 51.0364 131.472C50.3614 132.156 49.6824 132.837 49.004 133.517C48.7537 133.773 48.5035 134.028 48.2456 134.291C48.0092 134.527 47.7728 134.762 47.5292 135.005C47.3235 135.212 47.1178 135.42 46.9058 135.634C45.7952 136.505 44.791 136.722 43.3955 136.745C41.8469 136.486 40.9622 135.491 39.8906 134.414C39.6372 134.174 39.3839 133.935 39.1228 133.688C36.5938 131.257 36.5938 131.257 36.3349 129.482C36.3268 128.135 36.5778 127.484 37.2891 126.32C36.9173 125.179 36.0443 124.429 35.2042 123.615C34.9743 123.388 34.9743 123.388 34.7397 123.157C34.4073 122.83 34.0744 122.503 33.7408 122.177C33.2118 121.659 32.685 121.14 32.1588 120.619C30.6626 119.14 29.1638 117.663 27.6605 116.191C26.7402 115.289 25.8235 114.384 24.909 113.477C24.5611 113.133 24.212 112.791 23.8614 112.45C20.3093 108.994 20.3093 108.994 19.6562 106.664C19.5653 106.343 19.4744 106.023 19.3807 105.692C19.0641 104.509 18.7728 103.321 18.4864 102.129C18.3772 101.683 18.2677 101.236 18.1581 100.79C17.8698 99.6135 17.5844 98.4366 17.2997 97.2595C17.018 96.0975 16.7336 94.9361 16.4495 93.7748C16.1127 92.398 15.7767 91.021 15.444 89.6432C14.9511 87.6024 14.4558 85.5626 13.9396 83.5275C13.7196 82.6595 13.5023 81.7908 13.2852 80.922C13.1834 80.518 13.0803 80.1144 12.9758 79.7111C11.4072 73.6541 11.4072 73.6541 12.9084 71.0483C14.7908 68.5422 17.5572 67.7771 20.5912 68.7054ZM15.8984 73.1328C15.5955 74.1592 15.6069 74.8979 15.8573 75.9305C15.9196 76.1939 15.982 76.4572 16.0462 76.7285C16.1525 77.1565 16.1525 77.1565 16.2609 77.5932C16.3701 78.0482 16.3701 78.0482 16.4816 78.5124C16.7235 79.5158 16.9701 80.518 17.2173 81.5201C17.3879 82.2182 17.5585 82.9163 17.7289 83.6144C18.0874 85.0788 18.4484 86.5424 18.8109 88.0058C19.2743 89.8765 19.7281 91.7493 20.1801 93.6228C20.5298 95.0662 20.8854 96.5081 21.2426 97.9496C21.4125 98.6392 21.5803 99.3293 21.7459 100.02C21.9789 100.989 22.2201 101.955 22.4633 102.921C22.5625 103.346 22.5625 103.346 22.6638 103.779C23.4185 106.7 25.2874 108.63 27.3875 110.704C27.5653 110.882 27.743 111.059 27.9261 111.242C28.2982 111.614 28.6711 111.984 29.0446 112.354C29.6101 112.914 30.1732 113.477 30.736 114.04C32.3275 115.626 33.9163 117.197 35.6293 118.654C36.5646 119.471 37.4291 120.36 38.3008 121.244C38.4834 121.427 38.6659 121.611 38.8541 121.801C39.2966 122.247 39.7382 122.694 40.1797 123.141C41.7503 122.478 42.8409 121.187 44.0326 120.005C44.4612 119.582 44.8955 119.165 45.3303 118.749C45.5999 118.482 45.8695 118.216 46.1472 117.941C46.3957 117.698 46.6442 117.455 46.9002 117.204C47.4867 116.536 47.4867 116.536 47.3621 115.749C47.2812 115.517 47.2004 115.286 47.1172 115.047C47.0629 114.857 47.0086 114.668 46.9527 114.473C46.7526 113.868 46.5478 113.265 46.3403 112.662C46.2734 112.456 46.2066 112.25 46.1376 112.038C45.1058 109.047 43.158 106.908 40.9475 104.705C40.691 104.447 40.4345 104.189 40.1703 103.923C39.494 103.244 38.8156 102.568 38.1365 101.892C37.5836 101.34 37.0344 100.784 36.4852 100.228C35.8254 99.5617 35.1614 98.8997 34.4978 98.2372C34.2529 97.9891 34.0081 97.741 33.7558 97.4854C33.5243 97.2565 33.2927 97.0277 33.0542 96.7919C32.8527 96.5905 32.6513 96.3891 32.4437 96.1816C31.6742 95.5844 31.0068 95.3285 30.0625 95.1015C29.0165 95.4819 28.6987 95.8125 28.1836 96.7997C27.9973 97.9638 28.231 98.1966 28.9062 99.1484C29.4778 99.7913 30.0846 100.394 30.6982 100.997C30.8702 101.168 31.0422 101.339 31.2194 101.516C31.7659 102.059 32.3143 102.6 32.8628 103.141C33.235 103.51 33.607 103.88 33.9789 104.249C34.8881 105.152 35.799 106.053 36.7109 106.953C36.2542 107.913 35.8209 108.595 34.9766 109.266C33.6566 109.104 32.9355 108.217 32.0408 107.312C31.8719 107.144 31.7031 106.976 31.5291 106.803C31.1723 106.447 30.8167 106.09 30.4621 105.731C29.9229 105.188 29.3793 104.649 28.8351 104.11C28.4882 103.762 28.1415 103.415 27.7952 103.067C27.634 102.907 27.4729 102.748 27.3069 102.584C25.9469 101.199 24.7711 99.7059 24.6064 97.7031C24.5833 97.4765 24.5602 97.25 24.5364 97.0165C24.5703 96.2578 24.5703 96.2578 24.8831 95.3276C25.182 94.096 25.0862 93.3974 24.8033 92.1701C24.7596 91.9748 24.716 91.7794 24.671 91.5782C24.5267 90.938 24.3754 90.2997 24.2237 89.6613C24.1209 89.214 24.0184 88.7667 23.9163 88.3193C23.7018 87.3842 23.484 86.4498 23.2637 85.516C22.9818 84.3213 22.7066 83.1252 22.4337 81.9285C22.2227 81.0055 22.0091 80.0832 21.7946 79.161C21.6922 78.7202 21.5904 78.2793 21.4893 77.8382C21.3473 77.2213 21.2019 76.6053 21.0556 75.9894C20.9736 75.6392 20.8917 75.2891 20.8072 74.9283C20.3902 73.564 19.9836 72.7729 18.7891 71.9765C17.4558 71.766 16.8223 72.1832 15.8984 73.1328ZM51.3653 117.326C50.9907 117.693 50.9907 117.693 50.6086 118.069C50.3403 118.337 50.072 118.605 49.7955 118.881C49.5175 119.157 49.2393 119.433 48.9611 119.709C48.3784 120.288 47.7975 120.868 47.2175 121.45C46.4733 122.196 45.7238 122.937 44.9729 123.676C44.3971 124.244 43.8246 124.816 43.253 125.389C42.8441 125.797 42.432 126.202 42.0198 126.607C41.7737 126.855 41.5276 127.104 41.2741 127.36C41.0553 127.579 40.8364 127.797 40.611 128.022C40.1133 128.592 40.1133 128.592 40.2164 129.244C40.6084 130.09 41.216 130.639 41.8779 131.289C42.1335 131.543 42.3892 131.798 42.6525 132.06C43.3253 132.731 43.3253 132.731 44.2266 132.969C48.4237 128.772 52.6209 124.574 56.9453 120.25C56.3748 119.109 55.8313 118.471 54.9399 117.576C54.5604 117.189 54.5604 117.189 54.1732 116.795C52.9161 115.727 52.3936 116.309 51.3653 117.326Z" fill="#147DC0"/>
<path d="M133.98 69.7183C135.256 70.9858 135.897 72.2328 135.912 74.0461C135.895 75.444 135.638 76.7168 135.299 78.0682C135.209 78.4404 135.209 78.4404 135.118 78.8201C134.921 79.6343 134.72 80.4473 134.519 81.2604C134.38 81.8333 134.241 82.4062 134.102 82.9791C133.736 84.4859 133.366 85.9919 132.996 87.4977C132.697 88.7129 132.402 89.9287 132.106 91.1446C131.749 92.6136 131.391 94.0823 131.032 95.551C130.966 95.8237 130.899 96.0964 130.831 96.3773C130.453 97.9219 130.071 99.4654 129.684 101.008C129.498 101.76 129.316 102.512 129.134 103.265C128.065 107.621 126.486 110.143 123.294 113.272C122.969 113.595 122.644 113.918 122.319 114.242C121.469 115.088 120.615 115.93 119.76 116.772C118.893 117.628 118.029 118.487 117.164 119.346C115.642 120.856 114.118 122.364 112.591 123.87C111.865 124.588 111.143 125.309 110.422 126.031C110.559 126.204 110.696 126.377 110.837 126.555C111.659 127.706 111.672 128.697 111.578 130.078C110.966 131.62 110.035 132.612 108.868 133.746C108.705 133.91 108.542 134.074 108.374 134.243C107.086 135.514 105.98 136.561 104.081 136.564C103.845 136.57 103.61 136.575 103.368 136.581C101.107 136.149 99.4431 133.936 97.8883 132.384C97.6006 132.098 97.3128 131.812 97.025 131.526C96.4244 130.929 95.8249 130.331 95.2262 129.732C94.4606 128.966 93.6912 128.205 92.9206 127.444C92.326 126.856 91.734 126.265 91.1427 125.673C90.8601 125.391 90.5766 125.11 90.2921 124.83C89.8944 124.438 89.5007 124.042 89.1072 123.646C88.8826 123.422 88.6581 123.199 88.4267 122.968C87.5286 121.837 87.3019 120.848 87.2788 119.419C87.528 117.877 88.5572 116.993 89.6094 115.914C89.9542 115.506 90.2975 115.096 90.6392 114.686C92.5413 112.548 92.5413 112.548 94.0774 112.357C95.3875 112.323 96.2511 112.409 97.4141 113.023C97.4781 112.866 97.5421 112.709 97.608 112.547C97.9027 111.826 98.2004 111.106 98.498 110.386C98.5987 110.138 98.6993 109.891 98.8029 109.636C98.9538 109.273 98.9538 109.273 99.1078 108.902C99.1986 108.681 99.2894 108.46 99.383 108.232C100.111 106.747 101.067 105.539 102.225 104.367C102.489 104.098 102.753 103.828 103.026 103.551C103.313 103.263 103.599 102.974 103.886 102.686C104.184 102.386 104.481 102.086 104.779 101.786C105.4 101.159 106.024 100.534 106.648 99.9091C107.443 99.1117 108.235 98.3097 109.025 97.5065C109.637 96.8858 110.252 96.2684 110.868 95.6518C111.161 95.3576 111.453 95.0623 111.744 94.7657C113.517 92.9586 114.902 91.598 117.482 91.2489C118.373 91.2858 119.111 91.3494 119.961 91.6328C119.992 91.2802 120.023 90.9275 120.055 90.5642C120.254 88.7848 120.657 87.06 121.06 85.3175C121.18 84.7923 121.18 84.7923 121.303 84.2565C121.472 83.5195 121.643 82.7826 121.814 82.046C121.988 81.2949 122.161 80.5434 122.331 79.7914C122.579 78.6999 122.83 77.6094 123.083 76.5191C123.158 76.1852 123.234 75.8512 123.311 75.5071C123.955 72.7717 124.7 70.3564 127.188 68.7969C129.429 67.7235 132.085 68.1711 133.98 69.7183ZM128.055 72.5547C127.296 73.6305 126.976 74.6324 126.686 75.9098C126.644 76.0957 126.601 76.2815 126.556 76.473C126.416 77.0837 126.28 77.695 126.144 78.3066C126.048 78.7339 125.951 79.1612 125.854 79.5885C125.652 80.4828 125.452 81.3774 125.254 82.2724C125 83.4161 124.74 84.5584 124.479 85.7004C124.278 86.5822 124.08 87.4647 123.884 88.3474C123.789 88.7688 123.694 89.1899 123.597 89.6107C123.463 90.2006 123.332 90.7914 123.203 91.3826C123.128 91.7178 123.053 92.053 122.976 92.3983C122.839 93.4653 122.949 94.3362 123.141 95.3906C123.185 95.9135 123.216 96.4378 123.231 96.9624C123.247 97.3375 123.247 97.3375 123.264 97.7201C122.945 99.9251 121.589 101.443 120.038 102.942C119.853 103.125 119.669 103.308 119.479 103.496C118.895 104.073 118.308 104.646 117.721 105.219C117.322 105.612 116.923 106.005 116.525 106.399C115.553 107.357 114.579 108.313 113.602 109.266C112.642 108.809 111.96 108.376 111.289 107.531C111.449 106.194 112.369 105.505 113.303 104.626C113.657 104.283 114.01 103.941 114.364 103.598C114.922 103.061 115.481 102.527 116.042 101.994C116.585 101.478 117.121 100.957 117.657 100.435C117.826 100.278 117.994 100.121 118.168 99.9599C119.259 98.8895 119.642 98.1365 119.672 96.5469C119.267 95.6421 118.932 95.4467 118.028 95.0474C116.937 95.1091 116.798 95.2466 116.023 95.9551C115.819 96.1405 115.615 96.3258 115.406 96.5167C113.49 98.3156 111.609 100.149 109.739 101.995C109.208 102.517 108.675 103.036 108.139 103.553C103.908 107.563 103.908 107.563 101.461 112.734C101.278 113.224 101.092 113.712 100.901 114.198C100.548 115.172 100.578 115.786 100.883 116.781C101.503 117.561 101.503 117.561 102.302 118.314C102.513 118.522 102.513 118.522 102.729 118.735C103.177 119.177 103.628 119.614 104.081 120.051C104.386 120.351 104.691 120.651 104.996 120.951C105.742 121.684 106.491 122.413 107.242 123.141C108.362 122.679 109.086 121.958 109.944 121.114C110.17 120.894 110.17 120.894 110.4 120.668C110.897 120.182 111.391 119.693 111.885 119.203C112.14 118.952 112.14 118.952 112.4 118.695C113.298 117.807 114.195 116.916 115.091 116.025C116.012 115.108 116.939 114.199 117.867 113.29C118.584 112.586 119.296 111.878 120.007 111.169C120.346 110.832 120.687 110.496 121.03 110.162C123.035 108.208 124.49 106.558 125.164 103.773C125.282 103.325 125.402 102.876 125.521 102.427C125.961 100.753 126.373 99.0718 126.784 97.3904C126.937 96.7704 127.091 96.1504 127.244 95.5305C127.564 94.237 127.882 92.9433 128.199 91.6493C128.606 89.9923 129.015 88.3359 129.424 86.6796C129.74 85.4019 130.055 84.124 130.37 82.8461C130.52 82.2351 130.671 81.6242 130.822 81.0133C131.032 80.1606 131.241 79.3077 131.45 78.4547C131.512 78.2038 131.574 77.9528 131.638 77.6943C132.329 75.4427 132.329 75.4427 132.065 73.2232C131.466 72.4833 130.931 72.1031 130.078 71.6875C129.207 71.6875 128.758 72.0569 128.055 72.5547ZM93.68 116.962C93.3627 117.285 93.0478 117.61 92.7349 117.938C92.4926 118.186 92.4926 118.186 92.2454 118.439C91.8465 118.848 91.4503 119.26 91.0547 119.672C91.4835 120.668 92.0463 121.312 92.8129 122.074C93.1774 122.438 93.1774 122.438 93.5493 122.81C93.8119 123.07 94.0745 123.329 94.345 123.597C94.6137 123.865 94.8823 124.132 95.1591 124.408C95.8716 125.119 96.5859 125.827 97.3004 126.535C98.03 127.259 98.758 127.984 99.4861 128.71C100.914 130.131 102.343 131.55 103.773 132.969C104.861 132.459 105.602 131.823 106.465 130.981C106.727 130.732 106.988 130.482 107.257 130.225C107.887 129.581 107.887 129.581 107.782 128.954C107.455 128.158 107.005 127.708 106.398 127.098C106.157 126.855 105.917 126.612 105.67 126.362C105.408 126.102 105.147 125.843 104.878 125.575C104.611 125.307 104.344 125.039 104.069 124.763C103.504 124.197 102.938 123.633 102.37 123.069C101.642 122.347 100.918 121.62 100.196 120.892C99.5062 120.199 98.8134 119.509 98.1209 118.818C97.8607 118.556 97.6006 118.294 97.3325 118.025C97.0904 117.785 96.8484 117.546 96.599 117.299C96.3861 117.087 96.1732 116.875 95.9539 116.656C94.9504 115.849 94.598 116.136 93.68 116.962Z" fill="#147DC0"/>
<path d="M67.0625 83.8281C68.2072 83.8281 69.3519 83.8281 70.5312 83.8281C70.5312 85.0682 70.5312 86.3083 70.5312 87.5859C69.3866 87.5859 68.2419 87.5859 67.0625 87.5859C67.0625 86.3459 67.0625 85.1058 67.0625 83.8281Z" fill="#147DC0"/>
</svg>
