<svg width="76" height="77" viewBox="0 0 76 77" fill="none" xmlns="http://www.w3.org/2000/svg">
<g clip-path="url(#clip0_1056_3015)">
<path d="M54.3281 8.5722C54.4073 8.64145 54.4865 8.71071 54.5681 8.78207C58.8179 12.5366 61.422 17.5479 62.5479 23.1131C62.5728 23.2354 62.5977 23.3576 62.6233 23.4836C62.6455 23.6008 62.6677 23.7179 62.6905 23.8386C62.7193 23.9909 62.7193 23.9909 62.7487 24.1463C62.8063 24.6708 62.7914 25.189 62.7891 25.7167C62.5939 25.7176 62.3988 25.7185 62.1977 25.7194C60.3587 25.728 58.5197 25.7389 56.6807 25.7522C55.7352 25.7589 54.7898 25.7648 53.8443 25.7688C52.9319 25.7727 52.0195 25.7788 51.1071 25.7864C50.759 25.7889 50.4109 25.7906 50.0628 25.7916C49.5752 25.793 49.0877 25.7972 48.6002 25.8021C48.3843 25.8018 48.3843 25.8018 48.164 25.8014C47.2399 25.8145 46.6065 25.944 45.876 26.562C45.7932 26.6496 45.7104 26.7372 45.6251 26.8275C45.5295 26.9273 45.4339 27.0271 45.3354 27.1299C45.2351 27.2366 45.1349 27.3433 45.0316 27.4533C44.8148 27.6787 44.5978 27.9041 44.3808 28.1294C44.0415 28.4844 43.7029 28.8401 43.3655 29.1969C43.0384 29.542 42.7086 29.8842 42.3783 30.2261C42.2778 30.334 42.1773 30.4419 42.0737 30.5531C41.9786 30.651 41.8834 30.749 41.7854 30.8498C41.7027 30.937 41.62 31.0241 41.5348 31.1139C41.2656 31.2812 41.2656 31.2812 40.8826 31.24C40.5362 31.1347 40.1964 31.0182 39.8555 30.8958C38.0934 30.3616 36.4041 30.6873 34.7703 31.4797C32.9718 32.4995 31.9826 33.9644 31.3279 35.911C30.9514 37.5217 31.2331 39.4826 32.0625 40.9062C32.1268 41.02 32.1911 41.1338 32.2573 41.251C33.2179 42.8299 34.5927 43.7844 36.3583 44.2987C38.1084 44.6793 40.0217 44.4192 41.5521 43.5034C43.224 42.3534 44.2886 40.7792 44.7261 38.7725C44.9203 37.5674 44.8086 36.6391 44.4947 35.4669C44.4578 35.3263 44.4209 35.1858 44.3828 35.0409C44.343 34.9284 44.3031 34.8159 44.2621 34.6999C44.2088 33.9097 44.8453 33.3184 45.3193 32.7383C46.8389 30.9866 48.182 29.8825 50.5379 29.698C52.1433 29.622 53.7475 29.6965 55.3506 29.7889C56.1912 29.8326 57.0324 29.8514 57.8738 29.8724C59.5136 29.9171 61.1511 29.9886 62.7891 30.0781C62.7901 30.2957 62.7908 30.5134 62.7914 30.7311C62.7919 30.8523 62.7923 30.9735 62.7928 31.0984C62.7862 31.6885 62.6742 32.2465 62.5571 32.8227C62.5311 32.9515 62.505 33.0802 62.4781 33.2129C61.9667 35.6089 61.1476 37.8649 59.9688 40.0038C59.9171 40.0987 59.8655 40.1936 59.8123 40.2914C58.5865 42.5218 57.0736 44.3135 55.2837 46.0947C52.4669 48.9025 50.9825 51.7577 50.0234 55.6445C42.088 55.6445 34.1525 55.6445 25.9766 55.6445C25.7316 54.7015 25.4867 53.7586 25.2344 52.787C24.1871 50.0192 22.6105 47.9703 20.5215 45.9255C18.5472 43.9628 16.994 41.901 15.7344 39.4023C15.6624 39.2595 15.6624 39.2595 15.5889 39.1138C14.3523 36.6247 13.1915 33.5514 13.2073 30.726C13.2081 30.5438 13.2081 30.5438 13.2089 30.3579C13.2096 30.2656 13.2102 30.1732 13.2109 30.0781C13.4061 30.0772 13.6012 30.0763 13.8023 30.0754C15.6413 30.0668 17.4803 30.0558 19.3193 30.0426C20.2648 30.0359 21.2102 30.03 22.1557 30.026C23.0681 30.022 23.9805 30.016 24.8929 30.0084C25.241 30.0059 25.5891 30.0042 25.9372 30.0032C26.4248 30.0018 26.9123 29.9976 27.3998 29.9927C27.6157 29.993 27.6157 29.993 27.836 29.9933C28.7601 29.9803 29.3935 29.8507 30.124 29.2328C30.2068 29.1452 30.2896 29.0576 30.3749 28.9673C30.4705 28.8675 30.5661 28.7677 30.6647 28.6649C30.7649 28.5582 30.8651 28.4515 30.9684 28.3415C31.1852 28.1161 31.4022 27.8907 31.6192 27.6653C31.9585 27.3104 32.2971 26.9547 32.6345 26.5979C32.9616 26.2528 33.2914 25.9106 33.6217 25.5687C33.7222 25.4608 33.8227 25.3529 33.9263 25.2417C34.0214 25.1437 34.1166 25.0458 34.2146 24.9449C34.2973 24.8578 34.38 24.7707 34.4652 24.6809C34.7344 24.5136 34.7344 24.5136 35.1147 24.5548C35.4894 24.6679 35.8637 24.782 36.2373 24.899C37.9291 25.3648 39.6437 25.1518 41.21 24.3444C42.5493 23.5194 43.5407 22.4764 44.2344 21.0546C44.283 20.9594 44.3316 20.8642 44.3817 20.7662C45.0049 19.356 44.9793 17.5476 44.5313 16.0917C43.8104 14.2336 42.7409 12.9168 40.9688 12.0312C40.8488 11.969 40.7288 11.9067 40.6052 11.8426C39.1116 11.1775 37.2624 11.196 35.7085 11.6552C33.8437 12.4052 32.5739 13.76 31.71 15.5748C31.0412 17.2761 30.9832 19.0622 31.6879 20.7685C31.7891 21.1412 31.7446 21.2888 31.6172 21.6562C30.6116 23.3049 29.095 25.237 27.2151 25.8441C25.0837 26.3142 22.8201 26.1154 20.6596 25.9955C19.818 25.9534 18.9758 25.9353 18.1334 25.915C16.4913 25.8719 14.8514 25.803 13.2109 25.7167C13.189 20.0133 16.1697 14.3381 19.8906 10.2265C19.9848 10.1222 20.0789 10.0179 20.1759 9.91044C24.4585 5.38552 30.9398 2.89545 37.0505 2.7124C43.2907 2.61707 49.5478 4.38144 54.3281 8.5722Z" fill="#147DC0"/>
<path d="M26.125 60.0059C33.9625 60.0059 41.8 60.0059 49.875 60.0059C49.875 64.4498 49.5436 67.9457 46.4319 71.1724C44.7293 72.8637 42.7358 74.0085 40.375 74.4434C40.3605 74.5432 40.3459 74.643 40.3309 74.7459C40.1974 75.5451 40.0887 76.123 39.4844 76.6992C38.7559 77.1597 37.9378 77.091 37.1094 77C36.4476 76.6824 36.0523 76.337 35.7734 75.6465C35.7396 75.2372 35.7528 74.8555 35.7734 74.4434C35.6938 74.4339 35.6142 74.4244 35.5322 74.4146C33.4847 74.0904 31.6881 73.0932 30.1328 71.7363C30.0142 71.633 29.8955 71.5297 29.7733 71.4232C27.6065 69.3831 26.486 66.5415 26.125 63.6152C26.125 62.4241 26.125 61.233 26.125 60.0059Z" fill="#147DC0"/>
<path d="M61.75 48.7265C62.2215 49.0528 62.6144 49.4404 63.0131 49.8532C63.2644 50.1108 63.5218 50.3611 63.78 50.6117C63.9694 50.7977 64.1586 50.9839 64.3477 51.1704C64.4385 51.2591 64.5293 51.3478 64.6229 51.4392C65.2811 52.1016 65.5805 52.5688 65.6558 53.5296C65.6379 54.1286 65.4935 54.5365 65.1641 55.0429C64.5463 55.6077 64.1713 55.8201 63.3457 55.8419C63.2072 55.8475 63.0686 55.8531 62.9259 55.8589C61.765 55.6875 60.9413 54.5744 60.1543 53.774C59.9623 53.5831 59.9623 53.5831 59.7664 53.3883C59.6441 53.2645 59.5218 53.1408 59.3959 53.0132C59.2849 52.9013 59.174 52.7893 59.0597 52.674C58.5219 52.0209 58.4171 51.3897 58.4374 50.5629C58.5369 49.8585 58.9523 49.446 59.4492 48.9803C60.1696 48.4876 60.9312 48.4578 61.75 48.7265Z" fill="#147DC0"/>
<path d="M16.1797 48.7266C16.7908 49.1096 17.2488 49.5465 17.5156 50.2305C17.5655 50.5865 17.5655 50.5865 17.5713 50.9637C17.5755 51.0874 17.5797 51.211 17.584 51.3385C17.3851 52.4899 16.2913 53.3204 15.5117 54.1031C15.3849 54.2328 15.258 54.3625 15.1273 54.4961C15.0046 54.62 14.882 54.7438 14.7556 54.8715C14.6443 54.9839 14.5331 55.0963 14.4184 55.2121C13.7342 55.8213 13.1634 55.8624 12.2745 55.8408C11.6919 55.774 11.4032 55.6074 10.9844 55.1934C10.49 54.4695 10.2768 53.8269 10.3906 52.9375C10.8208 51.9245 11.5209 51.2693 12.2832 50.5031C12.4141 50.3675 12.545 50.2319 12.6798 50.0922C13.7199 49.0391 14.6508 48.2294 16.1797 48.7266Z" fill="#147DC0"/>
<path d="M13.5078 9.91466e-05C14.429 0.490765 15.1197 1.28806 15.8457 2.03037C15.9737 2.1589 16.1017 2.28743 16.2336 2.41986C16.3559 2.54413 16.4782 2.66839 16.6041 2.79642C16.7151 2.90916 16.826 3.02189 16.9403 3.13803C17.5129 3.79823 17.5813 4.33515 17.5626 5.19328C17.4718 5.91098 17.0698 6.30847 16.5972 6.81467C16.031 7.15884 15.5032 7.29996 14.8438 7.21885C13.6997 6.78031 12.961 5.9982 12.1162 5.12278C11.9825 4.98834 11.8487 4.85389 11.7109 4.71537C10.4546 3.43014 10.4546 3.43014 10.335 2.35935C10.425 1.46271 10.729 0.85411 11.3647 0.225685C12.0739 -0.0878502 12.7462 -0.147296 13.5078 9.91466e-05Z" fill="#147DC0"/>
<path d="M64.125 3.02461e-05C64.7952 0.308679 65.1765 0.710965 65.5067 1.36471C65.7455 2.03844 65.7017 2.63784 65.4234 3.3C64.9834 4.08015 64.3504 4.66114 63.7261 5.2919C63.5964 5.42751 63.4668 5.56311 63.3332 5.70283C62.5002 6.54937 61.8278 7.18818 60.5985 7.23405C59.7595 7.06294 59.3123 6.82316 58.79 6.12904C58.4362 5.53522 58.3864 4.88595 58.4844 4.21097C58.7704 3.5474 59.0968 3.08278 59.6017 2.57312C59.7315 2.44168 59.8614 2.31024 59.9951 2.17482C60.1303 2.04028 60.2655 1.90574 60.4048 1.76712C60.6067 1.56182 60.6067 1.56182 60.8127 1.35237C61.9128 0.24678 62.5427 -0.183786 64.125 3.02461e-05Z" fill="#147DC0"/>
<path d="M3.64691 25.5302C3.97726 25.5287 4.30748 25.524 4.63781 25.5193C4.84935 25.5183 5.06089 25.5175 5.27243 25.517C5.46393 25.5155 5.65544 25.5141 5.85274 25.5127C6.65341 25.5937 7.12079 25.8662 7.69092 26.431C8.16481 27.1444 8.22939 27.7495 8.08985 28.5835C7.89284 29.2911 7.42471 29.689 6.82813 30.078C6.04155 30.3437 5.19248 30.2623 4.36873 30.2645C4.03837 30.266 3.70815 30.2707 3.37783 30.2754C3.16628 30.2764 2.95474 30.2772 2.7432 30.2778C2.5517 30.2792 2.3602 30.2806 2.16289 30.282C1.39481 30.2043 0.914858 29.9711 0.39893 29.3919C-0.110122 28.6469 -0.0904897 27.9594 3.79025e-06 27.0702C0.805109 25.4388 2.0437 25.5345 3.64691 25.5302Z" fill="#147DC0"/>
<path d="M71.6313 25.5302C71.9616 25.5287 72.2919 25.524 72.6222 25.5193C72.8337 25.5183 73.0453 25.5175 73.2568 25.517C73.4483 25.5155 73.6398 25.5141 73.8371 25.5127C74.6052 25.5904 75.0852 25.8236 75.6011 26.4028C76.1101 27.1478 76.0905 27.8353 76 28.7245C75.7028 29.3268 75.3795 29.7259 74.8125 30.078C74.0259 30.3437 73.1769 30.2623 72.3531 30.2645C72.0228 30.266 71.6925 30.2707 71.3622 30.2754C71.1507 30.2764 70.9391 30.2772 70.7276 30.2778C70.5361 30.2792 70.3446 30.2806 70.1473 30.282C69.4131 30.2078 68.9265 29.9686 68.3926 29.4577C67.9935 28.7934 67.766 28.1269 67.8864 27.3434C68.1312 26.5669 68.5158 26.1737 69.1719 25.7167C69.9585 25.4511 70.8075 25.5324 71.6313 25.5302Z" fill="#147DC0"/>
<path d="M39.5203 35.3142C40.1582 35.7494 40.4002 36.2209 40.5884 36.9585C40.721 37.7637 40.6051 38.3828 40.2266 39.1015C39.719 39.7213 39.2717 40.108 38.4743 40.2048C37.5489 40.2167 36.9308 40.22 36.2188 39.5527C35.6664 38.962 35.3533 38.4076 35.3125 37.5824C35.3557 36.6379 35.6963 35.994 36.3672 35.3418C37.4507 34.6912 38.4487 34.6989 39.5203 35.3142Z" fill="#147DC0"/>
<path d="M38.8906 15.6405C39.4102 15.9037 39.4102 15.9037 39.7813 16.2421C39.8915 16.332 40.0017 16.422 40.1152 16.5147C40.61 17.1413 40.7066 17.8002 40.6533 18.5825C40.5258 19.4556 40.1703 19.9682 39.4751 20.5C38.7332 20.9318 38.0925 21.0262 37.2491 20.8349C36.4659 20.5798 36.0894 20.235 35.625 19.5507C35.3264 18.6432 35.3166 17.6309 35.7271 16.7684C36.7192 15.6817 37.4547 15.5015 38.8906 15.6405Z" fill="#147DC0"/>
</g>
<defs>
<clipPath id="clip0_1056_3015">
<rect width="76" height="77" fill="white"/>
</clipPath>
</defs>
</svg>
