<svg width="140" height="140" viewBox="0 0 140 140" fill="none" xmlns="http://www.w3.org/2000/svg">
<path d="M75.4035 63.3349C77.7634 64.7846 79.1876 66.5604 80.1171 69.1796C80.7775 72.0608 80.1589 74.5732 78.7499 77.1093C78.9251 77.219 79.1003 77.3286 79.2808 77.4415C79.5173 77.597 79.7538 77.7524 79.9975 77.9126C80.2291 78.0617 80.4607 78.2108 80.6993 78.3644C81.9225 79.3912 82.8081 80.6691 83.7423 81.9593C87.7269 87.4824 87.7269 87.4824 93.6327 90.3608C97.0381 90.7575 100.518 90.6156 103.926 90.2851C105.674 90.1383 106.584 90.2756 108.008 91.3281C109.341 92.5913 109.846 93.8418 110.024 95.6518C109.97 97.2396 109.452 98.6576 108.297 99.7683C105.701 101.767 102.607 101.334 99.4598 101.388C98.7541 101.403 98.0486 101.425 97.3434 101.455C91.8495 101.682 88.2501 100.682 83.6718 97.6171C83.6718 99.4218 83.6718 101.227 83.6718 103.086C84.3937 103.086 85.1156 103.086 85.8593 103.086C87.6131 103.612 88.2778 104.855 89.1406 106.367C89.407 106.826 89.407 106.826 89.6789 107.293C91.3331 110.267 91.3331 110.267 90.9884 112.119C90.2545 114.022 89.0746 114.656 87.3461 115.613C87.1066 115.75 86.8671 115.887 86.6203 116.029C84.8487 117.031 84.8487 117.031 84.2187 117.031C84.2187 117.212 84.2187 117.392 84.2187 117.578C84.371 117.634 84.5232 117.691 84.6801 117.749C86.0159 118.543 86.9801 119.907 87.3686 121.408C87.632 123.312 87.3381 124.952 86.3453 126.614C85.2064 128.099 83.7503 128.881 81.9084 129.166C78.7007 129.322 76.0074 127.384 73.3949 125.752C73.1526 125.608 72.9103 125.463 72.6606 125.313C72.4446 125.18 72.2286 125.047 72.0061 124.909C71.3667 124.62 71.3667 124.62 70.6984 124.87C70.4679 124.991 70.2374 125.111 69.9999 125.234C69.6335 125.424 69.6335 125.424 69.2597 125.618C68.9989 125.763 68.738 125.907 68.4693 126.056C68.1826 126.213 67.8958 126.37 67.6004 126.533C66.9999 126.864 66.3997 127.196 65.7996 127.528C65.37 127.764 65.37 127.764 64.9317 128.004C64.6712 128.148 64.4107 128.292 64.1423 128.44C62.49 129.258 60.6435 129.387 58.8809 128.834C57.2054 128.08 56.1409 127.107 55.2343 125.508C54.6886 123.871 54.6084 121.783 55.2279 120.16C55.5611 119.619 55.9084 119.148 56.3281 118.672C56.5255 118.446 56.7228 118.221 56.9262 117.988C57.4218 117.578 57.4218 117.578 57.9687 117.578C57.9687 117.398 57.9687 117.217 57.9687 117.031C57.7826 116.962 57.5965 116.893 57.4047 116.822C56.4635 116.426 55.5769 115.957 54.6874 115.459C54.5225 115.371 54.3575 115.283 54.1876 115.192C52.8541 114.444 51.7563 113.557 51.184 112.085C51.1671 111.918 51.1502 111.751 51.1328 111.58C51.1102 111.414 51.0876 111.248 51.0644 111.076C51.2457 109.465 52.268 107.877 53.0126 106.453C53.1018 106.275 53.191 106.097 53.2829 105.914C54.0131 104.52 54.7844 103.6 56.3281 103.086C57.0499 103.086 57.7718 103.086 58.5156 103.086C58.5156 101.281 58.5156 99.4765 58.5156 97.6171C58.134 97.8706 57.7525 98.124 57.3594 98.3851C52.8479 101.203 49.242 101.651 44.0063 101.445C43.3147 101.434 42.6231 101.425 41.9315 101.417C35.3444 101.297 35.3444 101.297 33.3593 99.2578C32.3163 97.533 31.9639 96.0341 32.3852 94.0443C32.9037 92.3366 33.997 91.382 35.4977 90.483C36.2045 90.1881 36.6179 90.2115 37.3756 90.2947C37.6305 90.3189 37.8853 90.3431 38.148 90.368C38.4239 90.3944 38.6998 90.4208 38.984 90.448C46.6099 91.0993 46.6099 91.0993 53.2743 87.9422C55.9749 85.4666 58.2575 82.5883 60.3601 79.5992C60.9209 78.8266 61.3076 78.4143 62.1215 77.9467C62.3059 77.8371 62.4902 77.7275 62.6801 77.6146C63.164 77.3828 63.164 77.3828 63.7109 77.3828C63.5676 77.1353 63.5676 77.1353 63.4214 76.8829C63.297 76.6644 63.1726 76.4458 63.0444 76.2207C62.9207 76.0049 62.7969 75.7892 62.6695 75.567C61.6614 73.5707 61.7901 70.8037 62.2379 68.6445C63.0637 66.3345 64.6238 64.5483 66.8041 63.4375C69.4134 62.2578 72.7702 62.0603 75.4035 63.3349ZM66.2914 68.9404C65.6361 70.3086 65.6772 71.8093 65.8984 73.2812C66.4493 74.8249 67.4584 75.805 68.8795 76.586C70.393 77.2455 71.4995 77.232 73.059 76.6821C74.7307 75.9283 75.5901 74.8826 76.2719 73.1958C76.7823 71.4731 76.3541 70.1302 75.5712 68.5644C74.5223 67.3498 73.5557 66.5939 71.9493 66.3032C69.5521 66.1719 67.6974 66.9466 66.2914 68.9404ZM63.164 82.3046C62.6224 83.5782 62.5414 84.7498 62.555 86.1145C62.555 86.3254 62.5549 86.5363 62.5548 86.7537C62.5552 87.4461 62.5594 88.1384 62.5637 88.8308C62.5647 89.3128 62.5655 89.7948 62.5661 90.2767C62.5681 91.5417 62.5735 92.8066 62.5796 94.0716C62.5852 95.3638 62.5877 96.656 62.5904 97.9483C62.5963 100.481 62.6056 103.014 62.6171 105.547C62.9046 105.702 62.9046 105.702 63.1978 105.86C64.0697 106.331 64.9413 106.802 65.8129 107.273C66.1145 107.436 66.416 107.598 66.7267 107.766C67.0184 107.924 67.3101 108.081 67.6106 108.244C67.8783 108.388 68.1461 108.533 68.422 108.682C69.1796 109.102 69.1796 109.102 69.8587 109.582C70.7781 110.036 71.2106 109.932 72.1874 109.648C73.0708 109.245 73.0708 109.245 73.9626 108.724C74.1242 108.634 74.2857 108.543 74.4522 108.45C74.9632 108.162 75.4723 107.871 75.9814 107.581C76.3295 107.384 76.6777 107.188 77.026 106.991C77.8756 106.512 78.7234 106.03 79.5703 105.547C79.5893 102.723 79.6038 99.8993 79.6128 97.0754C79.617 95.7641 79.6228 94.4529 79.6321 93.1416C79.6411 91.8757 79.646 90.6099 79.6481 89.344C79.6496 88.8615 79.6525 88.379 79.657 87.8965C79.663 87.2196 79.6638 86.543 79.6634 85.8661C79.6663 85.6675 79.6693 85.4688 79.6723 85.2642C79.6626 83.663 79.2389 82.5917 78.1918 81.3915C76.9946 80.7197 75.9072 80.7756 74.5555 80.7826C74.2821 80.7809 74.0087 80.7792 73.7271 80.7774C73.15 80.7755 72.5729 80.7764 71.9958 80.7798C71.1146 80.7836 70.2343 80.7743 69.3532 80.7639C68.7915 80.7636 68.2299 80.7641 67.6682 80.7655C67.4059 80.7619 67.1435 80.7582 66.8732 80.7545C65.1581 80.7783 64.3084 80.991 63.164 82.3046ZM58.5156 87.2265C58.1325 87.6774 57.7561 88.134 57.3823 88.5926C53.1516 93.5575 53.1516 93.5575 50.1052 93.9941C48.2418 94.1023 46.4235 93.9946 44.5703 93.789C44.5703 94.9621 44.5703 96.1351 44.5703 97.3437C50.3285 98.0321 54.0762 96.1106 58.789 92.9687C58.9027 92.3603 58.9027 92.3603 58.8691 91.6592C58.8665 91.4019 58.8638 91.1446 58.8611 90.8795C58.8542 90.6102 58.8474 90.3409 58.8403 90.0634C58.8366 89.792 58.8329 89.5206 58.8291 89.241C58.8194 88.5694 58.8059 87.898 58.789 87.2265C58.6988 87.2265 58.6085 87.2265 58.5156 87.2265ZM83.3984 87.2265C83.3984 89.1214 83.3984 91.0164 83.3984 92.9687C83.8562 93.2158 84.3141 93.4629 84.7859 93.7175C85.3886 94.0432 85.9914 94.369 86.5942 94.6948C87.0465 94.9388 87.0465 94.9388 87.508 95.1877C87.9455 95.4243 87.9455 95.4243 88.3918 95.6657C88.6596 95.8103 88.9274 95.955 89.2033 96.104C89.9609 96.5234 89.9609 96.5234 90.6482 96.9822C91.4438 97.4053 91.9416 97.4388 92.8373 97.4238C93.2563 97.4199 93.2563 97.4199 93.6838 97.4158C93.9723 97.4089 94.2608 97.4021 94.558 97.395C94.8518 97.3913 95.1456 97.3876 95.4483 97.3838C96.1713 97.3741 96.8942 97.3594 97.6171 97.3437C97.6171 96.1707 97.6171 94.9976 97.6171 93.789C97.1374 93.8422 96.6577 93.8955 96.1634 93.9503C90.7242 94.2984 90.7242 94.2984 88.5173 92.505C86.9202 91.0751 85.5113 89.4591 84.1587 87.7995C83.998 87.6104 83.8373 87.4213 83.6718 87.2265C83.5816 87.2265 83.4913 87.2265 83.3984 87.2265ZM36.6406 94.3359C36.018 95.0874 36.018 95.0874 36.145 95.8398C36.3952 96.6098 36.5361 96.8709 37.1874 97.3437C38.3803 97.4551 39.5416 97.3794 40.7421 97.3437C40.7421 96.1707 40.7421 94.9976 40.7421 93.789C38.6108 93.6615 38.6108 93.6615 36.6406 94.3359ZM101.445 93.789C101.445 94.9621 101.445 96.1351 101.445 97.3437C102.009 97.3663 102.573 97.3888 103.154 97.4121C103.471 97.4248 103.789 97.4374 104.116 97.4505C105.018 97.4161 105.018 97.4161 105.664 96.846C106.182 96.2566 106.182 96.2566 106.06 95.3955C105.88 94.5829 105.88 94.5829 105.273 94.0625C104.426 93.7694 103.636 93.7602 102.744 93.7719C102.101 93.7804 102.101 93.7804 101.445 93.789ZM57.4218 106.914C57.0848 107.451 56.7484 107.988 56.4135 108.527C56.1323 108.977 55.8466 109.424 55.559 109.871C55.1691 110.475 55.1691 110.475 55.2343 111.289C58.7471 113.878 58.7471 113.878 62.7521 115.128C64.5362 114.688 65.7349 113.373 66.9921 112.109C66.8091 112.01 66.626 111.911 66.4374 111.809C65.5912 111.351 64.745 110.893 63.8989 110.435C63.6111 110.279 63.3233 110.123 63.0268 109.962C61.1566 108.95 59.2883 107.934 57.4218 106.914ZM82.9241 107.84C82.5324 108.053 82.5324 108.053 82.1328 108.271C81.7103 108.504 81.7103 108.504 81.2792 108.743C80.8414 108.982 80.8414 108.982 80.3947 109.227C78.1294 110.471 75.8756 111.735 73.6301 113.015C72.3892 113.722 71.1457 114.421 69.8889 115.099C69.659 115.224 69.4291 115.348 69.1923 115.477C68.7624 115.709 68.3314 115.94 67.8991 116.168C66.747 116.746 66.747 116.746 66.1718 117.852C66.4632 118.489 66.7637 119.075 67.1118 119.68C67.2043 119.846 67.2968 120.012 67.3921 120.183C67.6209 120.592 67.8531 120.999 68.0859 121.406C69.0291 121.219 69.7768 120.85 70.6205 120.394C70.9055 120.24 71.1906 120.086 71.4842 119.928C71.7896 119.762 72.095 119.595 72.4096 119.424C72.8835 119.167 72.8835 119.167 73.367 118.905C76.2202 117.356 79.0474 115.761 81.8682 114.154C82.9629 113.531 84.0606 112.914 85.1586 112.297C85.3432 112.194 85.5278 112.09 85.7179 111.983C86.1296 111.752 86.5413 111.52 86.9531 111.289C86.7923 110.201 86.4553 109.413 85.8935 108.469C85.7532 108.228 85.6129 107.986 85.4684 107.738C85.2558 107.465 85.2558 107.465 85.039 107.187C84.0988 107.187 83.7408 107.393 82.9241 107.84ZM61.0107 119.971C60.7689 120.11 60.5271 120.25 60.278 120.394C59.601 120.865 59.211 121.248 58.789 121.953C58.656 123.017 58.6203 123.611 59.2162 124.517C60.1617 125.147 60.6463 125.271 61.7968 125.234C62.8506 124.767 63.8274 124.203 64.8046 123.594C64.3797 121.979 63.5481 120.592 62.6171 119.219C62.0455 119.219 61.4849 119.693 61.0107 119.971ZM77.5366 120.671C77.3365 120.792 77.1365 120.913 76.9304 121.038C76.4392 121.337 75.9534 121.644 75.4687 121.953C75.4687 122.134 75.4687 122.314 75.4687 122.5C76.2443 122.97 77.0263 123.428 77.81 123.884C78.1381 124.083 78.1381 124.083 78.4728 124.286C79.5639 124.914 80.1845 125.238 81.4683 125.213C82.4173 124.927 82.8102 124.659 83.3984 123.867C83.7183 123.159 83.6904 122.848 83.5009 122.09C82.8198 120.851 81.6799 120.124 80.388 119.583C79.2843 119.398 78.4316 120.094 77.5366 120.671Z" fill="#147DC0"/>
<path d="M114.379 51.341C114.672 51.3377 114.672 51.3377 114.971 51.3344C115.384 51.3306 115.797 51.3276 116.21 51.3255C116.631 51.3223 117.052 51.3168 117.472 51.3087C118.082 51.297 118.691 51.2926 119.301 51.2898C119.581 51.2826 119.581 51.2826 119.866 51.2753C121.234 51.2814 121.989 51.6524 123.047 52.5C123.977 53.5283 124.197 54.2155 124.168 55.5654C124.164 55.8109 124.16 56.0564 124.156 56.3092C124.151 56.4959 124.146 56.6826 124.141 56.875C124.305 56.8692 124.469 56.8635 124.637 56.8576C125.389 56.8347 126.14 56.8206 126.892 56.8066C127.15 56.7974 127.408 56.7883 127.674 56.7788C129.39 56.7549 130.433 56.8911 131.797 57.9687C133.185 59.7513 133.045 61.5288 133.026 63.7205C133.026 64.0939 133.027 64.4674 133.028 64.8408C133.028 65.6206 133.025 66.4004 133.018 67.1802C133.011 68.1766 133.011 69.1727 133.015 70.1691C133.017 70.9392 133.015 71.7093 133.011 72.4795C133.009 73.0244 133.01 73.5694 133.012 74.1143C133.008 74.4474 133.005 74.7806 133.001 75.1238C133 75.4155 132.998 75.7073 132.997 76.0079C132.827 77.3337 132.357 78.2175 131.37 79.1088C130.147 79.9555 129.135 79.8859 127.686 79.8878C127.429 79.8891 127.173 79.8905 126.909 79.8919C126.059 79.8959 125.209 79.8977 124.359 79.8992C123.769 79.9008 123.179 79.9024 122.589 79.904C121.35 79.9068 120.112 79.9084 118.873 79.9094C117.287 79.9109 115.7 79.9175 114.114 79.9252C112.895 79.9303 111.675 79.9318 110.456 79.9322C109.871 79.933 109.286 79.9352 108.702 79.9388C107.883 79.9435 107.064 79.9429 106.245 79.9412C105.883 79.9449 105.883 79.9449 105.514 79.9488C104.137 79.9395 103.18 79.7979 101.992 79.0234C100.858 77.5819 100.593 76.5355 100.581 74.7394C100.578 74.4281 100.576 74.1169 100.573 73.7962C100.572 73.4609 100.571 73.1257 100.57 72.7803C100.568 72.4343 100.566 72.0884 100.565 71.732C100.562 70.9999 100.56 70.2679 100.559 69.5358C100.558 68.6017 100.551 67.6677 100.544 66.7336C100.537 65.8382 100.537 64.9428 100.535 64.0473C100.532 63.7137 100.529 63.3802 100.525 63.0365C100.531 60.9879 100.632 59.5185 101.958 57.8833C103.441 56.706 104.916 56.8075 106.726 56.8408C106.981 56.8432 107.236 56.8457 107.498 56.8482C108.124 56.8547 108.749 56.8636 109.375 56.875C109.371 56.7078 109.368 56.5407 109.364 56.3685C109.361 56.1482 109.358 55.928 109.355 55.7011C109.351 55.4832 109.347 55.2653 109.343 55.0408C109.408 53.7559 109.959 52.9917 110.879 52.1411C112.025 51.3676 113.044 51.3554 114.379 51.341ZM113.203 55.2343C113.203 55.7757 113.203 56.3171 113.203 56.875C115.549 56.875 117.895 56.875 120.313 56.875C120.313 56.3335 120.313 55.7921 120.313 55.2343C117.967 55.2343 115.62 55.2343 113.203 55.2343ZM106.641 60.7031C107.495 61.3438 108.242 61.8175 109.179 62.302C109.591 62.5164 109.591 62.5164 110.013 62.7352C110.442 62.9559 110.442 62.9559 110.879 63.1811C111.165 63.3293 111.451 63.4775 111.745 63.6302C112.866 64.2107 113.987 64.7896 115.117 65.3515C115.219 65.2162 115.32 65.0808 115.425 64.9414C115.938 64.5312 115.938 64.5312 116.741 64.4287C117.662 64.5415 117.971 64.7789 118.672 65.3515C119.709 64.8234 120.746 64.2931 121.781 63.761C122.133 63.5804 122.486 63.4003 122.839 63.2208C123.346 62.9623 123.853 62.7018 124.36 62.4409C124.665 62.2848 124.97 62.1287 125.284 61.9679C126.117 61.5317 126.117 61.5317 126.875 60.7031C120.198 60.7031 113.52 60.7031 106.641 60.7031ZM104.453 64.2578C104.453 68.1378 104.453 72.0179 104.453 76.0156C112.574 76.0156 120.695 76.0156 129.063 76.0156C129.063 72.1355 129.063 68.2554 129.063 64.2578C127.916 64.64 127.066 64.9575 126.042 65.5278C125.788 65.6679 125.534 65.808 125.273 65.9523C125.012 66.0981 124.751 66.2438 124.483 66.394C123.966 66.6811 123.449 66.9677 122.932 67.2538C122.68 67.3937 122.428 67.5336 122.168 67.6777C121.197 68.1981 120.205 68.6678 119.204 69.1267C118.577 69.4453 118.577 69.4453 118.245 70.3417C118.205 70.5899 118.166 70.838 118.125 71.0937C117.852 71.3671 117.852 71.3671 116.929 71.4355C115.938 71.3671 115.938 71.3671 115.425 71.0253C115.117 70.5468 115.117 70.5468 115.05 70.0217C114.741 69.1706 114.225 69.0245 113.428 68.6264C113.134 68.4769 112.84 68.3275 112.537 68.1735C112.227 68.0205 111.916 67.8675 111.597 67.7099C110.994 67.4061 110.39 67.1021 109.787 66.7977C109.491 66.6498 109.195 66.5018 108.89 66.3494C107.773 65.7783 106.678 65.1706 105.585 64.553C105.028 64.2167 105.028 64.2167 104.453 64.2578Z" fill="#147DC0"/>
<path d="M16.7343 52.1205C16.9563 52.119 17.1783 52.1176 17.4071 52.1161C18.1388 52.1125 18.8704 52.1149 19.6022 52.1176C20.1119 52.1171 20.6216 52.1163 21.1314 52.1153C22.1988 52.1141 23.2662 52.1158 24.3336 52.1196C25.7009 52.1243 27.0681 52.1216 28.4353 52.1167C29.4876 52.1138 30.5399 52.1147 31.5923 52.1168C32.0964 52.1174 32.6005 52.1167 33.1046 52.1148C33.8095 52.1127 34.5142 52.1159 35.2191 52.1205C35.4268 52.1188 35.6345 52.1171 35.8485 52.1154C37.0724 52.1301 37.862 52.2809 38.8282 53.0469C40.1791 54.6564 40.0655 56.628 40.0288 58.6182C40.0272 58.9368 40.0257 59.2553 40.0241 59.5836C40.018 60.5949 40.0043 61.606 39.9903 62.6172C39.9848 63.3054 39.9799 63.9937 39.9754 64.6819C39.9634 66.3635 39.9451 68.0451 39.922 69.7266C40.1682 69.7204 40.4144 69.7142 40.6681 69.7079C40.9899 69.703 41.3117 69.6982 41.6433 69.6933C41.9628 69.6871 42.2824 69.6809 42.6116 69.6745C43.4767 69.7266 43.4767 69.7266 44.3728 70.2596C45.0057 71.3804 45.0364 72.2369 44.9977 73.5035C45.0007 73.7137 45.0037 73.924 45.0067 74.1406C44.987 75.6975 44.6128 76.9014 43.7501 78.2032C42.6101 79.2862 41.5922 79.9097 40.0097 79.9187C39.7537 79.9215 39.4977 79.9242 39.2339 79.927C38.9549 79.9272 38.6759 79.9274 38.3884 79.9276C38.0931 79.9298 37.7977 79.9321 37.4934 79.9345C36.5156 79.9411 35.5379 79.9435 34.56 79.9453C33.8802 79.9477 33.2004 79.9502 32.5206 79.9527C31.0945 79.9572 29.6685 79.9594 28.2424 79.9601C26.4169 79.9612 24.5916 79.9719 22.7662 79.9844C21.3615 79.9926 19.9569 79.9945 18.5522 79.9948C17.8793 79.9959 17.2065 79.9993 16.5336 80.0051C15.5911 80.0124 14.649 80.0111 13.7064 80.0077C13.4296 80.0117 13.1529 80.0158 12.8677 80.02C11.0781 80.0015 9.84856 79.6603 8.47666 78.4766C7.20275 76.8434 7.04172 75.5782 7.00694 73.5889C6.9916 73.2595 6.9916 73.2595 6.97596 72.9235C6.95986 71.8375 7.04053 71.2175 7.57731 70.2542C8.61806 69.6436 9.12146 69.6708 10.3102 69.6936C10.632 69.6984 10.9538 69.7031 11.2854 69.708C11.6546 69.7172 11.6546 69.7172 12.0313 69.7266C12.0289 69.5499 12.0265 69.3732 12.024 69.1911C11.9997 67.3458 11.9833 65.5005 11.9713 63.655C11.9658 62.9671 11.9583 62.2791 11.9488 61.5912C11.9355 60.6001 11.9294 59.6093 11.9245 58.6182C11.9189 58.3125 11.9132 58.0068 11.9074 57.6918C11.9069 55.9784 11.9805 54.4106 13.1251 53.0469C14.2668 52.1417 15.3309 52.1092 16.7343 52.1205ZM15.8595 56.0547C15.834 56.4828 15.8274 56.912 15.8284 57.3408C15.8285 57.6183 15.8285 57.8959 15.8285 58.1818C15.8299 58.4756 15.8313 58.7694 15.8328 59.0721C15.833 59.3406 15.8333 59.6091 15.8336 59.8857C15.835 60.8931 15.8389 61.9004 15.8424 62.9077C15.848 65.158 15.8537 67.4082 15.8595 69.7266C22.5368 69.7266 29.2142 69.7266 36.0939 69.7266C36.0995 67.4764 36.1051 65.2262 36.1109 62.9077C36.1134 62.1965 36.1159 61.4852 36.1185 60.7524C36.1193 60.1923 36.12 59.6322 36.1206 59.0721C36.122 58.7783 36.1234 58.4845 36.1248 58.1818C36.1248 57.9043 36.1249 57.6268 36.1249 57.3408C36.1255 57.0985 36.1261 56.8563 36.1267 56.6066C36.1552 56.0555 36.1552 56.0555 35.8204 55.7813C35.2096 55.754 34.5979 55.7463 33.9865 55.7459C33.699 55.7452 33.699 55.7452 33.4058 55.7444C32.7694 55.7432 32.1331 55.744 31.4967 55.745C31.0563 55.7448 30.616 55.7445 30.1756 55.7442C29.2515 55.7438 28.3275 55.7444 27.4034 55.7456C26.2163 55.7472 25.0291 55.7463 23.842 55.7447C22.9323 55.7437 22.0227 55.744 21.113 55.7447C20.6752 55.7449 20.2374 55.7446 19.7995 55.744C19.1886 55.7433 18.5778 55.7444 17.9669 55.7459C17.6186 55.7461 17.2702 55.7463 16.9114 55.7466C16.1604 55.6923 16.1604 55.6923 15.8595 56.0547ZM10.9376 73.5547C10.7861 75.069 10.7861 75.069 11.2745 75.7015C11.8724 76.09 12.2198 76.1188 12.9306 76.1198C13.1699 76.1221 13.4091 76.1245 13.6555 76.1268C13.9172 76.1252 14.1789 76.1235 14.4485 76.1218C14.7247 76.1232 15.0008 76.1247 15.2854 76.1262C16.2003 76.1298 17.115 76.1274 18.0299 76.1246C18.6643 76.1252 19.2988 76.126 19.9332 76.127C21.2637 76.1282 22.5941 76.1264 23.9245 76.1226C25.6321 76.1179 27.3396 76.1206 29.0472 76.1255C30.3575 76.1285 31.6678 76.1276 32.9781 76.1254C33.6078 76.1249 34.2375 76.1256 34.8672 76.1275C35.7465 76.1295 36.6256 76.1264 37.5048 76.1218C37.8973 76.1243 37.8973 76.1243 38.2978 76.1268C38.6566 76.1234 38.6566 76.1234 39.0227 76.1198C39.2306 76.1195 39.4385 76.1192 39.6526 76.1189C40.2126 76.0479 40.2126 76.0479 40.6789 75.7015C41.1672 75.069 41.1672 75.069 41.0157 73.5547C31.0899 73.5547 21.1642 73.5547 10.9376 73.5547Z" fill="#147DC0"/>
<path d="M69.5536 12.4083C70.0855 12.7832 70.0855 12.7832 70.8204 13.3985C71.3964 13.1138 71.9669 12.8231 72.5326 12.5183C75.7422 10.8231 78.9874 10.3859 82.5269 11.399C83.9666 11.8927 85.1926 12.4828 86.4063 13.3985C86.5713 13.5158 86.7362 13.6332 86.9062 13.7541C89.1036 15.45 90.62 18.3281 91.0548 21.0547C91.5268 28.3448 88.3473 34.4996 83.6217 39.8856C80.8605 42.9771 77.8605 45.518 74.2896 47.6123C74.1132 47.7191 73.9367 47.826 73.7549 47.936C72.5019 48.6414 71.4334 48.943 70.0001 48.6719C69.2351 48.3923 68.5598 48.0156 67.8638 47.5952C67.674 47.4842 67.4841 47.3732 67.2885 47.2588C65.5955 46.2437 64.0894 45.0642 62.6173 43.75C62.3878 43.5533 62.1583 43.3567 61.9219 43.154C56.662 38.571 51.7706 32.0277 51.0775 24.8564C50.8298 21.0403 51.6947 17.9005 54.0382 14.8682C57.8753 10.66 64.6155 9.53185 69.5536 12.4083ZM56.8751 17.7735C55.124 20.077 54.7159 22.2967 54.961 25.1563C56.36 32.9306 62.3951 39.0966 68.6051 43.4905C69.8682 44.3597 69.8682 44.3597 71.3491 44.5297C76.864 42.9982 82.0158 36.4406 84.7657 31.7188C86.5898 28.3131 88.029 24.5183 87.0472 20.6146C85.9559 17.8863 83.8604 16.1661 81.2623 14.9536C78.8798 14.4398 76.7821 14.665 74.6485 15.8594C73.8656 16.4295 73.1066 17.0133 72.3627 17.6335C71.6407 18.0469 71.6407 18.0469 70.7883 18.0213C70.003 17.7744 69.6487 17.5773 69.0772 17.0044C67.1761 15.2508 65.1503 14.6569 62.6012 14.6909C60.2672 14.9079 58.4315 16.0646 56.8751 17.7735Z" fill="#147DC0"/>
<path d="M22.9688 84.4921C23.507 85.2994 23.6335 85.6984 23.8009 86.6262C23.8508 86.8901 23.9008 87.154 23.9522 87.4259C24.0056 87.7098 24.0589 87.9936 24.1139 88.2861C26.4747 100.087 32.7656 110.713 42.432 118.02C42.9298 118.398 42.9298 118.398 43.4766 118.945C43.6048 119.928 43.5979 120.409 43.0323 121.235C42.1871 121.814 41.7542 121.784 40.7423 121.68C30.8943 116.261 24.0827 103.97 21.041 93.5966C20.2548 90.7943 19.566 87.9661 19.6876 85.039C20.5787 83.7236 21.6355 83.9248 22.9688 84.4921Z" fill="#147DC0"/>
<path d="M121.953 84.4921C122.5 85.039 122.5 85.039 122.571 86.1167C122.535 87.615 122.249 89.0328 121.919 90.4907C121.826 90.9049 121.826 90.9049 121.731 91.3275C120.192 97.9598 117.433 104.097 113.477 109.648C113.363 109.808 113.249 109.968 113.132 110.132C110.191 114.207 106.045 119.441 101.445 121.68C99.9923 121.808 99.9923 121.808 99.1554 121.235C98.5773 120.39 98.5875 119.955 98.711 118.945C99.2323 118.314 99.2323 118.314 99.9415 117.732C100.191 117.522 100.441 117.312 100.698 117.096C100.944 116.894 101.191 116.692 101.445 116.484C101.834 116.144 102.222 115.802 102.608 115.459C103.219 114.924 103.834 114.41 104.47 113.904C105.487 113.017 106.33 112.054 107.188 111.016C107.414 110.745 107.639 110.475 107.872 110.196C113.288 103.594 116.73 95.9768 118.197 87.589C118.248 87.3093 118.298 87.0297 118.35 86.7416C118.393 86.4922 118.436 86.2429 118.479 85.986C118.695 85.2309 118.959 84.7923 119.492 84.2187C120.532 83.8722 120.955 84.0888 121.953 84.4921Z" fill="#147DC0"/>
<path d="M47.0312 34.7265C47.5439 35.0512 47.5439 35.0512 47.8515 35.5468C47.9882 36.333 47.9882 36.333 47.8515 37.1874C47.101 38.1967 46.1965 38.7495 45.1342 39.4091C41.3459 41.7615 37.6629 44.7863 34.8365 48.2456C34.4531 48.6718 34.4531 48.6718 33.6328 49.2187C31.8683 49.0949 31.8683 49.0949 31.1718 48.3984C31.0214 47.3379 30.9232 46.6236 31.4844 45.692C31.9317 45.1628 32.4016 44.678 32.8979 44.1943C33.0729 44.0164 33.2479 43.8385 33.4283 43.6552C33.9462 43.1333 34.4714 42.6203 34.9999 42.1093C35.2573 41.8562 35.5146 41.6032 35.7797 41.3424C43.7174 33.8363 43.7174 33.8363 47.0312 34.7265Z" fill="#147DC0"/>
<path d="M97.6172 34.7266C98.3787 35.1227 99.0607 35.6057 99.7534 36.1109C100.042 36.3157 100.042 36.3157 100.336 36.5248C103.784 38.9949 106.995 41.7701 109.922 44.8438C110.142 45.0637 110.362 45.2837 110.588 45.5103C111.224 46.5532 111.172 47.1875 111.016 48.3985C110.588 48.9624 110.588 48.9624 109.922 49.2188C108.941 49.2369 108.267 49.1555 107.491 48.5256C106.935 47.9528 106.41 47.3621 105.889 46.7578C105.502 46.329 105.114 45.9014 104.724 45.475C104.537 45.2698 104.35 45.0647 104.157 44.8533C103.082 43.7127 101.886 42.7647 100.625 41.836C100.472 41.7229 100.319 41.6099 100.161 41.4935C98.6348 40.371 97.1 39.2678 95.481 38.2813C94.6094 37.7344 94.6094 37.7344 94.3359 37.1875C94.2334 36.4014 94.2334 36.4014 94.3359 35.5469C95.3821 34.3106 96.1043 34.3631 97.6172 34.7266Z" fill="#147DC0"/>
</svg>
