<svg width="50" height="50" viewBox="0 0 50 50" fill="none" xmlns="http://www.w3.org/2000/svg">
<path d="M22.457 22.6984C22.2862 23.399 22.1069 24.0967 21.9156 24.792C21.8965 24.8616 21.8774 24.9313 21.8578 25.0031C21.7791 25.2902 21.7005 25.5773 21.6206 25.864C21.1797 27.4506 21.049 28.6199 21.8233 30.1331C22.0901 30.573 22.3539 30.9319 22.8574 31.1066C23.3169 31.097 23.6328 30.8977 23.9491 30.5713C24.2836 30.1934 24.5653 29.8044 24.8293 29.3749C24.8697 29.3103 24.91 29.2458 24.9516 29.1793C25.1774 28.8154 25.3972 28.4482 25.6135 28.0786C25.659 28.0011 25.7044 27.9235 25.7511 27.8436C25.8381 27.6944 25.9245 27.5448 26.0102 27.3949C26.7935 26.044 26.7935 26.044 27.4772 25.8408C27.9116 25.7952 28.2375 25.9319 28.6068 26.1474C28.7401 26.2244 28.7401 26.2244 28.8761 26.303C28.972 26.3593 29.0678 26.4157 29.1636 26.472C29.2638 26.5303 29.3641 26.5885 29.4645 26.6466C29.6709 26.7662 29.877 26.8863 30.083 27.0067C30.4478 27.2198 30.8141 27.4305 31.1803 27.6413C31.4377 27.7894 31.6948 27.9379 31.9519 28.0864C32.3837 28.3359 32.8156 28.5852 33.2476 28.8344C33.4199 28.9338 33.5922 29.0332 33.7644 29.1327C34.1699 29.3669 34.5757 29.6007 34.9823 29.8329C35.1739 29.9423 35.3653 30.0519 35.5567 30.1616C35.6914 30.2387 35.8264 30.3154 35.9613 30.3921C36.0432 30.4391 36.1251 30.4861 36.2095 30.5345C36.2814 30.5755 36.3533 30.6165 36.4273 30.6587C36.895 30.9518 37.1778 31.2221 37.3516 31.7472C37.4405 32.2621 37.3298 32.6825 37.0313 33.1085C36.6448 33.4756 36.2884 33.6465 35.7566 33.634C34.8716 33.4725 34.0212 32.8367 33.2582 32.38C32.6948 32.0434 32.1248 31.7183 31.5556 31.3918C31.1564 31.1625 30.7585 30.932 30.366 30.6915C30.2731 30.635 30.2731 30.635 30.1783 30.5773C30.0664 30.5089 29.955 30.4396 29.8442 30.3693C29.4584 30.1342 29.1904 30.0936 28.7532 30.1857C28.7102 30.1989 28.6673 30.2121 28.623 30.2257C28.5785 30.3719 28.5785 30.3719 28.533 30.521C28.5162 30.5758 28.4995 30.6306 28.4823 30.6871C28.4562 30.9285 28.5117 31.0515 28.623 31.2667C28.8002 31.4112 28.8002 31.4112 29.0209 31.5264C29.1036 31.5731 29.1864 31.6198 29.2716 31.6679C29.3615 31.7172 29.4513 31.7665 29.5439 31.8173C29.6379 31.8699 29.7319 31.9227 29.8257 31.9757C30.021 32.0857 30.2166 32.1951 30.4125 32.3041C31.125 32.7018 31.829 33.1147 32.535 33.5237C32.7869 33.669 33.0397 33.8127 33.2926 33.9562C33.4511 34.0473 33.6096 34.1384 33.7681 34.2296C33.876 34.2901 33.876 34.2901 33.9862 34.3518C34.4595 34.6263 34.8598 34.9316 35.1094 35.4308C35.1489 35.8996 35.178 36.3269 34.9742 36.7571C34.5851 37.1672 34.2654 37.4134 33.6917 37.4534C33.3354 37.4492 33.0614 37.3308 32.7521 37.1625C32.6968 37.1336 32.6415 37.1047 32.5845 37.0749C32.0807 36.8081 31.5899 36.5192 31.1008 36.2266C30.6472 35.9556 30.1895 35.6918 29.7318 35.428C29.5906 35.3466 29.4494 35.2651 29.3083 35.1837C28.6878 34.788 28.6878 34.788 27.9824 34.7101C27.7467 34.8758 27.6747 34.9911 27.587 35.2656C27.5809 35.5678 27.6451 35.6692 27.8223 35.9113C28.0236 36.0622 28.0236 36.0622 28.263 36.1884C28.3528 36.2388 28.4426 36.2892 28.5351 36.3411C28.5829 36.3673 28.6307 36.3935 28.6799 36.4205C28.8301 36.5028 28.9796 36.5864 29.1289 36.6702C29.3363 36.7866 29.5439 36.9025 29.7518 37.0181C30.2419 37.291 30.7289 37.5692 31.2156 37.8481C31.302 37.8971 31.3885 37.946 31.4776 37.9964C32.6684 38.6782 32.6684 38.6782 32.8672 39.2745C32.9207 39.7726 32.9291 40.2168 32.627 40.6359C32.2666 40.997 31.9839 41.2046 31.4608 41.2264C30.9674 41.2179 30.643 41.044 30.2246 40.796C30.121 40.7352 30.0173 40.6744 29.9137 40.6137C29.7399 40.5114 29.5662 40.409 29.3925 40.3066C29.2162 40.2026 29.0398 40.0989 28.8633 39.9952C28.8081 39.9626 28.7529 39.9299 28.696 39.8962C28.0198 39.4686 28.0198 39.4686 27.2517 39.3446C27.1493 39.3479 27.0469 39.3512 26.9414 39.3546C26.7462 39.1444 26.7462 39.1444 26.6555 39.0124C26.2921 38.5736 25.6612 38.2909 25.0996 38.2335C24.7521 38.2223 24.4061 38.224 24.0586 38.2335C24.0304 38.1764 24.0022 38.1194 23.9732 38.0605C23.5871 37.3115 23.1798 36.7797 22.377 36.4718C22.0501 36.3778 21.7335 36.3828 21.396 36.3867C21.3363 36.3871 21.2767 36.3874 21.2152 36.3878C21.0686 36.3888 20.922 36.3902 20.7754 36.3917C20.7491 36.3298 20.7227 36.2679 20.6956 36.204C20.3394 35.4241 19.9348 34.9029 19.1188 34.59C18.5794 34.4313 18.0496 34.4402 17.4922 34.4699C17.4649 34.407 17.4377 34.3441 17.4096 34.2794C17.0762 33.5566 16.7268 33.0972 16.0007 32.7532C15.3 32.5042 14.5114 32.5238 13.8349 32.8351C13.467 33.0586 13.0438 33.3569 12.8477 33.7491C12.5488 33.6296 12.4091 33.4631 12.217 33.2086C12.0251 32.9579 11.8387 32.7359 11.6014 32.528C11.537 32.4553 11.4726 32.3826 11.4062 32.3077C11.4281 31.9662 11.5224 31.7239 11.6972 31.4331C11.7413 31.3587 11.7854 31.2843 11.8309 31.2076C11.879 31.128 11.9272 31.0484 11.9768 30.9664C12.0798 30.7932 12.1827 30.6199 12.2855 30.4466C12.3388 30.3572 12.3922 30.2678 12.4471 30.1757C12.703 29.7442 12.953 29.3093 13.203 28.8744C13.3038 28.6994 13.4046 28.5245 13.5055 28.3495C13.5555 28.2626 13.6056 28.1757 13.6572 28.0862C13.9076 27.6515 14.1584 27.2169 14.4092 26.7824C14.7651 26.1655 15.121 25.5486 15.4767 24.9316C15.578 24.756 15.6795 24.5805 15.7811 24.4051C16.014 24.0027 16.245 23.5996 16.4709 23.1932C16.5309 23.0863 16.5309 23.0863 16.5922 22.9772C16.6662 22.8452 16.7394 22.7128 16.8116 22.5798C16.8603 22.4934 16.8603 22.4934 16.9101 22.4053C16.9376 22.3552 16.9652 22.3051 16.9936 22.2535C17.8328 21.2642 21.4029 22.4146 22.457 22.6984Z" fill="#FFD700"/>
<path d="M16.3392 5.9228C16.4305 5.92239 16.4305 5.92239 16.5236 5.92197C16.7271 5.92144 16.9305 5.9232 17.134 5.92495C17.28 5.92505 17.426 5.92499 17.572 5.92481C17.9683 5.92472 18.3645 5.9266 18.7607 5.92884C19.1748 5.93084 19.589 5.93103 20.0031 5.93141C20.7873 5.93241 21.5714 5.93504 22.3556 5.93825C23.2483 5.94183 24.1411 5.94359 25.0339 5.9452C26.8703 5.94855 28.7067 5.95418 30.5431 5.96132C30.5435 6.03894 30.5435 6.03894 30.544 6.11813C30.5473 6.65859 30.5529 7.19899 30.5597 7.73942C30.562 7.94089 30.5637 8.14236 30.5648 8.34384C30.5665 8.63409 30.5702 8.92426 30.5744 9.21449C30.5745 9.34879 30.5745 9.34879 30.5747 9.48579C30.5854 10.0633 30.6593 10.5244 31.0508 10.9676C31.5666 11.4433 32.1844 11.432 32.845 11.4398C32.9169 11.4412 32.9887 11.4426 33.0627 11.4441C33.3289 11.4491 33.5951 11.4528 33.8613 11.4567C34.7557 11.4715 34.7557 11.4715 35.6681 11.4867C35.6681 13.7329 35.6681 15.9791 35.6681 18.2933C33.5923 19.4666 33.5923 19.4666 32.2935 19.4191C30.0393 19.3772 27.6853 19.8215 25.5782 20.6156C25.4283 20.6704 25.2784 20.7251 25.1284 20.7798C24.9747 20.8367 24.821 20.8937 24.6674 20.9509C24.5594 20.9909 24.5594 20.9909 24.4492 21.0318C24.3481 21.0703 24.3481 21.0703 24.2451 21.1095C24.1855 21.1321 24.1259 21.1546 24.0645 21.1778C23.8887 21.2528 23.8887 21.2528 23.7251 21.3865C23.5763 21.4965 23.5763 21.4965 23.4086 21.4815C23.3132 21.4493 23.3132 21.4493 23.2159 21.4164C21.7911 20.9746 20.2558 20.5415 18.7522 20.6416C17.3904 20.724 16.5026 20.4791 15.4083 19.6547C15.2598 19.5062 15.3168 19.261 15.3159 19.0625C15.3156 19.0083 15.3152 18.9542 15.3149 18.8985C15.3138 18.7158 15.3133 18.533 15.3128 18.3503C15.3122 18.2199 15.3115 18.0894 15.3108 17.959C15.3087 17.5294 15.3075 17.0998 15.3063 16.6702C15.3059 16.5225 15.3055 16.3749 15.3051 16.2272C15.3033 15.6132 15.3018 14.9991 15.3009 14.3851C15.2996 13.5039 15.297 12.6227 15.2924 11.7416C15.2893 11.1226 15.2877 10.5037 15.2873 9.88476C15.287 9.51478 15.2861 9.14483 15.2835 8.77485C15.2811 8.42682 15.2805 8.07883 15.2815 7.73079C15.2815 7.60295 15.2808 7.47511 15.2794 7.34728C15.2776 7.17289 15.2783 6.99866 15.2796 6.82426C15.2792 6.67782 15.2792 6.67782 15.2788 6.52842C15.3282 6.28163 15.3282 6.28163 15.4933 6.08997C15.7821 5.9321 16.0185 5.9175 16.3392 5.9228ZM24.3771 12.0473C24.284 12.2389 24.284 12.2389 24.297 12.4476C24.4372 12.7449 24.4372 12.7449 24.6974 12.9281C24.8359 12.9374 24.9747 12.9417 25.1135 12.9436C25.2438 12.9455 25.2438 12.9455 25.3768 12.9475C25.7742 12.951 26.1717 12.9543 26.5692 12.9562C26.779 12.9575 26.9888 12.9597 27.1986 12.9627C27.5006 12.9671 27.8027 12.9689 28.1048 12.97C28.1985 12.9718 28.2923 12.9737 28.3889 12.9755C28.9186 12.9896 28.9186 12.9896 29.3636 12.7434C29.5268 12.5297 29.5268 12.5297 29.5121 12.2374C29.4481 11.9603 29.4481 11.9603 29.243 11.8322C29.0044 11.7188 28.8552 11.6961 28.5929 11.6946C28.5093 11.6936 28.4256 11.6926 28.3394 11.6915C28.2499 11.6917 28.1604 11.692 28.0682 11.6922C27.9755 11.6918 27.8828 11.6914 27.7873 11.691C27.5916 11.6904 27.3958 11.6905 27.2001 11.6912C26.9006 11.6919 26.6012 11.6896 26.3018 11.6871C26.1115 11.6869 25.9212 11.687 25.7309 11.6872C25.6414 11.6863 25.5519 11.6854 25.4596 11.6845C24.849 11.6839 24.849 11.6839 24.3771 12.0473ZM17.5894 12.5076C17.4795 12.7077 17.4596 12.8232 17.458 13.05C17.457 13.121 17.456 13.1921 17.4549 13.2654C17.4552 13.3415 17.4554 13.4177 17.4556 13.4962C17.4552 13.5749 17.4548 13.6537 17.4544 13.7349C17.4538 13.9013 17.454 14.0676 17.4546 14.234C17.4553 14.4887 17.453 14.7433 17.4505 14.9979C17.4503 15.1597 17.4504 15.3214 17.4506 15.4831C17.4497 15.5593 17.4488 15.6354 17.4479 15.7139C17.4511 16.0162 17.4579 16.2304 17.6012 16.4996C17.9368 16.6792 18.2646 16.6557 18.6393 16.6514C18.72 16.6516 18.8008 16.6517 18.8839 16.6518C19.0544 16.6517 19.2249 16.6507 19.3954 16.6491C19.6568 16.6467 19.918 16.6474 20.1794 16.6485C20.345 16.648 20.5106 16.6473 20.6763 16.6464C20.7938 16.6468 20.7938 16.6468 20.9136 16.6471C21.0227 16.6456 21.0227 16.6456 21.1339 16.6441C21.1979 16.6436 21.2618 16.6432 21.3277 16.6428C21.5404 16.6031 21.6103 16.5476 21.7345 16.3715C21.7708 16.1975 21.7708 16.1975 21.7656 16.0025C21.7663 15.928 21.7671 15.8534 21.7679 15.7766C21.7674 15.6963 21.7669 15.6159 21.7664 15.5332C21.7667 15.4092 21.7667 15.4092 21.7671 15.2828C21.7673 15.108 21.7668 14.9333 21.7658 14.7585C21.7645 14.4907 21.7658 14.2229 21.7673 13.9551C21.7672 13.7854 21.7669 13.6158 21.7664 13.4461C21.7669 13.3658 21.7674 13.2855 21.7679 13.2027C21.7671 13.1281 21.7664 13.0536 21.7656 12.9768C21.7653 12.8784 21.7653 12.8784 21.765 12.778C21.7264 12.5625 21.6727 12.4928 21.4943 12.3676C21.3203 12.3308 21.3203 12.3308 21.1253 12.3352C21.0507 12.3342 20.9762 12.3332 20.8994 12.3321C20.819 12.3324 20.7387 12.3326 20.6559 12.3328C20.5733 12.3324 20.4907 12.332 20.4055 12.3316C20.2308 12.3311 20.0561 12.3312 19.8813 12.3318C19.6134 12.3325 19.3457 12.3302 19.0778 12.3277C18.9082 12.3276 18.7385 12.3276 18.5689 12.3278C18.4886 12.3269 18.4082 12.326 18.3255 12.3251C18.2136 12.3262 18.2136 12.3262 18.0995 12.3274C18.0339 12.3274 17.9683 12.3274 17.9007 12.3274C17.719 12.3547 17.719 12.3547 17.5894 12.5076ZM24.419 14.2369C24.2754 14.4449 24.2754 14.4449 24.302 14.6998C24.3776 14.9315 24.4233 15.0285 24.6173 15.1703C24.8951 15.2629 25.1133 15.2617 25.4065 15.2633C25.4897 15.2639 25.4897 15.2639 25.5746 15.2645C25.7582 15.2657 25.9418 15.2662 26.1253 15.2666C26.2531 15.2671 26.3809 15.2676 26.5087 15.268C26.7766 15.2689 27.0446 15.2693 27.3126 15.2696C27.6554 15.2701 27.9981 15.272 28.3409 15.2743C28.6049 15.2758 28.8689 15.2762 29.1329 15.2763C29.2593 15.2765 29.3856 15.2772 29.5119 15.2782C29.689 15.2796 29.8661 15.2794 30.0432 15.2789C30.1941 15.2794 30.1941 15.2794 30.3481 15.2798C30.6511 15.2474 30.845 15.1689 31.1036 15.0101C31.2174 14.7827 31.2089 14.6214 31.1837 14.3695C31.0644 14.1844 31.0644 14.1844 30.8634 14.0492C30.6508 14.0172 30.4712 14.0045 30.2587 14.0065C30.1983 14.0058 30.1378 14.0051 30.0756 14.0044C29.876 14.0026 29.6766 14.0031 29.477 14.0039C29.3382 14.0034 29.1994 14.0029 29.0606 14.0023C28.7698 14.0015 28.479 14.0019 28.1882 14.0031C27.8155 14.0044 27.4429 14.0025 27.0702 13.9997C26.7836 13.998 26.497 13.9981 26.2104 13.9987C26.073 13.9988 25.9355 13.9983 25.7981 13.9971C25.606 13.9957 25.4141 13.9969 25.222 13.9987C25.1652 13.9977 25.1085 13.9968 25.05 13.9958C24.754 14.0015 24.6372 14.0304 24.419 14.2369ZM24.4877 16.4416C24.3581 16.6409 24.3089 16.7743 24.297 17.0121C24.3625 17.2205 24.4138 17.3058 24.6005 17.4203C24.7982 17.501 24.9383 17.5127 25.1513 17.5129C25.226 17.5134 25.3008 17.5138 25.3778 17.5143C25.5 17.5138 25.5 17.5138 25.6247 17.5133C25.7109 17.5136 25.7972 17.5139 25.886 17.5141C26.1713 17.5148 26.4566 17.5144 26.7419 17.5138C26.9399 17.5139 27.138 17.5141 27.3361 17.5143C27.7513 17.5145 28.1665 17.5142 28.5817 17.5134C29.1143 17.5125 29.647 17.5131 30.1796 17.514C30.5886 17.5146 30.9976 17.5144 31.4067 17.514C31.6031 17.5139 31.7995 17.514 31.9959 17.5144C32.2702 17.5148 32.5446 17.5142 32.8189 17.5133C32.9004 17.5136 32.9818 17.5139 33.0658 17.5143C33.1779 17.5136 33.1779 17.5136 33.2923 17.5129C33.3572 17.5128 33.422 17.5128 33.4888 17.5127C33.6881 17.4901 33.816 17.4369 33.9864 17.3324C34.1229 17.1439 34.1482 17.0451 34.1366 16.8119C34.0438 16.5466 33.9776 16.4572 33.7462 16.2914C33.4594 16.2422 33.1746 16.2477 32.8843 16.2499C32.7965 16.2494 32.7087 16.2488 32.6182 16.2482C32.3277 16.2468 32.0373 16.2478 31.7468 16.2489C31.5451 16.2486 31.3435 16.2483 31.1418 16.2479C30.7191 16.2475 30.2963 16.2481 29.8736 16.2496C29.385 16.2514 28.8965 16.2508 28.408 16.2491C27.9377 16.2474 27.4675 16.2476 26.9973 16.2485C26.7973 16.2487 26.5973 16.2485 26.3973 16.2477C26.1179 16.2469 25.8387 16.2482 25.5593 16.2499C25.4764 16.2493 25.3934 16.2487 25.3079 16.248C24.8686 16.2468 24.8686 16.2468 24.4877 16.4416Z" fill="#FFD700"/>
<path d="M33.9095 20.7786C36.6121 25.4632 36.6121 25.4632 36.7624 25.7236C36.8621 25.8965 36.9619 26.0694 37.0617 26.2423C37.3171 26.685 37.5724 27.1277 37.8274 27.5705C37.905 27.7051 37.905 27.7051 37.9841 27.8425C38.0859 28.0191 38.1875 28.1959 38.2889 28.3728C38.5122 28.7612 38.7375 29.1476 38.9732 29.5287C39.0118 29.5918 39.0504 29.6548 39.0902 29.7198C39.1609 29.8345 39.2326 29.9486 39.3055 30.0619C39.5261 30.4215 39.5261 30.4215 39.4721 30.6476C39.3478 30.7967 39.2233 30.9238 39.0745 31.0486C39.0258 31.0903 38.9771 31.132 38.9269 31.175C38.7943 31.2688 38.7943 31.2688 38.6341 31.2688C38.5991 31.1919 38.5991 31.1919 38.5634 31.1134C38.5306 31.0441 38.4978 30.9748 38.4639 30.9035C38.4324 30.8356 38.4008 30.7678 38.3682 30.698C38.0699 30.188 37.709 29.8394 37.2027 29.5421C37.1207 29.4925 37.1207 29.4925 37.037 29.4418C36.8494 29.3288 36.6608 29.2176 36.472 29.1067C36.4023 29.0655 36.3327 29.0243 36.2609 28.9819C35.0938 28.2923 33.9161 27.6209 32.7384 26.9498C32.3549 26.7312 31.9717 26.5122 31.5886 26.2929C31.3533 26.1582 31.1179 26.0236 30.8822 25.8896C30.4315 25.633 29.9821 25.3746 29.5352 25.1113C29.4097 25.0381 29.4097 25.0381 29.2816 24.9635C29.1252 24.8723 28.9692 24.7802 28.814 24.687C28.2978 24.3883 27.9748 24.3174 27.3803 24.4409C27.2871 24.4678 27.1939 24.4946 27.0978 24.5222C26.9577 24.5613 26.9577 24.5613 26.8148 24.6011C25.8478 24.9608 25.3413 25.8291 24.8507 26.6844C24.3009 27.6228 23.7128 28.5294 23.0989 29.427C22.7564 29.0978 22.6406 28.7234 22.6 28.251C22.5928 27.6396 22.6892 27.1048 22.8525 26.5173C22.8766 26.4274 22.9007 26.3375 22.9256 26.2448C22.9764 26.0564 23.0279 25.8681 23.0799 25.68C23.1591 25.3926 23.2361 25.1047 23.3129 24.8166C23.3628 24.6327 23.4129 24.4489 23.4631 24.2651C23.4859 24.1795 23.5088 24.0939 23.5324 24.0058C23.7073 23.3799 23.8975 22.9228 24.4531 22.554C24.7855 22.3678 25.1378 22.2413 25.4963 22.1149C25.5824 22.0843 25.6685 22.0538 25.7572 22.0223C27.4091 21.4542 29.1284 21.0391 30.8665 20.8587C30.9533 20.8483 31.0402 20.838 31.1296 20.8274C32.0505 20.7352 32.9851 20.7716 33.9095 20.7786Z" fill="#FFD700"/>
<path d="M11.7269 19.4922C12.0382 19.539 12.2604 19.6315 12.5305 19.7915C12.6078 19.837 12.6851 19.8825 12.7648 19.9293C12.8467 19.9783 12.9287 20.0273 13.0131 20.0778C13.0975 20.1276 13.1818 20.1774 13.2687 20.2287C13.5293 20.3829 13.7893 20.538 14.0491 20.6934C14.1305 20.7419 14.2118 20.7904 14.2956 20.8404C14.748 21.1105 15.1997 21.3818 15.6507 21.6543C15.6043 21.9568 15.5194 22.1733 15.3626 22.4354C15.3189 22.5092 15.2752 22.5831 15.2301 22.6592C15.1823 22.7388 15.1344 22.8185 15.0852 22.9005C14.9823 23.0741 14.8796 23.2477 14.777 23.4213C14.7232 23.5122 14.6695 23.603 14.614 23.6966C14.368 24.1139 14.1288 24.5351 13.8894 24.9561C13.42 25.7814 12.9458 26.6037 12.4662 27.423C12.1134 28.0259 11.7647 28.6311 11.4166 29.2367C11.0238 29.9195 10.627 30.5983 10.2054 31.2637C9.82767 31.2191 9.54717 31.0486 9.22944 30.8533C8.78816 30.5862 8.34429 30.3255 7.89407 30.0738C7.75105 29.9933 7.60808 29.9127 7.46511 29.8321C7.37024 29.7789 7.27517 29.7261 7.17991 29.6736C7.0451 29.5992 6.91105 29.5234 6.77705 29.4475C6.6989 29.404 6.62076 29.3604 6.54025 29.3156C6.36164 29.1816 6.36164 29.1816 6.28125 29.0329C6.28171 28.7789 6.38357 28.6308 6.51179 28.4128C6.56366 28.3234 6.61554 28.234 6.66899 28.1418C6.72668 28.0447 6.78439 27.9475 6.84211 27.8503C6.90111 27.7494 6.96002 27.6484 7.01883 27.5473C7.14013 27.3391 7.26193 27.1312 7.38416 26.9235C7.59903 26.5581 7.81042 26.1907 8.02172 25.8232C8.16954 25.5661 8.3178 25.3093 8.46619 25.0526C8.66663 24.7057 8.86682 24.3587 9.06678 24.0116C11.0534 20.5631 11.0534 20.5631 11.7269 19.4922Z" fill="#FFD700"/>
<path d="M39.2736 18.0547C40.6249 20.397 40.6249 20.397 41.9762 22.7393C42.0258 22.8252 42.0754 22.9112 42.1265 22.9997C42.2262 23.1725 42.3258 23.3452 42.4254 23.5179C42.7356 24.0556 43.0459 24.5932 43.3563 25.1308C43.5079 25.3934 43.6592 25.6562 43.8105 25.9189C43.9713 26.198 44.1328 26.4765 44.296 26.7541C44.3268 26.8068 44.3575 26.8596 44.3892 26.9139C44.4661 27.0456 44.5435 27.177 44.621 27.3084C44.7189 27.5039 44.7189 27.5039 44.7189 27.7441C43.8622 28.2391 43.8622 28.2391 43.4993 28.448C43.4032 28.5032 43.3072 28.5585 43.2112 28.6137C43.163 28.6415 43.1148 28.6692 43.0652 28.6978C42.7533 28.8775 42.4427 29.0591 42.1326 29.2419C42.0561 29.2866 41.9796 29.3313 41.9007 29.3774C41.7564 29.4618 41.6124 29.5468 41.4688 29.6325C41.4043 29.67 41.3398 29.7075 41.2734 29.7461C41.1894 29.7956 41.1894 29.7956 41.1038 29.8462C40.9552 29.9062 40.9552 29.9062 40.715 29.8262C40.61 29.6785 40.61 29.6785 40.5032 29.483C40.4628 29.4101 40.4224 29.3372 40.3808 29.2621C40.3375 29.1823 40.2942 29.1026 40.2495 29.0204C40.1555 28.8506 40.0614 28.6808 39.9671 28.5111C39.9186 28.4236 39.8701 28.336 39.8201 28.2457C39.5933 27.8401 39.3587 27.4392 39.1234 27.0385C38.7325 26.3707 38.3437 25.7019 37.9573 25.0315C37.9078 24.9455 37.8582 24.8596 37.8071 24.771C37.6029 24.4167 37.3988 24.0623 37.1948 23.7079C37.09 23.526 36.9853 23.3442 36.8805 23.1623C36.7787 22.9858 36.6771 22.8091 36.5757 22.6324C36.3525 22.2446 36.1277 21.8583 35.8944 21.4765C35.8561 21.4134 35.8178 21.3503 35.7784 21.2854C35.7086 21.1708 35.6379 21.0567 35.5663 20.9433C35.3471 20.5829 35.3471 20.5829 35.3591 20.376C35.4584 20.1526 35.5842 20.0959 35.7961 19.9769C35.8736 19.9326 35.9512 19.8883 36.031 19.8427C36.1151 19.796 36.1991 19.7494 36.2857 19.7013C36.4606 19.602 36.6354 19.5026 36.8102 19.4032C36.8998 19.3526 36.9894 19.302 37.0816 19.2499C37.5826 18.9639 38.0763 18.6656 38.5703 18.368C38.6395 18.3267 38.7087 18.2855 38.78 18.243C38.8407 18.2065 38.9015 18.17 38.964 18.1325C39.1134 18.0547 39.1134 18.0547 39.2736 18.0547Z" fill="#FFD700"/>
<path d="M15.6355 34.1234C15.9503 34.3518 16.0928 34.4942 16.1616 34.8816C16.2062 35.495 15.9607 35.8804 15.6505 36.3906C15.5615 36.5494 15.4743 36.7091 15.3871 36.8689C15.0231 37.5344 14.6449 38.1919 14.2641 38.848C14.1937 38.9699 14.1937 38.9699 14.1218 39.0944C13.4573 40.2341 13.4573 40.2341 13.143 40.4295C12.7346 40.515 12.4155 40.5215 12.0269 40.3795C11.6696 40.144 11.5191 39.9545 11.4063 39.5386C11.3538 38.7721 11.9039 38.0705 12.2825 37.4416C12.6312 36.8613 12.9646 36.272 13.2998 35.6838C14.5255 33.5473 14.5255 33.5473 15.6355 34.1234Z" fill="#FFD700"/>
<path d="M18.6946 35.9061C19.0033 36.0494 19.1349 36.1674 19.3252 36.4466C19.5065 36.9703 19.4613 37.2939 19.2251 37.7829C18.9544 38.2884 18.6627 38.782 18.3684 39.274C18.1909 39.5716 18.0184 39.8717 17.8472 40.173C17.7978 40.2595 17.7483 40.346 17.6974 40.4351C17.5997 40.6061 17.5026 40.7775 17.4062 40.9492C17.361 41.0279 17.3158 41.1067 17.2692 41.1878C17.2294 41.258 17.1896 41.3281 17.1486 41.4004C16.9383 41.6968 16.7171 41.8771 16.3724 41.992C15.952 42.0237 15.6874 41.9812 15.3313 41.7518C15.0091 41.3947 14.8952 41.1669 14.9016 40.6776C14.9573 40.2847 15.1629 39.9674 15.3614 39.6297C15.4049 39.553 15.4484 39.4762 15.4933 39.3971C15.6246 39.1667 15.758 38.9377 15.8919 38.7088C15.9651 38.5819 16.0383 38.455 16.1115 38.3281C16.2723 38.0506 16.436 37.775 16.6013 37.5002C16.6914 37.3496 16.7797 37.198 16.8678 37.0462C17.3447 36.2322 17.6745 35.7436 18.6946 35.9061Z" fill="#FFD700"/>
<path d="M22.2409 37.9632C22.5102 38.2011 22.5999 38.3676 22.6964 38.7139C22.6957 39.3983 22.4159 39.8508 22.0658 40.4256C22.011 40.5173 21.9564 40.609 21.9019 40.7009C21.8194 40.8397 21.7368 40.9784 21.6537 41.1168C21.4824 41.402 21.316 41.6893 21.1536 41.9796C21.1146 42.049 21.0756 42.1184 21.0354 42.19C20.9636 42.3179 20.8924 42.4461 20.8218 42.5747C20.5865 42.9892 20.3633 43.282 19.8937 43.4385C19.4562 43.4722 19.1558 43.4152 18.7726 43.1983C18.5051 42.924 18.429 42.6954 18.4106 42.3221C18.4203 41.7358 18.6888 41.3272 18.9928 40.841C19.0753 40.7042 19.1578 40.5674 19.2402 40.4306C19.3234 40.2932 19.4075 40.1563 19.4918 40.0195C19.6423 39.7731 19.7886 39.5248 19.9331 39.2748C20.0167 39.1312 20.1003 38.9876 20.1839 38.844C20.2406 38.7456 20.2406 38.7456 20.2983 38.6453C20.5247 38.264 20.7409 37.9558 21.1599 37.768C21.5668 37.7331 21.879 37.7856 22.2409 37.9632Z" fill="#FFD700"/>
<path d="M27.4199 40.875C27.924 41.0278 28.3504 41.2753 28.8042 41.5384C28.9459 41.6204 29.0882 41.7012 29.2306 41.782C29.3211 41.8342 29.4115 41.8863 29.5048 41.9401C29.6279 42.0109 29.6279 42.0109 29.7535 42.0832C30.2382 42.4075 30.5599 42.7666 30.6931 43.3374C30.7268 43.7254 30.6481 44.0564 30.4629 44.3984C30.181 44.7315 29.8557 44.9625 29.4219 45.0391C28.6591 45.0841 28.086 44.6966 27.46 44.3184C27.357 44.2575 27.254 44.1969 27.1509 44.1363C26.9635 44.0261 26.7767 43.915 26.5902 43.8032C26.4685 43.7309 26.3453 43.6609 26.2188 43.5977C26.333 43.2736 26.4939 42.9898 26.6656 42.6941C27.0071 42.1048 27.3031 41.5549 27.4199 40.875Z" fill="#FFD700"/>
<path d="M25.2597 39.6696C25.5519 39.8081 25.7106 40.0281 25.8953 40.2902C26.0223 40.6786 25.9916 41.0536 25.8325 41.4327C25.7441 41.5935 25.6493 41.7476 25.55 41.9018C25.4771 42.0194 25.4043 42.1372 25.3316 42.255C25.2936 42.316 25.2556 42.377 25.2164 42.4399C25.095 42.6399 24.9806 42.8428 24.8674 43.0476C24.8293 43.1161 24.7911 43.1846 24.7518 43.2552C24.6783 43.3877 24.6055 43.5206 24.5335 43.6539C24.3208 44.032 24.1388 44.2745 23.7382 44.4743C23.342 44.5565 23.0215 44.5171 22.6621 44.3342C22.3013 44.0173 22.1577 43.7932 22.1226 43.31C22.15 42.9264 22.3433 42.637 22.537 42.3122C22.5989 42.2057 22.6608 42.0991 22.7225 41.9925C22.8596 41.7569 22.9983 41.5223 23.1382 41.2884C23.2618 41.0811 23.382 40.8729 23.4973 40.6609C23.9295 39.8762 24.3255 39.5097 25.2597 39.6696Z" fill="#FFD700"/>
<path d="M31.7476 5.96094C31.8374 6.03703 31.927 6.11328 32.0167 6.18958C32.0666 6.23202 32.1166 6.27446 32.168 6.31819C32.3407 6.47009 32.4924 6.63344 32.6434 6.80676C32.9235 7.12388 33.2068 7.43728 33.4943 7.74768C33.5346 7.79133 33.575 7.83498 33.6166 7.87996C33.7409 8.01442 33.8653 8.14882 33.9897 8.2832C34.2728 8.58895 34.5557 8.89491 34.8377 9.2016C34.9126 9.28285 34.9876 9.36397 35.0627 9.44496C35.1659 9.55619 35.2685 9.66791 35.3711 9.77966C35.4293 9.84273 35.4875 9.9058 35.5475 9.97079C35.6714 10.125 35.6714 10.125 35.6714 10.2852C35.1641 10.2912 34.6567 10.2955 34.1494 10.2984C33.9768 10.2996 33.8042 10.3012 33.6316 10.3033C33.3835 10.3062 33.1355 10.3076 32.8874 10.3086C32.8103 10.3099 32.7331 10.3111 32.6536 10.3124C32.5454 10.3124 32.5454 10.3124 32.435 10.3124C32.3401 10.3132 32.3401 10.3132 32.2432 10.314C32.0147 10.2764 31.9087 10.2108 31.7476 10.0449C31.709 9.86099 31.709 9.86099 31.7112 9.64275C31.7112 9.56101 31.7112 9.47926 31.7113 9.39504C31.7129 9.30694 31.7146 9.21885 31.7163 9.12809C31.7167 9.03778 31.7172 8.94747 31.7177 8.85443C31.7194 8.56556 31.7235 8.27676 31.7275 7.98792C31.7291 7.79226 31.7306 7.5966 31.7319 7.40094C31.7355 6.92091 31.7408 6.44093 31.7476 5.96094Z" fill="#FFD700"/>
<path d="M20.5332 13.2813C20.6952 13.3257 20.6952 13.3257 20.9004 13.4959C21.0352 13.7654 21.0453 13.9082 21.0155 14.2066C20.8951 14.4061 20.8951 14.4061 20.7302 14.5969C20.6721 14.6652 20.614 14.7334 20.5541 14.8037C20.4654 14.9045 20.4654 14.9045 20.3749 15.0073C20.3215 15.0704 20.2681 15.1335 20.2132 15.1985C19.7731 15.7145 19.7731 15.7145 19.434 15.7531C18.9905 15.7104 18.7215 15.4536 18.423 15.1425C18.249 14.9281 18.2115 14.8403 18.1577 14.5569C18.2286 14.2091 18.3235 14.0896 18.6132 13.8862C18.9034 13.8612 18.9034 13.8612 19.1737 13.8862C19.253 13.8862 19.3323 13.8862 19.4139 13.8862C19.5403 13.7616 19.5403 13.7616 19.6642 13.606C19.9404 13.3174 20.1363 13.2474 20.5332 13.2813Z" fill="#FFD700"/>
</svg>
