<svg width="50" height="50" viewBox="0 0 50 50" fill="none" xmlns="http://www.w3.org/2000/svg">
<path d="M24.9766 9.00024C25.0401 9.00037 25.1037 9.00051 25.1691 9.00064C26.0811 9.00374 26.9757 9.01941 27.8715 9.20699C27.9323 9.21939 27.9932 9.2318 28.0559 9.24457C31.1151 9.88445 33.8619 11.2788 36.1113 13.4514C36.15 13.4888 36.1888 13.5261 36.2287 13.5647C36.7219 14.043 37.1929 14.5262 37.6094 15.0742C37.6354 15.1079 37.6614 15.1417 37.6882 15.1764C39.2175 17.1656 40.2469 19.4471 40.7501 21.905C40.7593 21.9499 40.7685 21.9947 40.7779 22.041C40.9636 23.0176 41.0035 23.9834 40.9998 24.9752C40.9996 25.0387 40.9995 25.1022 40.9994 25.1677C40.9963 26.0795 40.9806 26.9741 40.793 27.8698C40.7744 27.961 40.7744 27.961 40.7554 28.0541C40.1155 31.1131 38.721 33.8597 36.5482 36.1088C36.5108 36.1476 36.4735 36.1863 36.4349 36.2263C35.9565 36.7194 35.4733 37.1904 34.9252 37.6068C34.8915 37.6329 34.8578 37.6589 34.823 37.6857C32.6612 39.3473 30.1334 40.444 27.4345 40.8525C27.3647 40.8636 27.2949 40.8747 27.223 40.8861C26.5512 40.9825 25.8871 40.9986 25.209 40.9971C25.025 40.9969 24.841 40.9983 24.6569 40.9999C23.8211 41.0027 23.0151 40.9277 22.191 40.7901C22.12 40.7784 22.049 40.7666 21.9759 40.7545C21.8139 40.7254 21.6533 40.6931 21.4926 40.6575C21.4059 40.6383 21.4059 40.6383 21.3175 40.6188C18.5043 39.9647 15.96 38.5464 13.8887 36.5457C13.8306 36.4897 13.8306 36.4897 13.7713 36.4325C13.2781 35.9541 12.8071 35.4709 12.3906 34.9229C12.3646 34.8892 12.3386 34.8555 12.3118 34.8207C10.7825 32.8315 9.75309 30.5501 9.24993 28.0921C9.24073 28.0472 9.23153 28.0024 9.22205 27.9561C9.03642 26.9795 8.99646 26.0137 9.00024 25.022C9.00037 24.9584 9.00051 24.8949 9.00064 24.8294C9.00375 23.9176 9.01941 23.023 9.20701 22.1274C9.21941 22.0665 9.23182 22.0057 9.24459 21.943C10.0224 18.225 12.0131 14.7076 15.0748 12.3903C15.1084 12.3644 15.142 12.3384 15.1767 12.3117C17.1661 10.7825 19.4478 9.75306 21.9062 9.24991C21.951 9.24071 21.9959 9.23151 22.0422 9.22203C23.0188 9.03641 23.9847 8.99646 24.9766 9.00024ZM24.0676 15.2303C23.8827 15.5059 23.8685 15.7576 23.8672 16.0852C23.8668 16.1647 23.8663 16.2441 23.8658 16.326C23.8657 16.4139 23.8655 16.5018 23.8653 16.5897C23.8649 16.6824 23.8645 16.7751 23.8641 16.8678C23.8628 17.1721 23.8621 17.4763 23.8615 17.7806C23.8613 17.8855 23.861 17.9903 23.8607 18.0952C23.8596 18.5879 23.8587 19.0806 23.8581 19.5733C23.8575 20.1415 23.8559 20.7097 23.8534 21.2779C23.8515 21.7174 23.8506 22.157 23.8504 22.5966C23.8502 22.8589 23.8497 23.1213 23.8481 23.3836C23.8466 23.6306 23.8464 23.8775 23.847 24.1244C23.847 24.2148 23.8466 24.3052 23.8458 24.3956C23.8405 24.9854 23.8647 25.3923 24.2699 25.8463C24.3494 25.9152 24.3494 25.9152 24.4304 25.9855C24.4911 26.0383 24.5519 26.0911 24.6145 26.1455C24.8891 26.3746 25.1705 26.5949 25.4533 26.8138C25.7008 27.0058 25.9435 27.2034 26.186 27.4016C26.4958 27.6544 26.8072 27.9046 27.1224 28.1506C27.4375 28.3967 27.7489 28.6469 28.0587 28.8996C28.5122 29.2693 28.9694 29.6337 29.432 29.9919C29.4668 30.019 29.5016 30.0461 29.5375 30.074C29.6386 30.1524 29.74 30.2303 29.8417 30.3079C29.8997 30.3524 29.9577 30.3969 30.0175 30.4428C30.3211 30.6486 30.5629 30.7159 30.9302 30.6785C31.3138 30.5456 31.5441 30.3538 31.7465 29.9988C31.8086 29.8567 31.8247 29.7563 31.8275 29.6018C31.8293 29.5577 31.831 29.5136 31.8329 29.4682C31.7442 28.9661 31.4529 28.6819 31.0628 28.3808C31.0156 28.3432 30.9684 28.3056 30.9198 28.2668C30.7783 28.1544 30.6359 28.0432 30.4932 27.9322C30.4168 27.8721 30.3405 27.8119 30.2642 27.7517C30.1585 27.6684 30.0526 27.5852 29.9464 27.5024C29.6679 27.2851 29.3935 27.0632 29.1199 26.8399C28.7754 26.5587 28.428 26.2817 28.0775 26.008C27.7508 25.7523 27.4288 25.4909 27.1079 25.2281C27.0691 25.1965 27.0304 25.1648 26.9905 25.1322C26.954 25.1015 26.9176 25.0708 26.8801 25.0393C26.7499 24.9332 26.7499 24.9332 26.6036 24.8513C26.3696 24.7044 26.2128 24.5925 26.1347 24.3203C26.1156 24.0947 26.1146 23.8751 26.1195 23.6487C26.1193 23.5626 26.1189 23.4765 26.1183 23.3905C26.1175 23.2058 26.1185 23.0212 26.1208 22.8365C26.1245 22.5442 26.1243 22.2521 26.1237 21.9598C26.1231 21.4974 26.1252 21.0351 26.1284 20.5727C26.134 19.745 26.1351 18.9172 26.1352 18.0894C26.1353 17.7992 26.1366 17.5089 26.1389 17.2187C26.1402 17.0379 26.1408 16.857 26.1412 16.6762C26.1417 16.553 26.1431 16.4297 26.1446 16.3064C26.1448 15.8102 26.1197 15.4795 25.792 15.0898C25.5054 14.8499 25.2636 14.7231 24.8803 14.7407C24.5346 14.7977 24.2771 14.9503 24.0676 15.2303Z" fill="#FFD700"/>
</svg>
