<svg width="50" height="50" viewBox="0 0 50 50" fill="none" xmlns="http://www.w3.org/2000/svg">
<g clip-path="url(#clip0_865_5089)">
<path d="M21.9377 23.2733C22.0107 23.2731 22.0837 23.2728 22.1589 23.2725C22.3984 23.2718 22.6379 23.2716 22.8774 23.2716C23.0454 23.2713 23.2135 23.271 23.3815 23.2708C23.7331 23.2703 24.0848 23.2702 24.4364 23.2702C24.8845 23.2702 25.3325 23.2691 25.7805 23.2678C26.1275 23.2669 26.4745 23.2668 26.8215 23.2668C26.9865 23.2667 27.1515 23.2664 27.3166 23.2658C29.3152 23.2591 31.1152 23.4839 32.6061 24.9506C32.6744 25.0196 32.7427 25.0886 32.813 25.1597C32.8652 25.2101 32.9173 25.2606 32.9711 25.3126C34.2001 26.5889 34.3869 28.3283 34.3881 30.0131C34.3885 30.1314 34.3888 30.2498 34.3893 30.3682C34.3903 30.688 34.3908 31.0077 34.3911 31.3275C34.3914 31.5276 34.3917 31.7276 34.392 31.9277C34.3931 32.5546 34.3939 33.1814 34.3942 33.8083C34.3945 34.5304 34.3959 35.2524 34.3982 35.9745C34.3998 36.534 34.4006 37.0934 34.4007 37.6529C34.4008 37.9865 34.4013 38.3201 34.4027 38.6537C34.404 38.9674 34.4041 39.281 34.4034 39.5946C34.4034 39.7094 34.4037 39.8242 34.4045 39.9389C34.4131 41.2867 34.4131 41.2867 33.9605 41.7515C33.5123 42.0225 33.11 42.0574 32.6008 42.055C32.5332 42.0553 32.4656 42.0556 32.396 42.0559C32.17 42.0568 31.9441 42.0564 31.7181 42.0561C31.5558 42.0565 31.3936 42.0569 31.2314 42.0573C30.791 42.0584 30.3507 42.0584 29.9104 42.0582C29.5426 42.0582 29.1749 42.0585 28.8072 42.0589C27.9396 42.0598 27.072 42.0598 26.2045 42.0593C25.3097 42.0589 24.415 42.0598 23.5202 42.0615C22.7518 42.0629 21.9833 42.0633 21.2149 42.0631C20.756 42.0629 20.2972 42.0631 19.8383 42.0642C19.4068 42.0652 18.9752 42.0651 18.5436 42.064C18.3854 42.0639 18.2272 42.0641 18.069 42.0647C17.8526 42.0655 17.6364 42.0649 17.42 42.0639C17.3577 42.0645 17.2954 42.0651 17.2312 42.0657C16.7331 42.0609 16.2785 41.9797 15.9087 41.6196C15.674 41.2314 15.606 40.8824 15.6057 40.4322C15.6052 40.3312 15.6048 40.2303 15.6043 40.1263C15.6046 40.0153 15.605 39.9044 15.6053 39.7935C15.6051 39.6759 15.6048 39.5583 15.6045 39.4407C15.6037 39.1218 15.604 38.803 15.6045 38.4842C15.6049 38.1495 15.6045 37.8148 15.6043 37.4801C15.604 36.9174 15.6044 36.3547 15.6051 35.792C15.606 35.1438 15.6057 34.4956 15.6048 33.8474C15.6041 33.2894 15.604 32.7313 15.6044 32.1732C15.6047 31.8406 15.6047 31.5081 15.6042 31.1755C15.6038 30.862 15.6041 30.5486 15.605 30.2351C15.6052 30.121 15.6051 30.0068 15.6048 29.8926C15.5997 28.0473 15.9661 26.4013 17.2915 25.0541C17.3949 24.9517 17.3949 24.9517 17.5005 24.8472C17.551 24.795 17.6014 24.7428 17.6534 24.6891C18.8002 23.5847 20.4027 23.2725 21.9377 23.2733Z" fill="#FFD700"/>
<path d="M30.0534 10.0922C31.4853 11.5696 32.0013 13.4435 31.9735 15.4563C31.9269 16.9504 31.3225 18.4273 30.3122 19.5307C30.274 19.5788 30.2358 19.627 30.1965 19.6766C29.1803 20.9575 27.4595 21.7248 25.8702 21.9348C24.069 22.1257 22.2514 21.6981 20.8004 20.5854C20.6893 20.4948 20.5786 20.4037 20.4684 20.3119C20.4212 20.2752 20.374 20.2384 20.3253 20.2005C19.1684 19.2735 18.2471 17.5846 18.0618 16.1078C17.881 14.0782 18.2323 12.1899 19.5379 10.5793C19.7122 10.3795 19.8919 10.1884 20.0778 9.99943C20.1372 9.939 20.1966 9.87858 20.2578 9.81632C23.0671 7.12683 27.3605 7.55207 30.0534 10.0922Z" fill="#FFD700"/>
<path d="M36.0938 26.3247C36.6272 26.3167 37.1606 26.3113 37.694 26.3075C37.8749 26.306 38.0559 26.3038 38.2368 26.3011C39.5198 26.2823 40.7269 26.3005 41.8896 26.9155C41.9406 26.9419 41.9916 26.9683 42.0441 26.9955C43.3407 27.6988 44.2699 28.8454 44.7656 30.2309C44.7859 30.2876 44.8063 30.3443 44.8272 30.4027C45.0807 31.2474 45.0354 32.1164 45.0339 32.99C45.0342 33.167 45.0346 33.3441 45.0351 33.5211C45.0358 33.8907 45.0356 34.2603 45.0348 34.63C45.0339 35.1019 45.0355 35.5738 45.0378 36.0458C45.0392 36.4108 45.0392 36.7759 45.0388 37.141C45.0388 37.315 45.0392 37.4889 45.0402 37.6629C45.0466 38.9846 44.9432 39.9827 44.0186 40.9975C43.9557 41.0539 43.8929 41.1103 43.8281 41.1684C43.7459 41.2458 43.7459 41.2458 43.6621 41.3247C42.6678 42.0164 41.5766 42.0519 40.4041 42.0431C40.288 42.0428 40.172 42.0426 40.056 42.0424C39.7539 42.0418 39.4519 42.0403 39.1498 42.0385C38.8402 42.0369 38.5307 42.0362 38.2211 42.0354C37.6162 42.0338 37.0112 42.0311 36.4062 42.0278C36.4189 41.9364 36.4316 41.845 36.4446 41.7508C36.4828 41.4442 36.4946 41.1436 36.4953 40.8343C36.4956 40.7807 36.4958 40.7271 36.4961 40.6718C36.4967 40.494 36.4968 40.3162 36.497 40.1385C36.4973 40.0102 36.4977 39.8819 36.4981 39.7536C36.4992 39.4064 36.4997 39.0592 36.5 38.7119C36.5002 38.4945 36.5006 38.277 36.5009 38.0596C36.502 37.3777 36.5027 36.6958 36.503 36.0139C36.5034 35.2296 36.5048 34.4452 36.507 33.6609C36.5087 33.0528 36.5095 32.4447 36.5096 31.8366C36.5097 31.4743 36.5101 31.112 36.5115 30.7497C36.5128 30.4083 36.513 30.067 36.5123 29.7256C36.5123 29.6013 36.5126 29.4769 36.5134 29.3526C36.5181 28.5456 36.4361 27.8144 36.25 27.0278C36.219 26.8862 36.188 26.7446 36.1572 26.603C36.1363 26.5112 36.1153 26.4193 36.0938 26.3247Z" fill="#FFD700"/>
<path d="M12.0324 26.3076C12.2149 26.3091 12.3974 26.3106 12.5799 26.3118C13.0224 26.3152 13.4649 26.3204 13.9074 26.3271C13.8749 26.4614 13.8749 26.4614 13.8418 26.5984C13.8132 26.7179 13.7846 26.8375 13.7561 26.957C13.7418 27.0157 13.7276 27.0745 13.7129 27.1351C13.6921 27.2223 13.6921 27.2223 13.6709 27.3113C13.6519 27.3905 13.6519 27.3905 13.6325 27.4712C13.5441 27.904 13.507 28.3235 13.5069 28.7649C13.5068 28.8188 13.5066 28.8728 13.5065 28.9284C13.5062 29.1077 13.5064 29.287 13.5067 29.4663C13.5066 29.5954 13.5064 29.7246 13.5063 29.8537C13.5059 30.2035 13.5061 30.5533 13.5063 30.9031C13.5065 31.2697 13.5063 31.6363 13.5062 32.0029C13.5061 32.6186 13.5062 33.2343 13.5066 33.85C13.507 34.561 13.5069 35.272 13.5065 35.9829C13.5061 36.5942 13.5061 37.2054 13.5063 37.8166C13.5064 38.1813 13.5064 38.546 13.5061 38.9107C13.5059 39.2537 13.5061 39.5967 13.5065 39.9397C13.5066 40.0653 13.5066 40.1909 13.5064 40.3165C13.5062 40.4885 13.5065 40.6605 13.5069 40.8325C13.5069 40.9286 13.5069 41.0247 13.507 41.1236C13.5177 41.4309 13.5526 41.7258 13.5949 42.0302C12.9286 42.0339 12.2624 42.0366 11.5961 42.0383C11.2866 42.0391 10.9771 42.0402 10.6676 42.042C10.3683 42.0437 10.0689 42.0446 9.76951 42.045C9.65602 42.0453 9.54254 42.0459 9.42905 42.0467C8.5273 42.0532 7.65332 42.0399 6.84199 41.6103C6.70921 41.5417 6.70921 41.5417 6.57374 41.4718C5.79617 41.0116 5.28715 40.2502 5.03741 39.3851C5.00005 39.2125 4.9907 39.059 4.98968 38.8825C4.98912 38.8161 4.98856 38.7497 4.98798 38.6812C4.98777 38.6089 4.98756 38.5366 4.98734 38.4622C4.98683 38.3855 4.98632 38.3089 4.98579 38.2299C4.98425 37.976 4.98334 37.7221 4.98256 37.4681C4.98224 37.3811 4.98192 37.2941 4.98159 37.2044C4.97996 36.7431 4.97885 36.2818 4.97811 35.8205C4.97725 35.3465 4.97457 34.8725 4.97146 34.3985C4.9694 34.032 4.96876 33.6656 4.96848 33.2991C4.9681 33.1246 4.9672 32.95 4.96574 32.7754C4.95103 30.896 5.32648 29.31 6.67575 27.9276C8.21402 26.4675 10.0102 26.2771 12.0324 26.3076Z" fill="#FFD700"/>
<path d="M40.2594 15.3867C41.4093 16.2679 42.0987 17.4166 42.3926 18.8242C42.5925 20.4076 42.2051 21.8552 41.2314 23.1211C40.3423 24.1351 39.0807 24.8307 37.7262 24.9357C36.2982 25.0101 34.9295 24.7021 33.8264 23.7484C32.7323 22.7428 32.0348 21.4903 31.9382 19.9888C31.9169 18.4697 32.4021 17.0705 33.4579 15.958C35.3179 14.1926 38.1353 13.9521 40.2594 15.3867Z" fill="#FFD700"/>
<path d="M12.5504 14.4403C13.909 14.3985 15.2065 14.8309 16.2495 15.7107C17.3082 16.7079 17.9668 17.9378 18.065 19.3994C18.1061 20.9999 17.5541 22.3296 16.4704 23.4909C15.3643 24.5496 13.9875 24.9683 12.4857 24.9429C11.1458 24.8887 9.9412 24.2889 8.98506 23.359C7.97383 22.2473 7.51419 20.8982 7.5547 19.4091C7.6353 17.8764 8.36366 16.635 9.47609 15.6176C10.3567 14.8872 11.4189 14.509 12.5504 14.4403Z" fill="#FFD700"/>
</g>
<defs>
<clipPath id="clip0_865_5089">
<rect width="40" height="40" fill="white" transform="translate(5 5)"/>
</clipPath>
</defs>
</svg>
