<svg width="50" height="50" viewBox="0 0 50 50" fill="none" xmlns="http://www.w3.org/2000/svg">
<path d="M27.9403 5.6813C28.0046 5.69635 28.0688 5.7114 28.135 5.7269C30.631 6.31686 32.7571 7.67205 34.555 9.48501C34.603 9.53326 34.651 9.5815 34.7004 9.6312C37.2511 12.2323 38.4333 15.7896 38.4297 19.4104C38.4056 21.7194 37.8304 23.8836 36.727 25.901C36.67 26.009 36.613 26.117 36.5542 26.2283C36.1573 26.954 35.6838 27.5783 35.1474 28.2033C35.0439 28.3283 35.0439 28.3283 34.9384 28.4559C32.8596 30.9032 29.8758 32.405 26.7556 32.9079C26.6359 32.9276 26.6359 32.9276 26.5138 32.9478C23.0133 33.4061 19.4459 32.4228 16.6211 30.3096C16.373 30.1145 16.1338 29.9123 15.8957 29.7047C15.8026 29.6249 15.7094 29.545 15.6134 29.4627C13.1398 27.2904 11.4182 23.951 11.1696 20.6242C10.9567 16.8018 11.8435 13.0919 14.3921 10.1693C14.6579 9.86949 14.9308 9.57703 15.2046 9.28482C15.289 9.18959 15.289 9.18959 15.3751 9.09244C18.3825 5.80867 23.7526 4.60333 27.9403 5.6813ZM23.9913 9.08462C23.8776 9.33711 23.791 9.56469 23.7117 9.82754C23.688 9.90126 23.6642 9.97498 23.6398 10.0509C23.5641 10.2872 23.4907 10.5242 23.4174 10.7613C23.3695 10.9128 23.3213 11.0642 23.273 11.2156C23.1988 11.4486 23.1248 11.6816 23.0515 11.9148C22.7175 12.977 22.3663 14.0335 22.0168 15.0905C21.9387 15.0911 21.8606 15.0917 21.7802 15.0923C21.0437 15.0981 20.3073 15.1053 19.5708 15.1141C19.1923 15.1186 18.8137 15.1225 18.4351 15.1252C18.0695 15.1278 17.704 15.1318 17.3385 15.1368C17.1992 15.1385 17.0599 15.1397 16.9206 15.1403C16.7252 15.1413 16.5297 15.1442 16.3343 15.1473C16.2232 15.1484 16.112 15.1495 15.9975 15.1507C15.66 15.1957 15.476 15.2853 15.2046 15.4909C14.9753 15.7779 14.9753 15.7779 15.0134 16.129C15.1927 16.832 15.8486 17.1923 16.4079 17.5929C16.5668 17.708 16.7256 17.8231 16.8845 17.9382C16.9658 17.9968 17.047 18.0554 17.1308 18.1158C17.5246 18.4006 17.9164 18.6881 18.3083 18.9755C18.455 19.0829 18.6017 19.1903 18.7484 19.2977C19.2463 19.6626 19.7433 20.0287 20.2397 20.3957C20.0993 21.0947 19.9039 21.7601 19.6809 22.4363C19.6463 22.5425 19.6118 22.6487 19.5762 22.758C19.4295 23.2089 19.2817 23.6594 19.1341 24.11C19.026 24.4403 18.9184 24.7709 18.8109 25.1014C18.7774 25.2028 18.744 25.3041 18.7096 25.4086C18.388 26.2406 18.388 26.2406 18.4873 27.0772C18.7097 27.3671 18.8707 27.4906 19.2324 27.5413C19.6284 27.4928 19.8599 27.3249 20.1656 27.0834C20.2881 26.9907 20.4106 26.8981 20.5332 26.8054C20.63 26.7311 20.63 26.7311 20.7287 26.6553C21.0778 26.3897 21.4337 26.1337 21.7885 25.876C22.2719 25.5243 22.7512 25.1684 23.2242 24.8023C23.3091 24.7372 23.394 24.672 23.4814 24.6049C23.6458 24.4785 23.8095 24.351 23.9723 24.2223C24.0465 24.1655 24.1207 24.1086 24.1972 24.05C24.2624 23.9991 24.3276 23.9481 24.3948 23.8956C24.5836 23.799 24.5836 23.799 24.7825 23.8178C24.9952 23.906 25.1584 24.0093 25.3434 24.1478C25.4132 24.1995 25.4829 24.2512 25.5548 24.3044C25.6294 24.3606 25.7039 24.4168 25.7807 24.4746C25.9409 24.5937 26.101 24.7126 26.2612 24.8316C26.3841 24.9234 26.3841 24.9234 26.5095 25.017C26.9678 25.3584 27.4292 25.6953 27.8911 26.0316C28.2404 26.2862 28.5877 26.5426 28.9307 26.8058C28.9929 26.8528 29.0551 26.8998 29.1192 26.9483C29.2343 27.0353 29.3486 27.1235 29.4618 27.2129C29.8206 27.4819 30.0637 27.5619 30.5072 27.5026C30.8055 27.3211 30.968 27.2104 31.0718 26.8689C31.1031 26.5684 31.0626 26.3859 30.9705 26.0998C30.9398 26.0025 30.9091 25.9052 30.8775 25.805C30.8434 25.701 30.8093 25.5969 30.7741 25.4897C30.7224 25.3273 30.7224 25.3273 30.6696 25.1617C30.559 24.8155 30.4467 24.4699 30.3345 24.1243C30.2603 23.8931 30.1863 23.6619 30.1123 23.4307C29.9756 23.0038 29.8383 22.577 29.7002 22.1506C29.67 22.0569 29.6399 21.9632 29.6088 21.8666C29.5506 21.6897 29.4901 21.5135 29.4272 21.3383C29.3851 21.2196 29.3851 21.2196 29.3421 21.0986C29.3169 21.0301 29.2916 20.9617 29.2657 20.8912C29.2156 20.6577 29.2431 20.5188 29.3225 20.2956C29.458 20.1621 29.458 20.1621 29.6334 20.043C29.6991 19.9973 29.7649 19.9516 29.8326 19.9045C29.9046 19.856 29.9765 19.8075 30.0506 19.7575C30.2044 19.6509 30.358 19.544 30.5115 19.4369C30.5918 19.3811 30.6722 19.3253 30.755 19.2678C31.162 18.9808 31.5594 18.681 31.9573 18.3812C32.4006 18.0476 32.844 17.7145 33.2955 17.3923C33.3595 17.3466 33.4236 17.3009 33.4896 17.2538C33.6079 17.1697 33.7265 17.0861 33.8455 17.003C34.1132 16.8129 34.272 16.6721 34.4563 16.3918C34.506 16.0055 34.4876 15.8404 34.2774 15.5096C33.9296 15.157 33.6229 15.1766 33.1516 15.17C33.0251 15.168 32.8986 15.166 32.7683 15.164C32.6302 15.1623 32.4922 15.1606 32.3541 15.1589C32.2129 15.1569 32.0716 15.1547 31.9304 15.1526C31.5589 15.1471 31.1874 15.1421 30.8159 15.1373C30.4367 15.1323 30.0575 15.1267 29.6783 15.1212C28.9344 15.1104 28.1906 15.1003 27.4467 15.0905C27.4241 15.0189 27.4015 14.9472 27.3782 14.8734C27.1643 14.1971 26.9495 13.5211 26.7335 12.8455C26.6224 12.4982 26.5118 12.1508 26.4021 11.803C26.2962 11.4672 26.1892 11.1317 26.0814 10.7964C26.0208 10.6067 25.9612 10.4167 25.9017 10.2267C25.8641 10.1105 25.8266 9.9943 25.7879 9.87458C25.7555 9.77255 25.723 9.67053 25.6896 9.56541C25.5569 9.25173 25.407 9.03215 25.176 8.78433C24.6199 8.61005 24.3963 8.673 23.9913 9.08462Z" fill="#FFD700"/>
<path d="M24.683 11.2891C24.9318 11.5117 25.0368 11.6928 25.1366 12.0122C25.1771 12.1395 25.1771 12.1395 25.2184 12.2694C25.2465 12.3607 25.2746 12.452 25.3035 12.5461C25.3333 12.6403 25.3631 12.7345 25.3938 12.8315C25.4889 13.1325 25.5827 13.4338 25.6764 13.7352C25.7707 14.0362 25.8653 14.3371 25.9602 14.6378C26.0191 14.825 26.0777 15.0122 26.1359 15.1997C26.1759 15.3274 26.1759 15.3274 26.2168 15.4578C26.24 15.5324 26.2632 15.6071 26.2871 15.684C26.4268 16.1183 26.4268 16.1183 26.7563 16.394C26.9205 16.4059 27.0853 16.4118 27.2499 16.4146C27.4041 16.4176 27.4041 16.4176 27.5614 16.4206C27.7283 16.4232 27.7283 16.4232 27.8986 16.4257C28.0691 16.4288 28.0691 16.4288 28.243 16.432C28.6072 16.4386 28.9713 16.4445 29.3355 16.4503C29.5819 16.4547 29.8284 16.459 30.0748 16.4634C30.6799 16.4742 31.2849 16.4844 31.89 16.4941C31.8084 16.9381 31.577 17.1019 31.2298 17.3575C31.1727 17.4008 31.1155 17.444 31.0567 17.4886C30.6452 17.7986 30.2279 18.1005 29.8106 18.4023C29.7537 18.4435 29.6969 18.4848 29.6383 18.5273C29.3539 18.7334 29.0681 18.9364 28.7786 19.135C28.6701 19.2118 28.5616 19.2887 28.4531 19.3657C28.3568 19.4321 28.2604 19.4986 28.1612 19.5671C27.8604 19.8816 27.8612 20.0611 27.8423 20.498C27.9114 20.8403 28.0215 21.1644 28.135 21.4939C28.1658 21.5875 28.1966 21.6811 28.2284 21.7776C28.3266 22.0752 28.4268 22.3721 28.5272 22.6689C28.6269 22.9669 28.7263 23.2651 28.8249 23.5635C28.8863 23.7488 28.9484 23.9338 29.0112 24.1186C29.0392 24.2025 29.0671 24.2864 29.096 24.3728C29.1208 24.4463 29.1457 24.5197 29.1713 24.5954C29.2244 24.8022 29.2244 24.8022 29.2244 25.2026C28.7563 25.153 28.5061 24.9547 28.1446 24.6584C28.0311 24.5669 27.9175 24.4757 27.8037 24.3847C27.7452 24.3377 27.6867 24.2908 27.6265 24.2425C27.2245 23.9262 26.8069 23.6315 26.3907 23.3348C26.1843 23.1877 25.9836 23.0374 25.7829 22.882C25.6989 22.8179 25.6149 22.7538 25.5284 22.6877C25.4572 22.6317 25.3861 22.5757 25.3128 22.518C24.9713 22.3463 24.7652 22.3449 24.3868 22.3999C24.0884 22.5577 23.831 22.7597 23.5662 22.9692C23.4101 23.0881 23.2541 23.207 23.098 23.3258C23.0181 23.3875 22.9382 23.4492 22.8559 23.5127C22.4517 23.8222 22.04 24.121 21.6287 24.4206C21.4195 24.574 21.2104 24.7275 21.0012 24.8809C20.555 25.2026 20.555 25.2026 20.2403 25.2026C20.3432 24.551 20.5127 23.9422 20.7197 23.3184C20.746 23.2388 20.7723 23.1591 20.7995 23.0771C20.9102 22.7438 21.0215 22.4108 21.1346 22.0783C21.2177 21.8331 21.2989 21.5873 21.3799 21.3414C21.4186 21.2301 21.4186 21.2301 21.4581 21.1164C21.6124 20.6428 21.65 20.2939 21.5238 19.7974C21.2836 19.5316 21.2836 19.5316 20.9623 19.3156C20.9051 19.2737 20.848 19.2318 20.7891 19.1886C20.6075 19.0559 20.424 18.9261 20.2403 18.7964C20.1232 18.7116 20.0062 18.6266 19.8894 18.5415C19.6596 18.3743 19.4295 18.2075 19.1991 18.0414C19.1429 18.0008 19.0867 17.9602 19.0288 17.9184C18.9139 17.8356 18.7988 17.7529 18.6836 17.6704C18.5168 17.5505 18.3511 17.4292 18.1856 17.3074C18.0892 17.2375 17.9929 17.1676 17.8936 17.0955C17.6569 16.8794 17.6324 16.798 17.5747 16.4941C17.6384 16.4936 17.702 16.493 17.7676 16.4924C18.429 16.486 19.0904 16.4775 19.7518 16.4679C19.9988 16.4645 20.2458 16.4617 20.4928 16.4595C20.8474 16.4561 21.2019 16.4509 21.5565 16.4453C21.7227 16.4443 21.7227 16.4443 21.8922 16.4433C22.0463 16.4404 22.0463 16.4404 22.2036 16.4373C22.3394 16.4357 22.3394 16.4357 22.478 16.434C22.755 16.386 22.8378 16.3195 23.0047 16.0938C23.1063 15.8342 23.1956 15.5804 23.2789 15.3149C23.3038 15.2379 23.3287 15.161 23.3544 15.0817C23.4341 14.8354 23.5125 14.5888 23.5909 14.342C23.6943 14.0198 23.7982 13.6976 23.9021 13.3755C23.9269 13.2982 23.9518 13.2208 23.9774 13.1412C24.5229 11.4514 24.5229 11.4514 24.683 11.2891Z" fill="#FFD700"/>
<path d="M16.4862 31.9062C17.0018 31.9617 17.3997 32.2247 17.8437 32.4756C19.4974 33.3815 21.2578 33.8671 23.1009 34.2085C23.0415 34.7851 22.9345 35.323 22.7825 35.8812C22.7603 35.9643 22.7382 36.0474 22.7154 36.133C22.6427 36.4051 22.5692 36.6769 22.4958 36.9487C22.445 37.1383 22.3942 37.3279 22.3435 37.5175C22.2104 38.0146 22.0766 38.5115 21.9428 39.0084C21.8061 39.5162 21.67 40.0242 21.5338 40.5322C21.2669 41.5275 20.9994 42.5226 20.7315 43.5176C20.6011 43.5176 20.4708 43.5176 20.3365 43.5176C20.2943 43.4424 20.252 43.3672 20.2084 43.2898C20.0496 43.0077 19.8904 42.7259 19.731 42.4441C19.6624 42.3228 19.5939 42.2013 19.5256 42.0798C18.9671 40.9432 18.9671 40.9432 18.1214 40.0642C17.5441 39.95 17.1206 40.1754 16.6308 40.4673C16.5715 40.5023 16.5121 40.5372 16.451 40.5732C16.2627 40.6842 16.0752 40.7964 15.8877 40.9088C15.6997 41.0206 15.5116 41.1321 15.3233 41.2433C15.1526 41.3442 14.9823 41.4459 14.8121 41.5477C14.5511 41.6938 14.2975 41.812 14.0181 41.916C13.8807 41.4982 14.0113 41.1768 14.1225 40.7658C14.1453 40.679 14.168 40.5922 14.1915 40.5028C14.2672 40.2151 14.3441 39.9277 14.4211 39.6404C14.4739 39.4405 14.5267 39.2406 14.5794 39.0407C14.7187 38.5136 14.859 37.9867 14.9994 37.4598C15.1417 36.9254 15.2829 36.3908 15.4243 35.8562C15.6315 35.0736 15.8389 34.291 16.0473 33.5087C16.0689 33.4274 16.0905 33.3462 16.1127 33.2625C16.2336 32.8093 16.3579 32.3573 16.4862 31.9062Z" fill="#FFD700"/>
<path d="M33.0732 31.9062C33.4105 33.1668 33.747 34.4275 34.0823 35.6886C34.238 36.2741 34.3941 36.8595 34.5508 37.4447C34.702 38.0092 34.8523 38.5739 35.0021 39.1387C35.0595 39.3545 35.1172 39.5702 35.1751 39.7858C35.2561 40.0871 35.336 40.3887 35.4156 40.6903C35.44 40.78 35.4643 40.8698 35.4894 40.9622C35.5109 41.0443 35.5324 41.1264 35.5545 41.211C35.5735 41.2823 35.5925 41.3537 35.6121 41.4271C35.6401 41.6157 35.6401 41.6157 35.5413 41.916C35.1391 41.7662 34.7844 41.5699 34.4156 41.3494C34.294 41.2775 34.1723 41.2057 34.0506 41.1338C33.8608 41.0213 33.6712 40.9085 33.482 40.7951C33.298 40.685 33.1133 40.5761 32.9285 40.4673C32.7642 40.3694 32.7642 40.3694 32.5965 40.2695C32.2817 40.1135 32.0392 40.0409 31.691 40.0142C31.1954 40.1889 30.992 40.4098 30.7346 40.865C30.7027 40.9199 30.6708 40.9747 30.6379 41.0312C30.4293 41.3921 30.2307 41.7586 30.0308 42.1244C29.9588 42.2543 29.9588 42.2543 29.8855 42.3868C29.7901 42.5595 29.6961 42.7329 29.6036 42.9072C29.5599 42.9864 29.5162 43.0657 29.4712 43.1473C29.4328 43.2187 29.3944 43.2901 29.3548 43.3636C29.3113 43.4144 29.2677 43.4652 29.2228 43.5176C29.0925 43.5176 28.9622 43.5176 28.8279 43.5176C28.5773 42.5777 28.3266 41.6379 28.0761 40.698C27.9596 40.2615 27.8432 39.8249 27.7268 39.3883C27.6141 38.9658 27.5015 38.5433 27.3888 38.1208C27.3462 37.9608 27.3035 37.8008 27.2608 37.6409C27.2405 37.5646 27.2201 37.4884 27.1992 37.4098C27.1792 37.335 27.1593 37.2601 27.1387 37.183C27.0808 36.9655 27.023 36.748 26.9653 36.5305C26.8901 36.247 26.8136 35.9637 26.7363 35.6807C26.6997 35.5452 26.6631 35.4097 26.6265 35.2742C26.5941 35.1554 26.5617 35.0367 26.5283 34.9143C26.4585 34.6089 26.4585 34.6089 26.4585 34.2085C26.5289 34.1945 26.5993 34.1805 26.6719 34.1661C28.6795 33.7596 30.4671 33.2034 32.2549 32.1859C32.7485 31.9062 32.7485 31.9062 33.0732 31.9062Z" fill="#FFD700"/>
</svg>
