<svg width="50" height="50" viewBox="0 0 50 50" fill="none" xmlns="http://www.w3.org/2000/svg">
<g clip-path="url(#clip0_865_3174)">
<path d="M26.6412 11.7917C26.7542 11.7914 26.7542 11.7914 26.8696 11.791C27.7425 11.8008 28.6089 11.9469 29.414 12.293C29.414 12.3562 29.414 12.4193 29.414 12.4844C29.2745 12.5227 29.2745 12.5227 29.1323 12.5617C27.9558 12.8923 26.8181 13.3086 25.6756 13.7405C25.4912 13.8097 25.3068 13.8789 25.1225 13.948C24.7851 14.0745 24.4478 14.2014 24.1106 14.3286C24.0369 14.3563 23.9631 14.3841 23.8871 14.4127C23.7445 14.4666 23.6022 14.5213 23.4601 14.5768C23.1288 14.705 22.8172 14.8158 22.4639 14.8587C22.3887 14.8687 22.3134 14.8787 22.2359 14.889C22.159 14.8989 22.0822 14.9087 22.0029 14.9189C20.8292 15.0722 20.8292 15.0722 19.9394 15.7921C19.6157 16.3484 19.5697 16.8282 19.6522 17.461C20.0434 18.5856 20.6741 19.2205 21.7261 19.7303C23.1963 20.4025 24.7182 20.1088 26.2554 19.8666C27.0586 19.7412 27.8519 19.6392 28.6659 19.6296C28.7308 19.6282 28.7957 19.6267 28.8626 19.6252C30.0458 19.6318 30.959 20.4564 31.8065 21.1934C32.0543 21.3986 32.3042 21.6011 32.5542 21.8035C32.6197 21.8567 32.6852 21.91 32.7527 21.9649C33.2217 22.3456 33.6953 22.7199 34.1714 23.0917C34.6657 23.4786 35.1521 23.8747 35.6384 24.2716C36.0485 24.6057 36.4619 24.9352 36.8788 25.2608C37.4276 25.6893 37.9685 26.1268 38.5078 26.5672C38.9339 26.9145 39.3643 27.2556 39.7977 27.5935C40.5329 28.1699 40.5329 28.1699 40.8744 28.4549C40.9312 28.502 40.9879 28.5491 41.0464 28.5977C41.4139 29.0106 41.4188 29.4864 41.406 30.013C41.3266 30.7541 40.9889 31.2108 40.4292 31.6815C39.9761 31.9861 39.532 32.0855 38.9914 32.0733C38.4372 31.95 38.043 31.5631 37.6248 31.199C37.3837 30.991 37.1359 30.7918 36.888 30.5918C36.6931 30.4345 36.499 30.2762 36.305 30.1177C35.833 29.7335 35.3559 29.3561 34.8754 28.9827C34.6973 28.8439 34.5203 28.7037 34.3453 28.561C34.2793 28.5082 34.2133 28.4554 34.1453 28.401C34.0652 28.3353 34.0652 28.3353 33.9834 28.2683C33.7559 28.1477 33.5914 28.1514 33.3378 28.1797C33.1265 28.3536 33.1265 28.3536 33.1097 28.5977C33.1591 28.9372 33.2811 29.0245 33.5412 29.2444C33.6283 29.3186 33.7154 29.3927 33.8051 29.4691C34.4366 29.9849 35.0793 30.4867 35.7281 30.9805C36.2665 31.3966 36.6588 31.7305 36.8788 32.3907C36.9559 33.1426 36.8045 33.7102 36.3764 34.3286C35.8658 34.8392 35.439 35.009 34.7374 35.0909C34.1214 35.0405 33.6642 34.6976 33.2002 34.3167C33.144 34.2716 33.0879 34.2265 33.03 34.1801C32.8448 34.031 32.6606 33.8809 32.4765 33.7305C32.3374 33.6175 32.1983 33.5044 32.0593 33.3914C31.8549 33.2254 31.6506 33.0592 31.4469 32.8922C31.3856 32.842 31.3243 32.7919 31.2611 32.7402C31.207 32.6958 31.1529 32.6514 31.0971 32.6056C30.7715 32.35 30.5925 32.2526 30.1796 32.295C29.9488 32.4822 29.9488 32.4822 29.9762 32.8333C29.9802 32.9399 29.9841 33.0465 29.9882 33.1563C30.0441 33.1822 30.1 33.2081 30.1576 33.2349C30.3696 33.3469 30.5382 33.4697 30.7231 33.6217C30.7884 33.6751 30.8537 33.7284 30.9209 33.7834C31.0218 33.8668 31.0218 33.8668 31.1247 33.9518C31.1911 34.0063 31.2576 34.0607 31.3262 34.1169C31.4571 34.2243 31.5878 34.332 31.7182 34.44C31.8355 34.5368 31.9536 34.6327 32.0725 34.7276C32.5033 35.0741 32.7177 35.3868 32.7905 35.9477C32.8193 36.6449 32.6335 37.2849 32.1542 37.8087C31.6372 38.2478 31.0123 38.524 30.3284 38.4835C29.8102 38.3488 29.4319 37.9946 29.0311 37.6543C28.9201 37.5615 28.8091 37.4686 28.6981 37.3758C28.4807 37.1934 28.265 37.0092 28.0502 36.8237C27.6956 36.5096 27.6956 36.5096 27.2547 36.3863C27.0041 36.3872 27.0041 36.3872 26.83 36.6016C26.8258 36.9223 26.8345 37.1654 27.0507 37.417C27.2167 37.5579 27.3874 37.6848 27.5657 37.8099C27.6838 37.8968 27.8018 37.9837 27.9197 38.0708C27.9774 38.1126 28.035 38.1545 28.0944 38.1976C28.7973 38.7179 28.7973 38.7179 28.9354 38.9942C28.9674 39.7302 28.756 40.2677 28.2655 40.8125C27.8592 41.1802 27.4216 41.2688 26.8812 41.2436C26.4333 41.1546 26.126 40.9042 25.7772 40.6211C25.6822 40.5453 25.5873 40.4694 25.4894 40.3912C25.2323 40.1831 24.9776 39.9727 24.7245 39.7598C24.751 39.7021 24.7776 39.6443 24.8049 39.5848C24.8395 39.5084 24.8742 39.4319 24.9099 39.3531C24.9444 39.2776 24.9788 39.2021 25.0142 39.1243C25.3313 38.3552 25.2347 37.7032 24.9339 36.947C24.5441 36.0906 23.9214 35.6067 23.0437 35.2737C22.8809 35.2204 22.8809 35.2204 22.7147 35.166C22.725 35.0873 22.7352 35.0086 22.7458 34.9275C22.8608 33.8562 22.6956 33.0657 22.0448 32.1993C21.3193 31.356 20.4665 31.053 19.3838 30.9693C19.2798 30.9623 19.2798 30.9623 19.1737 30.9551C19.1586 30.8615 19.1434 30.7678 19.1277 30.6714C18.9387 29.5796 18.6422 28.6991 17.7382 27.9883C17.0253 27.5067 16.2854 27.3999 15.4413 27.3184C15.4341 27.2488 15.427 27.1792 15.4196 27.1075C15.2768 26.0152 14.9135 25.1133 14.039 24.411C13.3155 23.9114 12.5297 23.6722 11.6476 23.8196C11.0973 23.9673 10.6411 24.2154 10.1776 24.543C10.0463 24.4111 9.9171 24.2771 9.78884 24.1422C9.71667 24.0679 9.6445 23.9935 9.57014 23.9168C9.41201 23.6817 9.41201 23.6817 9.41463 23.4409C9.52381 23.162 9.65658 22.9916 9.85464 22.7665C10.2823 22.2626 10.6806 21.7418 11.0748 21.2113C11.5787 20.5351 12.0901 19.8665 12.6136 19.2053C12.9796 18.7429 13.3375 18.2744 13.6963 17.8064C13.8948 17.5474 14.0939 17.2889 14.2929 17.0303C14.3726 16.9266 14.4524 16.823 14.5321 16.7193C15.0106 16.0972 15.0106 16.0972 15.1302 15.9418C15.2101 15.8379 15.2901 15.7339 15.3699 15.63C15.5667 15.3742 15.7636 15.1185 15.9609 14.8632C16.0184 14.7883 16.0184 14.7883 16.0771 14.7118C16.1561 14.6101 16.2362 14.5092 16.3173 14.4092C16.5489 14.1195 16.7334 13.8365 16.9 13.5046C17.1436 13.0533 17.3921 12.6654 17.8339 12.3887C18.4083 12.2328 18.9989 12.2731 19.5889 12.2875C19.6882 12.2899 19.6882 12.2899 19.7894 12.2923C19.8584 12.2939 19.9273 12.2956 19.9983 12.2974C21.1758 12.3135 22.3506 12.1419 23.5191 12.0132C24.5599 11.8994 25.5933 11.7939 26.6412 11.7917Z" fill="#147DC0"/>
<path d="M37.3572 12.3884C37.52 12.5549 37.52 12.5549 37.6824 12.7735C37.7434 12.8545 37.8044 12.9355 37.8672 13.019C37.9318 13.107 37.9964 13.195 38.063 13.2856C38.1307 13.3762 38.1984 13.4667 38.2682 13.56C38.4761 13.8385 38.6825 14.1181 38.8885 14.3982C38.9481 14.4792 39.0078 14.5602 39.0692 14.6436C39.2915 14.9458 39.5138 15.248 39.7353 15.5507C40.1143 16.0668 40.5031 16.5741 40.8982 17.0779C41.4087 17.7288 41.9036 18.3894 42.3919 19.0571C42.8139 19.6332 43.2452 20.2016 43.6796 20.7684C43.9333 21.101 44.1864 21.4341 44.4392 21.7673C44.502 21.8498 44.5648 21.9324 44.6295 22.0174C44.8087 22.2541 44.9861 22.492 45.163 22.7303C45.2172 22.8015 45.2714 22.8727 45.3273 22.9461C45.3759 23.0122 45.4244 23.0783 45.4744 23.1464C45.5173 23.2038 45.5602 23.2612 45.6043 23.3203C45.6834 23.49 45.6834 23.49 45.6641 23.685C45.5314 24.011 45.2674 24.235 45.0194 24.4769C44.9629 24.5324 44.9064 24.588 44.8482 24.6452C43.8235 25.6342 42.3661 26.6054 40.9939 27.031C40.6813 26.985 40.5035 26.8724 40.2649 26.6699C40.1997 26.6151 40.1344 26.5604 40.0672 26.504C39.9634 26.4155 39.9634 26.4155 39.8575 26.3252C39.7104 26.2018 39.5632 26.0786 39.4159 25.9554C39.3428 25.8942 39.2697 25.8329 39.1944 25.7698C38.9034 25.5285 38.6068 25.295 38.3083 25.0631C37.8269 24.6881 37.3514 24.3065 36.8787 23.9206C36.4038 23.5331 35.9263 23.1495 35.4431 22.7722C34.96 22.3949 34.4825 22.0113 34.0076 21.6238C31.2493 19.2284 31.2493 19.2284 27.7758 18.629C27.1951 18.6999 26.6175 18.7925 26.0397 18.8832C22.9019 19.3703 22.9019 19.3703 21.549 18.4611C21.1328 18.1288 20.7258 17.7049 20.6092 17.1736C20.6053 16.8943 20.6419 16.687 20.7049 16.4079C20.9712 16.1525 21.1977 16.0763 21.5576 16.0205C21.651 16.0046 21.7444 15.9887 21.8406 15.9724C21.9415 15.9555 22.0424 15.9386 22.1464 15.9212C23.5118 15.6699 24.7707 15.2151 26.0642 14.7212C26.2857 14.638 26.5073 14.555 26.7289 14.4722C27.0401 14.3559 27.3512 14.2394 27.6618 14.1214C29.2387 13.5233 29.2387 13.5233 29.797 13.4561C29.8822 13.4456 29.9673 13.435 30.055 13.4242C30.1454 13.414 30.2358 13.4038 30.329 13.3933C30.4263 13.3816 30.5236 13.3698 30.6238 13.3578C31.2113 13.289 31.7995 13.2319 32.3889 13.1813C34.5773 13.0459 34.5773 13.0459 36.657 12.4183C37.0526 12.2618 37.0526 12.2618 37.3572 12.3884Z" fill="#147DC0"/>
<path d="M15.4416 10.2832C16.8875 11.3566 16.8875 11.3566 17.0685 11.7187C16.509 12.4688 15.9431 13.2135 15.3713 13.9542C15.1712 14.2137 14.9714 14.4736 14.7717 14.7334C14.6919 14.837 14.6122 14.9407 14.5324 15.0444C14.4929 15.0957 14.4534 15.147 14.4128 15.1999C14.0539 15.6665 14.0539 15.6665 13.9343 15.8219C13.8543 15.9259 13.7743 16.0299 13.6944 16.1339C13.4986 16.3884 13.3028 16.6428 13.1069 16.8972C12.6559 17.483 12.206 18.0697 11.757 18.6572C11.232 19.3441 10.7054 20.0298 10.1779 20.7148C10.0952 20.8225 10.0124 20.9301 9.92968 21.0378C9.47198 21.6334 9.01308 22.2281 8.55095 22.8203C7.48519 22.2261 6.2687 21.3329 5.87127 20.1406C5.67521 18.0289 7.34596 16.4395 8.55095 14.8769C8.6437 14.7562 8.73642 14.6355 8.82909 14.5147C8.98188 14.3156 9.13494 14.1168 9.28817 13.918C9.44299 13.7171 9.59753 13.516 9.75173 13.3146C13.1949 8.81986 13.1949 8.81986 15.4416 10.2832Z" fill="#147DC0"/>
<path d="M42.6319 10.1448C42.6915 10.1906 42.7511 10.2364 42.8125 10.2835C42.891 10.3428 42.9694 10.4022 43.0503 10.4633C43.4802 10.8258 43.8058 11.2788 44.1523 11.7191C44.2014 11.7811 44.2504 11.8431 44.3009 11.907C45.056 12.8636 45.7883 13.8352 46.5075 14.8189C46.7172 15.1052 46.9292 15.3893 47.1446 15.6713C49.4005 18.6259 49.4005 18.6259 49.2246 20.0452C48.9285 21.0674 48.1972 21.6756 47.3823 22.3002C47.3144 22.3528 47.2464 22.4054 47.1764 22.4596C47.1116 22.5078 47.0468 22.556 46.9801 22.6057C46.9217 22.6494 46.8633 22.6931 46.8032 22.7382C46.7495 22.7654 46.6959 22.7926 46.6406 22.8206C46.3191 22.7135 46.2761 22.6545 46.0862 22.3885C46.0346 22.3171 45.983 22.2457 45.9298 22.1722C45.8742 22.094 45.8186 22.0159 45.7614 21.9354C45.6405 21.7683 45.5195 21.6013 45.3984 21.4344C45.3353 21.3474 45.2722 21.2603 45.2072 21.1707C44.8937 20.7429 44.5709 20.3224 44.248 19.9017C43.7069 19.1948 43.1748 18.4822 42.6488 17.7641C42.2313 17.1955 41.8056 16.6336 41.377 16.0735C40.8283 15.3565 40.2877 14.6343 39.7537 13.9063C39.2157 13.173 38.6702 12.4455 38.123 11.7191C38.4822 10.8718 39.7883 10.1509 40.6113 9.81695C41.3642 9.59906 41.9901 9.70347 42.6319 10.1448Z" fill="#147DC0"/>
<path d="M20.7053 32.2949C21.2609 32.6474 21.5502 33.1069 21.7581 33.7304C21.8446 34.2787 21.8418 34.8037 21.5214 35.2803C21.2537 35.5967 20.9579 35.8838 20.6601 36.1716C20.4475 36.3812 20.2521 36.5952 20.0593 36.8228C19.6675 37.2794 19.2857 37.7106 18.6556 37.7727C17.9424 37.7918 17.4433 37.7035 16.9041 37.2195C16.4564 36.7399 16.2397 36.2401 16.1714 35.5906C16.2336 35.0201 16.418 34.6605 16.7923 34.2407C16.8519 34.1738 16.9116 34.1069 16.973 34.038C17.0361 33.968 17.0993 33.8981 17.1643 33.8261C17.2271 33.7564 17.29 33.6867 17.3547 33.6148C17.5491 33.4008 17.7452 33.1886 17.9419 32.9767C18.0409 32.8679 18.0409 32.8679 18.1419 32.7569C18.2387 32.6529 18.2387 32.6529 18.3374 32.5468C18.3948 32.4845 18.4522 32.4223 18.5113 32.3581C19.1655 31.7938 19.9799 31.9686 20.7053 32.2949Z" fill="#147DC0"/>
<path d="M12.8056 24.8911C13.448 25.133 13.9127 25.5922 14.2135 26.207C14.3031 26.4882 14.3252 26.7245 14.329 27.0194C14.3318 27.1139 14.3345 27.2084 14.3373 27.3058C14.2394 27.9712 13.8238 28.4007 13.3541 28.8437C13.2516 28.943 13.1493 29.0424 13.0471 29.1421C12.9981 29.1899 12.949 29.2377 12.8985 29.287C12.6626 29.5235 12.4481 29.777 12.2355 30.0344C11.9464 30.3469 11.667 30.5424 11.2359 30.5952C10.5603 30.6182 10.0256 30.4696 9.50651 30.0239C9.04007 29.533 8.7746 29.0232 8.72705 28.3435C8.76312 27.5039 9.33874 26.9891 9.91175 26.4362C10.0887 26.2592 10.2495 26.074 10.4112 25.8829C10.5241 25.7547 10.6378 25.6271 10.7521 25.5001C10.81 25.435 10.8679 25.3698 10.9275 25.3027C11.4997 24.7246 12.034 24.6911 12.8056 24.8911Z" fill="#147DC0"/>
<path d="M16.8052 28.6106C17.3778 28.9417 17.8259 29.4632 18.0255 30.094C18.0576 30.3718 18.0576 30.3718 18.0613 30.6623C18.0641 30.7579 18.0668 30.8535 18.0696 30.952C17.9703 31.6059 17.4313 32.0625 16.9907 32.5225C16.6219 32.91 16.2613 33.2956 15.926 33.7128C15.6375 34.0429 15.4086 34.1564 14.963 34.2093C14.2742 34.2251 13.7731 34.0751 13.2403 33.6351C12.7854 33.1802 12.4905 32.7037 12.4653 32.0537C12.5167 31.2198 12.9605 30.7316 13.5154 30.1479C13.8275 29.8164 14.1344 29.487 14.4186 29.131C15.0663 28.4232 15.8942 28.2144 16.8052 28.6106Z" fill="#147DC0"/>
<path d="M22.4037 36.2129C23.0503 36.3367 23.5146 36.6686 23.911 37.1879C24.1604 37.6033 24.2467 37.9587 24.2183 38.4425C24.0861 38.9566 23.7429 39.2886 23.3846 39.6642C23.326 39.7401 23.2674 39.8159 23.2071 39.8941C22.9378 40.2208 22.7435 40.4014 22.3244 40.4971C21.6762 40.5303 21.2 40.4278 20.6866 40.0246C20.2749 39.6226 20.0272 39.1321 19.9819 38.5531C20.1021 38.0351 20.6116 37.7078 20.9921 37.3673C21.1182 37.23 21.2422 37.0907 21.3629 36.9486C21.4161 36.8878 21.4692 36.827 21.524 36.7643C21.6363 36.632 21.7428 36.4948 21.8474 36.3564C22.0448 36.2189 22.0448 36.2189 22.4037 36.2129Z" fill="#147DC0"/>
</g>
<defs>
<clipPath id="clip0_865_3174">
<rect width="50" height="50" fill="white"/>
</clipPath>
</defs>
</svg>
