<svg width="50" height="50" viewBox="0 0 50 50" fill="none" xmlns="http://www.w3.org/2000/svg">
<g clip-path="url(#clip0_865_3176)">
<path d="M38.5156 33.1934C38.5727 33.8557 38.6296 34.518 38.6865 35.1803C38.7129 35.4881 38.7394 35.7959 38.7659 36.1036C38.8309 36.8584 38.8955 37.6132 38.9593 38.368C38.9721 38.5194 38.985 38.6707 38.9979 38.822C39.0202 39.0842 39.042 39.3465 39.0637 39.6088C39.0732 39.7203 39.0732 39.7203 39.083 39.8341C39.1178 40.2628 39.1307 40.6851 39.125 41.1152C38.8552 41.0169 38.6383 40.9011 38.407 40.7314C38.3464 40.6872 38.2858 40.643 38.2233 40.5975C38.1611 40.5516 38.0989 40.5056 38.0348 40.4583C37.9711 40.4117 37.9074 40.3652 37.8418 40.3172C37.6853 40.2027 37.5291 40.0879 37.373 39.9727C37.1225 40.0928 36.9328 40.2297 36.7208 40.4106C35.7707 41.1973 34.7716 41.9225 33.7104 42.552C33.6143 42.6091 33.5184 42.6668 33.4229 42.7251C31.0645 44.163 28.2098 45.0006 25.4438 45.0155C25.3767 45.016 25.3096 45.0165 25.2404 45.0171C25.0254 45.0184 24.8103 45.0189 24.5952 45.019C24.5217 45.0191 24.4482 45.0191 24.3725 45.0192C23.306 45.018 22.2722 44.987 21.2246 44.7715C21.1598 44.7592 21.095 44.747 21.0283 44.7343C18.471 44.2466 15.7898 43.2515 13.7598 41.5723C13.7598 41.5471 13.7598 41.522 13.7598 41.4961C14.3619 41.5408 14.9506 41.6246 15.545 41.7294C15.7052 41.7575 15.8654 41.7854 16.0256 41.813C16.0952 41.8253 16.1649 41.8375 16.2367 41.8502C16.4442 41.8841 16.4442 41.8841 16.7305 41.877C16.6551 40.5447 16.5796 39.2125 16.502 37.8398C16.8171 37.9186 17.0372 38.05 17.3065 38.2207C20.533 40.2014 24.3682 40.708 28.0356 39.8536C29.6431 39.451 31.1171 38.6597 32.5028 37.7684C32.5704 37.7252 32.6381 37.6819 32.7077 37.6373C32.8009 37.5763 32.8009 37.5763 32.8959 37.514C32.9514 37.4777 33.007 37.4414 33.0643 37.404C33.1037 37.3718 33.143 37.3397 33.1836 37.3066C33.1836 37.2564 33.1836 37.2061 33.1836 37.1543C33.0543 37.0567 32.9199 36.9658 32.7837 36.8782C32.7012 36.8244 32.6187 36.7706 32.5338 36.7151C32.4457 36.6583 32.3576 36.6016 32.2695 36.5449C32.0977 36.4344 31.9264 36.3233 31.7554 36.2117C31.6788 36.1624 31.6022 36.1131 31.5233 36.0623C31.4679 36.0205 31.4125 35.9786 31.3555 35.9355C31.3555 35.8853 31.3555 35.835 31.3555 35.7832C32.3167 35.4222 33.278 35.0616 34.2395 34.7015C34.7403 34.5139 35.241 34.326 35.7416 34.1377C36.0437 34.0242 36.346 33.9109 36.6482 33.7978C36.7917 33.744 36.9351 33.6901 37.0785 33.6361C37.2778 33.561 37.4773 33.4863 37.6768 33.4118C37.7357 33.3895 37.7946 33.3671 37.8552 33.3442C38.0857 33.2585 38.2677 33.1934 38.5156 33.1934Z" fill="#147DC0"/>
<path d="M25.5664 13.084C25.5915 13.084 25.6167 13.084 25.6426 13.084C25.6426 16.0501 25.6426 19.0163 25.6426 22.0723C27.8043 22.0723 29.9661 22.0723 32.1934 22.0723C31.5005 23.458 31.5005 23.458 31.127 24.1051C30.7436 24.7765 30.3666 25.4511 29.9939 26.1284C29.8903 26.3167 29.7866 26.5049 29.683 26.6932C29.6573 26.7398 29.6316 26.7864 29.6052 26.8344C29.197 27.5755 28.7852 28.3146 28.374 29.054C28.1362 29.4815 27.8987 29.9092 27.6611 30.3369C27.5659 30.5083 27.4707 30.6797 27.3755 30.8511C27.3284 30.9359 27.2812 31.0207 27.2327 31.1082C26.709 32.0508 26.1853 32.9934 25.6616 33.936C25.6144 34.021 25.5672 34.106 25.5186 34.1935C25.4241 34.3636 25.3296 34.5336 25.235 34.7036C25.0121 35.1043 24.7897 35.5052 24.569 35.9071C24.4649 36.0965 24.3606 36.2857 24.2563 36.4749C24.1829 36.6081 24.11 36.7416 24.037 36.875C23.9923 36.956 23.9477 37.037 23.9016 37.1204C23.8431 37.227 23.8431 37.227 23.7835 37.3358C23.6621 37.5352 23.6621 37.5352 23.3574 37.916C23.3574 34.9499 23.3574 31.9837 23.3574 28.9277C21.1957 28.9277 19.0339 28.9277 16.8066 28.9277C17.4995 27.542 17.4995 27.542 17.873 26.8949C18.2564 26.2235 18.6335 25.5489 19.0061 24.8716C19.1097 24.6833 19.2134 24.4951 19.317 24.3068C19.3427 24.2602 19.3684 24.2136 19.3948 24.1656C19.803 23.4245 20.2148 22.6854 20.626 21.946C20.8638 21.5185 21.1013 21.0908 21.3389 20.6631C21.4341 20.4917 21.5293 20.3203 21.6245 20.1489C21.6952 20.0217 21.6952 20.0217 21.7673 19.8918C22.291 18.9492 22.8147 18.0066 23.3384 17.064C23.3856 16.979 23.4328 16.894 23.4814 16.8065C23.5759 16.6364 23.6704 16.4664 23.7648 16.2964C23.9877 15.8953 24.2105 15.4942 24.433 15.0929C24.5379 14.9036 24.6429 14.7144 24.7479 14.5251C24.8219 14.3918 24.8958 14.2584 24.9697 14.125C25.0146 14.044 25.0595 13.963 25.1058 13.8796C25.1452 13.8085 25.1846 13.7375 25.2252 13.6642C25.4463 13.273 25.4463 13.273 25.5664 13.084Z" fill="#147DC0"/>
<path d="M32.5742 10.9512C35.289 10.9512 38.0037 10.9512 40.8008 10.9512C40.5293 11.2227 40.2557 11.4876 39.9724 11.7462C39.9326 11.7827 39.8927 11.8191 39.8517 11.8567C39.5635 12.1195 39.2711 12.376 38.9727 12.627C39.0954 12.9173 39.2899 13.1318 39.4963 13.3649C40.3141 14.3117 40.9981 15.363 41.6387 16.4355C41.6699 16.487 41.7011 16.5385 41.7332 16.5915C42.9157 18.5559 43.6473 20.7897 43.9238 23.0625C43.9304 23.1136 43.937 23.1647 43.9437 23.2173C43.9954 23.6424 44.0132 24.0613 44.0155 24.4892C44.016 24.5581 44.0165 24.627 44.0171 24.698C44.0341 27.5165 44.0341 27.5165 43.7715 28.7754C43.7572 28.8499 43.7428 28.9245 43.7281 29.0013C43.2968 31.2245 42.4854 33.6455 41.1055 35.4785C41.0552 35.4785 41.0049 35.4785 40.9531 35.4785C40.903 34.8984 40.8533 34.3183 40.8042 33.7382C40.7813 33.4687 40.7583 33.1992 40.735 32.9298C40.7081 32.619 40.6818 32.3081 40.6556 31.9972C40.6472 31.902 40.6389 31.8067 40.6303 31.7086C40.5825 31.1355 40.5618 30.5692 40.5723 29.9941C40.5076 30.0195 40.443 30.0448 40.3764 30.0709C40.1165 30.1727 39.8564 30.2739 39.5963 30.375C39.5038 30.4113 39.4112 30.4477 39.3159 30.4851C39.183 30.5366 39.183 30.5366 39.0473 30.5892C38.9247 30.6371 38.9247 30.6371 38.7995 30.6859C38.5918 30.7559 38.5918 30.7559 38.3633 30.7559C38.4488 30.3204 38.5656 29.9022 38.7013 29.48C39.1269 28.1453 39.3074 26.8485 39.3011 25.4524C39.3009 25.3562 39.3009 25.3562 39.3007 25.258C39.2973 24.3326 39.276 23.4312 39.0488 22.5293C39.0298 22.4509 39.0298 22.4509 39.0104 22.3709C38.4662 20.1869 37.3741 18.276 36.002 16.5117C35.4489 17.0647 34.8959 17.6177 34.3262 18.1875C34.2131 18.1498 34.2131 18.1498 34.0977 18.1113C34.0298 17.9014 33.978 17.7014 33.9319 17.4864C33.917 17.4209 33.9021 17.3554 33.8867 17.2879C33.8375 17.0702 33.7898 16.8523 33.7421 16.6343C33.7083 16.4833 33.6745 16.3323 33.6406 16.1814C33.5696 15.8644 33.4993 15.5473 33.4295 15.2301C33.3401 14.8235 33.2494 14.4173 33.1583 14.0111C33.0883 13.6991 33.0188 13.387 32.9495 13.0748C32.9162 12.925 32.8828 12.7752 32.8494 12.6255C32.8026 12.4159 32.7565 12.2061 32.7104 11.9964C32.6966 11.9345 32.6827 11.8726 32.6684 11.8088C32.6559 11.7513 32.6434 11.6939 32.6305 11.6347C32.6141 11.5604 32.6141 11.5604 32.5974 11.4846C32.5742 11.332 32.5742 11.332 32.5742 10.9512Z" fill="#147DC0"/>
<path d="M24.3668 5.97176C24.477 5.97182 24.477 5.97182 24.5893 5.97188C27.7217 5.97998 31.354 6.69724 33.9454 8.59017C33.9454 8.6153 33.9454 8.64044 33.9454 8.66634C32.5378 8.66634 31.1301 8.66634 29.6798 8.66634C29.8306 9.23192 29.8306 9.23192 29.9845 9.80892C30.0297 10.0012 30.0735 10.1938 30.1142 10.387C30.1339 10.4796 30.1535 10.5721 30.1737 10.6675C30.193 10.7596 30.2122 10.8518 30.232 10.9467C30.2627 11.0916 30.2627 11.0916 30.2939 11.2394C30.3434 11.4734 30.3926 11.7076 30.4415 11.9417C30.186 11.8961 29.9547 11.8327 29.7131 11.7382C26.5873 10.5419 23.2854 10.3257 20.0821 11.4085C20.0321 11.4253 19.9821 11.442 19.9305 11.4593C18.6177 11.9115 17.3574 12.632 16.1974 13.389C16.4067 13.6067 16.6228 13.7932 16.8651 13.9734C16.9667 14.0492 16.9667 14.0492 17.0704 14.1266C17.1405 14.1786 17.2106 14.2305 17.2828 14.284C17.3541 14.3371 17.4254 14.3903 17.4988 14.445C17.6742 14.5756 17.8498 14.7061 18.0255 14.8363C18.0004 14.8865 17.9752 14.9368 17.9493 14.9886C17.7233 15.0466 17.5008 15.0949 17.2718 15.1388C17.2007 15.1529 17.1297 15.167 17.0564 15.1816C16.8203 15.2284 16.584 15.2742 16.3476 15.3201C16.1842 15.3522 16.0207 15.3845 15.8572 15.4168C15.5141 15.4844 15.171 15.5516 14.8277 15.6184C14.3869 15.7043 13.9463 15.7908 13.5057 15.8777C13.0867 15.9602 12.6677 16.0425 12.2486 16.1246C12.1682 16.1404 12.0877 16.1562 12.0049 16.1725C11.778 16.217 11.5511 16.2612 11.3242 16.3054C11.2565 16.3187 11.1888 16.332 11.119 16.3457C10.6544 16.4359 10.6544 16.4359 10.4845 16.4359C10.4628 14.8955 10.5229 13.3616 10.5904 11.8232C10.6045 11.5003 10.6181 11.1775 10.6318 10.8546C10.6584 10.2268 10.6855 9.59888 10.713 8.97103C10.9804 9.09875 11.1889 9.25256 11.4176 9.44234C11.4907 9.50302 11.5639 9.5637 11.6393 9.62622C11.9177 9.86134 12.1929 10.0997 12.465 10.3421C12.8279 10.1056 13.1836 9.86253 13.5314 9.60421C15.7296 8.0041 18.1636 6.86085 20.8248 6.28597C20.8777 6.27446 20.9307 6.26294 20.9852 6.25108C22.1107 6.02234 23.2219 5.96932 24.3668 5.97176Z" fill="#147DC0"/>
<path d="M8.04698 15.293C8.09726 15.293 8.14753 15.293 8.19933 15.293C8.21188 16.1434 8.17234 16.9866 8.12315 17.8352C8.11579 17.9661 8.10845 18.097 8.10114 18.228C8.08339 18.5446 8.06529 18.8612 8.04698 19.1777C8.09088 19.1678 8.13478 19.1579 8.18 19.1476C9.29866 18.8957 10.4195 18.6787 11.5509 18.4922C11.46 18.7373 11.3523 18.9703 11.2358 19.2039C10.377 20.932 9.71939 22.803 9.70729 24.7541C9.70676 24.8119 9.70623 24.8697 9.70568 24.9293C9.70436 25.1147 9.70388 25.3002 9.70372 25.4857C9.70364 25.5489 9.70357 25.6122 9.70349 25.6773C9.70425 26.602 9.73506 27.4914 9.95128 28.3945C9.97249 28.4842 9.9937 28.5738 10.0155 28.6662C10.0865 28.935 10.1683 29.1971 10.256 29.4609C10.2728 29.5131 10.2896 29.5652 10.307 29.6189C10.7652 31.0198 11.4699 32.3191 12.2364 33.5742C12.6607 33.2289 13.0418 32.8491 13.4213 32.456C13.5314 32.3435 13.6454 32.2349 13.7599 32.127C13.8101 32.127 13.8604 32.127 13.9122 32.127C13.9623 32.8819 14.012 33.6368 14.0612 34.3917C14.084 34.7424 14.107 35.0931 14.1304 35.4437C14.1529 35.783 14.1751 36.1223 14.197 36.4616C14.2054 36.5902 14.2139 36.7187 14.2225 36.8472C14.2755 37.6367 14.3046 38.4195 14.2931 39.2109C13.53 39.1634 12.7837 39.0282 12.0317 38.8967C11.8951 38.8731 11.7586 38.8495 11.622 38.8259C11.3374 38.7767 11.0529 38.7272 10.7685 38.6776C10.4037 38.614 10.0389 38.5508 9.67399 38.4878C9.39272 38.4392 9.11149 38.3904 8.83026 38.3415C8.69567 38.3182 8.56107 38.2949 8.42646 38.2716C8.23904 38.2391 8.05166 38.2064 7.86429 38.1737C7.80873 38.1641 7.75318 38.1545 7.69594 38.1447C7.47572 38.106 7.26928 38.063 7.05675 37.9922C7.05675 37.9419 7.05675 37.8916 7.05675 37.8398C7.17786 37.7287 7.3043 37.6233 7.43285 37.5209C7.50865 37.4602 7.58445 37.3995 7.66255 37.337C7.96741 37.097 8.27246 36.8574 8.58018 36.6211C8.34458 36.1758 8.09943 35.7394 7.83275 35.3119C6.6477 33.4009 5.79495 31.434 5.30479 29.2324C5.28856 29.1608 5.27232 29.0892 5.25559 29.0154C4.76063 26.7271 4.80751 24.1263 5.30479 21.8438C5.32071 21.7694 5.33663 21.6951 5.35303 21.6186C5.69428 20.0782 6.23428 18.5772 6.9808 17.1865C7.06065 17.0377 7.13883 16.888 7.21683 16.7382C7.74562 15.7273 7.74562 15.7273 8.04698 15.293Z" fill="#147DC0"/>
</g>
<defs>
<clipPath id="clip0_865_3176">
<rect width="39" height="39" fill="white" transform="translate(5 6)"/>
</clipPath>
</defs>
</svg>
