<svg width="50" height="50" viewBox="0 0 50 50" fill="none" xmlns="http://www.w3.org/2000/svg">
<g clip-path="url(#clip0_865_3175)">
<path d="M34.2559 20.0078C36.426 20.0078 38.5961 20.0078 40.832 20.0078C40.832 27.2098 40.832 34.4118 40.832 41.832C41.5475 41.832 42.2629 41.832 43 41.832C43 42.5475 43 43.2629 43 44C30.79 44 18.58 44 6 44C6 43.2846 6 42.5691 6 41.832C6.71543 41.832 7.43086 41.832 8.16797 41.832C8.16797 38.2072 8.16797 34.5823 8.16797 30.8477C10.3381 30.8477 12.5082 30.8477 14.7441 30.8477C14.7441 34.4725 14.7441 38.0973 14.7441 41.832C15.4596 41.832 16.175 41.832 16.9121 41.832C16.9121 36.0609 16.9121 30.2898 16.9121 24.3438C19.0584 24.3438 21.2047 24.3438 23.416 24.3438C23.416 30.1149 23.416 35.886 23.416 41.832C24.1314 41.832 24.8469 41.832 25.584 41.832C25.584 37.4918 25.584 33.1515 25.584 28.6797C27.7303 28.6797 29.8766 28.6797 32.0879 28.6797C32.0879 33.02 32.0879 37.3602 32.0879 41.832C32.8033 41.832 33.5188 41.832 34.2559 41.832C34.2559 34.63 34.2559 27.428 34.2559 20.0078Z" fill="#147DC0"/>
<path d="M34.2559 7C37.1414 7 40.027 7 43 7C43 9.86172 43 12.7234 43 15.6719C42.2846 15.6719 41.5691 15.6719 40.832 15.6719C40.8082 14.0979 40.7843 12.524 40.7598 10.9023C40.2351 11.427 39.7105 11.9516 39.1699 12.4922C38.9791 12.6591 38.7884 12.8261 38.5918 12.998C38.4443 13.1396 38.2987 13.2816 38.1546 13.4265C38.1146 13.4665 38.0746 13.5065 38.0333 13.5476C37.9011 13.6797 37.7692 13.8121 37.6372 13.9444C37.5418 14.0399 37.4463 14.1354 37.3508 14.2308C37.0929 14.4886 36.8353 14.7467 36.5778 15.0047C36.3081 15.2749 36.0381 15.5449 35.7682 15.8149C35.2577 16.3256 34.7475 16.8364 34.2373 17.3474C33.6561 17.9293 33.0748 18.5111 32.4934 19.0928C31.2981 20.2888 30.1031 21.4852 28.9082 22.6816C28.6403 22.5694 28.4702 22.406 28.2661 22.2015C28.2317 22.1671 28.1972 22.1328 28.1617 22.0974C28.0464 21.9823 27.9316 21.8668 27.8168 21.7512C27.7342 21.6685 27.6516 21.5859 27.5689 21.5034C27.3447 21.2791 27.1208 21.0545 26.8971 20.8297C26.6632 20.5949 26.4289 20.3605 26.1946 20.126C25.751 19.682 25.3078 19.2377 24.8648 18.7931C24.3603 18.2871 23.8555 17.7815 23.3506 17.2758C22.3121 16.2358 21.274 15.1952 20.2363 14.1543C19.9756 14.2766 19.8099 14.4204 19.6074 14.6271C19.5425 14.6928 19.4775 14.7586 19.4106 14.8263C19.3426 14.8958 19.2745 14.9654 19.2065 15.035C19.0739 15.1702 18.941 15.3053 18.808 15.4401C18.7492 15.5001 18.6905 15.5601 18.63 15.622C18.4855 15.7622 18.3423 15.8915 18.189 16.0211C17.7304 16.4213 17.3066 16.8577 16.8771 17.2885C16.7795 17.3861 16.6819 17.4838 16.5842 17.5814C16.3206 17.845 16.0572 18.1088 15.7938 18.3727C15.518 18.649 15.242 18.925 14.966 19.2011C14.444 19.7233 13.9222 20.2457 13.4005 20.7682C12.8062 21.3632 12.2118 21.958 11.6173 22.5529C10.395 23.7759 9.17302 24.9992 7.95117 26.2227C7.69655 26.1028 7.5321 25.9649 7.33353 25.7637C7.242 25.6714 7.242 25.6714 7.14863 25.5773C7.08556 25.5131 7.0225 25.4488 6.95752 25.3826C6.86124 25.2853 6.86124 25.2853 6.76302 25.1861C6.60471 25.0261 6.44674 24.8657 6.28906 24.7051C6.40482 24.4174 6.60575 24.2242 6.82259 24.0104C6.86111 23.9719 6.89964 23.9334 6.93933 23.8937C7.02092 23.8124 7.10269 23.7312 7.18462 23.6501C7.30825 23.5278 7.43131 23.4049 7.55428 23.2819C7.63404 23.2025 7.71383 23.1232 7.79366 23.0438C7.82974 23.0078 7.86582 22.9718 7.90299 22.9347C8.10025 22.74 8.30237 22.5541 8.51253 22.3733C8.79106 22.1303 9.05523 21.8766 9.31586 21.6147C9.36239 21.5682 9.40892 21.5218 9.45686 21.4739C9.61103 21.3198 9.76495 21.1655 9.91886 21.0112C10.03 20.9001 10.1411 20.7889 10.2523 20.6778C10.5528 20.3773 10.8531 20.0766 11.1534 19.7758C11.4677 19.4611 11.7822 19.1465 12.0967 18.832C12.6916 18.2368 13.2863 17.6415 13.881 17.0461C14.5582 16.368 15.2357 15.6902 15.9132 15.0123C17.3063 13.6185 18.6991 12.2244 20.0918 10.8301C20.3597 10.9423 20.5298 11.1057 20.7339 11.3102C20.7683 11.3446 20.8028 11.3789 20.8383 11.4143C20.9536 11.5294 21.0684 11.645 21.1832 11.7605C21.2658 11.8432 21.3484 11.9258 21.4311 12.0084C21.6553 12.2326 21.8792 12.4573 22.1029 12.682C22.3368 12.9168 22.5711 13.1512 22.8054 13.3857C23.249 13.8297 23.6922 14.2741 24.1352 14.7186C24.6397 15.2246 25.1445 15.7303 25.6494 16.2359C26.6879 17.2759 27.726 18.3165 28.7637 19.3574C28.9957 19.2471 29.1494 19.1325 29.3294 18.9478C29.4072 18.8688 29.4072 18.8688 29.4866 18.7882C29.567 18.7055 29.567 18.7055 29.6489 18.6212C29.7545 18.5131 29.8603 18.4052 29.9662 18.2974C30.0128 18.2495 30.0594 18.2016 30.1074 18.1523C30.2451 18.0193 30.3843 17.8957 30.5298 17.7718C30.9315 17.4211 31.3051 17.0423 31.6813 16.6648C31.7625 16.5836 31.8437 16.5023 31.925 16.4211C32.144 16.2021 32.3628 15.9829 32.5815 15.7637C32.8108 15.534 33.0402 15.3045 33.2696 15.075C33.7033 14.6411 34.1368 14.2071 34.5702 13.7729C35.0639 13.2783 35.5579 12.784 36.0519 12.2897C37.0674 11.2734 38.0826 10.2569 39.0977 9.24023C37.4999 9.21639 35.9021 9.19254 34.2559 9.16797C34.2559 8.45254 34.2559 7.73711 34.2559 7Z" fill="#147DC0"/>
</g>
<defs>
<clipPath id="clip0_865_3175">
<rect width="37" height="37" fill="white" transform="translate(6 7)"/>
</clipPath>
</defs>
</svg>
