<svg width="50" height="50" viewBox="0 0 50 50" fill="none" xmlns="http://www.w3.org/2000/svg">
<g clip-path="url(#clip0_865_3173)">
<path d="M25.1564 8.58922C25.2807 8.58975 25.2807 8.58975 25.4076 8.59029C25.6103 8.59121 25.8131 8.59249 26.0158 8.59411C25.9544 8.65453 25.8929 8.71496 25.8296 8.77721C25.6373 8.97245 25.503 9.1261 25.3908 9.37536C25.4223 9.67648 25.5125 9.85934 25.6938 10.0986C25.7398 10.16 25.7858 10.2213 25.8331 10.2845C25.8821 10.3487 25.9311 10.4128 25.9816 10.4789C26.0557 10.5783 26.0557 10.5783 26.1313 10.6796C26.3415 10.9612 26.5533 11.2408 26.7742 11.514C27.0714 11.8911 27.2806 12.1704 27.2283 12.6661C27.1628 12.9027 27.084 12.9968 26.8752 13.1254C26.3268 13.2659 25.7995 13.1411 25.2492 13.0521C24.478 12.9265 24.478 12.9265 23.7004 12.8565C23.6415 12.8534 23.5827 12.8503 23.522 12.8472C23.2534 12.9196 23.1868 13.0429 23.047 13.2816C22.9719 13.5629 22.9343 13.8467 22.8969 14.1352C22.8852 14.2181 22.8735 14.3011 22.8615 14.3865C22.837 14.5617 22.8131 14.737 22.7898 14.9123C22.7543 15.1794 22.717 15.4463 22.6793 15.7131C22.6557 15.8837 22.6322 16.0544 22.6088 16.225C22.5978 16.3043 22.5869 16.3836 22.5755 16.4653C22.4386 17.2197 22.4386 17.2197 22.6198 17.9224C22.87 18.0843 23.1091 18.1287 23.3986 18.1693C23.4558 18.1785 23.5131 18.1876 23.572 18.1971C23.9014 18.249 24.2317 18.2943 24.5619 18.3399C24.6317 18.3498 24.7014 18.3596 24.7733 18.3698C24.909 18.3888 25.0448 18.4069 25.1807 18.424C25.5342 18.4727 25.8047 18.5251 26.0939 18.7504C26.2833 19.0345 26.2955 19.1666 26.2462 19.4971C26.0832 19.9163 25.6676 20.1399 25.3127 20.391C25.119 20.5304 24.9258 20.6704 24.733 20.811C24.6004 20.9073 24.4671 21.0027 24.3333 21.0972C23.8709 21.4103 23.8709 21.4103 23.5939 21.8754C23.6577 22.3736 23.9264 22.687 24.2385 23.0668C24.3374 23.1903 24.4362 23.314 24.5348 23.4379C24.5857 23.5016 24.6366 23.5654 24.689 23.631C24.9928 24.0182 25.2806 24.4172 25.5699 24.8152C25.9679 25.4287 25.9679 25.4287 26.5187 25.8646C27.0918 25.8506 27.5802 25.3385 28.008 25.0052C29.3134 23.9939 29.3134 23.9939 29.8339 24.0247C30.0594 24.0764 30.2038 24.173 30.3328 24.3662C30.4673 24.7497 30.3715 25.1548 30.3127 25.5472C30.2825 25.7561 30.2525 25.965 30.2225 26.1739C30.2017 26.3164 30.1801 26.4588 30.1578 26.601C30.0231 27.3037 30.0231 27.3037 30.1623 27.979C30.3789 28.1898 30.5686 28.2012 30.865 28.249C30.9201 28.2581 30.9751 28.2673 31.0318 28.2768C31.2086 28.3059 31.3856 28.3329 31.5627 28.3597C31.678 28.3779 31.7933 28.3962 31.9087 28.4145C32.1996 28.4599 32.4908 28.5027 32.7823 28.5443C32.9608 28.5699 33.1391 28.5964 33.3174 28.6229C33.9076 28.7088 34.4803 28.7724 35.0783 28.7504C34.8699 29.1616 34.5522 29.4595 34.2287 29.7806C34.1694 29.8396 34.1101 29.8986 34.0491 29.9594C33.4379 30.5589 32.7865 31.0552 32.0803 31.5384C31.5023 31.9449 31.1561 32.33 30.8351 32.9593C30.7955 33.0367 30.7955 33.0367 30.7551 33.1156C30.4382 33.7704 30.3687 34.4037 30.3694 35.1246C30.3679 35.2825 30.3662 35.4404 30.3646 35.5983C30.3628 35.844 30.3615 36.0896 30.361 36.3353C30.3603 36.5746 30.3577 36.8139 30.3548 37.0533C30.3552 37.1256 30.3556 37.198 30.356 37.2726C30.3465 37.9108 30.1919 38.4928 29.756 38.975C29.0192 39.63 28.1461 39.578 27.2191 39.5731C27.0783 39.5733 26.9374 39.5736 26.7966 39.574C26.5026 39.5745 26.2087 39.5738 25.9147 39.5723C25.5394 39.5706 25.1642 39.5716 24.7889 39.5735C24.4985 39.5746 24.2081 39.5742 23.9176 39.5734C23.7793 39.5732 23.641 39.5735 23.5027 39.5742C22.5808 39.578 21.8425 39.5323 21.1333 38.884C20.7792 38.4812 20.6173 37.9925 20.6129 37.4624C20.6121 37.3935 20.6112 37.3246 20.6104 37.2536C20.6099 37.1795 20.6093 37.1055 20.6087 37.0292C20.6065 36.8707 20.6043 36.7122 20.602 36.5537C20.5988 36.3052 20.5959 36.0566 20.5938 35.8081C20.6023 34.2577 20.6023 34.2577 20.0832 32.8177C20.0454 32.751 20.0077 32.6842 19.9687 32.6154C19.7144 32.2217 19.4327 31.9343 19.0578 31.6556C19.0131 31.6218 18.9685 31.588 18.9225 31.5531C18.6422 31.3416 18.3575 31.1367 18.0715 30.933C17.6446 30.6241 17.2571 30.2847 16.8752 29.9222C16.8051 29.8563 16.735 29.7903 16.6628 29.7223C14.5131 27.6421 13.1222 24.5838 13.0483 21.5792C13.0222 17.8867 14.2177 14.6526 16.827 11.9988C17.135 11.6977 17.4699 11.4327 17.8127 11.1722C17.8643 11.131 17.916 11.0899 17.9692 11.0474C19.9939 9.46236 22.5914 8.56836 25.1564 8.58922ZM18.672 14.2191C18.6296 14.2594 18.5871 14.2997 18.5434 14.3412C16.9492 15.8882 15.9814 18.1868 15.9114 20.3989C15.9091 20.5948 15.9081 20.7908 15.9084 20.9867C15.9084 21.038 15.9085 21.0893 15.9085 21.1422C15.9118 22.0001 15.9905 22.7776 16.2502 23.5941C16.2673 23.6503 16.2845 23.7065 16.3022 23.7644C17.0662 26.2301 18.7398 28.2202 21.0002 29.4413C21.3366 29.6175 21.681 29.7747 22.0265 29.932C22.5257 30.1601 22.953 30.4069 23.3595 30.7816C23.408 30.8239 23.4564 30.8662 23.5063 30.9098C24.3915 31.7281 24.6596 32.8325 24.8439 33.9847C25.2564 33.9847 25.6689 33.9847 26.0939 33.9847C26.1665 32.6422 25.6138 31.2536 24.7475 30.2253C24.0271 29.4587 23.1788 29.0038 22.2365 28.5648C20.163 27.5933 18.5639 26.0499 17.7443 23.8822C16.9632 21.6969 17.1203 19.3669 18.076 17.2648C18.7787 15.9032 19.7795 14.872 21.0158 13.9847C20.7064 13.4433 20.7064 13.4433 20.3908 12.891C19.8676 12.891 19.0386 13.8693 18.672 14.2191ZM24.8439 35.391C24.8439 36.0613 24.8439 36.7316 24.8439 37.4222C25.2564 37.4222 25.6689 37.4222 26.0939 37.4222C26.0939 36.7519 26.0939 36.0816 26.0939 35.391C25.6814 35.391 25.2689 35.391 24.8439 35.391Z" fill="#147DC0"/>
<path d="M34.2969 6.5625C35.6891 6.75586 35.6891 6.75586 37.1094 6.95312C37.0514 7.36643 37.0514 7.36643 36.9922 7.78809C36.7565 9.17864 36.7565 9.17864 37.1875 10.4688C37.5813 10.9148 38.0155 11.1887 38.6056 11.2744C39.479 11.3235 40.1323 10.8139 40.7812 10.293C40.9259 10.1783 41.0707 10.064 41.2158 9.94995C41.2788 9.89957 41.3417 9.84919 41.4066 9.79729C41.5625 9.6875 41.5625 9.6875 41.7187 9.6875C41.8294 9.81384 41.8294 9.81384 41.9568 9.99023C42.0035 10.0544 42.0502 10.1185 42.0984 10.1846C42.1471 10.2526 42.1959 10.3206 42.2461 10.3906C42.3417 10.5225 42.4373 10.6543 42.533 10.7861C42.5793 10.8509 42.6257 10.9156 42.6735 10.9824C42.7647 11.1067 42.8585 11.2291 42.9552 11.3492C42.9987 11.4035 43.0423 11.4577 43.0872 11.5137C43.1265 11.561 43.1658 11.6083 43.2062 11.6571C43.2812 11.7969 43.2812 11.7969 43.2765 11.9527C43.175 12.1693 43.0405 12.2593 42.8476 12.3996C42.7752 12.4532 42.7029 12.5069 42.6283 12.5621C42.5521 12.6173 42.476 12.6726 42.3975 12.7295C42.2477 12.8388 42.0982 12.9485 41.9492 13.0588C41.8826 13.1071 41.816 13.1554 41.7473 13.2052C41.2671 13.6057 40.9919 14.1253 40.9323 14.7519C40.9481 15.268 41.1492 15.7838 41.4844 16.1719C42.0404 16.6933 42.7133 16.7749 43.4375 16.875C43.5445 16.8903 43.6515 16.9055 43.7585 16.9208C43.9483 16.9475 44.1382 16.9733 44.3283 16.9977C44.5312 17.0312 44.5312 17.0312 44.6094 17.1094C44.6035 18.025 44.4342 18.9409 44.2969 19.8438C43.9049 19.8506 43.5466 19.8328 43.1592 19.7656C41.918 19.5784 41.918 19.5784 40.7812 20C40.7406 20.0422 40.6999 20.0844 40.658 20.1279C40.5469 20.2344 40.5469 20.2344 40.3906 20.2344C40.3378 20.3643 40.286 20.4946 40.2344 20.625C40.2034 20.6945 40.2034 20.6945 40.1718 20.7654C39.9469 21.2983 39.912 21.7652 40.1181 22.312C40.3206 22.8005 40.63 23.1921 40.957 23.6035C41.0152 23.6782 41.0734 23.753 41.1334 23.83C41.2756 24.0123 41.4187 24.1939 41.5625 24.375C41.2266 24.7319 40.8522 25.0245 40.4639 25.3223C40.4012 25.3707 40.3385 25.4191 40.2739 25.4691C40.1048 25.5996 39.9355 25.7298 39.7656 25.8594C39.7138 25.9048 39.662 25.9502 39.6086 25.997C39.4531 26.0938 39.4531 26.0937 39.2955 26.0916C39.0821 25.9869 38.9899 25.8519 38.8504 25.6601C38.7968 25.5877 38.7431 25.5154 38.6879 25.4408C38.6327 25.3646 38.5774 25.2885 38.5205 25.21C38.4112 25.0602 38.3015 24.9107 38.1912 24.7617C38.1429 24.6951 38.0946 24.6285 38.0448 24.5598C37.6853 24.1288 37.2472 23.8471 36.6894 23.7646C36.0751 23.7163 35.5507 23.9016 35.0781 24.2969C34.5478 24.838 34.4741 25.5327 34.375 26.25C34.3597 26.357 34.3445 26.464 34.3292 26.571C34.3025 26.7608 34.2767 26.9507 34.2523 27.1408C34.2187 27.3438 34.2187 27.3438 34.1406 27.4219C33.4795 27.4176 32.8172 27.3203 32.1631 27.2314C32.0532 27.2171 32.0532 27.2171 31.9411 27.2025C31.8729 27.1928 31.8046 27.1831 31.7343 27.1732C31.6729 27.1647 31.6116 27.1561 31.5484 27.1474C31.5015 27.1348 31.4546 27.1223 31.4062 27.1094C31.3081 26.9131 31.336 26.8294 31.3718 26.6147C31.3826 26.5463 31.3935 26.478 31.4047 26.4075C31.4165 26.3346 31.4283 26.2617 31.4404 26.1865C31.6707 24.8459 31.6707 24.8459 31.25 23.5938C31.2078 23.5521 31.1656 23.5104 31.1221 23.4674C31.0156 23.3594 31.0156 23.3594 31.0156 23.2031C30.8857 23.1503 30.7554 23.0985 30.625 23.0469C30.5569 23.0159 30.5569 23.0159 30.4874 22.9843C30.0255 22.7867 29.5552 22.7025 29.0678 22.8618C28.5322 23.0768 28.1018 23.4147 27.6514 23.7695C27.5763 23.8277 27.5012 23.8859 27.4239 23.9459C27.2404 24.0883 27.0575 24.2313 26.875 24.375C26.5181 24.0391 26.2255 23.6647 25.9277 23.2764C25.8793 23.2137 25.8308 23.151 25.7809 23.0864C25.6504 22.9173 25.5202 22.748 25.3906 22.5781C25.3225 22.5004 25.3225 22.5004 25.253 22.4211C25.1562 22.2656 25.1562 22.2656 25.1631 22.1048C25.2519 21.9158 25.3481 21.8377 25.516 21.7142C25.5736 21.6711 25.6312 21.6281 25.6905 21.5837C25.751 21.5396 25.8116 21.4956 25.874 21.4502C26.9778 20.6646 26.9778 20.6646 27.4951 19.4434C27.5048 18.8451 27.3406 18.3528 26.9531 17.8906C26.233 17.1986 25.1409 17.1863 24.1977 17.0648C23.9844 17.0312 23.9844 17.0312 23.8281 16.9531C23.804 16.3568 23.8958 15.784 23.9844 15.1953C24.0067 15.043 24.0067 15.043 24.0295 14.8877C24.0662 14.6386 24.1032 14.3896 24.1406 14.1406C24.1897 14.1477 24.2388 14.1548 24.2895 14.1621C26.0774 14.515 26.0774 14.515 27.7344 13.9844C28.1489 13.6226 28.3904 13.185 28.4595 12.6385C28.4869 11.9736 28.2231 11.4635 27.832 10.9424C27.7978 10.8955 27.7636 10.8487 27.7283 10.8004C27.483 10.4664 27.2292 10.1393 26.9672 9.81812C26.875 9.6875 26.875 9.6875 26.875 9.53125C27.0001 9.42179 27.0001 9.42179 27.175 9.29596C27.2388 9.24958 27.3026 9.20321 27.3683 9.15543C27.4359 9.10704 27.5036 9.05865 27.5732 9.00879C27.7042 8.91418 27.8351 8.81947 27.966 8.72467C28.0307 8.6778 28.0955 8.63094 28.1622 8.58265C28.4671 8.35817 28.7652 8.12515 29.0625 7.89062C29.4707 8.272 29.7882 8.71432 30.1154 9.1655C30.5131 9.69357 30.999 10.1613 31.6748 10.2783C32.2289 10.3551 32.6544 10.1962 33.1445 9.95117C33.8241 9.36424 33.9449 8.66104 34.0625 7.8125C34.0777 7.7064 34.093 7.6003 34.1083 7.4942C34.135 7.30605 34.1607 7.11777 34.1852 6.92932C34.2187 6.71875 34.2187 6.71875 34.2969 6.5625ZM31.0937 14.375C30.3107 15.3229 30.0491 16.451 30.1562 17.6562C30.3688 18.7269 30.8988 19.6486 31.7715 20.3162C32.8033 20.9991 33.8969 21.2742 35.1239 21.0403C36.1773 20.7388 37.1212 20.1198 37.7072 19.1797C38.2718 18.1324 38.488 17.0233 38.1494 15.8643C37.7772 14.8147 37.1498 13.9928 36.1719 13.4375C36.1187 13.4071 36.0655 13.3767 36.0107 13.3453C35.4366 13.0381 34.8729 12.9395 34.2285 12.9443C34.1667 12.9448 34.1048 12.9452 34.0411 12.9457C32.8649 12.9701 31.8953 13.5283 31.0937 14.375Z" fill="#147DC0"/>
<path d="M12.5 22.7344C12.5773 22.773 12.5773 22.773 12.6562 22.8125C12.7161 23.044 12.7669 23.2715 12.8125 23.5059C12.8261 23.573 12.8396 23.6402 12.8536 23.7094C12.9502 24.1905 13.0424 24.6725 13.125 25.1562C13.0513 25.1781 12.9776 25.2 12.9016 25.2225C11.6587 25.6044 10.6859 26.1456 10.0488 27.3291C9.49986 28.5185 9.49239 29.6412 9.92188 30.8594C10.0548 31.1399 10.2082 31.3899 10.3906 31.6406C10.4259 31.6901 10.4611 31.7395 10.4974 31.7905C11.1009 32.5627 12.0783 33.0841 13.0469 33.2031C14.2905 33.2872 15.3993 32.9861 16.3574 32.1631C16.6954 31.8425 16.9538 31.4956 17.1875 31.0937C17.4334 31.1411 17.589 31.2196 17.7875 31.3708C17.8674 31.4313 17.8674 31.4313 17.9489 31.4929C18.0038 31.5352 18.0587 31.5775 18.1152 31.6211C18.1695 31.6622 18.2238 31.7033 18.2797 31.7456C18.4375 31.8656 18.5939 31.9872 18.75 32.1094C18.7941 32.1433 18.8382 32.1772 18.8836 32.2121C19.1497 32.423 19.3363 32.6379 19.5166 32.9248C19.5622 32.9956 19.6078 33.0664 19.6548 33.1393C19.7776 33.3833 19.8287 33.5553 19.8438 33.8281C19.7235 34.0104 19.7235 34.0104 19.5438 34.1815C19.4801 34.2435 19.4164 34.3054 19.3507 34.3692C19.283 34.4323 19.2153 34.4955 19.1455 34.5605C19.0781 34.6255 19.0107 34.6905 18.9412 34.7574C18.7745 34.9177 18.6066 35.0766 18.4375 35.2344C18.184 35.14 17.969 35.0376 17.749 34.8804C17.6956 34.8428 17.6423 34.8052 17.5873 34.7665C17.477 34.6878 17.3667 34.6091 17.2565 34.5303C16.7942 34.205 16.4439 34.0031 15.8594 34.0625C15.4412 34.1933 15.2066 34.3524 14.9942 34.7486C14.847 35.1012 14.7844 35.4759 14.7119 35.8496C14.6793 36.0122 14.6464 36.1748 14.6133 36.3373C14.5994 36.4087 14.5854 36.4801 14.571 36.5536C14.5312 36.7187 14.5312 36.7187 14.4531 36.7969C14.3254 36.8037 14.1974 36.8052 14.0695 36.8045C13.9922 36.8043 13.9149 36.804 13.8353 36.8037C13.754 36.8031 13.6727 36.8024 13.5889 36.8018C13.5072 36.8014 13.4256 36.8011 13.3415 36.8007C13.1391 36.7998 12.9368 36.7985 12.7344 36.7969C12.7222 36.7378 12.7101 36.6787 12.6975 36.6178C12.6413 36.3484 12.5829 36.0795 12.5244 35.8105C12.5053 35.7176 12.4862 35.6246 12.4666 35.5289C12.3538 35.0178 12.2662 34.655 11.875 34.2969C11.4409 34.0381 11.1033 34.0287 10.625 34.1406C10.394 34.2439 10.1896 34.3749 9.98047 34.5166C9.92729 34.5509 9.87412 34.5852 9.81934 34.6205C9.52802 34.8105 9.25209 35.0118 8.98438 35.2344C8.74662 35.1282 8.58413 35.009 8.4021 34.8236C8.35376 34.7748 8.30542 34.7259 8.25562 34.6756C8.20607 34.6247 8.15652 34.5739 8.10547 34.5215C8.05471 34.47 8.00396 34.4186 7.95166 34.3655C7.82679 34.2388 7.7023 34.1118 7.57812 33.9844C7.83094 33.501 8.1173 33.0545 8.43473 32.6118C8.70973 32.2249 8.78906 31.9609 8.75 31.4844C8.60398 31.059 8.41595 30.8088 8.04688 30.5469C7.81514 30.4632 7.81514 30.4632 7.56439 30.4138C7.47401 30.3937 7.38362 30.3735 7.2905 30.3528C7.15008 30.3232 7.15008 30.3232 7.00684 30.293C6.91172 30.272 6.8166 30.2511 6.7186 30.2295C6.48448 30.1781 6.25008 30.128 6.01562 30.0781C6.01562 29.5109 6.01562 28.9437 6.01562 28.3594C6.14614 28.3271 6.27666 28.2949 6.41113 28.2617C6.49593 28.2403 6.58073 28.2188 6.66809 28.1967C6.86605 28.1469 7.06407 28.0984 7.26257 28.0508C7.36614 28.0251 7.4697 27.9994 7.57324 27.9736C7.7169 27.9387 7.7169 27.9387 7.86346 27.9031C8.25447 27.7676 8.45905 27.6034 8.65723 27.2412C8.79189 26.8231 8.81861 26.5131 8.61969 26.1179C8.4369 25.7645 8.21731 25.4418 7.98828 25.1172C7.9487 25.0604 7.90912 25.0036 7.86835 24.9451C7.77197 24.8069 7.6751 24.669 7.57812 24.5312C7.86167 24.1931 8.15232 23.8698 8.4668 23.5596C8.56922 23.4582 8.56922 23.4582 8.67371 23.3548C8.72466 23.3047 8.77562 23.2547 8.82812 23.2031C9.21764 23.3307 9.52307 23.5589 9.85352 23.7939C9.96421 23.8724 10.0751 23.9507 10.1862 24.0286C10.2348 24.0632 10.2835 24.0978 10.3336 24.1335C10.6871 24.3565 11.0818 24.3391 11.4844 24.2969C11.7679 24.2129 11.9574 24.0889 12.1286 23.8464C12.319 23.4921 12.4161 23.126 12.5 22.7344Z" fill="#147DC0"/>
<path d="M22.6562 42.8906C24.5124 42.8906 26.3687 42.8906 28.2812 42.8906C28.2812 44.2052 28.2812 44.2052 27.915 44.5926C27.6069 44.8641 27.4054 45.0089 26.9891 45.0138C26.8788 45.0153 26.8788 45.0153 26.7662 45.0169C26.6865 45.0174 26.6067 45.018 26.5246 45.0186C26.4427 45.0192 26.3608 45.0199 26.2764 45.0205C26.1027 45.0216 25.9291 45.0224 25.7555 45.0231C25.4904 45.0244 25.2253 45.0278 24.9602 45.0313C24.7916 45.0321 24.6229 45.0327 24.4543 45.0333C24.3751 45.0346 24.296 45.036 24.2145 45.0374C23.7458 45.036 23.4832 44.9969 23.1249 44.6875C22.5984 44.1464 22.6562 43.6397 22.6562 42.8906Z" fill="#147DC0"/>
<path d="M7.26562 8.67188C7.62207 8.84215 7.93675 9.06392 8.26172 9.28711C8.32788 9.33243 8.39405 9.37775 8.46222 9.42444C8.9298 9.74691 9.38555 10.0821 9.83706 10.4266C10.3125 10.7869 10.8035 11.1229 11.2984 11.456C11.6051 11.6629 11.9029 11.8721 12.1875 12.1094C12.0608 12.3895 11.8912 12.6242 11.709 12.8711C11.6524 12.948 11.5958 13.025 11.5375 13.1042C11.4942 13.1627 11.4509 13.2211 11.4062 13.2812C11.173 13.2344 11.0149 13.1647 10.8221 13.0261C10.7705 12.9893 10.7188 12.9525 10.6656 12.9146C10.6103 12.8744 10.555 12.8343 10.498 12.793C10.4397 12.7512 10.3814 12.7095 10.3214 12.6665C10.1357 12.5334 9.95063 12.3996 9.76562 12.2656C9.64783 12.1806 9.53004 12.0955 9.41223 12.0105C9.2372 11.8841 9.06221 11.7576 8.88735 11.6309C8.36982 11.2563 7.84832 10.8875 7.32574 10.52C7.04428 10.322 6.76418 10.1222 6.48438 9.92188C6.59703 9.59754 6.75789 9.35158 6.96289 9.07715C7.01949 9.00091 7.07609 8.92468 7.1344 8.84613C7.19936 8.75987 7.19936 8.75987 7.26562 8.67188Z" fill="#147DC0"/>
<path d="M13.8281 4.99979C14.0018 5.66519 14.1751 6.33073 14.3476 6.99643C14.4278 7.30555 14.5081 7.61462 14.5888 7.92359C14.6667 8.22184 14.7442 8.52021 14.8213 8.81867C14.8508 8.93243 14.8805 9.04615 14.9103 9.15983C14.9521 9.31923 14.9933 9.47878 15.0343 9.63837C15.0579 9.7291 15.0815 9.81984 15.1058 9.91332C15.1516 10.1334 15.1667 10.3229 15.1563 10.5467C14.9806 10.5993 14.8048 10.6512 14.6289 10.7029C14.531 10.7319 14.4331 10.7609 14.3323 10.7908C14.0625 10.8592 14.0625 10.8592 13.75 10.8592C13.5629 10.1491 13.3767 9.4388 13.1918 8.72815C13.106 8.39821 13.0198 8.06836 12.9328 7.73871C12.8489 7.4208 12.7659 7.10267 12.6836 6.78436C12.6519 6.66273 12.62 6.54119 12.5877 6.41973C12.5426 6.25008 12.4987 6.08018 12.4551 5.91017C12.4298 5.81337 12.4044 5.71656 12.3783 5.61682C12.3669 5.54211 12.3555 5.4674 12.3438 5.39042C12.54 5.19414 12.6858 5.17271 12.9541 5.10721C13.0352 5.08687 13.1162 5.06653 13.1998 5.04557C13.4177 5.0036 13.6073 4.99629 13.8281 4.99979Z" fill="#147DC0"/>
<path d="M10.9374 15.4688C10.9898 15.6591 11.0419 15.8495 11.0936 16.04C11.1086 16.094 11.1235 16.1479 11.1388 16.2035C11.2012 16.4342 11.2499 16.6348 11.2499 16.875C10.5744 17.0505 9.89871 17.2251 9.22271 17.3985C8.90881 17.4791 8.59499 17.56 8.28136 17.6416C7.97862 17.7203 7.67569 17.7982 7.3726 17.8756C7.25706 17.9053 7.1416 17.9352 7.02621 17.9654C6.86445 18.0078 6.70246 18.049 6.54037 18.0901C6.44825 18.1138 6.35613 18.1376 6.26122 18.1621C6.0178 18.2027 5.86026 18.1918 5.6249 18.125C5.58526 17.977 5.54633 17.8289 5.50771 17.6807C5.48596 17.5982 5.46421 17.5157 5.44179 17.4307C5.39503 17.2089 5.38652 17.022 5.39052 16.7969C6.06749 16.6233 6.74456 16.4501 7.42177 16.2774C7.73621 16.1972 8.05063 16.1168 8.36496 16.0362C8.6683 15.9584 8.97173 15.8809 9.27523 15.8037C9.39101 15.7742 9.50676 15.7445 9.62247 15.7147C9.78454 15.673 9.94671 15.6318 10.1089 15.5907C10.2012 15.5671 10.2935 15.5435 10.3886 15.5192C10.6249 15.4688 10.6249 15.4688 10.9374 15.4688Z" fill="#147DC0"/>
<path d="M22.6562 40.1562C24.5125 40.1562 26.3688 40.1562 28.2812 40.1562C28.2812 40.6461 28.2812 41.1359 28.2812 41.6406C26.425 41.6406 24.5687 41.6406 22.6562 41.6406C22.6562 41.1508 22.6562 40.6609 22.6562 40.1562Z" fill="#147DC0"/>
<path d="M38.2031 34.1406C38.4708 34.26 38.6764 34.4174 38.9014 34.6045C38.977 34.6672 39.0526 34.73 39.1306 34.7946C39.4256 35.0419 39.7193 35.2908 40.0126 35.54C40.3475 35.8241 40.6868 36.1024 41.0275 36.3794C41.3331 36.6309 41.6343 36.8874 41.9345 37.1452C42.1639 37.3433 42.1639 37.3433 42.4219 37.5C42.3844 37.8348 42.1704 38.0289 41.9482 38.2617C41.9113 38.3013 41.8744 38.3409 41.8364 38.3817C41.7456 38.4789 41.6541 38.5754 41.5625 38.6719C41.2948 38.5525 41.0892 38.3951 40.8643 38.208C40.7508 38.1139 40.7508 38.1139 40.6351 38.0179C40.3401 37.7706 40.0464 37.5217 39.753 37.2725C39.4181 36.9884 39.0788 36.7101 38.7381 36.4331C38.4325 36.1816 38.1314 35.9251 37.8311 35.6673C37.6017 35.4692 37.6017 35.4692 37.3438 35.3125C37.471 35.019 37.6573 34.7956 37.8613 34.5508C37.9252 34.4738 37.989 34.3969 38.0548 34.3176C38.1038 34.2592 38.1527 34.2008 38.2031 34.1406Z" fill="#147DC0"/>
<path d="M34.375 36.0156C34.8391 36.0156 35.3031 36.0156 35.7812 36.0156C35.7812 37.6398 35.7812 39.2641 35.7812 40.9375C35.3172 40.9375 34.8531 40.9375 34.375 40.9375C34.375 39.3133 34.375 37.6891 34.375 36.0156Z" fill="#147DC0"/>
<path d="M38.5156 30.5469C40.1141 30.5469 41.7125 30.5469 43.3594 30.5469C43.3594 31.0109 43.3594 31.475 43.3594 31.9531C41.7609 31.9531 40.1625 31.9531 38.5156 31.9531C38.5156 31.4891 38.5156 31.025 38.5156 30.5469Z" fill="#147DC0"/>
<path d="M36.7188 24.9998C36.9092 25.117 36.9092 25.117 37.0312 25.2342C36.9862 25.6672 36.8312 26.0136 36.6455 26.4012C36.6147 26.4658 36.584 26.5305 36.5523 26.5971C35.7622 28.2124 35.7622 28.2124 35.3125 28.4373C35.5227 26.6388 35.5227 26.6388 35.6543 25.8397C35.6694 25.7442 35.6845 25.6487 35.7001 25.5504C35.8721 25.0459 36.2173 24.936 36.7188 24.9998Z" fill="#147DC0"/>
</g>
<defs>
<clipPath id="clip0_865_3173">
<rect width="40" height="40" fill="white" transform="translate(5 5)"/>
</clipPath>
</defs>
</svg>
