<svg width="50" height="50" viewBox="0 0 50 50" fill="none" xmlns="http://www.w3.org/2000/svg">
<path d="M34.9363 41.2493C33.5256 41.2493 31.5441 40.7253 28.5769 39.0228C24.9687 36.9446 22.1778 35.0261 18.5891 31.35C15.129 27.7986 13.4452 25.4994 11.0886 21.0952C8.42634 16.1226 8.88017 13.516 9.38747 12.402C9.99161 11.0705 10.8834 10.2741 12.036 9.48369C12.6907 9.04315 13.3835 8.66551 14.1057 8.35556C14.178 8.32365 14.2452 8.29322 14.3051 8.26576C14.6629 8.10025 15.2049 7.85013 15.8914 8.11732C16.3495 8.29396 16.7586 8.65541 17.3988 9.30482C18.7119 10.6348 20.5063 13.5969 21.1682 15.0516C21.6126 16.032 21.9068 16.6792 21.9075 17.4051C21.9075 18.2549 21.4912 18.9102 20.9861 19.6175C20.8914 19.7504 20.7975 19.8773 20.7064 20.0005C20.1565 20.7427 20.0358 20.9572 20.1153 21.3401C20.2765 22.1098 21.4782 24.4009 23.4533 26.4249C25.4283 28.4488 27.5948 29.6051 28.3471 29.7699C28.7359 29.8553 28.9491 29.7261 29.6948 29.1413C29.8018 29.0574 29.9116 28.9706 30.0265 28.8837C30.7969 28.2952 31.4054 27.8788 32.2133 27.8788H32.2176C32.9208 27.8788 33.5227 28.192 34.52 28.7086C35.8208 29.3825 38.7916 31.2016 40.0946 32.5516C40.7284 33.2077 41.0817 33.6263 41.2544 34.0961C41.5146 34.8034 41.2696 35.3578 41.1099 35.7289C41.0832 35.7905 41.0535 35.8581 41.0225 35.933C40.7183 36.6734 40.3484 37.3834 39.9175 38.0542C39.1493 39.2343 38.371 40.1479 37.0717 40.7691C36.4045 41.0933 35.6743 41.2575 34.9363 41.2493Z" fill="#147DC0"/>
</svg>
