<svg width="50" height="50" viewBox="0 0 50 50" fill="none" xmlns="http://www.w3.org/2000/svg">
<path d="M24.9583 24.2292C23.8256 24.2292 22.7393 23.7792 21.9384 22.9783C21.1375 22.1773 20.6875 21.091 20.6875 19.9583C20.6875 18.8256 21.1375 17.7393 21.9384 16.9384C22.7393 16.1375 23.8256 15.6875 24.9583 15.6875C26.091 15.6875 27.1773 16.1375 27.9783 16.9384C28.7792 17.7393 29.2292 18.8256 29.2292 19.9583C29.2292 20.5192 29.1187 21.0745 28.9041 21.5927C28.6894 22.1109 28.3749 22.5817 27.9783 22.9783C27.5817 23.3749 27.1109 23.6894 26.5927 23.9041C26.0745 24.1187 25.5192 24.2292 24.9583 24.2292ZM24.9583 8C21.7868 8 18.7451 9.25989 16.5025 11.5025C14.2599 13.7451 13 16.7868 13 19.9583C13 28.9271 24.9583 42.1667 24.9583 42.1667C24.9583 42.1667 36.9167 28.9271 36.9167 19.9583C36.9167 16.7868 35.6568 13.7451 33.4142 11.5025C31.1715 9.25989 28.1299 8 24.9583 8Z" fill="#147DC0"/>
</svg>
