<svg width="50" height="50" viewBox="0 0 50 50" fill="none" xmlns="http://www.w3.org/2000/svg">
<path d="M19.486 40.6238C16.4418 39.4781 13.7835 37.4952 11.8176 34.904C9.85171 32.3127 8.6583 29.2185 8.375 25.9782H15.755C15.7269 31.0987 17.0114 36.1409 19.486 40.6238ZM32.307 25.9782C31.9961 35.3143 28.5931 41.7086 25.5198 41.7086C22.4448 41.7086 19.0435 35.3143 18.7309 25.9782H32.307ZM42.6305 25.9782C42.3537 29.2229 41.1608 32.3222 39.1907 34.915C37.2205 37.5079 34.5543 39.4877 31.5024 40.6238C33.9909 36.1456 35.2818 31.1012 35.2505 25.9782H42.6305ZM42.6305 23.0194H35.2505C35.2847 17.8944 33.9949 12.8514 31.5024 8.37385C34.5554 9.50815 37.2228 11.4874 39.1932 14.0807C41.1636 16.6739 42.3558 19.7741 42.6305 23.0194ZM32.307 23.0194H18.7309C19.0435 13.6663 22.4448 7.28906 25.5198 7.28906C28.5931 7.28906 31.979 13.6663 32.307 23.0194ZM19.486 8.45756C17.0088 12.9388 15.7241 17.9812 15.755 23.1014H8.375C8.65264 19.8596 9.84393 16.763 11.8106 14.171C13.7773 11.579 16.4387 9.59788 19.486 8.45756Z" fill="#147DC0"/>
</svg>
